<svg width="186" height="53" viewBox="0 0 186 53" fill="none" xmlns="http://www.w3.org/2000/svg">
<g clip-path="url(#clip0_4_3743)">
<mask id="mask0_4_3743" style="mask-type:luminance" maskUnits="userSpaceOnUse" x="63" y="0" width="46" height="53">
<path d="M109 0H63V53H109V0Z" fill="white"/>
</mask>
<g mask="url(#mask0_4_3743)">
<path d="M60 39.3297C60.2097 39.3427 60.2007 39.1988 60.2007 39.0559C60.2007 38.5082 60.2007 37.9565 60.2007 37.3688H62.6088V36.1465H69.5481V37.5547C69.6996 37.5657 69.81 37.5797 69.9194 37.5797C71.4104 37.5797 72.9018 37.5797 74.3934 37.5797C74.556 37.5797 74.7356 37.6277 74.7998 37.3798C74.8169 37.3149 74.9704 37.2799 75.0657 37.2419C77.3384 36.2915 79.61 35.337 81.8887 34.4005C82.0065 34.3693 82.1089 34.2963 82.1767 34.1954C82.2444 34.0944 82.273 33.9723 82.2569 33.8518C82.2475 26.8938 82.2452 19.9357 82.2499 12.9777V12.5089L82.9201 12.4609V7.36383L83.0295 7.41081C83.1648 7.27474 83.2806 7.1207 83.3737 6.95306C84.2165 4.75431 85.0463 2.55555 85.8821 0.356798C85.9182 0.262851 85.9574 0.169904 86.0266 0C86.0938 0.152913 86.14 0.245861 86.1761 0.341807C87.0139 2.55355 87.8477 4.7663 88.6946 6.97405C88.7811 7.13183 88.8884 7.27737 89.0136 7.40681L89.128 7.35584V12.4649L89.8053 12.5069V12.9637C89.8053 19.9104 89.8026 26.8571 89.7973 33.8039C89.7785 33.9403 89.8109 34.0789 89.8883 34.193C89.9657 34.3072 90.0826 34.3889 90.2167 34.4225C92.5174 35.364 94.8091 36.3304 97.1049 37.2849C97.2388 37.3478 97.3835 37.3848 97.5313 37.3938C99.1829 37.4008 100.835 37.3938 102.487 37.3938C102.54 37.3887 102.592 37.3807 102.644 37.3698V35.9507H109.567V37.163H112V51.7707H97.3256V53H74.8961V51.7807H74.4145C69.7689 51.7807 65.1229 51.7807 60.4766 51.7807C60.3181 51.7807 60.1585 51.7567 60 51.7437V39.3297ZM84.2606 19.6219V33.4021C84.5726 33.2943 84.877 33.1657 85.1717 33.0173C85.4225 32.8495 85.7177 32.7595 86.0198 32.7586C86.322 32.7577 86.6176 32.846 86.8694 33.0123C87.163 33.161 87.4672 33.288 87.7795 33.3921V19.6349C87.5632 19.8905 87.2932 20.0957 86.9886 20.2361C86.684 20.3765 86.3521 20.4486 86.0165 20.4473C85.6809 20.4461 85.3496 20.3715 85.0461 20.2289C84.7425 20.0863 84.4741 19.8791 84.2596 19.6219M77.1949 37.2619L77.2149 37.3209H94.9446C94.8252 37.2569 94.779 37.2269 94.7299 37.2059C91.897 36.0226 89.0631 34.8426 86.2283 33.6659C86.07 33.6198 85.9004 33.6311 85.7497 33.6979C83.1349 34.7786 80.5227 35.8657 77.9133 36.9591C77.6745 37.059 77.4357 37.159 77.1969 37.2589M88.223 15.8111V33.0523C88.223 33.647 88.3043 33.7349 88.9404 33.8269V15.2174H83.1058V33.8329C83.7971 33.7049 83.8262 33.6719 83.8262 33.0403C83.8262 27.4435 83.8262 21.8466 83.8262 16.2498V15.814L88.223 15.8111ZM111.192 50.9232C111.192 50.3725 111.177 49.8388 111.198 49.3061C111.209 49.0223 111.121 48.9403 110.834 48.9403C106.443 48.949 102.051 48.9516 97.6587 48.9483C97.5506 48.9544 97.443 48.9677 97.3367 48.9883V50.9232H111.192ZM74.7386 48.9723H60.894V50.9182H74.7406L74.7386 48.9723ZM87.042 52.1855V51.7477C87.042 48.5045 87.0229 45.2624 87.0561 42.0192C87.0382 41.3021 86.8913 40.5939 86.6226 39.9284C86.5959 39.8793 86.5584 39.8369 86.5128 39.8043C86.4673 39.7718 86.4149 39.75 86.3597 39.7405C86.12 39.7196 85.879 39.7196 85.6393 39.7405C85.563 39.7405 85.4386 39.7995 85.4256 39.8554C85.216 40.3712 85.0757 40.9122 85.0082 41.4645C84.971 44.9126 84.9891 48.3606 84.9901 51.8087C84.9901 51.9296 85.0001 52.0505 85.0072 52.1875L87.042 52.1855ZM108.736 36.7942H103.474V38.2464H97.3467V39.3028H111.135V37.9925H108.736V36.7942ZM70.6478 48.1078C70.6549 47.9948 70.6639 47.9169 70.6639 47.8399C70.6639 45.5322 70.6639 43.2245 70.6589 40.9158C70.6522 40.7229 70.6047 40.5335 70.5194 40.3602C70.4895 40.307 70.4479 40.2614 70.3976 40.2268C70.3474 40.1921 70.2898 40.1694 70.2294 40.1603C69.5762 40.1423 68.925 40.1453 68.2678 40.1603C68.2159 40.1622 68.1651 40.1762 68.1195 40.201C68.0739 40.2258 68.0347 40.2607 68.0049 40.3032C67.8878 40.5734 67.8146 40.8605 67.7882 41.1537C67.7712 43.3585 67.7782 45.5642 67.7782 47.769V48.1108L70.6478 48.1078ZM107.686 48.0998V47.673C107.686 45.6971 107.673 43.7213 107.696 41.7454C107.699 41.2668 107.597 40.7934 107.395 40.3592C107.364 40.3058 107.322 40.26 107.272 40.2254C107.221 40.1907 107.163 40.1681 107.103 40.1593C106.553 40.1393 105.999 40.1453 105.452 40.1593C105.364 40.1593 105.217 40.2072 105.198 40.2662C105.009 40.6905 104.881 41.1399 104.821 41.6005C104.781 43.6443 104.804 45.6891 104.804 47.733V48.1028L107.686 48.0998ZM61.0475 39.2928H74.865V38.4073H68.7294C68.7294 38.0145 68.7113 37.6717 68.7344 37.3319C68.7545 37.042 68.6792 36.9321 68.3611 36.9401C66.848 36.9571 65.334 36.9471 63.8199 36.9491C63.7095 36.9491 63.5991 36.9621 63.4536 36.9711V38.1934H61.0475V39.2928ZM91.1268 52.1785V51.7557C91.1268 48.3866 91.1177 45.0175 91.1358 41.6494C91.1372 41.0793 91.038 40.5133 90.8428 39.9774C90.8358 39.9361 90.8206 39.8967 90.798 39.8614C90.7754 39.8262 90.7459 39.7959 90.7112 39.7723C90.6765 39.7486 90.6374 39.7323 90.5963 39.724C90.5551 39.7158 90.5127 39.716 90.4715 39.7245C90.3351 39.7375 90.1946 39.7135 90.0602 39.7325C89.9829 39.7435 89.8595 39.7935 89.8484 39.8494C89.6328 40.399 89.4882 40.9736 89.418 41.5595C89.3779 44.9576 89.3979 48.3656 89.3979 51.7687V52.1775L91.1268 52.1785ZM80.9585 52.1995C81.4141 52.1995 81.8255 52.1795 82.2328 52.2065C82.5529 52.2274 82.6342 52.1195 82.6342 51.8067C82.6231 48.5285 82.6091 45.2494 82.6412 41.9712C82.6153 41.2655 82.469 40.5693 82.2087 39.9124C82.1859 39.8666 82.1523 39.827 82.1107 39.797C82.0691 39.7671 82.0208 39.7477 81.9699 39.7405C81.7793 39.7405 81.4552 39.7525 81.4221 39.8404C81.1857 40.3582 81.0356 40.9107 80.9776 41.4765C80.9385 44.9146 80.9575 48.3536 80.9575 51.7917V52.1965M72.4429 48.0988H74.7396V40.1463H73.1121C72.6195 40.1463 72.5282 40.2212 72.4539 40.708C72.4428 40.8102 72.4395 40.9131 72.4439 41.0158C72.4439 43.2425 72.4439 45.4693 72.4439 47.696L72.4429 48.0988ZM94.9386 52.1835V51.7407C94.9386 48.5085 94.9205 45.2764 94.9516 42.0462C94.9076 41.3071 94.7422 40.5802 94.462 39.8944C94.4352 39.8506 94.3985 39.8138 94.3547 39.7869C94.3109 39.7599 94.2614 39.7437 94.2101 39.7395C94.0907 39.7395 93.883 39.7735 93.861 39.8395C93.6783 40.2681 93.5606 40.7215 93.5118 41.1847C93.4837 44.7247 93.4957 48.2647 93.4967 51.8057C93.4967 51.9266 93.5088 52.0475 93.5158 52.1825L94.9386 52.1835ZM65.9641 48.1018C65.9789 48.0723 65.99 48.041 65.9972 48.0088C65.9972 45.6592 66.0122 43.3115 65.9972 40.9598C65.9972 40.3312 65.7544 40.1473 65.1252 40.1473C64.8844 40.1473 64.6426 40.1333 64.4048 40.1543C64.3115 40.1623 64.169 40.2302 64.1449 40.3022C64.0293 40.5846 63.9573 40.8828 63.9312 41.1867C63.9142 43.3655 63.9222 45.5442 63.9222 47.723V48.1018H65.9641ZM103.009 48.1018C103.018 48.0078 103.027 47.9519 103.027 47.8959C103.027 45.7491 103.047 43.5983 103.011 41.4555C102.954 41.0382 102.829 40.633 102.641 40.2562C102.574 40.0823 101.396 40.0803 101.336 40.2562C101.146 40.6678 101.021 41.106 100.964 41.5555C100.925 43.6213 100.947 45.6891 100.948 47.752C100.948 47.8619 100.96 47.9718 100.967 48.0958L103.009 48.1018ZM78.5916 52.1825V51.7347C78.5916 48.4116 78.5785 45.0875 78.6026 41.7644C78.555 41.1163 78.4061 40.4797 78.1611 39.8774C78.1374 39.8377 78.1046 39.8041 78.0653 39.7795C78.0261 39.7548 77.9816 39.7397 77.9354 39.7355C77.8551 39.7355 77.7136 39.7915 77.6956 39.8524C77.4837 40.3676 77.3423 40.9088 77.2751 41.4615C77.237 44.9106 77.2561 48.3576 77.2571 51.8087C77.2571 51.9286 77.2711 52.0485 77.2802 52.1795L78.5916 52.1825ZM75.736 38.878H96.4587V38.2464C96.0774 38.2204 95.7152 38.1744 95.355 38.1744C89.2304 38.1697 83.1058 38.1697 76.9811 38.1744C76.8665 38.1685 76.7516 38.1685 76.637 38.1744C76.5629 38.1867 76.4911 38.2103 76.4243 38.2444C76.3107 38.3057 76.1934 38.3602 76.0731 38.4073C75.9627 38.4289 75.8504 38.4389 75.738 38.4372L75.736 38.878ZM99.1738 48.0998V47.688C99.1738 45.7021 99.1598 43.7163 99.1839 41.7314C99.1435 41.2327 99.0159 40.745 98.8066 40.2902C98.7913 40.2562 98.7682 40.2264 98.739 40.2031C98.7099 40.1798 98.6756 40.1638 98.639 40.1563C98.2086 40.1453 97.7771 40.1503 97.3346 40.1503V48.1008L99.1738 48.0998ZM111.162 48.0998V40.1473C110.756 40.1473 110.379 40.1413 110.001 40.1523C109.926 40.1523 109.801 40.2102 109.787 40.2682C109.63 40.6326 109.527 41.0172 109.479 41.4106C109.448 43.5224 109.464 45.6342 109.465 47.747C109.465 47.8579 109.477 47.9688 109.484 48.0978L111.162 48.0998ZM60.889 40.1473V48.0908H62.1522V47.691C62.1522 45.5232 62.1603 43.3555 62.1432 41.1877C62.1158 40.8841 62.0452 40.586 61.9335 40.3022C61.9104 40.2621 61.8782 40.2279 61.8395 40.2022C61.8009 40.1765 61.7568 40.1601 61.7108 40.1543C61.4509 40.1353 61.188 40.1473 60.89 40.1473M75.746 39.7475V52.1805H76.4203V51.7297C76.4203 48.5455 76.4293 45.3613 76.4132 42.1771C76.3707 41.4479 76.4822 40.718 76.7403 40.0343C76.7714 39.9414 76.7952 39.8461 76.8116 39.7495L75.746 39.7475ZM86.0687 2.42763H85.9875L84.1603 7.26489H87.8939L86.0657 2.42763M84.1553 52.1805V51.7287C84.1553 48.6015 84.1643 45.4743 84.1493 42.347C84.0886 41.5272 84.2103 40.7041 84.5055 39.9364C84.525 39.8772 84.5387 39.8163 84.5466 39.7545H83.0526C83.0997 39.9034 83.1278 40.0253 83.174 40.1393C83.391 40.7156 83.4909 41.3291 83.468 41.9443C83.4519 45.2204 83.461 48.4955 83.461 51.7717V52.1815L84.1553 52.1805ZM79.011 39.7495C79.0722 39.9404 79.1113 40.1053 79.1765 40.2612C79.3613 40.7524 79.4472 41.2751 79.4294 41.7993C79.4173 45.1215 79.4234 48.4426 79.4234 51.7647V52.1705H80.1207V51.7327C80.1207 48.3197 80.1207 44.9066 80.1267 41.4935C80.1411 41.1892 80.1899 40.8874 80.2722 40.594C80.3384 40.3152 80.4448 40.0453 80.5391 39.7525L79.011 39.7495ZM88.5681 52.1795V51.7347C88.5681 48.4366 88.5732 45.1385 88.5631 41.8403C88.5398 41.3161 88.6245 40.7926 88.812 40.3022C88.8842 40.1313 88.9253 39.9474 88.9855 39.7515H87.4644C87.5186 39.9284 87.5527 40.0833 87.6119 40.2292C87.8065 40.7394 87.8985 41.2828 87.8828 41.8283C87.8678 45.1395 87.8758 48.4496 87.8758 51.7607V52.1805L88.5681 52.1795ZM96.4386 52.1645V39.7485H95.3098C95.3751 39.9484 95.4212 40.1253 95.4874 40.2932C95.6968 40.8489 95.796 41.4399 95.7794 42.0332C95.7624 45.2314 95.7714 48.4296 95.7714 51.6278C95.7714 52.2654 95.7714 52.2654 96.4386 52.1625M91.6134 39.7505C91.9551 40.5835 92.0734 41.4907 91.9565 42.383C91.9632 45.5012 91.9632 48.6195 91.9565 51.7377C91.9565 52.2234 91.9565 52.2244 92.4522 52.1985C92.5074 52.1985 92.5616 52.1805 92.6529 52.1645V51.7547C92.6529 49.0252 92.6298 46.2948 92.6629 43.5653C92.679 42.2991 92.4271 41.0058 92.991 39.7515L91.6134 39.7505ZM84.5015 18.2777C84.5023 18.5788 84.5928 18.8729 84.7615 19.1227C84.9302 19.3725 85.1696 19.5669 85.4493 19.6811C85.729 19.7953 86.0364 19.8243 86.3327 19.7643C86.6289 19.7043 86.9006 19.5582 87.1134 19.3443C87.3262 19.1304 87.4704 18.8584 87.5279 18.5628C87.5853 18.2672 87.5534 17.9612 87.4362 17.6837C87.319 17.4061 87.1217 17.1695 86.8693 17.0037C86.6169 16.838 86.3208 16.7505 86.0186 16.7525C85.8181 16.7522 85.6195 16.7916 85.4344 16.8683C85.2493 16.945 85.0813 17.0576 84.9402 17.1995C84.7991 17.3413 84.6876 17.5097 84.6123 17.6948C84.537 17.8798 84.4993 18.078 84.5015 18.2777ZM83.1128 14.3389H88.9404V13.3504H83.1118L83.1128 14.3389ZM103.295 40.1653C103.345 40.3132 103.374 40.4341 103.425 40.5451C103.595 40.9434 103.674 41.3748 103.655 41.8073C103.642 43.7692 103.65 45.7301 103.65 47.692V48.0918H104.18V47.656C104.18 45.888 104.188 44.12 104.18 42.353C104.115 41.6592 104.223 40.96 104.496 40.3182C104.512 40.2696 104.521 40.2192 104.525 40.1683L103.295 40.1653ZM100.325 48.0968V47.708C100.325 45.8351 100.335 43.9631 100.319 42.0902C100.277 41.509 100.375 40.9263 100.607 40.3911C100.632 40.3191 100.647 40.2442 100.654 40.1683H99.4498C99.4811 40.2857 99.5192 40.4011 99.5641 40.5141C99.7436 40.9345 99.8243 41.3901 99.7999 41.8463C99.7879 43.7992 99.7949 45.7511 99.7949 47.704V48.0978L100.325 48.0968ZM67.1551 48.0968V47.621C67.1551 46.3777 67.128 45.1335 67.1631 43.8912C67.0672 42.6466 67.1215 41.395 67.3247 40.1633H66.534C66.5661 40.7399 66.6213 41.3006 66.6243 41.8623C66.6353 43.8012 66.6243 45.7411 66.6243 47.68V48.0998L67.1551 48.0968ZM62.682 40.1573C62.7131 40.7379 62.7653 41.2876 62.7683 41.8383C62.7784 43.7882 62.7683 45.7361 62.7683 47.69V48.0898H63.2981C63.2981 47.9149 63.2981 47.768 63.2981 47.621C63.3533 45.1375 63.1787 42.6489 63.3984 40.1583L62.682 40.1573ZM71.2208 40.1663C71.2428 40.582 71.281 40.9658 71.282 41.3466C71.288 43.4584 71.282 45.5702 71.282 47.682V48.0948H71.8208V47.673C71.8208 45.6072 71.8208 43.5404 71.8208 41.4765C71.8208 41.0478 71.8559 40.619 71.876 40.1723L71.2208 40.1663ZM108.837 48.0968V47.664C108.837 46.4887 108.801 45.3114 108.846 44.138C108.898 42.8168 108.601 41.4715 109.123 40.1683H107.967C108.27 40.7629 108.389 41.4332 108.311 42.0952C108.306 43.9551 108.311 45.8151 108.311 47.675V48.0958L108.837 48.0968ZM88.2551 8.15938H87.5397V12.4569H88.2551V8.15938ZM86.1881 12.45H86.8644V8.15238H86.1881V12.45ZM83.785 12.443H84.3309V8.14539H83.785V12.443ZM85.5098 8.16438H85.0082V12.453H85.5098V8.16438ZM84.2536 16.8964L85.1045 16.2368H84.2536V16.8964ZM87.7765 16.8794V16.2408H86.9507L87.7805 16.8794" fill="#9999A1"/>
</g>
<path d="M0 49.996V39.1116C0.170677 39.1821 0.301195 39.2257 0.422677 39.2863C1.44172 39.7974 2.45474 40.3184 3.47981 40.8177C3.68005 40.9145 3.89947 40.9663 4.12236 40.9695C8.32302 40.9784 12.5237 40.9973 16.7234 40.9556C17.4883 40.8805 18.245 40.738 18.9843 40.5298C20.6529 40.2083 22.3226 39.8947 23.9892 39.5622C24.1525 39.5245 24.2984 39.434 24.4038 39.3051C26.2063 36.9788 27.9988 34.6465 29.7812 32.3082C29.8644 32.2088 29.9158 32.0872 29.9287 31.9589C29.9378 30.9078 29.9287 29.8558 29.9287 28.8048C29.9202 28.7625 29.9053 28.7217 29.8846 28.6837L29.0222 28.6182C29.0222 28.5732 29.0222 28.5282 29.0222 28.4832L29.9087 28.4247V27.2436L29.0292 27.197C29.0292 27.1447 29.0292 27.0921 29.0292 27.0392C29.23 27.0332 29.4378 27.0134 29.6416 27.0243C29.8685 27.0362 29.9508 26.9459 29.9428 26.7266C29.9318 26.4288 29.9428 26.1311 29.9428 25.7976H30.5773C30.5773 26.0953 30.5653 26.3931 30.5833 26.6908C30.6087 26.8042 30.6517 26.913 30.7109 27.0134C30.7691 26.9042 30.8775 26.795 30.8775 26.6849C30.8886 24.9629 30.8855 23.241 30.8855 21.524V21H35.1083C35.1173 21.1399 35.1324 21.266 35.1334 21.397C35.1334 22.1592 35.1173 22.9224 35.1424 23.6797C35.1545 24.033 35.0611 24.159 34.6836 24.1501C33.6345 24.1253 32.5833 24.158 31.5341 24.1322C31.1536 24.1223 31.0632 24.2513 31.0753 24.6017C31.0994 25.3103 31.0753 26.0209 31.0894 26.7305C31.0894 26.8298 31.1767 26.9191 31.2239 27.0134C31.2801 26.9141 31.3765 26.8238 31.3835 26.7246C31.4046 26.4268 31.3916 26.1291 31.3916 25.7986H32.0251C32.0251 26.0874 32.0431 26.3732 32.0251 26.6551C32 26.9578 32.1255 27.0521 32.4146 27.0263C32.5895 27.0202 32.7646 27.0261 32.9387 27.0441C32.9387 27.0924 32.9387 27.1411 32.9387 27.19L32.0572 27.2456V28.4495H32.9337C32.9337 28.5057 32.9367 28.5616 32.9427 28.6172L32.0281 28.6867C32.06 29.358 32.0553 30.0306 32.014 30.7014C31.9693 31.1664 32.0244 31.6355 32.1758 32.0779C32.3272 32.5204 32.5714 32.9263 32.8925 33.2689C34.4627 35.2062 35.9496 37.21 37.4616 39.192C37.5409 39.3016 37.6418 39.3943 37.7583 39.4644C37.8748 39.5345 38.0044 39.5806 38.1393 39.5999C40.2768 40.0118 42.4083 40.4534 44.5427 40.8782C44.8144 40.9359 45.0912 40.9672 45.369 40.9715C49.5027 40.9774 53.6368 40.9774 57.7712 40.9715C58.0461 40.9629 58.3157 40.8952 58.5614 40.773C59.5533 40.2966 60.5302 39.7924 61.5141 39.3002C61.6406 39.2367 61.7711 39.1831 61.9618 39.0957C61.9739 39.2942 61.99 39.4292 61.99 39.5662C61.99 42.8909 61.9849 46.2157 62 49.5415C62 49.9127 61.8906 50 61.5311 50C46.6441 49.9921 31.757 49.9897 16.8699 49.9931H0M44.7696 41.1353C41.106 40.2095 37.3683 39.5979 33.5983 39.3071V41.169H32.4668C32.4668 41.9302 32.4548 42.6378 32.4728 43.3455C32.4799 43.6353 32.3945 43.7425 32.0923 43.7316C31.348 43.713 30.6038 43.713 29.8595 43.7316C29.5512 43.7395 29.476 43.6264 29.483 43.3405C29.5011 42.6339 29.489 41.9263 29.489 41.166H28.3414V39.3091C24.5776 39.6028 20.8462 40.2151 17.1882 41.1392V49.7737H17.9412V42.356H20.7122C20.7212 42.5277 20.7353 42.6815 20.7353 42.8363C20.7353 43.546 20.7353 44.2556 20.7353 44.9652C20.7353 46.4539 20.7353 47.9357 20.7353 49.4214C20.7353 49.5742 20.66 49.7956 20.9441 49.7985C21.3909 49.7985 21.8366 49.7985 22.3316 49.7985V49.2854C22.3316 47.1169 22.3376 44.9483 22.3246 42.7798C22.3246 42.4463 22.3969 42.3123 22.7633 42.3302C23.4129 42.36 24.0685 42.356 24.7171 42.3302C25.0514 42.3173 25.1418 42.4294 25.1397 42.751C25.1257 44.9344 25.1327 47.1179 25.1327 49.3013V49.8114C25.7883 49.8114 26.3967 49.7975 27.0051 49.8174C27.3063 49.8273 27.3947 49.732 27.3907 49.4363C27.3756 48.2453 27.3836 47.0444 27.3857 45.8485C27.3857 45.7095 27.3977 45.5696 27.4037 45.4247H30.1828V49.7737H31.7891V45.4227H34.5702V45.8862C34.5702 47.0692 34.5651 48.2523 34.5782 49.4353C34.5782 49.5583 34.6896 49.7826 34.7559 49.7856C35.4296 49.8114 36.1042 49.8015 36.8221 49.8015V49.2854C36.8221 47.0907 36.8221 44.8957 36.8221 42.7004C36.8221 42.5188 36.7799 42.3242 37.0821 42.3282C37.8401 42.3391 38.5971 42.3371 39.3552 42.3282C39.576 42.3282 39.6272 42.4274 39.6232 42.619C39.6172 42.8691 39.6232 43.1152 39.6232 43.3683C39.6232 45.3791 39.6232 47.3898 39.6292 49.4015C39.6292 49.5325 39.7196 49.7717 39.7798 49.7767C40.2487 49.8085 40.7206 49.7936 41.2346 49.7936V42.35H44.0317V49.7817H44.7696V41.1353ZM11.8018 45.5617V49.8015H12.8319C13.3992 49.8015 13.3992 49.8015 13.3992 49.2586C13.3992 48.155 13.4062 47.0504 13.3941 45.9467C13.3941 45.6649 13.4604 45.5498 13.7716 45.5577C14.4624 45.5795 15.1541 45.5766 15.8449 45.5577C16.128 45.5508 16.2073 45.648 16.2043 45.919C16.1922 47.0623 16.1983 48.2016 16.2043 49.3489C16.2043 49.4879 16.2173 49.6258 16.2244 49.7688H16.9272V41.2057H3.87538V49.7668H4.62134V45.5637C5.43055 45.5637 6.19859 45.5815 6.96463 45.5557C7.31402 45.5438 7.41944 45.6421 7.41341 45.9934C7.39133 47.1367 7.40438 48.2761 7.40839 49.4234C7.40839 49.5812 7.34514 49.7946 7.62425 49.7965C8.07203 49.7965 8.5198 49.7965 9.00573 49.7965V49.3152C9.00573 48.1848 9.00573 47.0543 9.00573 45.9239C9.00573 45.7631 8.95453 45.5617 9.23564 45.5627C10.072 45.5627 10.9073 45.5627 11.8129 45.5627M45.7816 45.5627C46.6049 45.5627 47.388 45.5766 48.1661 45.5557C48.4834 45.5468 48.5767 45.648 48.5727 45.9527C48.5577 47.0692 48.5657 48.1868 48.5677 49.3043C48.5677 49.4571 48.5818 49.609 48.5888 49.7648H50.165C50.165 48.684 50.165 47.6349 50.165 46.5889C50.165 45.5627 50.165 45.5627 51.1981 45.5627H52.9762V49.8015C53.3898 49.8015 53.7603 49.7817 54.1268 49.8075C54.4681 49.8313 54.5886 49.734 54.5816 49.3738C54.5585 48.2175 54.5816 47.0603 54.5695 45.9001C54.5695 45.651 54.6358 45.5498 54.9058 45.5557C55.6086 45.5716 56.3114 45.5726 57.0142 45.5557C57.3024 45.5488 57.3726 45.655 57.3696 45.9209C57.3576 47.0643 57.3636 48.2036 57.3696 49.3509C57.3696 49.4889 57.3837 49.6268 57.3917 49.7668H58.1045V41.2077H45.0246V49.7658H45.7706L45.7816 45.5627ZM31.0763 30.0851H30.8755C30.8755 29.7129 30.8865 29.3407 30.8685 28.9695C30.8635 28.8703 30.7681 28.771 30.7159 28.6718C30.6667 28.771 30.5753 28.8703 30.5743 28.9755C30.5633 29.8826 30.5562 30.7887 30.5743 31.6959C30.5844 32.0223 30.4941 32.3442 30.3153 32.6189C29.0255 34.6872 27.7427 36.7598 26.467 38.8367C26.3937 38.9558 26.3255 39.0779 26.2331 39.2337C26.9138 39.195 27.5383 39.1692 28.1547 39.1225C28.474 39.0977 28.5744 39.2218 28.5563 39.5274C28.5332 39.9949 28.5503 40.4643 28.5503 40.9874H29.7179V43.4944H32.2761V40.9675H33.4035C33.4035 40.4594 33.4216 39.9899 33.3975 39.5215C33.3814 39.2069 33.4899 39.0957 33.8041 39.1195C34.4226 39.1662 35.043 39.193 35.7237 39.2307C35.6294 39.0709 35.5601 38.9488 35.4868 38.8337C34.2208 36.7823 32.9608 34.7259 31.6807 32.6804C31.4721 32.3625 31.367 31.9892 31.3795 31.6105C31.3996 30.7302 31.3905 29.8499 31.3795 28.9695C31.3795 28.8703 31.2851 28.771 31.2349 28.6718C31.1827 28.771 31.0904 28.8703 31.0853 28.9765C31.0673 29.3467 31.0783 29.7179 31.0783 30.089M3.59727 49.7817C3.61205 49.7296 3.62279 49.6765 3.6294 49.6229C3.6294 46.8787 3.63643 44.1345 3.62237 41.3854C3.61072 41.3083 3.58188 41.2347 3.53795 41.17C3.49402 41.1053 3.4361 41.0511 3.36836 41.0112C2.4186 40.515 1.4608 40.0376 0.49898 39.5582C0.406305 39.5197 0.311435 39.4866 0.214852 39.459V49.7817H3.59727ZM61.745 49.7817V39.4351C61.5884 39.5056 61.4679 39.5542 61.3534 39.6118C60.4498 40.0634 59.5613 40.5279 58.6547 40.9626C58.5453 41.0021 58.4525 41.077 58.3917 41.1752C58.3308 41.2734 58.3053 41.3891 58.3194 41.5035C58.3294 44.1295 58.3244 46.7556 58.3264 49.3817C58.3264 49.5077 58.3405 49.6338 58.3495 49.7787L61.745 49.7817ZM37.057 49.8035C37.7166 49.8035 38.3622 49.7866 39.0098 49.8104C39.3481 49.8233 39.4345 49.7062 39.4325 49.3847C39.4204 47.232 39.4264 45.0783 39.4254 42.9257C39.4254 42.8115 39.4084 42.6974 39.3983 42.5704H37.054L37.057 49.8035ZM22.5324 42.5674V45.1687C22.5324 46.5869 22.5324 48.0041 22.5404 49.4224C22.5404 49.5474 22.6479 49.7767 22.7111 49.7787C23.436 49.8045 24.1629 49.7946 24.9008 49.7946V42.5674H22.5324ZM41.4454 49.7727H43.7857V42.5763H41.4454V49.7727ZM20.5003 42.5684H18.159V49.7707H20.5003V42.5684ZM32.009 49.7618H34.3633C34.3633 48.6234 34.3633 47.5248 34.3633 46.4251C34.3633 45.5805 34.3633 45.5805 33.5059 45.5815H32.009V49.7618ZM29.9418 45.6133H27.6166V49.7817H29.9418V45.6133ZM54.7663 45.7979C54.7663 47.0881 54.7663 48.3575 54.7733 49.6268C54.7847 49.6662 54.8061 49.702 54.8354 49.7308C54.8648 49.7597 54.9011 49.7806 54.941 49.7916C55.6669 49.8035 56.3927 49.7995 57.1257 49.7995V45.7939L54.7663 45.7979ZM45.9895 49.8015C46.6571 49.8015 47.3177 49.7886 47.9764 49.8075C48.2775 49.8164 48.3659 49.7201 48.3619 49.4264C48.3468 48.3634 48.3559 47.2995 48.3559 46.2356V45.7949H45.9895V49.8015ZM13.602 45.7969C13.602 47.0802 13.602 48.3366 13.61 49.5931C13.62 49.6387 13.6419 49.681 13.6734 49.7158C13.7049 49.7506 13.745 49.7767 13.7897 49.7916C14.5136 49.8055 15.2385 49.8005 15.9623 49.8005V45.8009L13.602 45.7969ZM4.81912 49.8005C5.52191 49.8005 6.18153 49.7886 6.84215 49.8055C7.13029 49.8134 7.20459 49.7062 7.19957 49.4373C7.18551 48.7018 7.19957 47.9664 7.19957 47.232V45.8048H4.81912V49.8005ZM52.7272 45.7939H50.3879V49.7688H52.7282L52.7272 45.7939ZM11.5639 45.7939H9.23665V49.7688H11.5689L11.5639 45.7939ZM34.8874 23.9447V21.2124H32.8724V22.6693H31.0763C31.0763 23.0107 31.0883 23.3095 31.0763 23.6072C31.0622 23.8613 31.1536 23.9566 31.4177 23.9486C31.9196 23.9328 32.4216 23.9486 32.9297 23.9486H34.8914M30.3303 28.6797H30.1787C30.1667 28.8127 30.1456 28.9447 30.1456 29.0767C30.1456 29.9967 30.1567 30.9158 30.1316 31.8348C30.1231 32.0644 30.0471 32.2865 29.9127 32.474C28.2139 34.711 26.4991 36.9401 24.7924 39.1652C24.7341 39.2406 24.692 39.325 24.6046 39.4629C24.9418 39.4377 25.2771 39.392 25.6086 39.326C25.8059 39.2808 25.981 39.1688 26.1036 39.0094C27.4797 36.8101 28.8434 34.6031 30.1948 32.3886C30.2949 32.2225 30.3509 32.034 30.3574 31.8408C30.3735 30.9088 30.3655 29.9759 30.3625 29.043C30.3625 28.9219 30.3434 28.8008 30.3323 28.6807M31.7791 28.6807H31.6546C31.6279 28.747 31.6097 28.8164 31.6004 28.8872C31.6004 29.9114 31.5934 30.9366 31.6004 31.9638C31.6076 32.0933 31.6484 32.2187 31.7189 32.3281C33.0983 34.5717 34.4818 36.813 35.8693 39.0521C35.9286 39.1513 36.0169 39.2744 36.1093 39.2922C36.5028 39.3667 36.9034 39.4044 37.3853 39.4669C37.2729 39.3141 37.2217 39.2406 37.1675 39.1692C35.4574 36.9407 33.7506 34.7107 32.0472 32.4789C31.9128 32.2915 31.8368 32.0693 31.8283 31.8398C31.8042 30.9207 31.8182 30.0007 31.8142 29.0817C31.8142 28.9487 31.7931 28.8167 31.7811 28.6847M32.6505 21.2174H31.1124V22.4609H32.6505V21.2174ZM31.3795 27.8262C31.3865 27.683 31.3845 27.5395 31.3735 27.3965C31.3654 27.3379 31.2932 27.2873 31.25 27.2337C31.1918 27.2883 31.0873 27.3399 31.0843 27.3965C31.0693 27.6942 31.0733 27.992 31.0843 28.2966C31.0943 28.3294 31.1127 28.359 31.1377 28.3826C31.1627 28.4063 31.1934 28.4232 31.2269 28.4316C31.2741 28.4316 31.3594 28.3502 31.3654 28.2966C31.3773 28.1404 31.3796 27.9837 31.3725 27.8272M30.504 27.7577L30.5663 27.7786C30.5571 27.9218 30.5591 28.0654 30.5723 28.2083C30.6026 28.2932 30.6478 28.3722 30.7058 28.4415C30.76 28.3701 30.8474 28.3046 30.8625 28.2262C30.891 28.0848 30.8927 27.9394 30.8675 27.7974C30.8303 27.6069 31.0201 27.3359 30.6988 27.2565C30.6219 27.4172 30.5565 27.5831 30.503 27.7528M31.6255 28.4237C31.7432 28.2441 31.8058 28.0347 31.8058 27.8208C31.8058 27.6068 31.7432 27.3974 31.6255 27.2178V28.4237ZM30.3143 27.2526H30.2058V28.4267H30.3143V27.2526ZM31.6446 27.0005H31.745V26.008H31.6446V27.0005ZM30.3153 26.008H30.2069V27.0005H30.3203L30.3153 26.008Z" fill="#9999A1"/>
<path d="M10.5235 43.998C10.1291 43.998 9.73358 43.99 9.33916 43.998C9.11896 43.998 8.99283 43.9442 9.00032 43.6725C9.01207 43.214 8.98429 42.7635 9.01849 42.313C9.0399 42.2411 9.07802 42.1762 9.12925 42.1244C9.18049 42.0727 9.24316 42.0358 9.31137 42.0172C10.1002 41.992 10.8901 42.0103 11.679 42C11.9227 42 11.9997 42.1032 11.9997 42.3508C11.989 42.7887 11.989 43.2277 11.9997 43.6656C12.0071 43.9281 11.8928 44.0095 11.6694 43.9991C11.2888 43.9877 10.9083 43.9991 10.5278 43.9991M9.27075 42.2694V43.7711C10.0521 43.7711 10.811 43.7768 11.57 43.7607C11.6169 43.7454 11.6595 43.7175 11.6935 43.6796C11.7276 43.6417 11.752 43.595 11.7645 43.5441C11.7837 43.128 11.7741 42.7096 11.7741 42.2694H9.27075Z" fill="#9999A2"/>
<path d="M13.0018 42.0009C13.9563 42.0009 14.8625 41.9951 15.7676 42.0124C15.8201 42.0304 15.8675 42.0625 15.9051 42.1056C15.9427 42.1488 15.9694 42.2015 15.9826 42.2589C16.0058 42.7457 16.0058 43.2334 15.9826 43.7201C15.9671 43.7827 15.9369 43.84 15.895 43.8865C15.853 43.9331 15.8007 43.9674 15.7429 43.9862C14.9044 44.0057 14.066 44.0034 13.2275 43.9862C13.1752 43.9684 13.1281 43.9367 13.0905 43.894C13.0528 43.8512 13.026 43.7989 13.0125 43.742C12.9921 43.1824 13.0028 42.6227 13.0028 42.0021M15.7483 42.2404H14.2713C13.1523 42.2404 13.1522 42.2404 13.2135 43.4277C13.2135 43.4737 13.2017 43.5301 13.2221 43.5624C13.2727 43.6384 13.3371 43.7616 13.3984 43.7628C14.1745 43.7766 14.9507 43.772 15.7493 43.772L15.7483 42.2404Z" fill="#9999A2"/>
<path d="M6.5178 43.9996C6.11996 43.9996 5.72106 43.9905 5.32322 43.9996C5.08775 44.0065 4.99098 43.9194 5.00066 43.6558C5.01571 43.2167 5.01463 42.7754 5.00066 42.3364C4.99206 42.0693 5.10173 41.9925 5.33075 42.0006C6.11279 42.009 6.89484 42.009 7.67688 42.0006C7.91558 42.0006 8.00806 42.0911 7.99945 42.3444C7.9887 42.7838 7.9887 43.2236 7.99945 43.6638C8.00698 43.9263 7.89193 44.0077 7.66721 43.9985C7.28335 43.987 6.8995 43.9985 6.51565 43.9985L6.5178 43.9996ZM7.78441 42.2802H5.25011V43.7704C6.04792 43.7704 6.82423 43.7761 7.59947 43.7601C7.66291 43.7601 7.77151 43.6076 7.77581 43.5205C7.79516 43.117 7.78441 42.7113 7.78441 42.2837" fill="#9999A2"/>
<path d="M51.4692 43.9995C51.0883 43.9995 50.7075 43.9915 50.3266 43.9995C50.0934 44.0075 49.9939 43.9183 50.0003 43.6565C50.0121 43.1991 49.9874 42.7498 50.0174 42.3004C50.035 42.2334 50.0684 42.1723 50.1142 42.1229C50.1601 42.0735 50.217 42.0374 50.2795 42.018C51.083 41.9952 51.8843 41.9929 52.6921 42.018C52.7603 42.0374 52.8228 42.0751 52.8735 42.1275C52.9242 42.1799 52.9616 42.2454 52.982 42.3176C53.0152 42.7669 52.9906 43.222 52.9991 43.6736C52.9991 43.9023 52.9157 43.9984 52.6986 43.9926C52.2899 43.9823 51.8801 43.9926 51.4714 43.9926M52.7734 42.2878H50.256V43.7662C51.0445 43.7662 51.803 43.7731 52.5616 43.7548C52.6343 43.7548 52.7584 43.5936 52.7638 43.501C52.7863 43.1111 52.7734 42.7189 52.7734 42.289" fill="#9999A2"/>
<path d="M47.4775 43.9996C47.0943 43.9996 46.7111 43.9916 46.3279 43.9996C46.096 44.0065 45.9919 43.923 46.0005 43.6568C46.0144 43.2192 46.0144 42.7804 46.0005 42.3428C45.9919 42.0788 46.1003 42 46.33 42C47.1108 42.0076 47.8915 42.0076 48.6722 42C48.9073 42 49.0071 42.0834 48.9996 42.3428C48.9878 42.7804 48.9867 43.2192 48.9996 43.6568C49.0071 43.9173 48.902 43.9996 48.6712 43.9927C48.274 43.9813 47.8768 43.9927 47.4786 43.9927M46.2517 43.7642C47.0481 43.7642 47.7963 43.7699 48.5445 43.7562C48.6239 43.7562 48.7645 43.642 48.7677 43.57C48.7881 43.1392 48.7785 42.7073 48.7785 42.2742H46.2517V43.7642Z" fill="#9999A2"/>
<path d="M56.5233 43.9996C56.1254 43.9996 55.7263 43.9916 55.3284 43.9996C55.094 44.0065 54.9929 43.9197 55.0004 43.657C55.0126 43.2193 55.0126 42.7811 55.0004 42.3426C54.9939 42.0845 55.094 42 55.3295 42C56.1118 42.0099 56.894 42.0099 57.6763 42C57.9097 42 58.0118 42.0776 57.9989 42.3426C57.9839 42.78 57.9828 43.2197 57.9989 43.657C58.0086 43.9231 57.9021 43.9997 57.6763 43.9939C57.2923 43.9825 56.9083 43.9939 56.5244 43.9939M57.7483 42.2741H55.2209C55.2209 42.7137 55.2101 43.1317 55.2305 43.5474C55.2446 43.5978 55.2706 43.6436 55.306 43.6804C55.3413 43.7172 55.385 43.7437 55.4328 43.7576C56.1953 43.7735 56.9589 43.7667 57.7483 43.7667V42.2741Z" fill="#9999A2"/>
<path d="M146.682 38.9989C146.628 38.9994 146.574 38.9864 146.527 38.9612C146.48 38.9361 146.441 38.8997 146.413 38.8557C144.938 36.6041 143.018 34.6457 140.76 33.0889C138.724 31.6735 136.52 30.4933 134.191 29.5731C134.115 29.5423 134.054 29.4837 134.023 29.4104C133.992 29.3371 133.992 29.2549 134.025 29.1821C134.057 29.1092 134.119 29.0516 134.196 29.0218C134.273 28.9921 134.359 28.9928 134.436 29.0236C136.81 29.9623 139.059 31.1663 141.134 32.61C143.458 34.2128 145.434 36.2288 146.951 38.5466C146.981 38.5916 146.998 38.6436 147 38.6971C147.002 38.7505 146.988 38.8034 146.96 38.85C146.933 38.8966 146.892 38.9352 146.843 38.9616C146.794 38.988 146.739 39.0013 146.683 38.9999L146.682 38.9989Z" fill="#9999A1"/>
<path d="M130.635 28.9945C130.601 28.9945 130.568 28.9885 130.536 28.9766C129.139 28.4511 127.713 28.0317 126.267 27.721C126.183 27.7052 126.109 27.6523 126.059 27.574C126.01 27.4956 125.99 27.3983 126.004 27.3033C126.018 27.2084 126.065 27.1236 126.134 27.0676C126.203 27.0117 126.288 26.9891 126.372 27.0049C127.849 27.3194 129.307 27.7477 130.733 28.2867C130.816 28.3015 130.89 28.3529 130.939 28.4298C130.989 28.5067 131.009 28.6027 130.996 28.6967C130.983 28.7907 130.938 28.875 130.87 28.9311C130.803 28.9872 130.718 29.0104 130.636 28.9957L130.635 28.9945Z" fill="#9999A1"/>
<path d="M132.923 49C132.859 49.0007 132.796 48.9798 132.745 48.9406C132.693 48.9013 132.655 48.8458 132.637 48.7825C130.047 40.0899 124.104 29.5646 124.044 29.4634C124.015 29.4148 124 29.3587 124 29.3015C124 29.2443 124.016 29.1884 124.046 29.1402C124.076 29.092 124.119 29.0535 124.169 29.029C124.22 29.0046 124.276 28.9953 124.331 29.0022C127.642 29.3068 130.88 30.1796 133.911 31.5845C136.334 32.7156 138.6 34.1717 140.65 35.9146C142.693 37.5963 144.48 39.581 145.953 41.8033C145.975 41.8393 145.99 41.8799 145.997 41.9222C146.003 41.9646 146 42.0078 145.989 42.0491C145.978 42.0903 145.959 42.1287 145.932 42.1617C145.905 42.1946 145.872 42.2214 145.835 42.2403L133.059 48.9686C133.017 48.99 132.97 49.0008 132.923 49ZM124.851 29.6728C126.065 31.8798 130.782 40.6776 133.103 48.2515L145.262 41.8479C143.836 39.8014 142.15 37.9598 140.25 36.3718C138.243 34.6674 136.025 33.2433 133.654 32.1367C130.864 30.8452 127.894 30.014 124.853 29.6738L124.851 29.6728Z" fill="#9999A1"/>
<path d="M119.301 32C119.326 32 119.351 32.0031 119.375 32.0092L123.299 32.9841C125.186 33.4511 126.946 34.334 128.451 35.5688C128.485 35.5965 128.514 35.6314 128.533 35.6712C130.691 39.8213 132.514 44.1385 133.985 48.5811C134 48.6277 134.004 48.6771 133.996 48.7254C133.988 48.7737 133.969 48.8195 133.94 48.8588C133.911 48.8982 133.873 48.9301 133.83 48.9518C133.786 48.9735 133.738 48.9844 133.689 48.9836L129.323 49C129.269 49.0006 129.215 48.9866 129.168 48.9596C129.121 48.9326 129.082 48.8936 129.055 48.8464L128.104 47.2305L123.002 46.3334L122.432 47.255C122.394 47.3184 122.334 47.3657 122.263 47.3883C122.193 47.4109 122.117 47.4072 122.049 47.3779L120.417 46.6939C120.354 46.6684 120.302 46.6228 120.267 46.5643C120.233 46.5058 120.219 46.4375 120.228 46.3703L120.84 41.1477C120.974 40.0104 120.878 38.8577 120.56 37.7581L119.014 32.4065C118.999 32.3601 118.996 32.3109 119.004 32.263C119.013 32.2151 119.032 32.1698 119.061 32.1309C119.09 32.092 119.128 32.0606 119.172 32.0393C119.215 32.0179 119.263 32.0073 119.312 32.0082L119.301 32ZM128.006 36.0101C126.584 34.8555 124.926 34.029 123.15 33.5893L119.749 32.7445L121.145 37.5769C121.487 38.7565 121.59 39.9931 121.446 41.2132L120.864 46.2064L122.04 46.698L122.582 45.8275C122.614 45.7747 122.662 45.7329 122.718 45.7077C122.775 45.6824 122.837 45.675 122.898 45.6862L128.351 46.6437C128.395 46.6511 128.437 46.6682 128.474 46.6939C128.511 46.7196 128.542 46.7531 128.565 46.7922L129.498 48.3784L133.266 48.3651C131.825 44.1196 130.067 39.9895 128.006 36.0101Z" fill="#9999A1"/>
<path d="M112.29 35.0058H112.296C114.998 35.1147 117.672 35.5924 120.246 36.426C120.29 36.4408 120.329 36.4661 120.361 36.4996C120.393 36.5331 120.417 36.5738 120.43 36.6184L120.659 37.4151C120.98 38.5234 121.075 39.6853 120.941 40.8317L120.367 45.7386C120.363 45.7824 120.349 45.8247 120.326 45.8622C120.304 45.8997 120.273 45.9314 120.236 45.955C120.199 45.9786 120.157 45.9934 120.114 45.9982C120.07 46.0031 120.026 45.9979 119.985 45.983L113.726 43.9269C113.677 43.9103 113.634 43.8805 113.6 43.8409C113.566 43.8013 113.544 43.7532 113.535 43.7018L112.006 35.3464C111.997 35.304 111.998 35.2602 112.009 35.2182C112.019 35.1762 112.039 35.1371 112.066 35.1039C112.094 35.0706 112.129 35.044 112.168 35.026C112.207 35.008 112.25 34.9992 112.293 35.0001L112.29 35.0058ZM119.912 36.9301C117.554 36.1803 115.111 35.7357 112.642 35.6072L114.075 43.4304L119.831 45.322L120.361 40.7662C120.486 39.6973 120.397 38.614 120.098 37.5805L119.912 36.9301Z" fill="#9999A1"/>
<path d="M113.675 44.9992H111.026C110.969 44.9996 110.913 44.9841 110.865 44.9546C110.817 44.925 110.778 44.8826 110.753 44.8321L109.035 41.4653C109.015 41.4276 109.003 41.3861 109.001 41.3435C108.998 41.3009 109.004 41.2583 109.02 41.2184C109.035 41.1785 109.059 41.1424 109.089 41.1123C109.119 41.0822 109.156 41.0589 109.196 41.0439C110.327 40.6249 111.484 40.2792 112.66 40.0091C112.701 39.999 112.743 39.9973 112.784 40.0041C112.825 40.011 112.865 40.0262 112.899 40.0489C112.934 40.0715 112.964 40.1011 112.987 40.1358C113.01 40.1704 113.025 40.2094 113.032 40.2503L113.807 44.4197C113.874 44.4457 113.93 44.4949 113.964 44.5583C113.998 44.6218 114.009 44.6953 113.993 44.7655C113.977 44.8357 113.936 44.8979 113.878 44.9408C113.82 44.9837 113.747 45.0044 113.675 44.9992ZM111.214 44.3897H113.178L112.488 40.6766C111.231 40.9849 110.224 41.3222 109.737 41.4953L111.214 44.3897Z" fill="#9999A1"/>
<path d="M154.561 49H152.576C152.533 48.9999 152.491 48.9908 152.452 48.9731C152.413 48.9555 152.378 48.9297 152.35 48.8976L146.083 42.069C146.036 42.0185 146.007 41.9532 146.001 41.8838C145.995 41.8144 146.013 41.745 146.051 41.6871C146.985 40.3859 148.144 39.2658 149.471 38.3803C152.79 36.1406 156.698 34.9631 160.688 35.0009C160.74 35.0006 160.791 35.0135 160.837 35.0384C160.882 35.0632 160.921 35.0993 160.95 35.1432C160.978 35.1872 160.995 35.2379 160.999 35.2904C161.003 35.343 160.993 35.3956 160.971 35.4433L158.716 40.3588C158.699 40.396 158.674 40.4293 158.645 40.457C158.615 40.4847 158.58 40.5062 158.542 40.5203C158.504 40.5344 158.464 40.5408 158.423 40.5391C158.383 40.5374 158.343 40.5276 158.307 40.5104C158.27 40.4932 158.237 40.4688 158.209 40.4387C158.182 40.4086 158.161 40.3734 158.147 40.3349C158.133 40.2965 158.127 40.2557 158.128 40.2148C158.13 40.1739 158.14 40.1338 158.157 40.0967L160.204 35.6317C156.507 35.6956 152.906 36.8246 149.821 38.8862C148.637 39.6941 147.586 40.6852 146.706 41.8233L152.706 48.3733H154.36L156.309 44.1233C156.344 44.0484 156.406 43.9903 156.483 43.9619C156.559 43.9335 156.644 43.937 156.718 43.9718C156.792 44.0065 156.85 44.0697 156.878 44.1473C156.906 44.2249 156.902 44.3106 156.868 44.3855L154.836 48.8167C154.813 48.8708 154.774 48.9169 154.725 48.9494C154.676 48.9819 154.619 48.9995 154.561 49Z" fill="#9999A1"/>
<path d="M146.177 49C146.126 49.0001 146.075 48.9864 146.031 48.9603L140.147 45.5481C140.114 45.5291 140.085 45.5036 140.061 45.4732C140.038 45.4428 140.021 45.408 140.01 45.3709C140 45.3337 139.998 45.295 140.002 45.2568C140.007 45.2185 140.019 45.1816 140.038 45.1482C140.057 45.1147 140.082 45.0853 140.113 45.0617C140.143 45.0381 140.177 45.0207 140.214 45.0105C140.251 45.0003 140.29 44.9975 140.328 45.0023C140.365 45.0071 140.402 45.0194 140.435 45.0384L146.205 48.3849L150.614 46.8954C150.688 46.8705 150.768 46.8761 150.838 46.9108C150.907 46.9455 150.96 47.0066 150.985 47.0806C151.009 47.1546 151.004 47.2355 150.969 47.3054C150.935 47.3753 150.874 47.4286 150.801 47.4535L146.267 48.9855C146.238 48.995 146.208 48.9999 146.177 49Z" fill="#9999A1"/>
<path d="M146.493 48.9999C146.362 48.9999 146.237 48.9695 146.144 48.9153C146.052 48.8612 146 48.7878 146 48.7113V42.2929C146 42.2545 146.013 42.2164 146.038 42.1808C146.063 42.1453 146.1 42.113 146.146 42.0858C146.193 42.0586 146.248 42.037 146.309 42.0223C146.369 42.0076 146.434 42 146.5 42C146.566 42 146.631 42.0076 146.691 42.0223C146.752 42.037 146.807 42.0586 146.854 42.0858C146.9 42.113 146.937 42.1453 146.962 42.1808C146.987 42.2164 147 42.2545 147 42.2929V48.7074C147.001 48.7464 146.988 48.7851 146.963 48.8211C146.938 48.8571 146.9 48.8898 146.853 48.9171C146.805 48.9445 146.749 48.9659 146.687 48.9801C146.625 48.9943 146.559 49.001 146.493 48.9999Z" fill="#9999A1"/>
<path d="M165.687 50.9978H113.824C113.775 50.9981 113.728 50.9868 113.685 50.9647C113.642 50.9427 113.604 50.9105 113.576 50.871L110.061 46.0298C110.025 45.9818 110.004 45.9241 110.001 45.8641C109.997 45.8041 110.011 45.7444 110.041 45.6923L110.896 44.158C110.916 44.1224 110.942 44.0912 110.974 44.066C111.006 44.0408 111.043 44.0222 111.082 44.0113C111.12 44.0004 111.161 43.9973 111.201 44.0023C111.241 44.0073 111.28 44.0203 111.315 44.0404C111.351 44.0606 111.381 44.0875 111.406 44.1198C111.431 44.152 111.45 44.1889 111.46 44.2283C111.471 44.2677 111.474 44.3089 111.469 44.3495C111.464 44.3901 111.452 44.4293 111.432 44.4649L110.673 45.8253L113.978 50.3779H164.99L163.794 49.0483H129.017C128.935 49.0483 128.857 49.0154 128.799 48.957C128.741 48.8986 128.709 48.8194 128.709 48.7368C128.709 48.6542 128.741 48.575 128.799 48.5166C128.857 48.4582 128.935 48.4253 129.017 48.4253H163.931C163.974 48.4251 164.016 48.4342 164.055 48.4518C164.094 48.4694 164.129 48.4953 164.158 48.5276L165.914 50.4792C165.956 50.5231 165.985 50.5787 165.995 50.6389C166.006 50.6992 165.999 50.7612 165.974 50.8172C165.95 50.8732 165.909 50.9205 165.858 50.953C165.807 50.9856 165.747 51.0019 165.687 50.9998V50.9978Z" fill="#9999A1"/>
<path d="M169.33 39.0051C172.523 39.037 175.698 39.5102 178.775 40.4125C178.84 40.4294 178.898 40.4692 178.939 40.5254C178.979 40.5816 179.001 40.6509 179 40.7218C178.999 40.7928 178.975 40.8612 178.932 40.9159C178.89 40.9706 178.831 41.0083 178.765 41.0228C175.193 42.0359 166.216 50.8299 166.126 50.9154C166.071 50.9702 165.998 51.0005 165.922 50.9999H165.001C164.932 51.0014 164.864 50.977 164.81 50.931C164.756 50.8851 164.719 50.8205 164.705 50.7485L164.087 47.6906L160.561 46.7673V48.6755C160.561 48.7166 160.553 48.7573 160.538 48.7952C160.523 48.8332 160.501 48.8677 160.474 48.8968C160.447 48.9258 160.414 48.9489 160.378 48.9646C160.342 48.9804 160.304 48.9885 160.265 48.9885H158.949C158.898 48.9889 158.848 48.9754 158.803 48.949C158.758 48.9227 158.721 48.8845 158.694 48.8382L154.047 40.8788C154.024 40.8407 154.009 40.7978 154.003 40.753C153.997 40.7081 154 40.6624 154.013 40.6191C154.025 40.5758 154.046 40.5358 154.074 40.5019C154.103 40.468 154.138 40.4411 154.177 40.4229C155.209 39.9751 156.318 39.7646 157.432 39.8053C158.868 39.8256 160.297 40.0177 161.691 40.378C164.132 39.4115 166.725 38.9455 169.33 39.0051ZM177.702 40.7651C174.962 40.0468 172.152 39.669 169.33 39.6394C166.768 39.5789 164.22 40.044 161.825 41.0092C161.765 41.0358 161.697 41.0402 161.634 41.0218C160.258 40.6615 158.848 40.4676 157.431 40.4438C156.519 40.4168 155.608 40.558 154.741 40.8611L159.116 48.352H159.965V46.3562C159.963 46.3074 159.972 46.2588 159.992 46.2145C160.011 46.1701 160.04 46.1312 160.076 46.1008C160.112 46.0703 160.154 46.0493 160.2 46.0393C160.245 46.0293 160.291 46.0306 160.336 46.0432L164.416 47.1116C164.471 47.1253 164.521 47.1554 164.56 47.1982C164.599 47.2411 164.626 47.295 164.637 47.3536L165.244 50.3552H165.806C166.723 49.4652 173.809 42.6139 177.7 40.7609L177.702 40.7651Z" fill="#9999A1"/>
<path d="M163.723 47.9999C163.659 48.0013 163.596 47.9781 163.546 47.9343C163.496 47.8905 163.462 47.829 163.449 47.7605C162.919 45.5486 162.108 43.4277 161.04 41.459C161.021 41.425 161.009 41.3873 161.003 41.348C160.998 41.3087 160.999 41.2687 161.008 41.2301C161.017 41.1915 161.032 41.1552 161.054 41.1232C161.076 41.0912 161.103 41.0642 161.134 41.0436C161.166 41.0231 161.2 41.0094 161.236 41.0034C161.273 40.9975 161.309 40.9993 161.345 41.0088C161.38 41.0183 161.414 41.0353 161.443 41.0588C161.473 41.0824 161.498 41.112 161.516 41.146C162.621 43.1695 163.455 45.3539 163.993 47.6333C164.002 47.6777 164.002 47.7238 163.993 47.7682C163.983 47.8126 163.965 47.854 163.938 47.8893C163.912 47.9246 163.878 47.9529 163.84 47.9719C163.802 47.9909 163.76 48.0001 163.719 47.9989L163.723 47.9999Z" fill="#9999A1"/>
<path d="M179.676 50.9997H166.314C166.231 50.9997 166.151 50.9669 166.092 50.9085C166.033 50.8501 166 50.7708 166 50.6882C166 50.6056 166.033 50.5264 166.092 50.468C166.151 50.4096 166.231 50.3768 166.314 50.3768H178.73L173.764 46.7018C173.725 46.673 173.693 46.6354 173.671 46.592C173.649 46.5486 173.638 46.5007 173.638 46.4522V44.3114C173.638 44.2288 173.671 44.1496 173.73 44.0912C173.789 44.0328 173.869 44 173.952 44C174.035 44 174.115 44.0328 174.174 44.0912C174.233 44.1496 174.266 44.2288 174.266 44.3114V46.2967L179.864 50.4392C179.92 50.4767 179.962 50.5313 179.984 50.5946C180.005 50.6579 180.005 50.7264 179.984 50.7899C179.963 50.8533 179.921 50.9081 179.866 50.946C179.81 50.9839 179.744 51.0027 179.677 50.9997H179.676Z" fill="#9999A1"/>
<path d="M185.685 50.9999H178.934C178.867 51.0003 178.802 50.978 178.749 50.9362L173.124 46.539C173.082 46.5064 173.048 46.4629 173.027 46.4127C173.005 46.3624 172.996 46.3072 173.001 46.2524L173.162 44.3033C173.165 44.2431 173.184 44.185 173.217 44.1357C173.25 44.0864 173.296 44.0479 173.349 44.0246C173.402 44.0014 173.46 43.9944 173.517 44.0045C173.573 44.0145 173.626 44.0412 173.669 44.0814C173.799 44.1931 173.921 44.3152 174.034 44.4466C174.481 44.3934 174.935 44.4428 175.362 44.5915C175.79 44.7402 176.182 44.9845 176.51 45.3076C176.985 45.2339 177.469 45.3047 177.906 45.5118C178.343 45.7189 178.714 46.0534 178.975 46.4753C179.302 46.381 179.646 46.3664 179.98 46.4324C180.313 46.4985 180.628 46.6435 180.9 46.8565C181.205 46.6264 181.561 46.4809 181.934 46.4335C182.307 46.3862 182.686 46.4385 183.035 46.5857C183.384 46.7328 183.691 46.97 183.929 47.2752C184.167 47.5803 184.327 47.9435 184.395 48.331C184.475 48.3552 184.554 48.3843 184.632 48.4181C185.054 48.6049 185.412 48.9232 185.656 49.3299C185.9 49.7366 186.019 50.212 185.997 50.692C185.995 50.7761 185.96 50.8557 185.902 50.9134C185.844 50.9711 185.766 51.0022 185.685 50.9999ZM179.036 50.3534H185.365C185.322 49.9985 185.171 49.6674 184.936 49.408C184.701 49.1487 184.393 48.9745 184.057 48.9106C183.99 48.8985 183.929 48.8633 183.884 48.8106C183.838 48.7578 183.811 48.6907 183.806 48.6198C183.782 48.3033 183.673 48.0002 183.493 47.7453C183.312 47.4905 183.066 47.294 182.784 47.1785C182.502 47.063 182.194 47.033 181.897 47.0921C181.599 47.1512 181.323 47.2969 181.101 47.5125C181.044 47.5696 180.969 47.6015 180.89 47.6015C180.811 47.6015 180.736 47.5696 180.679 47.5125C180.454 47.2849 180.17 47.1311 179.862 47.07C179.555 47.0089 179.237 47.0432 178.948 47.1686C178.876 47.2005 178.796 47.2025 178.723 47.1741C178.65 47.1456 178.59 47.0889 178.556 47.0157C178.368 46.6238 178.061 46.3085 177.683 46.1197C177.305 45.931 176.878 45.8794 176.469 45.9732C176.418 45.9854 176.365 45.9834 176.314 45.9674C176.264 45.9514 176.218 45.922 176.182 45.8819C175.899 45.5719 175.548 45.3395 175.159 45.2052C174.77 45.071 174.356 45.0391 173.953 45.1122C173.912 45.1197 173.87 45.1183 173.829 45.1081C173.789 45.0978 173.751 45.079 173.718 45.0528L173.629 46.1324L179.036 50.3534Z" fill="#9999A1"/>
<path d="M108 37V52V37Z" fill="#9999A1"/>
<path d="M108 37V52" stroke="#9999A1"/>
<path d="M63 37V52V37Z" fill="#9999A1"/>
<path d="M63 37V52" stroke="#9999A1"/>
</g>
<defs>
<clipPath id="clip0_4_3743">
<rect width="186" height="53" fill="white"/>
</clipPath>
</defs>
</svg>
