<svg width="113" height="67" viewBox="0 0 113 67" fill="none" xmlns="http://www.w3.org/2000/svg">
<g clip-path="url(#clip0_4_3089)">
<path d="M32.2921 24.2907C32.2725 25.4061 32.4077 26.5189 32.694 27.598C33.0383 28.5134 33.4379 29.4075 33.8907 30.2756C34.0673 30.5312 34.1644 30.8321 34.17 31.1414C34.1426 31.3676 34.063 31.5846 33.9372 31.7756C33.8114 31.9667 33.6429 32.1266 33.4446 32.2432L31.0552 33.818C30.753 34.0706 30.3622 34.1956 29.9674 34.1661C29.5725 34.1366 29.2053 33.9549 28.9451 33.6603C28.4345 33.1298 27.98 32.5493 27.5886 31.9278C27.2299 31.2981 26.831 30.589 26.4321 29.7233C25.102 31.3549 23.4112 32.6645 21.4891 33.5516C19.567 34.4387 17.4648 34.88 15.3433 34.8414C13.9701 34.9094 12.597 34.7076 11.3034 34.248C10.0098 33.7884 8.82154 33.08 7.80734 32.1638C6.86702 31.2237 6.13321 30.1023 5.65173 28.8696C5.17026 27.637 4.95146 26.3196 5.009 24.9998C4.95252 23.5471 5.23207 22.1008 5.82645 20.7706C6.42082 19.4405 7.3144 18.2614 8.43936 17.323C10.7504 15.3942 13.7838 14.4094 17.6935 14.4094C19.029 14.4212 20.362 14.5266 21.6825 14.7248C23.0781 14.9231 24.514 15.1968 26.0302 15.5518V12.8346C26.0302 10.0003 25.4273 8.03175 24.2748 6.8903C23.0781 5.75282 21.0434 5.19747 18.1316 5.19747C16.7618 5.20351 15.397 5.36186 14.0632 5.66952C12.682 6.00601 11.3232 6.42664 9.99477 6.92898C9.57076 7.12382 9.13033 7.28177 8.6785 7.40103C8.48407 7.46781 8.28116 7.50753 8.07562 7.51904C7.55715 7.51904 7.27782 7.165 7.27782 6.37759V4.56278C7.23831 4.11197 7.33554 3.65976 7.55715 3.26365C7.83973 2.92783 8.19605 2.65992 8.59912 2.4802C10.0979 1.70778 11.6956 1.13869 13.3488 0.788356C15.2634 0.306171 17.2327 0.067878 19.2087 0.0792885C23.7162 0.0792885 26.9868 1.10273 29.1008 3.11092C31.1747 5.11912 32.2157 8.18943 32.2157 12.2832V24.3304H32.2951L32.2921 24.2907ZM16.975 29.9603C18.2924 29.9388 19.5982 29.713 20.8445 29.2909C22.2369 28.8207 23.4765 27.9914 24.4346 26.889C25.0364 26.1925 25.4725 25.3718 25.7107 24.4871C25.9682 23.4304 26.0888 22.3457 26.0694 21.2591V19.6853C24.9262 19.4079 23.7673 19.1976 22.5989 19.0555C21.4221 18.8999 20.2362 18.821 19.0489 18.8195C16.537 18.8195 14.661 19.2915 13.4221 20.315C12.8 20.8407 12.3103 21.5022 11.9919 22.2469C11.6735 22.9917 11.535 23.7994 11.5874 24.6061C11.509 25.3247 11.5941 26.0516 11.8364 26.7337C12.0786 27.4158 12.472 28.0359 12.9879 28.549C13.5038 29.062 14.1291 29.455 14.8183 29.6993C15.5076 29.9436 16.2433 30.0331 16.972 29.9613L16.975 29.9603ZM47.2494 33.9757C46.7441 34.0164 46.2393 33.8913 45.8135 33.6197C45.4176 33.2152 45.1416 32.7113 45.0157 32.1629L36.2007 3.38662C36.018 2.90495 35.8975 2.40251 35.842 1.89113C35.8256 1.76652 35.8377 1.63986 35.8774 1.52049C35.9172 1.40111 35.9836 1.29206 36.0717 1.20137C36.1598 1.11068 36.2675 1.04066 36.3866 0.996473C36.5058 0.952283 36.6335 0.935047 36.7604 0.946037H40.47C40.9886 0.893891 41.5096 1.01886 41.9461 1.30007C42.3269 1.70952 42.5886 2.21283 42.7037 2.75689L49.0057 27.4404L54.8687 2.79655C54.9463 2.24825 55.1978 1.73828 55.5871 1.33974C56.0426 1.06991 56.5715 0.945893 57.1013 0.984713H60.1328C60.6632 0.939808 61.1943 1.06389 61.648 1.33875C62.0439 1.73271 62.2965 2.24497 62.3664 2.79556L68.3108 27.7161L74.8519 2.79556C74.9742 2.25403 75.235 1.75247 75.6095 1.33875C76.0507 1.06839 76.5679 0.94434 77.0856 0.984713H80.5953C80.7248 0.969574 80.856 0.983604 80.9792 1.02575C81.1023 1.06789 81.2142 1.13705 81.3064 1.22802C81.3985 1.31899 81.4686 1.42941 81.5113 1.55096C81.554 1.67252 81.5682 1.80205 81.5529 1.92981C81.5438 2.13003 81.5172 2.3291 81.4735 2.52483C81.4098 2.8476 81.3163 3.16395 81.1942 3.46992L72.0998 32.2432C71.9839 32.7953 71.7065 33.3018 71.302 33.7C70.8737 33.9656 70.3707 34.0896 69.8662 34.054H66.6348C66.1043 34.0989 65.5733 33.9749 65.1195 33.7C64.7244 33.29 64.4726 32.7659 64.4011 32.2045L58.5382 8.18943L52.7104 32.1648C52.6214 32.7211 52.372 33.2403 51.992 33.6603C51.5436 33.9478 51.0081 34.0729 50.4767 34.0144H47.2494V33.9757ZM95.7124 34.9991C93.7505 34.9929 91.7955 34.7684 89.8846 34.3297C88.3745 34.0238 86.9125 33.5209 85.5369 32.8342C85.0618 32.609 84.6627 32.2533 84.3874 31.8098C84.237 31.4886 84.1556 31.1401 84.1482 30.7864V28.8972C84.1482 28.1098 84.4678 27.7557 85.0254 27.7557C85.2567 27.7566 85.4861 27.7965 85.7037 27.8737C85.9428 27.9521 86.2623 28.1098 86.6612 28.2278C87.9904 28.8131 89.3821 29.2489 90.81 29.5269C92.2929 29.827 93.8038 29.9722 95.3175 29.9603C97.2327 30.0805 99.1428 29.6569 100.822 28.7395C101.434 28.3708 101.938 27.849 102.281 27.2268C102.624 26.6047 102.794 25.9042 102.775 25.1961C102.791 24.2288 102.418 23.2946 101.738 22.5979C100.642 21.676 99.3455 21.016 97.949 20.669L92.484 18.9365C90.1243 18.3318 88.0172 17.0095 86.4613 15.1571C85.2577 13.6093 84.6 11.7154 84.5883 9.76426C84.5616 8.32063 84.9191 6.89535 85.6253 5.63084C86.306 4.43303 87.2295 3.38651 88.3382 2.55656C89.5047 1.67674 90.8296 1.02324 92.2428 0.630675C93.786 0.196071 95.3848 -0.0160335 96.9895 0.000943997C97.8295 -0.00658451 98.6691 0.0461143 99.5014 0.158625C100.379 0.276637 101.176 0.434318 101.935 0.555306C102.693 0.753646 103.411 0.909344 104.089 1.15033C104.642 1.32272 105.176 1.54687 105.685 1.81973C106.13 2.03968 106.514 2.36422 106.802 2.76482C107.056 3.12091 107.183 3.55059 107.161 3.98561V5.70918C107.161 6.4966 106.841 6.8903 106.284 6.8903C105.783 6.83218 105.296 6.68538 104.848 6.45693C102.566 5.4502 100.087 4.95277 97.5883 5.00012C95.8529 4.91594 94.1242 5.26809 92.5644 6.02355C91.9923 6.36266 91.526 6.85065 91.2163 7.43404C90.9067 8.01742 90.7658 8.67368 90.809 9.33088C90.7972 9.82336 90.8906 10.3128 91.0831 10.7673C91.2756 11.2218 91.5629 11.6312 91.9263 11.9688C93.1504 12.9278 94.5633 13.6248 96.0751 14.0157L101.42 15.7085C103.695 16.2929 105.738 17.5414 107.283 19.2906C108.437 20.7794 109.042 22.6127 108.998 24.4871C109.013 25.9877 108.671 27.4709 108.001 28.8178C107.334 30.0908 106.395 31.2057 105.249 32.0855C104.012 33.0558 102.587 33.7647 101.061 34.1681C99.3373 34.7369 97.5296 35.0178 95.7124 34.9991Z" fill="white"/>
<path d="M102.159 53.2533C89.7984 62.2346 71.8347 66.9988 56.3748 66.9988C35.7444 67.1107 15.8156 59.646 0.496379 46.0683C-0.655951 45.0531 0.377241 43.6473 1.76785 44.4284C18.7961 53.991 38.0732 59.0124 57.6864 58.9943C72.3354 58.9131 86.8257 56.0074 100.336 50.4419C102.437 49.5437 104.186 51.7699 102.159 53.2533ZM107.326 47.5133C105.736 45.5213 96.8736 46.5375 92.8589 47.0451C91.6666 47.2015 91.4683 46.147 92.5406 45.3659C99.6147 40.4847 111.22 41.8904 112.571 43.5303C113.922 45.2095 112.213 56.6137 105.576 62.0792C104.542 62.938 103.588 62.4727 104.026 61.3758C105.537 57.7056 108.874 49.465 107.326 47.5133Z" fill="#FF9900"/>
</g>
<defs>
<clipPath id="clip0_4_3089">
<rect width="113" height="67" fill="white"/>
</clipPath>
</defs>
</svg>
