<svg width="116" height="25" viewBox="0 0 116 25" fill="none" xmlns="http://www.w3.org/2000/svg">
<g clip-path="url(#clip0_4_757)">
<path d="M59.9987 12.5355C59.9987 12.1774 59.9789 11.8202 59.9602 11.4803C59.9415 11.1404 59.8833 10.7832 59.8438 10.4454H50.4392L49.0054 12.7567L47.5735 15.067H54.8284C54.4308 16.5329 53.5986 17.8346 52.4479 18.7908C51.2598 19.7602 49.784 20.2803 48.2677 20.2641C47.2948 20.264 46.3319 20.0611 45.4372 19.6677C44.5425 19.2743 43.7345 18.6985 43.062 17.975C41.6769 16.508 40.9053 14.5412 40.9123 12.4959C40.9161 11.2727 41.2034 10.068 41.7502 8.98176C42.2971 7.89556 43.0878 6.95918 44.0567 6.25029C45.0257 5.54141 46.1449 5.08044 47.3216 4.90566C48.4983 4.73088 49.6986 4.84733 50.8228 5.24531C51.5757 5.50224 52.2821 5.88555 52.9134 6.37969L54.1717 4.30879L55.43 2.23792C54.439 1.51942 53.3394 0.974325 52.1758 0.624639C49.2964 -0.237277 46.2211 -0.0974698 43.4269 1.02238C41.9939 1.62988 40.6916 2.52259 39.5948 3.64928C37.561 5.76853 36.2272 8.49274 35.7824 11.4357C35.2598 13.9073 34.9699 16.1548 33.2077 17.9476C32.5262 18.6811 31.7056 19.2627 30.7968 19.6566C29.8879 20.0505 28.9102 20.2483 27.924 20.2377C25.8982 20.2313 23.957 19.4008 22.524 17.9273C21.8199 17.2256 21.2599 16.3854 20.8776 15.4566C20.4952 14.5278 20.2982 13.5295 20.2982 12.5208C20.2982 11.5121 20.4952 10.5138 20.8776 9.58501C21.2599 8.65624 21.8199 7.81603 22.524 7.11429C23.9551 5.63504 25.8956 4.79642 27.924 4.7806C28.7575 4.79479 29.585 4.92866 30.3824 5.17833C31.1289 5.41771 31.8295 5.78811 32.4533 6.27314L33.7353 4.20227L35.0172 2.13137C34.0308 1.42351 32.939 0.885483 31.7847 0.538372C30.5388 0.172018 29.2484 -0.00906894 27.9526 0.000612748C26.0042 -0.00834158 24.0814 0.458096 22.3421 1.36166C20.6027 2.26521 19.0963 3.58017 17.9464 5.19865C17.506 3.80834 16.6098 2.61864 15.4111 1.83306C14.0668 0.948503 12.498 0.493407 10.9026 0.525182H0V24.5022H12.0001C13.3911 24.5167 14.763 24.1676 15.987 23.4876C17.0771 22.8693 17.986 21.9614 18.619 20.8586C19.7432 22.1428 21.1138 23.1733 22.6443 23.8853C24.3891 24.6741 26.2827 25.053 28.1875 24.9943C30.0924 24.9357 31.9606 24.4411 33.6564 23.5464C35.3737 22.6118 36.8479 21.2665 37.9549 19.6238C39.0338 21.2714 40.498 22.6133 42.213 23.5261C44.0416 24.5048 46.0744 25.0104 48.1356 24.9994C49.71 25.0087 51.2698 24.6887 52.7203 24.0589C54.1709 23.4291 55.4819 22.5025 56.5739 21.3355C58.7934 18.9772 60.0236 15.8162 59.9997 12.5335L59.9987 12.5355ZM5.05092 10.2455V5.00787H10.799C11.4829 4.99682 12.144 5.26117 12.6411 5.74452C13.0049 6.11345 13.2529 6.58612 13.3531 7.1015C13.4532 7.61689 13.401 8.15132 13.203 8.63582C13.005 9.12033 12.6704 9.53267 12.2424 9.8196C11.8145 10.1065 11.3127 10.2549 10.802 10.2455H5.05092ZM5.05092 20.0662V14.6297H11.94C12.6636 14.6242 13.3622 14.9016 13.8945 15.406C14.1529 15.6513 14.3587 15.9496 14.4987 16.2815C14.6386 16.6135 14.7096 16.9719 14.707 17.3338C14.7082 17.6988 14.6367 18.0603 14.4969 18.3958C14.3572 18.7314 14.1522 19.034 13.8945 19.2849C13.3694 19.8033 12.6677 20.0893 11.94 20.0814H5.05191L5.05092 20.0662Z" fill="#007254"/>
<path d="M71.1889 20.9743C71.2061 21.025 71.2129 21.0787 71.2086 21.1322C71.2086 21.1915 71.2285 21.2699 71.2285 21.3332C71.2455 22.0267 70.9952 22.6995 70.5307 23.2081C70.2927 23.4528 70.0079 23.6455 69.694 23.7745C69.38 23.9034 69.0434 23.9659 68.7048 23.958C68.3505 23.9614 67.9993 23.8919 67.6722 23.7536C67.3452 23.6154 67.049 23.4114 66.8016 23.1538C66.424 22.7648 66.168 22.271 66.0659 21.7346C65.9638 21.1982 66.0201 20.643 66.2277 20.139C66.4354 19.635 66.785 19.2046 67.2328 18.902C67.6806 18.5993 68.2065 18.4379 68.7444 18.438C69.0397 18.436 69.3338 18.476 69.6182 18.5566C69.8913 18.6329 70.148 18.7601 70.3754 18.9316L70.1616 19.2673L69.9478 19.6031C69.7796 19.4703 69.5887 19.3701 69.3847 19.3076C69.1772 19.2424 68.9615 19.2086 68.7444 19.207C68.4994 19.2063 68.2567 19.2547 68.0301 19.3494C67.8036 19.4441 67.5976 19.5833 67.4241 19.7589C67.2475 19.9447 67.1086 20.1639 67.0153 20.4042C66.9221 20.6445 66.8764 20.9011 66.8808 21.1593C66.8726 21.6771 67.0604 22.1784 67.4053 22.5597C67.5713 22.7416 67.7727 22.8864 67.9968 22.9848C68.2208 23.0833 68.4626 23.1333 68.7068 23.1317C69.1323 23.144 69.5473 22.9965 69.8726 22.7175C70.1638 22.4406 70.3552 22.0725 70.4159 21.672H68.6484L68.8809 21.297L69.1135 20.9221L71.1918 20.9814L71.1889 20.9743ZM79.9692 23.9902C80.695 23.9883 81.3916 23.6999 81.9119 23.186C82.1642 22.9334 82.3645 22.6325 82.5012 22.3006C82.6379 21.9687 82.7083 21.6125 82.7083 21.2528C82.7083 20.893 82.6379 20.5368 82.5012 20.205C82.3645 19.8731 82.1642 19.5721 81.9119 19.3196C81.3937 18.8024 80.6957 18.5134 79.9692 18.5154C79.2532 18.5154 78.5665 18.8043 78.0602 19.3186C77.5539 19.8329 77.2694 20.5305 77.2694 21.2578C77.2694 21.9852 77.5539 22.6827 78.0602 23.197C78.5665 23.7113 79.2532 24.0002 79.9692 24.0002V23.9902ZM84.6702 18.6039V21.8409C84.6653 22.0202 84.6959 22.1986 84.7601 22.3656C84.8243 22.5327 84.9208 22.685 85.0439 22.8135C85.167 22.9421 85.3143 23.0442 85.4769 23.114C85.6396 23.1838 85.8143 23.2197 85.9909 23.2197C86.1674 23.2197 86.3422 23.1838 86.5048 23.114C86.6675 23.0442 86.8147 22.9421 86.9378 22.8135C87.0609 22.685 87.1574 22.5327 87.2216 22.3656C87.2858 22.1986 87.3164 22.0202 87.3116 21.8409V18.6039H88.1271V21.8399C88.1169 22.2672 87.9847 22.6823 87.7465 23.0346C87.5083 23.3869 87.1744 23.6613 86.7855 23.8244C86.3965 23.9875 85.9693 24.0322 85.5558 23.9532C85.1423 23.8741 84.7603 23.6746 84.4564 23.379C84.2541 23.1797 84.0944 22.9402 83.9875 22.6753C83.8805 22.4105 83.8286 22.1261 83.8349 21.8399V18.6039H84.6702ZM74.4924 18.6039C74.7307 18.5939 74.9687 18.6324 75.1922 18.7172C75.4156 18.802 75.6202 18.9313 75.7938 19.0975C75.9519 19.254 76.0766 19.4418 76.1602 19.6493C76.2438 19.8569 76.2844 20.0796 76.2797 20.3038C76.2838 20.6639 76.1749 21.016 75.969 21.3091C75.7637 21.5967 75.4583 21.7941 75.1149 21.861L75.7364 22.8663L76.3579 23.8716H75.3851L74.8021 22.9246L74.2192 21.9776H73.2296V23.8716H72.3943V18.6039H74.4924ZM91.6632 18.6039C92.1482 18.5969 92.6185 18.7728 92.9834 19.0975C93.1416 19.2577 93.2662 19.4488 93.3497 19.6592C93.4332 19.8696 93.4739 20.095 93.4693 20.3219C93.4723 20.5485 93.4309 20.7735 93.3475 20.9837C93.264 21.1939 93.1403 21.3852 92.9834 21.5464C92.6248 21.8823 92.1496 22.0598 91.6622 22.0399H90.4746V23.8746H89.6393V18.6069L91.6632 18.6039ZM79.9702 23.2011C79.7233 23.2027 79.4787 23.1528 79.2516 23.0544C79.0245 22.956 78.8197 22.8112 78.65 22.629C78.3008 22.2567 78.106 21.7621 78.106 21.2478C78.106 20.7334 78.3008 20.2389 78.65 19.8665C78.8209 19.6859 79.0259 19.5422 79.2527 19.4439C79.4796 19.3456 79.7236 19.2948 79.9702 19.2945C80.2197 19.2947 80.4668 19.3454 80.6968 19.4436C80.9269 19.5419 81.1354 19.6856 81.3102 19.8665C81.6573 20.2402 81.8515 20.734 81.8536 21.2478C81.859 21.763 81.6637 22.2595 81.3102 22.629C81.1378 22.8131 80.9297 22.959 80.6991 23.0574C80.4685 23.1559 80.2203 23.2048 79.9702 23.2011ZM91.6632 21.291C91.9134 21.2938 92.1557 21.2021 92.3431 21.0336C92.4348 20.9453 92.5066 20.8378 92.5535 20.7186C92.6005 20.5994 92.6216 20.4712 92.6152 20.343C92.6197 20.215 92.5977 20.0875 92.5509 19.9685C92.504 19.8496 92.4332 19.7419 92.3431 19.6524C92.1557 19.484 91.9134 19.3922 91.6632 19.395H90.4756V21.289L91.6632 21.291ZM74.4924 21.2126C74.734 21.2225 74.9703 21.1379 75.1525 20.9763C75.2375 20.8881 75.3039 20.783 75.3475 20.6677C75.3911 20.5524 75.4109 20.4292 75.4058 20.3058C75.4124 20.1823 75.3933 20.0589 75.3498 19.9434C75.3062 19.8279 75.2393 19.723 75.1532 19.6356C75.0671 19.5481 74.9639 19.4801 74.8502 19.4359C74.7365 19.3917 74.6149 19.3723 74.4934 19.3789H73.2266V21.2176L74.4924 21.2126ZM115.96 11.7407C115.977 11.7914 115.984 11.8451 115.979 11.8986C115.979 11.9579 115.999 12.0363 115.999 12.0996C116.016 12.7931 115.766 13.4659 115.301 13.9745C115.065 14.222 114.78 14.4178 114.466 14.55C114.153 14.6823 113.815 14.7481 113.476 14.7435C113.121 14.7488 112.769 14.6801 112.442 14.5418C112.115 14.4035 111.819 14.1984 111.572 13.9393C111.322 13.6819 111.125 13.3767 110.992 13.0415C110.859 12.7063 110.792 12.3476 110.795 11.986C110.79 11.6229 110.858 11.2625 110.994 10.9268C111.13 10.591 111.332 10.2868 111.587 10.0328C111.839 9.77625 112.139 9.57274 112.468 9.43388C112.798 9.29502 113.151 9.22351 113.508 9.22348C113.803 9.22144 114.098 9.26138 114.382 9.34212C114.655 9.41844 114.912 9.54557 115.139 9.71708L114.925 10.0529L114.712 10.3886C114.543 10.2558 114.352 10.1556 114.148 10.0931C113.941 10.028 113.725 9.99408 113.508 9.99254C113.263 9.99175 113.02 10.0401 112.793 10.1348C112.567 10.2295 112.361 10.3687 112.187 10.5445C111.841 10.925 111.647 11.4232 111.643 11.9414C111.639 12.4597 111.826 12.9606 112.167 13.3462C112.333 13.5281 112.535 13.6729 112.759 13.7713C112.983 13.8698 113.224 13.9198 113.469 13.9182C113.894 13.9302 114.308 13.7828 114.633 13.504C114.925 13.2272 115.116 12.859 115.177 12.4585H113.417L113.65 12.0835L113.882 11.7086L115.961 11.7478L115.96 11.7407ZM89.1395 9.37329V12.6093C89.1347 12.7886 89.1653 12.967 89.2295 13.1341C89.2937 13.3011 89.3902 13.4534 89.5133 13.582C89.6364 13.7105 89.7836 13.8126 89.9463 13.8824C90.1089 13.9522 90.2837 13.9881 90.4602 13.9881C90.6368 13.9881 90.8115 13.9522 90.9742 13.8824C91.1368 13.8126 91.2841 13.7105 91.4072 13.582C91.5303 13.4534 91.6268 13.3011 91.691 13.1341C91.7552 12.967 91.7858 12.7886 91.781 12.6093V9.37329H92.5964V12.6093C92.5862 13.0366 92.454 13.4517 92.2158 13.804C91.9776 14.1564 91.6438 14.4308 91.2548 14.5938C90.8659 14.7569 90.4386 14.8017 90.0251 14.7226C89.6116 14.6435 89.2297 14.444 88.9257 14.1484C88.7234 13.9492 88.5638 13.7096 88.4568 13.4448C88.3499 13.1799 88.2979 12.8955 88.3042 12.6093V9.37329H89.1395ZM85.2739 14.7596C85.76 14.7816 86.237 14.6209 86.6139 14.3083C86.7691 14.1627 86.8925 13.9856 86.9762 13.7886C87.0599 13.5915 87.102 13.3788 87.0998 13.1642C87.1098 12.9628 87.0707 12.7619 86.986 12.5796C86.9012 12.3972 86.7734 12.2389 86.6139 12.1187C86.2815 11.892 85.9133 11.7251 85.5252 11.6251C85.2396 11.561 84.9649 11.4547 84.7097 11.3095C84.6137 11.2596 84.5335 11.183 84.4785 11.0887C84.4235 10.9944 84.3959 10.8862 84.399 10.7767C84.3972 10.6778 84.4152 10.5795 84.4519 10.4879C84.4887 10.3963 84.5434 10.3133 84.6128 10.2439C84.8046 10.0875 85.0473 10.01 85.2927 10.0267C85.7111 10.0365 86.1169 10.1738 86.4575 10.4208L86.6713 10.085L86.885 9.74926C86.6734 9.59249 86.4377 9.47256 86.1873 9.39439C85.9106 9.30722 85.6229 9.26085 85.3332 9.25668C84.8658 9.23112 84.4061 9.38629 84.0467 9.69097C83.8966 9.83531 83.7777 10.0097 83.6974 10.2032C83.6172 10.3967 83.5774 10.605 83.5805 10.8149C83.5679 11.0166 83.6059 11.2184 83.6909 11.4012C83.7759 11.584 83.9051 11.742 84.0665 11.8604C84.4 12.0804 84.7682 12.2405 85.1551 12.3339C85.438 12.4069 85.7116 12.5128 85.9706 12.6495C86.0667 12.6994 86.1468 12.776 86.2018 12.8703C86.2568 12.9646 86.2844 13.0728 86.2813 13.1823C86.2848 13.2881 86.2636 13.3931 86.2196 13.489C86.1756 13.5849 86.1099 13.6689 86.028 13.7342C85.815 13.8932 85.5533 13.9701 85.2897 13.9514C85.0378 13.9475 84.7882 13.901 84.5514 13.8136C84.3152 13.7152 84.0878 13.5964 83.8715 13.4588L83.6577 13.7945L83.444 14.1303C83.6821 14.3105 83.9435 14.4566 84.2208 14.5646C84.5546 14.6992 84.9108 14.7674 85.2699 14.7656L85.2739 14.7596ZM73.95 14.7596C74.6758 14.7579 75.3725 14.4694 75.8928 13.9554C76.3388 13.5032 76.6169 12.908 76.6796 12.271C76.7424 11.6341 76.586 10.9947 76.2371 10.4616C75.8881 9.92854 75.3682 9.53474 74.7657 9.34715C74.1631 9.15956 73.5152 9.18977 72.9321 9.43265C72.3491 9.67554 71.8668 10.1161 71.5674 10.6794C71.2681 11.2427 71.17 11.8939 71.29 12.5224C71.4099 13.1508 71.7405 13.7176 72.2255 14.1264C72.7105 14.5352 73.3199 14.7608 73.95 14.7647V14.7596ZM66.005 12.0162C66.0041 12.3787 66.0735 12.7377 66.2094 13.0729C66.3452 13.4081 66.5448 13.7127 66.7967 13.9695C67.3224 14.487 68.0262 14.7755 68.7582 14.7737C69.0882 14.7758 69.4162 14.7224 69.7291 14.6159C70.0111 14.5184 70.2741 14.3714 70.506 14.1816L70.2922 13.8458L70.0784 13.51C69.8916 13.6617 69.6817 13.7816 69.4569 13.8649C69.2258 13.9457 68.9828 13.9859 68.7384 13.9835C68.4946 13.9833 68.2534 13.9323 68.0296 13.834C67.8058 13.7356 67.6041 13.5919 67.437 13.4115C67.0865 13.0323 66.8921 12.5313 66.8937 12.0112C66.8885 11.7528 66.9338 11.496 67.0271 11.2556C67.1203 11.0152 67.2597 10.796 67.437 10.6108C67.6041 10.4304 67.8058 10.2867 68.0296 10.1883C68.2534 10.09 68.4946 10.0391 68.7384 10.0388C68.9829 10.0348 69.2262 10.075 69.4569 10.1574C69.6817 10.2407 69.8916 10.3606 70.0784 10.5123L70.2922 10.1765L70.506 9.84074C70.2719 9.65411 70.0095 9.50743 69.7291 9.40645C69.4162 9.29987 69.0882 9.24656 68.7582 9.24864C68.3979 9.24344 68.04 9.31106 67.7056 9.44756C67.3712 9.58406 67.0668 9.7867 66.8101 10.0437C66.5535 10.3008 66.3497 10.6071 66.2107 10.9449C66.0716 11.2826 66 11.6451 66 12.0112L66.005 12.0162ZM103.513 14.641H102.678V9.37329H103.513V14.641ZM106.155 14.641H105.363V9.37329H106.392L107.598 11.3658L108.803 13.3582V9.37329H109.595V14.641H108.624L107.381 12.6083L106.138 10.5756V14.64L106.155 14.641ZM101.412 10.1594H99.7804V14.638H98.9244V10.1594H97.3122V9.37028H101.41V10.1594H101.412ZM94.9053 13.8518H97.4735V14.641H94.074V9.37528H94.9093V13.8539L94.9053 13.8518ZM78.6658 14.641H77.8741V9.37528H78.9033L80.1088 11.3678L81.3142 13.3603V9.37528H82.1059V14.643H81.135L79.892 12.6103L78.649 10.5776V14.642L78.6658 14.641ZM73.9461 13.9705C73.6992 13.9721 73.4546 13.9222 73.2275 13.8238C73.0003 13.7254 72.7956 13.5806 72.6259 13.3985C72.2788 13.0247 72.0845 12.531 72.0825 12.0172C72.0771 11.502 72.2724 11.0055 72.6259 10.6359C72.7967 10.4553 73.0017 10.3116 73.2286 10.2133C73.4554 10.115 73.6995 10.0642 73.9461 10.0639C74.1956 10.0642 74.4426 10.1149 74.6727 10.2131C74.9028 10.3113 75.1113 10.455 75.2861 10.6359C75.6332 11.0096 75.8274 11.5034 75.8294 12.0172C75.8348 12.5324 75.6395 13.0289 75.2861 13.3985C75.1114 13.5797 74.903 13.7238 74.6729 13.8224C74.4429 13.9209 74.1958 13.972 73.9461 13.9725V13.9705ZM89.1603 5.50592C89.8861 5.50415 90.5828 5.21576 91.103 4.7017C91.6079 4.18879 91.8925 3.49383 91.8948 2.76853C91.889 2.03801 91.6053 1.33808 91.103 0.815254C90.5938 0.303348 89.9063 0.0162048 89.1899 0.0162187C88.4735 0.0162325 87.786 0.30339 87.2768 0.815315C86.7676 1.32724 86.4779 2.02258 86.4705 2.75027C86.4631 3.47796 86.7387 4.17922 87.2374 4.7017C87.4875 4.96118 87.7869 5.16629 88.1175 5.30454C88.448 5.4428 88.8028 5.5113 89.1603 5.50592ZM79.1765 5.50592C79.6638 5.5369 80.144 5.37515 80.5165 5.05454C80.6717 4.90895 80.7952 4.73192 80.8789 4.53487C80.9626 4.33782 81.0047 4.12515 81.0024 3.91055C81.0125 3.70911 80.9734 3.50827 80.8886 3.32587C80.8038 3.14348 80.676 2.98517 80.5165 2.86504C80.1799 2.6463 79.8129 2.47993 79.4279 2.37145C79.1423 2.30736 78.8675 2.20101 78.6124 2.05579C78.5163 2.00588 78.4361 1.92932 78.3811 1.83502C78.3261 1.74073 78.2986 1.63255 78.3016 1.52299C78.2998 1.42409 78.3178 1.32584 78.3546 1.23424C78.3913 1.14264 78.446 1.05958 78.5154 0.990155C78.7072 0.833816 78.9499 0.756352 79.1953 0.773039C79.6137 0.782865 80.0195 0.920157 80.3601 1.16711L80.5739 0.831329L80.7877 0.495578C80.5761 0.338805 80.3403 0.218882 80.0899 0.140714C79.8132 0.0535261 79.5256 0.00712073 79.2359 0.00296534C78.7684 -0.022589 78.3087 0.132578 77.9493 0.437257C77.7992 0.5816 77.6803 0.756036 77.6001 0.949505C77.5198 1.14297 77.48 1.35127 77.4832 1.56118C77.4706 1.76296 77.5086 1.96469 77.5935 2.14752C77.6785 2.33035 77.8077 2.48831 77.9691 2.60666C78.3026 2.82666 78.6708 2.98683 79.0577 3.08016C79.3406 3.15312 79.6143 3.25904 79.8732 3.39582C79.9693 3.44573 80.0494 3.52229 80.1044 3.61659C80.1594 3.71088 80.187 3.81906 80.184 3.92862C80.1875 4.03437 80.1663 4.13948 80.1223 4.23538C80.0783 4.33128 80.0126 4.41527 79.9306 4.48054C79.7176 4.63949 79.456 4.71644 79.1923 4.69768C78.9404 4.69382 78.6909 4.64728 78.454 4.55997C78.2179 4.4615 77.9904 4.34278 77.7741 4.2051L77.5603 4.54085L77.3466 4.87663C77.5848 5.0568 77.8462 5.2029 78.1235 5.3109C78.4545 5.45485 78.8126 5.52348 79.1725 5.51197L79.1765 5.50592ZM73.7957 5.50592C74.5214 5.50405 75.218 5.21567 75.7384 4.7017C76.2432 4.18879 76.5279 3.49383 76.5301 2.76853C76.5244 2.03801 76.2407 1.33808 75.7384 0.815254C75.2292 0.303348 74.5417 0.0162048 73.8253 0.0162187C73.1088 0.0162325 72.4214 0.30339 71.9122 0.815315C71.403 1.32724 71.1132 2.02258 71.1058 2.75027C71.0984 3.47796 71.374 4.17922 71.8727 4.7017C72.1228 4.96118 72.4223 5.16629 72.7528 5.30454C73.0834 5.4428 73.4382 5.5113 73.7957 5.50592ZM94.1087 0.138689L95.3141 2.13218L96.5195 4.12466V0.139702H97.3112V5.40741H96.3384L95.0983 3.37572L93.8553 1.34302V5.42751H93.0784V0.158784L94.1077 0.138689H94.1087ZM85.9112 0.138689V0.927846H84.2792V5.4064H83.4251V0.927846H81.813V0.138689H85.9112ZM68.3129 0.138689C68.7281 0.132631 69.1327 0.271764 69.4589 0.532761C69.6037 0.656009 69.7203 0.809732 69.8008 0.983313C69.8813 1.15689 69.9237 1.34618 69.925 1.53805C69.9267 1.75208 69.8732 1.96283 69.7697 2.14927C69.662 2.33146 69.5087 2.48134 69.3253 2.58356C69.5701 2.69377 69.7789 2.87269 69.927 3.09928C70.0674 3.32336 70.1416 3.58363 70.1408 3.84922C70.1419 4.05306 70.101 4.25485 70.0207 4.44167C69.9404 4.62848 69.8226 4.79615 69.6747 4.93391C69.3483 5.2281 68.9231 5.38359 68.487 5.3682H66.2722V0.106507L68.3119 0.145715L68.3129 0.138689ZM89.1603 4.71376C88.9134 4.71542 88.6688 4.66551 88.4417 4.56711C88.2145 4.46871 88.0098 4.32392 87.8401 4.14175C87.493 3.76803 87.2988 3.27426 87.2967 2.76049C87.295 2.24598 87.4898 1.75085 87.8401 1.37923C88.0112 1.19915 88.2163 1.05595 88.4432 0.958187C88.67 0.860426 88.9139 0.810105 89.1603 0.810222C89.4098 0.810475 89.6568 0.861177 89.8869 0.959384C90.117 1.05759 90.3255 1.20134 90.5003 1.38223C90.8474 1.75595 91.0416 2.24972 91.0437 2.76349C91.0491 3.27871 90.8538 3.7752 90.5003 4.14476C90.328 4.32879 90.1199 4.47441 89.8892 4.57236C89.6585 4.67031 89.4103 4.71847 89.1603 4.71376ZM73.7957 4.71376C73.5487 4.71542 73.3041 4.66551 73.077 4.56711C72.8499 4.46871 72.6451 4.32392 72.4754 4.14175C72.1283 3.76803 71.9341 3.27426 71.9321 2.76049C71.9305 2.246 72.1252 1.75091 72.4754 1.37923C72.646 1.19976 72.8503 1.05691 73.0762 0.959169C73.3022 0.861428 73.5451 0.810779 73.7907 0.810222C74.0403 0.810475 74.2872 0.861177 74.5173 0.959384C74.7474 1.05759 74.9559 1.20134 75.1307 1.38223C75.4778 1.75595 75.672 2.24972 75.674 2.76349C75.6795 3.27871 75.4842 3.7752 75.1307 4.14476C74.9587 4.32933 74.7507 4.47554 74.52 4.57402C74.2893 4.67249 74.0409 4.72109 73.7907 4.71677L73.7957 4.71376ZM68.4514 4.63534C68.5593 4.6384 68.6667 4.61903 68.7669 4.5784C68.8671 4.53778 68.9582 4.47677 69.0343 4.39912C69.1802 4.25333 69.2638 4.05506 69.2669 3.8472C69.2697 3.7436 69.2504 3.6406 69.2102 3.54532C69.1701 3.45004 69.1101 3.36473 69.0343 3.29528C68.8734 3.1517 68.6656 3.07429 68.4514 3.07817H67.1114V4.61724L68.4514 4.63737V4.63534ZM68.3158 2.36642C68.416 2.36833 68.5156 2.35014 68.6088 2.31288C68.7021 2.27562 68.7871 2.22001 68.8592 2.14927C68.9963 2.00688 69.073 1.81563 69.073 1.61647C69.073 1.4173 68.9963 1.22605 68.8592 1.08366C68.7871 1.01292 68.7021 0.957316 68.6088 0.920053C68.5156 0.88279 68.416 0.864601 68.3158 0.866518H67.1104V2.34831L68.3158 2.36841V2.36642Z" fill="#007254"/>
</g>
<defs>
<clipPath id="clip0_4_757">
<rect width="116" height="25" fill="white" transform="translate(0 0.000244141)"/>
</clipPath>
</defs>
</svg>
