<svg width="96" height="89" viewBox="0 0 96 89" fill="none" xmlns="http://www.w3.org/2000/svg">
<g clip-path="url(#clip0_4_3232)">
<g opacity="0.6">
<path d="M21.0156 6L21 7H22L21.9844 6H21.0156Z" fill="white"/>
<path d="M25.501 38C25.5665 38 25.6314 37.9939 25.692 37.9821C25.7525 37.9703 25.8075 37.953 25.8538 37.9311C25.9002 37.9093 25.9369 37.8834 25.962 37.8548C25.9871 37.8263 26 37.7957 26 37.7649V36.2356C26 36.1731 25.9473 36.1132 25.8536 36.069C25.7598 36.0248 25.6326 36 25.5 36C25.3674 36 25.2402 36.0248 25.1464 36.069C25.0527 36.1132 25 36.1731 25 36.2356V37.7649C25 37.7957 25.0129 37.8263 25.038 37.8548C25.0631 37.8834 25.0998 37.9093 25.1462 37.9311C25.1925 37.953 25.2475 37.9703 25.308 37.9821C25.3686 37.9939 25.4355 38 25.501 38Z" fill="white"/>
<path d="M23.499 36C23.3666 36 23.2397 36.0248 23.1461 36.0689C23.0526 36.113 23 36.1728 23 36.2351V37.7644C23 37.8269 23.0527 37.8868 23.1465 37.931C23.2402 37.9752 23.3674 38 23.5 38C23.6326 38 23.7598 37.9752 23.8536 37.931C23.9473 37.8868 24 37.8269 24 37.7644V36.2351C24 36.1728 23.9474 36.113 23.8539 36.0689C23.7603 36.0248 23.6313 36 23.499 36Z" fill="white"/>
<path d="M26.7435 35.5664H24.78V34.1245C24.78 34.0594 24.753 33.9969 24.7048 33.9508C24.6567 33.9048 24.5915 33.8789 24.5235 33.8789H23.3577V31.4973C23.3577 31.4322 23.3306 31.3697 23.2825 31.3237C23.2344 31.2776 23.1692 31.2517 23.1011 31.2517H22.5944L22.3191 20.8118H23.3087C23.3767 20.8118 23.4419 20.786 23.49 20.7399C23.5381 20.6938 23.5652 20.6313 23.5652 20.5662V19.2251C23.5652 19.16 23.5381 19.0975 23.49 19.0514C23.4419 19.0054 23.3767 18.9795 23.3087 18.9795H22.2659L22.2503 18.3804L21.9364 6.28189H22.5328C22.5665 6.28189 22.5999 6.27554 22.631 6.2632C22.6621 6.25085 22.6904 6.23276 22.7142 6.20995C22.7381 6.18714 22.7569 6.16006 22.7698 6.13025C22.7827 6.10045 22.7894 6.06851 22.7894 6.03625V5.16951C22.7894 5.10436 22.7623 5.04188 22.7142 4.99581C22.6661 4.94974 22.6009 4.92386 22.5328 4.92386H21.8999L21.8133 1.61466L21.7769 0.239653C21.7752 0.17572 21.7476 0.114916 21.6999 0.0701644C21.6522 0.0254124 21.5882 0.000240962 21.5214 1.08842e-08H20.4786C20.4117 -1.9065e-05 20.3473 0.0250372 20.2994 0.0698164C20.2515 0.114596 20.2237 0.175548 20.2221 0.239653L20.1001 4.92286H19.4672C19.3991 4.92286 19.3339 4.94875 19.2858 4.99481C19.2377 5.04088 19.2106 5.10336 19.2106 5.16851V6.03525C19.2106 6.1004 19.2377 6.16288 19.2858 6.20895C19.3339 6.25502 19.3991 6.2809 19.4672 6.2809H20.0646L19.731 18.9775H18.6882C18.6202 18.9775 18.5549 19.0034 18.5068 19.0494C18.4587 19.0955 18.4317 19.158 18.4317 19.2231V20.5702C18.4317 20.6353 18.4587 20.6978 18.5068 20.7439C18.5549 20.7899 18.6202 20.8158 18.6882 20.8158H19.6788L19.4077 31.2547H18.8989C18.8308 31.2547 18.7656 31.2806 18.7175 31.3266C18.6694 31.3727 18.6423 31.4352 18.6423 31.5003V33.8819H17.4776C17.4095 33.8819 17.3443 33.9078 17.2962 33.9538C17.2481 33.9999 17.2211 34.0624 17.2211 34.1275V35.5694H15.2565C15.2228 35.5694 15.1895 35.5758 15.1583 35.5881C15.1272 35.6005 15.099 35.6186 15.0751 35.6414C15.0513 35.6642 15.0324 35.6913 15.0195 35.7211C15.0066 35.7509 15 35.7828 15 35.8151V38.5561C15 38.5884 15.0066 38.6203 15.0195 38.6501C15.0324 38.6799 15.0513 38.707 15.0751 38.7298C15.099 38.7526 15.1272 38.7707 15.1583 38.7831C15.1895 38.7954 15.2228 38.8018 15.2565 38.8018H16.1762V41.2662C16.1762 41.2984 16.1829 41.3304 16.1957 41.3602C16.2086 41.39 16.2275 41.4171 16.2514 41.4399C16.2752 41.4627 16.3034 41.4808 16.3346 41.4931C16.3657 41.5055 16.3991 41.5118 16.4327 41.5118H18.8071L16.5777 88.7434C16.5761 88.7765 16.5816 88.8097 16.5938 88.8408C16.606 88.8718 16.6247 88.9002 16.6486 88.9242C16.6726 88.9482 16.7014 88.9673 16.7333 88.9803C16.7652 88.9933 16.7995 89 16.8342 89H25.1658C25.2005 89 25.2348 88.9933 25.2667 88.9803C25.2986 88.9673 25.3274 88.9482 25.3514 88.9242C25.3753 88.9002 25.394 88.8718 25.4062 88.8408C25.4184 88.8097 25.4239 88.7765 25.4223 88.7434L23.1929 41.5118H25.5673C25.6353 41.5118 25.7005 41.486 25.7486 41.4399C25.7967 41.3938 25.8238 41.3313 25.8238 41.2662V38.7988H26.7435C26.8115 38.7988 26.8768 38.7729 26.9249 38.7268C26.973 38.6807 27 38.6183 27 38.5531V35.8121C27 35.7469 26.973 35.6845 26.9249 35.6384C26.8768 35.5923 26.8115 35.5664 26.7435 35.5664ZM20.7341 0.492286H21.2763L21.2993 1.36802H20.7122L20.7341 0.492286ZM20.6986 1.8603H21.3118L21.3921 4.92386H20.6194L20.6986 1.8603ZM19.7289 5.41515H22.2805V5.79161H19.7247L19.7289 5.41515ZM21.4494 7.28943L21.7341 18.1337H20.2669L20.5516 7.28943H21.4494ZM20.5641 6.79715L20.5777 6.2779H21.4223L21.4359 6.79715H20.5641ZM21.7466 18.625L21.756 18.9755H20.244L20.2534 18.625H21.7466ZM18.9479 19.4668H23.0511V20.3166H18.9479V19.4668ZM21.8311 21.7924L22.0803 31.2467H19.9207L20.1689 21.7924H21.8311ZM20.1825 21.3001L20.196 20.8078H21.8061L21.8196 21.3001H20.1825ZM19.1554 31.738H22.8436V33.8739H19.1564L19.1554 31.738ZM17.7341 34.3702H24.2659V35.5684H17.7341V34.3702ZM20.7435 88.5037H17.1032L17.1533 87.4303H20.7424L20.7435 88.5037ZM20.7435 86.939H17.1773L17.2294 85.8406H20.7435V86.939ZM20.7435 85.3413H17.2523L17.3045 84.2429H20.7456L20.7435 85.3413ZM20.7435 83.7436H17.3274L17.3796 82.6452H20.7435V83.7436ZM20.7435 82.1459H17.4067L17.4588 81.0475H20.7477L20.7435 82.1459ZM20.7435 80.5483H17.4776L17.5297 79.4498H20.7435V80.5483ZM20.7435 78.9506H17.5537L17.6058 77.8522H20.7435V78.9506ZM20.7435 77.3529H17.6288L17.6809 76.2545H20.7435V77.3529ZM20.7435 75.7552H17.7039L17.756 74.6568H20.7435V75.7552ZM20.7435 74.1575H17.7789L17.8311 73.0591H20.7435V74.1575ZM20.7435 72.5598H17.854L17.9061 71.4614H20.7435V72.5598ZM20.7435 70.9622H17.928L17.9802 69.8637H20.7424L20.7435 70.9622ZM20.7435 69.3645H18.0052L18.0574 68.2661H20.7445L20.7435 69.3645ZM20.7435 67.7668H18.0803L18.1314 66.6684H20.7383L20.7435 67.7668ZM20.7435 66.1691H18.1554L18.2065 65.0707H20.7424L20.7435 66.1691ZM20.7435 64.5714H18.2315L18.2836 63.473H20.7445L20.7435 64.5714ZM20.7435 62.9737H18.3055L18.3577 61.8753H20.7435V62.9737ZM20.7435 61.376H18.3806L18.4327 60.2776H20.7435V61.376ZM20.7435 59.7784H18.4567L18.5089 58.6799H20.7445L20.7435 59.7784ZM20.7435 58.1807H18.5318L18.5839 57.0823H20.7435V58.1807ZM20.7435 56.583H18.6069L18.659 55.4846H20.7445L20.7435 56.583ZM20.7435 54.9853H18.682L18.7341 53.8869H20.7435V54.9853ZM20.7435 53.3876H18.7529L18.805 52.2892H20.7393L20.7435 53.3876ZM20.7435 51.7899H18.8321L18.8843 50.6915H20.7435V51.7899ZM20.7435 50.1922H18.9082L18.9604 49.0938H20.7445L20.7435 50.1922ZM20.7435 48.5946H18.9833L19.0354 47.4962H20.7435V48.5946ZM20.7435 46.9969H19.0584L19.1105 45.8985H20.7435V46.9969ZM20.7435 45.3992H19.1335L19.1856 44.3008H20.7435V45.3992ZM20.7435 43.8015H19.2085L19.2607 42.7031H20.7435V43.8015ZM20.7435 42.2038H19.2836L19.3212 41.405H20.7424L20.7435 42.2038ZM21.6997 88.3989H21.2555V41.5088H21.6976L21.6997 88.3989ZM24.8978 88.3989H22.2127V41.5088H22.6788L24.8978 88.3989ZM25.3149 40.9117H16.6903V40.3805H25.3107L25.3149 40.9117ZM25.3149 39.8892H16.6903V38.6909H25.3107L25.3149 39.8892ZM26.4911 38.2016H15.5141V36.0577H26.487L26.4911 38.2016Z" fill="white"/>
<path d="M24 36.2355V37.7644C24 37.8269 24.0527 37.8868 24.1464 37.931C24.2402 37.9752 24.3674 38 24.5 38C24.6326 38 24.7598 37.9752 24.8536 37.931C24.9473 37.8868 25 37.8269 25 37.7644V36.2355C25 36.1731 24.9473 36.1132 24.8536 36.069C24.7598 36.0248 24.6326 36 24.5 36C24.3674 36 24.2402 36.0248 24.1464 36.069C24.0527 36.1132 24 36.1731 24 36.2355Z" fill="white"/>
<path d="M23.499 36C23.3666 36 23.2397 36.0248 23.1461 36.0689C23.0526 36.113 23 36.1728 23 36.2351V37.7644C23 37.8269 23.0527 37.8868 23.1465 37.931C23.2402 37.9752 23.3674 38 23.5 38C23.6326 38 23.7598 37.9752 23.8536 37.931C23.9473 37.8868 24 37.8269 24 37.7644V36.2351C24 36.1728 23.9474 36.113 23.8539 36.0689C23.7603 36.0248 23.6313 36 23.499 36Z" fill="white"/>
<path d="M17.499 36C17.3666 36 17.2397 36.0248 17.1462 36.0689C17.0526 36.113 17 36.1728 17 36.2351V37.7644C17 37.8269 17.0527 37.8868 17.1464 37.931C17.2402 37.9752 17.3674 38 17.5 38C17.6326 38 17.7598 37.9752 17.8536 37.931C17.9473 37.8868 18 37.8269 18 37.7644V36.2351C18 36.1728 17.9474 36.113 17.8538 36.0689C17.7603 36.0248 17.6313 36 17.499 36Z" fill="white"/>
<path d="M16.499 36C16.3666 36 16.2397 36.0248 16.1461 36.0689C16.0526 36.113 16 36.1728 16 36.2351V37.7644C16 37.8269 16.0527 37.8868 16.1464 37.931C16.2402 37.9752 16.3674 38 16.5 38C16.6326 38 16.7598 37.9752 16.8536 37.931C16.9473 37.8868 17 37.8269 17 37.7644V36.2351C17 36.1728 16.9474 36.113 16.8538 36.0689C16.7603 36.0248 16.6313 36 16.499 36Z" fill="white"/>
<path d="M22.499 36C22.3666 36 22.2397 36.0248 22.1461 36.0689C22.0526 36.113 22 36.1728 22 36.2351V37.7644C22 37.8269 22.0527 37.8868 22.1464 37.931C22.2402 37.9752 22.3674 38 22.5 38C22.6326 38 22.7598 37.9752 22.8536 37.931C22.9473 37.8868 23 37.8269 23 37.7644V36.2351C23 36.1728 22.9474 36.113 22.8539 36.0689C22.7603 36.0248 22.6313 36 22.499 36Z" fill="white"/>
<path d="M18.499 36C18.3666 36 18.2397 36.0248 18.1462 36.0689C18.0526 36.113 18 36.1728 18 36.2351V37.7644C18 37.8269 18.0527 37.8868 18.1464 37.931C18.2402 37.9752 18.3674 38 18.5 38C18.6326 38 18.7598 37.9752 18.8536 37.931C18.9473 37.8868 19 37.8269 19 37.7644V36.2351C19 36.1728 18.9474 36.113 18.8538 36.0689C18.7603 36.0248 18.6334 36 18.501 36" fill="white"/>
<path d="M19.499 36C19.3667 36 19.2397 36.0248 19.1462 36.0689C19.0526 36.113 19 36.1728 19 36.2351V37.7644C19 37.8269 19.0527 37.8868 19.1464 37.931C19.2402 37.9752 19.3674 38 19.5 38C19.6326 38 19.7598 37.9752 19.8536 37.931C19.9473 37.8868 20 37.8269 20 37.7644V36.2351C20 36.1728 19.9474 36.113 19.8538 36.0689C19.7603 36.0248 19.6313 36 19.499 36Z" fill="white"/>
<path d="M21.499 36C21.3666 36 21.2397 36.0248 21.1461 36.0689C21.0526 36.113 21 36.1728 21 36.2351V37.7644C21 37.8269 21.0527 37.8868 21.1464 37.931C21.2402 37.9752 21.3674 38 21.5 38C21.6326 38 21.7598 37.9752 21.8535 37.931C21.9473 37.8868 22 37.8269 22 37.7644V36.2351C22 36.1728 21.9474 36.113 21.8539 36.0689C21.7603 36.0248 21.6313 36 21.499 36Z" fill="white"/>
<path d="M20.499 36C20.3667 36 20.2397 36.0248 20.1462 36.0689C20.0526 36.113 20 36.1728 20 36.2351V37.7644C20 37.8269 20.0527 37.8868 20.1464 37.931C20.2402 37.9752 20.3674 38 20.5 38C20.6326 38 20.7598 37.9752 20.8536 37.931C20.9473 37.8868 21 37.8269 21 37.7644V36.2351C21 36.1728 20.9474 36.113 20.8539 36.0689C20.7603 36.0248 20.6313 36 20.499 36Z" fill="white"/>
<path d="M33.244 75H34.754C34.8192 75 34.8818 74.9756 34.9279 74.9323C34.9741 74.8889 35 74.8301 35 74.7688V72.9398C35 72.6906 34.8946 72.4515 34.7071 72.2753C34.5196 72.099 34.2652 72 34 72C33.7348 72 33.4804 72.099 33.2929 72.2753C33.1054 72.4515 33 72.6906 33 72.9398V74.7688C33 74.7992 33.0064 74.8292 33.0187 74.8573C33.0311 74.8853 33.0492 74.9108 33.0721 74.9323C33.0949 74.9538 33.122 74.9708 33.1519 74.9824C33.1817 74.994 33.2137 75 33.246 75M33.492 72.9389C33.4978 72.8158 33.5539 72.6996 33.6487 72.6144C33.7434 72.5293 33.8694 72.4817 34.0005 72.4817C34.1316 72.4817 34.2576 72.5293 34.3524 72.6144C34.4471 72.6996 34.5032 72.8158 34.509 72.9389V74.5366H33.49L33.492 72.9389Z" fill="white"/>
<path d="M36.244 75H37.754C37.8192 75 37.8818 74.9756 37.9279 74.9323C37.9741 74.8889 38 74.8301 38 74.7688V72.9398C38 72.6906 37.8946 72.4515 37.7071 72.2753C37.5196 72.099 37.2652 72 37 72C36.7348 72 36.4804 72.099 36.2929 72.2753C36.1054 72.4515 36 72.6906 36 72.9398V74.7688C36 74.8301 36.0259 74.8889 36.072 74.9323C36.1182 74.9756 36.1807 75 36.246 75M36.492 72.9389C36.4978 72.8158 36.5539 72.6996 36.6486 72.6144C36.7434 72.5293 36.8694 72.4817 37.0005 72.4817C37.1316 72.4817 37.2576 72.5293 37.3523 72.6144C37.4471 72.6996 37.5032 72.8158 37.509 72.9389V74.5366H36.492V72.9389Z" fill="white"/>
<path d="M50.244 75H51.754C51.8192 75 51.8818 74.9756 51.9279 74.9323C51.9741 74.8889 52 74.8301 52 74.7688V72.9398C52 72.6906 51.8947 72.4515 51.7071 72.2753C51.5196 72.099 51.2652 72 51 72C50.7348 72 50.4804 72.099 50.2929 72.2753C50.1054 72.4515 50 72.6906 50 72.9398V74.7688C50 74.8301 50.0259 74.8889 50.0721 74.9323C50.1182 74.9756 50.1808 75 50.246 75M50.492 72.9389C50.489 72.8744 50.4999 72.8099 50.524 72.7494C50.5482 72.6889 50.5852 72.6337 50.6327 72.587C50.6802 72.5403 50.7373 72.5032 50.8005 72.4778C50.8638 72.4524 50.9318 72.4393 51.0005 72.4393C51.0693 72.4393 51.1373 72.4524 51.2005 72.4778C51.2637 72.5032 51.3208 72.5403 51.3683 72.587C51.4158 72.6337 51.4528 72.6889 51.477 72.7494C51.5012 72.8099 51.512 72.8744 51.509 72.9389V74.5366H50.491L50.492 72.9389Z" fill="white"/>
<path d="M59.244 75H60.754C60.8193 75 60.8818 74.9756 60.9279 74.9323C60.9741 74.8889 61 74.8301 61 74.7688V72.9398C61 72.6906 60.8947 72.4515 60.7071 72.2753C60.5196 72.099 60.2652 72 60 72C59.7348 72 59.4804 72.099 59.2929 72.2753C59.1054 72.4515 59 72.6906 59 72.9398V74.7688C59 74.8301 59.0259 74.8889 59.0721 74.9323C59.1182 74.9756 59.1808 75 59.246 75M59.492 72.9389C59.4978 72.8158 59.5539 72.6996 59.6487 72.6144C59.7434 72.5293 59.8694 72.4817 60.0005 72.4817C60.1316 72.4817 60.2576 72.5293 60.3524 72.6144C60.4471 72.6996 60.5032 72.8158 60.509 72.9389V74.5366H59.491L59.492 72.9389Z" fill="white"/>
<path d="M53.244 75H54.754C54.8192 75 54.8818 74.9756 54.9279 74.9323C54.9741 74.8889 55 74.8301 55 74.7688V72.9398C55 72.6906 54.8946 72.4515 54.7071 72.2753C54.5196 72.099 54.2652 72 54 72C53.7348 72 53.4804 72.099 53.2929 72.2753C53.1053 72.4515 53 72.6906 53 72.9398V74.7688C53 74.8301 53.0259 74.8889 53.0721 74.9323C53.1182 74.9756 53.1808 75 53.246 75M53.492 72.9389C53.4978 72.8158 53.5539 72.6996 53.6487 72.6144C53.7434 72.5293 53.8694 72.4817 54.0005 72.4817C54.1316 72.4817 54.2576 72.5293 54.3524 72.6144C54.4471 72.6996 54.5032 72.8158 54.509 72.9389V74.5366H53.492V72.9389Z" fill="white"/>
<path d="M39.244 75H40.754C40.8192 75 40.8818 74.9756 40.9279 74.9323C40.9741 74.8889 41 74.8301 41 74.7688V72.9398C41 72.6906 40.8946 72.4515 40.7071 72.2753C40.5196 72.099 40.2652 72 40 72C39.7348 72 39.4804 72.099 39.2929 72.2753C39.1054 72.4515 39 72.6906 39 72.9398V74.7688C39 74.7992 39.0064 74.8292 39.0187 74.8573C39.0311 74.8853 39.0492 74.9108 39.0721 74.9323C39.0949 74.9538 39.122 74.9708 39.1519 74.9824C39.1817 74.994 39.2137 75 39.246 75M39.492 72.9389C39.489 72.8744 39.4999 72.8099 39.524 72.7494C39.5482 72.6889 39.5852 72.6337 39.6327 72.587C39.6802 72.5403 39.7373 72.5032 39.8005 72.4778C39.8637 72.4524 39.9318 72.4393 40.0005 72.4393C40.0692 72.4393 40.1373 72.4524 40.2005 72.4778C40.2637 72.5032 40.3208 72.5403 40.3683 72.587C40.4158 72.6337 40.4528 72.6889 40.477 72.7494C40.5012 72.8099 40.512 72.8744 40.509 72.9389V74.5366H39.492V72.9389Z" fill="white"/>
<path d="M47.244 75H48.754C48.8192 75 48.8818 74.9756 48.9279 74.9323C48.9741 74.8889 49 74.8301 49 74.7688V72.9398C49 72.6906 48.8947 72.4515 48.7071 72.2753C48.5196 72.099 48.2652 72 48 72C47.7348 72 47.4804 72.099 47.2929 72.2753C47.1054 72.4515 47 72.6906 47 72.9398V74.7688C47 74.8301 47.0259 74.8889 47.0721 74.9323C47.1182 74.9756 47.1808 75 47.246 75M47.492 72.9389C47.4978 72.8158 47.5539 72.6996 47.6487 72.6144C47.7434 72.5293 47.8694 72.4817 48.0005 72.4817C48.1316 72.4817 48.2576 72.5293 48.3524 72.6144C48.4471 72.6996 48.5032 72.8158 48.509 72.9389V74.5366H47.492V72.9389Z" fill="white"/>
<path d="M56.244 75H57.754C57.8192 75 57.8818 74.9756 57.9279 74.9323C57.9741 74.8889 58 74.8301 58 74.7688V72.9398C58 72.6906 57.8946 72.4515 57.7071 72.2753C57.5196 72.099 57.2652 72 57 72C56.7348 72 56.4804 72.099 56.2929 72.2753C56.1053 72.4515 56 72.6906 56 72.9398V74.7688C56 74.8301 56.0259 74.8889 56.0721 74.9323C56.1182 74.9756 56.1807 75 56.246 75M56.492 72.9389C56.4978 72.8158 56.5539 72.6996 56.6486 72.6144C56.7433 72.5293 56.8694 72.4817 57.0005 72.4817C57.1316 72.4817 57.2576 72.5293 57.3523 72.6144C57.4471 72.6996 57.5032 72.8158 57.509 72.9389V74.5366H56.492V72.9389Z" fill="white"/>
<path d="M27.999 78C27.734 78 27.4799 78.099 27.2926 78.2753C27.1053 78.4515 27 78.6906 27 78.9398V80.7688C27 80.8301 27.0259 80.8889 27.072 80.9323C27.1181 80.9756 27.1806 81 27.2458 81H28.7542C28.8194 81 28.8819 80.9756 28.928 80.9323C28.9741 80.8889 29 80.8301 29 80.7688V78.9398C29 78.6906 28.8947 78.4515 28.7074 78.2753C28.5201 78.099 28.266 78 28.001 78M28.5095 80.5376H27.4935V78.9398C27.4905 78.8753 27.5013 78.8109 27.5255 78.7504C27.5497 78.6899 27.5866 78.6347 27.6341 78.588C27.6815 78.5413 27.7386 78.5041 27.8017 78.4788C27.8649 78.4534 27.9328 78.4403 28.0015 78.4403C28.0702 78.4403 28.1381 78.4534 28.2013 78.4788C28.2644 78.5041 28.3215 78.5413 28.3689 78.588C28.4164 78.6347 28.4533 78.6899 28.4775 78.7504C28.5017 78.8109 28.5125 78.8753 28.5095 78.9398V80.5376Z" fill="white"/>
<path d="M33.999 78C33.734 78 33.4799 78.099 33.2926 78.2753C33.1053 78.4515 33 78.6906 33 78.9398V80.7688C33 80.8301 33.0259 80.8889 33.072 80.9323C33.1181 80.9756 33.1806 81 33.2458 81H34.7542C34.8194 81 34.8819 80.9756 34.928 80.9323C34.9741 80.8889 35 80.8301 35 80.7688V78.9398C35 78.6906 34.8947 78.4515 34.7074 78.2753C34.5201 78.099 34.266 78 34.001 78M34.5085 80.5376H33.4895V78.9398C33.4895 78.813 33.5431 78.6913 33.6384 78.6016C33.7338 78.5119 33.8632 78.4615 33.998 78.4615C34.1329 78.4615 34.2622 78.5119 34.3576 78.6016C34.4529 78.6913 34.5065 78.813 34.5065 78.9398L34.5085 80.5376Z" fill="white"/>
<path d="M30.999 78C30.734 78 30.4799 78.099 30.2926 78.2753C30.1053 78.4515 30 78.6906 30 78.9398V80.7688C30 80.8301 30.0259 80.8889 30.072 80.9323C30.1181 80.9756 30.1806 81 30.2458 81H31.7543C31.8194 81 31.8819 80.9756 31.928 80.9323C31.9741 80.8889 32 80.8301 32 80.7688V78.9398C32 78.6906 31.8947 78.4515 31.7074 78.2753C31.5201 78.099 31.266 78 31.001 78M31.5095 80.5376H30.4935V78.9398C30.4905 78.8753 30.5013 78.8109 30.5255 78.7504C30.5497 78.6899 30.5866 78.6347 30.6341 78.588C30.6815 78.5413 30.7386 78.5041 30.8017 78.4788C30.8649 78.4534 30.9328 78.4403 31.0015 78.4403C31.0702 78.4403 31.1381 78.4534 31.2013 78.4788C31.2644 78.5041 31.3215 78.5413 31.3689 78.588C31.4164 78.6347 31.4533 78.6899 31.4775 78.7504C31.5017 78.8109 31.5125 78.8753 31.5095 78.9398V80.5376Z" fill="white"/>
<path d="M47.244 81H48.754C48.8192 81 48.8818 80.9756 48.9279 80.9323C48.9741 80.8889 49 80.8301 49 80.7688V78.9399C49 78.6906 48.8947 78.4515 48.7071 78.2753C48.5196 78.099 48.2652 78 48 78C47.7348 78 47.4804 78.099 47.2929 78.2753C47.1054 78.4515 47 78.6906 47 78.9399V80.7688C47 80.8301 47.0259 80.8889 47.0721 80.9323C47.1182 80.9756 47.1808 81 47.246 81M47.492 78.9389C47.4978 78.8158 47.5539 78.6996 47.6487 78.6144C47.7434 78.5293 47.8694 78.4817 48.0005 78.4817C48.1316 78.4817 48.2576 78.5293 48.3524 78.6144C48.4471 78.6996 48.5032 78.8158 48.509 78.9389V80.5367H47.492V78.9389Z" fill="white"/>
<path d="M39.999 78C39.734 78 39.4799 78.099 39.2926 78.2753C39.1053 78.4515 39 78.6906 39 78.9398V80.7688C39 80.8301 39.0259 80.8889 39.072 80.9323C39.1181 80.9756 39.1806 81 39.2458 81H40.7543C40.8194 81 40.8819 80.9756 40.928 80.9323C40.9741 80.8889 41 80.8301 41 80.7688V78.9398C41 78.6906 40.8947 78.4515 40.7074 78.2753C40.5201 78.099 40.266 78 40.001 78M40.5095 80.5376H39.4935V78.9398C39.4905 78.8753 39.5013 78.8109 39.5255 78.7504C39.5497 78.6899 39.5866 78.6347 39.6341 78.588C39.6815 78.5413 39.7386 78.5041 39.8017 78.4788C39.8649 78.4534 39.9328 78.4403 40.0015 78.4403C40.0702 78.4403 40.1381 78.4534 40.2013 78.4788C40.2644 78.5041 40.3215 78.5413 40.3689 78.588C40.4164 78.6347 40.4533 78.6899 40.4775 78.7504C40.5017 78.8109 40.5125 78.8753 40.5095 78.9398V80.5376Z" fill="white"/>
<path d="M62.3229 77.0595C62.4906 77.0529 62.6493 76.9823 62.7656 76.8624C62.8819 76.7424 62.9469 76.5825 62.9469 76.4161C62.9469 76.2497 62.8819 76.0898 62.7656 75.9699C62.6493 75.8499 62.4906 75.7793 62.3229 75.7728H62.1429V71.2987C62.1429 71.2336 62.1168 71.1713 62.0705 71.1253C62.0241 71.0793 61.9612 71.0535 61.8956 71.0535H42.0986L39.24 61.1774C39.24 61.1724 39.235 61.1675 39.233 61.1625C39.2291 61.1522 39.2244 61.1422 39.2189 61.1326C39.2103 61.1162 39.1999 61.1008 39.1878 61.0867C39.1809 61.0786 39.1735 61.0709 39.1656 61.0638C39.1506 61.0509 39.134 61.0399 39.1164 61.0309C39.1082 61.0261 39.0999 61.0218 39.0912 61.0179C39.0631 61.0065 39.0331 61.0004 39.0028 61H25.6761C25.5037 61 25.3383 61.0679 25.2164 61.1887C25.0945 61.3096 25.0261 61.4735 25.0261 61.6444C25.0261 61.8152 25.0945 61.9791 25.2164 62.1C25.3383 62.2208 25.5037 62.2887 25.6761 62.2887H25.8551V69.4339H25.6761C25.504 69.4339 25.3389 69.5017 25.2172 69.6223C25.0954 69.743 25.027 69.9066 25.027 70.0772C25.027 70.2479 25.0954 70.4115 25.2172 70.5322C25.3389 70.6528 25.504 70.7206 25.6761 70.7206H25.8551V75.7748H25.6751C25.5074 75.7813 25.3487 75.852 25.2324 75.9719C25.1161 76.0918 25.0511 76.2517 25.0511 76.4181C25.0511 76.5845 25.1161 76.7444 25.2324 76.8643C25.3487 76.9843 25.5074 77.0549 25.6751 77.0615H25.8551V82.1146H25.6751C25.5877 82.1112 25.5005 82.1253 25.4188 82.1561C25.337 82.1869 25.2624 82.2338 25.1994 82.2938C25.1363 82.3539 25.0862 82.426 25.0519 82.5057C25.0176 82.5855 25 82.6713 25 82.758C25 82.8447 25.0176 82.9304 25.0519 83.0102C25.0862 83.09 25.1363 83.162 25.1994 83.2221C25.2624 83.2822 25.337 83.329 25.4188 83.3598C25.5005 83.3906 25.5877 83.4047 25.6751 83.4013H25.8551V87.7548C25.8551 87.787 25.8615 87.8189 25.8739 87.8486C25.8863 87.8784 25.9045 87.9054 25.9275 87.9282C25.9505 87.951 25.9777 87.969 26.0078 87.9813C26.0378 87.9936 26.0699 88 26.1024 88H61.8976C61.9632 88 62.0261 87.9742 62.0725 87.9282C62.1189 87.8822 62.1449 87.8198 62.1449 87.7548V83.4003H62.3249C62.4123 83.4038 62.4995 83.3896 62.5812 83.3588C62.663 83.328 62.7376 83.2812 62.8006 83.2211C62.8637 83.161 62.9138 83.0889 62.9481 83.0092C62.9823 82.9294 63 82.8437 63 82.757C63 82.6703 62.9823 82.5845 62.9481 82.5047C62.9138 82.425 62.8637 82.3529 62.8006 82.2928C62.7376 82.2328 62.663 82.1859 62.5812 82.1551C62.4995 82.1243 62.4123 82.1102 62.3249 82.1136H62.1449V77.0605L62.3229 77.0595ZM61.6472 71.5429V75.7718H44.8748L43.625 71.5429H61.6472ZM43.1091 71.5429L44.359 75.7718H43.4661L42.2424 71.5429H43.1091ZM42.9503 75.7718H26.3498V70.7176H41.4873L42.9503 75.7718ZM39.047 62.2867L41.1153 69.4319H26.3498V62.2867H39.047ZM25.6741 61.7964C25.633 61.7964 25.5936 61.7802 25.5646 61.7514C25.5355 61.7226 25.5192 61.6836 25.5192 61.6429C25.5192 61.6022 25.5355 61.5631 25.5646 61.5343C25.5936 61.5056 25.633 61.4894 25.6741 61.4894H38.8137L38.9022 61.7964H25.6741ZM25.6741 70.2273C25.6333 70.2273 25.5941 70.2112 25.5653 70.1826C25.5364 70.154 25.5202 70.1152 25.5202 70.0747C25.5202 70.0343 25.5364 69.9955 25.5653 69.9669C25.5941 69.9383 25.6333 69.9223 25.6741 69.9223H41.2591L41.3475 70.2273H25.6741ZM28.8494 87.5076H27.8268V84.8565C27.8238 84.788 27.8347 84.7197 27.859 84.6555C27.8833 84.5914 27.9205 84.5328 27.9683 84.4833C28.0161 84.4338 28.0735 84.3944 28.137 84.3675C28.2006 84.3406 28.269 84.3267 28.3381 84.3267C28.4072 84.3267 28.4756 84.3406 28.5392 84.3675C28.6027 84.3944 28.6602 84.4338 28.7079 84.4833C28.7557 84.5328 28.7929 84.5914 28.8172 84.6555C28.8415 84.7197 28.8525 84.788 28.8494 84.8565V87.5076ZM31.6889 87.5076H30.6663V84.8565C30.6632 84.788 30.6742 84.7197 30.6985 84.6555C30.7228 84.5914 30.76 84.5328 30.8078 84.4833C30.8555 84.4338 30.9129 84.3944 30.9765 84.3675C31.0401 84.3406 31.1085 84.3267 31.1776 84.3267C31.2467 84.3267 31.3151 84.3406 31.3787 84.3675C31.4422 84.3944 31.4996 84.4338 31.5474 84.4833C31.5952 84.5328 31.6324 84.5914 31.6567 84.6555C31.681 84.7197 31.6919 84.788 31.6889 84.8565V87.5076ZM34.5284 87.5076H33.5058V84.8565C33.5027 84.788 33.5137 84.7197 33.538 84.6555C33.5623 84.5914 33.5995 84.5328 33.6472 84.4833C33.695 84.4338 33.7524 84.3944 33.816 84.3675C33.8795 84.3406 33.948 84.3267 34.0171 84.3267C34.0862 84.3267 34.1546 84.3406 34.2182 84.3675C34.2817 84.3944 34.3391 84.4338 34.3869 84.4833C34.4347 84.5328 34.4718 84.5914 34.4961 84.6555C34.5205 84.7197 34.5314 84.788 34.5284 84.8565V87.5076ZM37.3678 87.5076H36.3453V84.8565C36.3422 84.788 36.3531 84.7197 36.3775 84.6555C36.4018 84.5914 36.439 84.5328 36.4867 84.4833C36.5345 84.4338 36.5919 84.3944 36.6555 84.3675C36.719 84.3406 36.7874 84.3267 36.8565 84.3267C36.9257 84.3267 36.9941 84.3406 37.0576 84.3675C37.1212 84.3944 37.1786 84.4338 37.2264 84.4833C37.2742 84.5328 37.3113 84.5914 37.3356 84.6555C37.3599 84.7197 37.3709 84.788 37.3678 84.8565V87.5076ZM40.2073 87.5076H39.1847V84.8565C39.1817 84.788 39.1926 84.7197 39.2169 84.6555C39.2413 84.5914 39.2784 84.5328 39.3262 84.4833C39.374 84.4338 39.4314 84.3944 39.495 84.3675C39.5585 84.3406 39.6269 84.3267 39.696 84.3267C39.7652 84.3267 39.8335 84.3406 39.8971 84.3675C39.9607 84.3944 40.0181 84.4338 40.0658 84.4833C40.1136 84.5328 40.1508 84.5914 40.1751 84.6555C40.1994 84.7197 40.2104 84.788 40.2073 84.8565V87.5076ZM43.0468 87.5076H42.0242V84.8565C42.0212 84.788 42.0321 84.7197 42.0564 84.6555C42.0807 84.5914 42.1179 84.5328 42.1657 84.4833C42.2135 84.4338 42.2709 84.3944 42.3344 84.3675C42.398 84.3406 42.4664 84.3267 42.5355 84.3267C42.6046 84.3267 42.673 84.3406 42.7366 84.3675C42.8002 84.3944 42.8576 84.4338 42.9053 84.4833C42.9531 84.5328 42.9903 84.5914 43.0146 84.6555C43.0389 84.7197 43.0499 84.788 43.0468 84.8565V87.5076ZM43.5415 87.5076V84.8565C43.5415 84.5922 43.4356 84.3386 43.247 84.1517C43.0584 83.9648 42.8027 83.8598 42.536 83.8598C42.2693 83.8598 42.0136 83.9648 41.825 84.1517C41.6365 84.3386 41.5305 84.5922 41.5305 84.8565V87.5076H40.705V84.8565C40.705 84.5922 40.5991 84.3386 40.4105 84.1517C40.222 83.9648 39.9662 83.8598 39.6995 83.8598C39.4329 83.8598 39.1771 83.9648 38.9886 84.1517C38.8 84.3386 38.6941 84.5922 38.6941 84.8565V87.5076H37.8676V84.8565C37.8676 84.5922 37.7616 84.3386 37.5731 84.1517C37.3845 83.9648 37.1288 83.8598 36.8621 83.8598C36.5954 83.8598 36.3397 83.9648 36.1511 84.1517C35.9625 84.3386 35.8566 84.5922 35.8566 84.8565V87.5076H35.0301V84.8565C35.0301 84.5922 34.9242 84.3386 34.7356 84.1517C34.547 83.9648 34.2913 83.8598 34.0246 83.8598C33.7579 83.8598 33.5022 83.9648 33.3136 84.1517C33.1251 84.3386 33.0191 84.5922 33.0191 84.8565V87.5076H32.1936V84.8565C32.1936 84.5922 32.0877 84.3386 31.8991 84.1517C31.7106 83.9648 31.4548 83.8598 31.1881 83.8598C30.9215 83.8598 30.6657 83.9648 30.4772 84.1517C30.2886 84.3386 30.1827 84.5922 30.1827 84.8565V87.5076H29.3561V84.8565C29.3561 84.5922 29.2502 84.3386 29.0616 84.1517C28.8731 83.9648 28.6173 83.8598 28.3507 83.8598C28.084 83.8598 27.8283 83.9648 27.6397 84.1517C27.4511 84.3386 27.3452 84.5922 27.3452 84.8565V87.5076H26.3618V83.4003H45.1694L46.3589 87.5086L43.5415 87.5076ZM46.8596 87.5076L45.6701 83.3993H46.6122L47.8259 87.5076H46.8596ZM51.5622 87.5076H50.5397V84.8565C50.5366 84.788 50.5475 84.7197 50.5719 84.6555C50.5962 84.5914 50.6333 84.5328 50.6811 84.4833C50.7289 84.4338 50.7863 84.3944 50.8499 84.3675C50.9134 84.3406 50.9818 84.3267 51.0509 84.3267C51.1201 84.3267 51.1885 84.3406 51.252 84.3675C51.3156 84.3944 51.373 84.4338 51.4208 84.4833C51.4685 84.5328 51.5057 84.5914 51.53 84.6555C51.5543 84.7197 51.5653 84.788 51.5622 84.8565V87.5076ZM54.4017 87.5076H53.3791V84.8565C53.3761 84.788 53.387 84.7197 53.4113 84.6555C53.4357 84.5914 53.4728 84.5328 53.5206 84.4833C53.5684 84.4338 53.6258 84.3944 53.6893 84.3675C53.7529 84.3406 53.8213 84.3267 53.8904 84.3267C53.9595 84.3267 54.0279 84.3406 54.0915 84.3675C54.1551 84.3944 54.2125 84.4338 54.2602 84.4833C54.308 84.5328 54.3452 84.5914 54.3695 84.6555C54.3938 84.7197 54.4048 84.788 54.4017 84.8565V87.5076ZM57.2412 87.5076H56.2186V84.8565C56.2155 84.788 56.2265 84.7197 56.2508 84.6555C56.2751 84.5914 56.3123 84.5328 56.3601 84.4833C56.4079 84.4338 56.4653 84.3944 56.5288 84.3675C56.5924 84.3406 56.6608 84.3267 56.7299 84.3267C56.799 84.3267 56.8674 84.3406 56.931 84.3675C56.9946 84.3944 57.0519 84.4338 57.0997 84.4833C57.1475 84.5328 57.1847 84.5914 57.209 84.6555C57.2333 84.7197 57.2442 84.788 57.2412 84.8565V87.5076ZM60.0807 87.5076H59.0591V84.8565C59.056 84.788 59.067 84.7197 59.0913 84.6555C59.1156 84.5914 59.1528 84.5328 59.2006 84.4833C59.2483 84.4338 59.3057 84.3944 59.3693 84.3675C59.4329 84.3406 59.5013 84.3267 59.5704 84.3267C59.6395 84.3267 59.7079 84.3406 59.7715 84.3675C59.835 84.3944 59.8924 84.4338 59.9402 84.4833C59.988 84.5328 60.0252 84.5914 60.0495 84.6555C60.0738 84.7197 60.0847 84.788 60.0817 84.8565L60.0807 87.5076ZM61.6462 87.5076H60.5774V84.8565C60.5774 84.5922 60.4714 84.3386 60.2829 84.1517C60.0943 83.9648 59.8386 83.8598 59.5719 83.8598C59.3052 83.8598 59.0495 83.9648 58.8609 84.1517C58.6724 84.3386 58.5664 84.5922 58.5664 84.8565V87.5076H57.7399V84.8565C57.7399 84.5922 57.634 84.3386 57.4454 84.1517C57.2568 83.9648 57.0011 83.8598 56.7344 83.8598C56.4678 83.8598 56.212 83.9648 56.0234 84.1517C55.8349 84.3386 55.7289 84.5922 55.7289 84.8565V87.5076H54.9034V84.8565C54.9034 84.5922 54.7975 84.3386 54.6089 84.1517C54.4204 83.9648 54.1646 83.8598 53.898 83.8598C53.6313 83.8598 53.3755 83.9648 53.187 84.1517C52.9984 84.3386 52.8925 84.5922 52.8925 84.8565V87.5076H52.066V84.8565C52.066 84.5922 51.96 84.3386 51.7715 84.1517C51.5829 83.9648 51.3272 83.8598 51.0605 83.8598C50.7938 83.8598 50.5381 83.9648 50.3495 84.1517C50.1609 84.3386 50.055 84.5922 50.055 84.8565V87.5076H48.3527L47.1391 83.3993H61.6563L61.6462 87.5076ZM62.3219 82.604C62.3421 82.604 62.3621 82.6079 62.3808 82.6156C62.3994 82.6233 62.4164 82.6345 62.4307 82.6486C62.445 82.6628 62.4563 82.6796 62.464 82.6981C62.4718 82.7166 62.4757 82.7364 62.4757 82.7565C62.4757 82.7765 62.4718 82.7963 62.464 82.8148C62.4563 82.8333 62.445 82.8501 62.4307 82.8643C62.4164 82.8785 62.3994 82.8897 62.3808 82.8974C62.3621 82.905 62.3421 82.909 62.3219 82.909H25.6751C25.6549 82.909 25.6349 82.905 25.6162 82.8974C25.5975 82.8897 25.5806 82.8785 25.5663 82.8643C25.552 82.8501 25.5407 82.8333 25.533 82.8148C25.5252 82.7963 25.5212 82.7765 25.5212 82.7565C25.5212 82.7364 25.5252 82.7166 25.533 82.6981C25.5407 82.6796 25.552 82.6628 25.5663 82.6486C25.5806 82.6345 25.5975 82.6233 25.6162 82.6156C25.6349 82.6079 25.6549 82.604 25.6751 82.604H62.3219ZM46.2342 82.1136H45.3001L43.8371 77.0605H44.742L46.2342 82.1136ZM45.2558 77.0605H61.6452V82.1136H46.75L45.2558 77.0605ZM44.7843 82.1136H26.3498V77.0605H43.3213L44.7843 82.1136ZM61.8966 76.5691H25.6751C25.6343 76.5691 25.5952 76.553 25.5663 76.5244C25.5375 76.4958 25.5212 76.4571 25.5212 76.4166C25.5212 76.3762 25.5375 76.3374 25.5663 76.3088C25.5952 76.2802 25.6343 76.2641 25.6751 76.2641H62.3229C62.3637 76.2641 62.4028 76.2802 62.4317 76.3088C62.4605 76.3374 62.4767 76.3762 62.4767 76.4166C62.4767 76.4571 62.4605 76.4958 62.4317 76.5244C62.4028 76.553 62.3637 76.5691 62.3229 76.5691H61.8966Z" fill="white"/>
<path d="M42.999 78C42.7341 78 42.4799 78.099 42.2926 78.2753C42.1052 78.4515 42 78.6906 42 78.9398V80.7688C42 80.8301 42.0259 80.8889 42.072 80.9323C42.1181 80.9756 42.1806 81 42.2458 81H43.7542C43.8194 81 43.8819 80.9756 43.928 80.9323C43.9741 80.8889 44 80.8301 44 80.7688V78.9398C44 78.6906 43.8948 78.4515 43.7074 78.2753C43.5201 78.099 43.2659 78 43.001 78M43.5085 80.5376H42.4895V78.9398C42.4865 78.8753 42.4974 78.8109 42.5215 78.7504C42.5457 78.6899 42.5826 78.6347 42.6301 78.588C42.6775 78.5413 42.7346 78.5041 42.7977 78.4788C42.8609 78.4534 42.9288 78.4403 42.9975 78.4403C43.0662 78.4403 43.1341 78.4534 43.1973 78.4788C43.2604 78.5041 43.3175 78.5413 43.3649 78.588C43.4124 78.6347 43.4494 78.6899 43.4735 78.7504C43.4977 78.8109 43.5085 78.8753 43.5055 78.9398L43.5085 80.5376Z" fill="white"/>
<path d="M36.999 78C36.734 78 36.4799 78.099 36.2926 78.2753C36.1053 78.4515 36 78.6906 36 78.9398V80.7688C36 80.8301 36.0259 80.8889 36.072 80.9323C36.1181 80.9756 36.1806 81 36.2458 81H37.7542C37.8194 81 37.8819 80.9756 37.928 80.9323C37.9741 80.8889 38 80.8301 38 80.7688V78.9398C38 78.6906 37.8947 78.4515 37.7074 78.2753C37.52 78.099 37.266 78 37.001 78M37.5095 80.5376H36.4935V78.9398C36.4905 78.8753 36.5013 78.8109 36.5255 78.7504C36.5497 78.6899 36.5866 78.6347 36.6341 78.588C36.6815 78.5413 36.7386 78.5041 36.8017 78.4788C36.8649 78.4534 36.9328 78.4403 37.0015 78.4403C37.0702 78.4403 37.1381 78.4534 37.2013 78.4788C37.2644 78.5041 37.3215 78.5413 37.3689 78.588C37.4164 78.6347 37.4533 78.6899 37.4775 78.7504C37.5016 78.8109 37.5125 78.8753 37.5095 78.9398V80.5376Z" fill="white"/>
<path d="M50.244 81H51.754C51.8192 81 51.8818 80.9756 51.9279 80.9323C51.9741 80.8889 52 80.8301 52 80.7688V78.9399C52 78.6906 51.8947 78.4515 51.7071 78.2753C51.5196 78.099 51.2652 78 51 78C50.7348 78 50.4804 78.099 50.2929 78.2753C50.1054 78.4515 50 78.6906 50 78.9399V80.7688C50 80.8301 50.0259 80.8889 50.0721 80.9323C50.1182 80.9756 50.1808 81 50.246 81M50.492 78.9389C50.489 78.8744 50.4999 78.8099 50.524 78.7494C50.5482 78.689 50.5852 78.6337 50.6327 78.587C50.6802 78.5404 50.7373 78.5032 50.8005 78.4778C50.8638 78.4524 50.9318 78.4393 51.0005 78.4393C51.0693 78.4393 51.1373 78.4524 51.2005 78.4778C51.2637 78.5032 51.3208 78.5404 51.3683 78.587C51.4158 78.6337 51.4528 78.689 51.477 78.7494C51.5012 78.8099 51.512 78.8744 51.509 78.9389V80.5367H50.491L50.492 78.9389Z" fill="white"/>
<path d="M27.244 68H28.754C28.7863 68 28.8183 67.994 28.8481 67.9824C28.878 67.9708 28.9051 67.9538 28.9279 67.9323C28.9508 67.9108 28.9689 67.8853 28.9813 67.8573C28.9936 67.8292 29 67.7992 29 67.7688V65.9398C29 65.6906 28.8946 65.4515 28.7071 65.2753C28.5196 65.099 28.2652 65 28 65C27.7348 65 27.4804 65.099 27.2929 65.2753C27.1054 65.4515 27 65.6906 27 65.9398V67.7688C27 67.8301 27.0259 67.8889 27.0721 67.9323C27.1182 67.9756 27.1808 68 27.246 68M27.492 65.9398C27.4978 65.8168 27.5539 65.7005 27.6487 65.6154C27.7434 65.5302 27.8694 65.4827 28.0005 65.4827C28.1316 65.4827 28.2576 65.5302 28.3524 65.6154C28.4471 65.7005 28.5032 65.8168 28.509 65.9398V67.5376H27.492V65.9398Z" fill="white"/>
<path d="M30.244 68H31.754C31.8192 68 31.8818 67.9756 31.9279 67.9323C31.9741 67.8889 32 67.8301 32 67.7688V65.9398C32 65.6906 31.8946 65.4515 31.7071 65.2753C31.5196 65.099 31.2652 65 31 65C30.7348 65 30.4804 65.099 30.2929 65.2753C30.1054 65.4515 30 65.6906 30 65.9398V67.7688C30 67.8301 30.0259 67.8889 30.0721 67.9323C30.1182 67.9756 30.1808 68 30.246 68M30.492 65.9398C30.4978 65.8168 30.5539 65.7005 30.6487 65.6154C30.7434 65.5302 30.8694 65.4827 31.0005 65.4827C31.1316 65.4827 31.2576 65.5302 31.3524 65.6154C31.4471 65.7005 31.5032 65.8168 31.509 65.9398V67.5376H30.492V65.9398Z" fill="white"/>
<path d="M33.244 68H34.754C34.8192 68 34.8818 67.9756 34.9279 67.9323C34.9741 67.8889 35 67.8301 35 67.7688V65.9398C35 65.6906 34.8946 65.4515 34.7071 65.2753C34.5196 65.099 34.2652 65 34 65C33.7348 65 33.4804 65.099 33.2929 65.2753C33.1054 65.4515 33 65.6906 33 65.9398V67.7688C33 67.7992 33.0064 67.8292 33.0187 67.8573C33.0311 67.8853 33.0492 67.9108 33.0721 67.9323C33.0949 67.9538 33.122 67.9708 33.1519 67.9824C33.1817 67.994 33.2137 68 33.246 68M33.492 65.9398C33.4978 65.8168 33.5539 65.7005 33.6487 65.6154C33.7434 65.5302 33.8694 65.4827 34.0005 65.4827C34.1316 65.4827 34.2576 65.5302 34.3524 65.6154C34.4471 65.7005 34.5032 65.8168 34.509 65.9398V67.5376H33.49L33.492 65.9398Z" fill="white"/>
<path d="M36.244 68H37.754C37.8192 68 37.8818 67.9756 37.9279 67.9323C37.9741 67.8889 38 67.8301 38 67.7688V65.9398C38 65.6906 37.8946 65.4515 37.7071 65.2753C37.5196 65.099 37.2652 65 37 65C36.7348 65 36.4804 65.099 36.2929 65.2753C36.1054 65.4515 36 65.6906 36 65.9398V67.7688C36 67.8301 36.0259 67.8889 36.072 67.9323C36.1182 67.9756 36.1807 68 36.246 68M36.492 65.9398C36.4978 65.8168 36.5539 65.7005 36.6486 65.6154C36.7434 65.5302 36.8694 65.4827 37.0005 65.4827C37.1316 65.4827 37.2576 65.5302 37.3523 65.6154C37.4471 65.7005 37.5032 65.8168 37.509 65.9398V67.5376H36.492V65.9398Z" fill="white"/>
<path d="M27.244 75H28.754C28.7863 75 28.8183 74.994 28.8481 74.9824C28.878 74.9708 28.9051 74.9538 28.9279 74.9323C28.9508 74.9108 28.9689 74.8853 28.9813 74.8573C28.9936 74.8292 29 74.7992 29 74.7688V72.9398C29 72.6906 28.8946 72.4515 28.7071 72.2753C28.5196 72.099 28.2652 72 28 72C27.7348 72 27.4804 72.099 27.2929 72.2753C27.1054 72.4515 27 72.6906 27 72.9398V74.7688C27 74.8301 27.0259 74.8889 27.0721 74.9323C27.1182 74.9756 27.1808 75 27.246 75M27.492 72.9389C27.4978 72.8158 27.5539 72.6996 27.6487 72.6144C27.7434 72.5293 27.8694 72.4817 28.0005 72.4817C28.1316 72.4817 28.2576 72.5293 28.3524 72.6144C28.4471 72.6996 28.5032 72.8158 28.509 72.9389V74.5366H27.492V72.9389Z" fill="white"/>
<path d="M56.244 81H57.754C57.8192 81 57.8818 80.9756 57.9279 80.9323C57.9741 80.8889 58 80.8301 58 80.7688V78.9399C58 78.6906 57.8946 78.4515 57.7071 78.2753C57.5196 78.099 57.2652 78 57 78C56.7348 78 56.4804 78.099 56.2929 78.2753C56.1053 78.4515 56 78.6906 56 78.9399V80.7688C56 80.8301 56.0259 80.8889 56.0721 80.9323C56.1182 80.9756 56.1807 81 56.246 81M56.492 78.9389C56.4889 78.8744 56.4998 78.8099 56.524 78.7494C56.5482 78.689 56.5852 78.6337 56.6327 78.587C56.6802 78.5404 56.7373 78.5032 56.8005 78.4778C56.8637 78.4524 56.9317 78.4393 57.0005 78.4393C57.0692 78.4393 57.1373 78.4524 57.2005 78.4778C57.2637 78.5032 57.3208 78.5404 57.3683 78.587C57.4158 78.6337 57.4528 78.689 57.477 78.7494C57.5011 78.8099 57.512 78.8744 57.509 78.9389V80.5367H56.492V78.9389Z" fill="white"/>
<path d="M53.244 81H54.754C54.8192 81 54.8818 80.9756 54.9279 80.9323C54.9741 80.8889 55 80.8301 55 80.7688V78.9399C55 78.6906 54.8946 78.4515 54.7071 78.2753C54.5196 78.099 54.2652 78 54 78C53.7348 78 53.4804 78.099 53.2929 78.2753C53.1053 78.4515 53 78.6906 53 78.9399V80.7688C53 80.8301 53.0259 80.8889 53.0721 80.9323C53.1182 80.9756 53.1808 81 53.246 81M53.492 78.9389C53.4978 78.8158 53.5539 78.6996 53.6487 78.6144C53.7434 78.5293 53.8694 78.4817 54.0005 78.4817C54.1316 78.4817 54.2576 78.5293 54.3524 78.6144C54.4471 78.6996 54.5032 78.8158 54.509 78.9389V80.5367H53.492V78.9389Z" fill="white"/>
<path d="M59.244 81H60.754C60.8193 81 60.8818 80.9756 60.9279 80.9323C60.9741 80.8889 61 80.8301 61 80.7688V78.9399C61 78.6906 60.8947 78.4515 60.7071 78.2753C60.5196 78.099 60.2652 78 60 78C59.7348 78 59.4804 78.099 59.2929 78.2753C59.1054 78.4515 59 78.6906 59 78.9399V80.7688C59 80.8301 59.0259 80.8889 59.0721 80.9323C59.1182 80.9756 59.1808 81 59.246 81M59.492 78.9389C59.4978 78.8158 59.5539 78.6996 59.6487 78.6144C59.7434 78.5293 59.8694 78.4817 60.0005 78.4817C60.1316 78.4817 60.2576 78.5293 60.3524 78.6144C60.4471 78.6996 60.5032 78.8158 60.509 78.9389V80.5367H59.491L59.492 78.9389Z" fill="white"/>
<path d="M30.244 75H31.754C31.8192 75 31.8818 74.9756 31.9279 74.9323C31.9741 74.8889 32 74.8301 32 74.7688V72.9398C32 72.6906 31.8946 72.4515 31.7071 72.2753C31.5196 72.099 31.2652 72 31 72C30.7348 72 30.4804 72.099 30.2929 72.2753C30.1054 72.4515 30 72.6906 30 72.9398V74.7688C30 74.8301 30.0259 74.8889 30.0721 74.9323C30.1182 74.9756 30.1808 75 30.246 75M30.492 72.9389C30.4978 72.8158 30.5539 72.6996 30.6487 72.6144C30.7434 72.5293 30.8694 72.4817 31.0005 72.4817C31.1316 72.4817 31.2576 72.5293 31.3524 72.6144C31.4471 72.6996 31.5032 72.8158 31.509 72.9389V74.5366H30.492V72.9389Z" fill="white"/>
<path d="M63 82C67.5565 77.5783 73.5941 75.0767 79.8948 75C85.9614 75.0862 91.7493 77.6018 96 82" stroke="white" stroke-miterlimit="10"/>
<path d="M66 80.9982C69.9713 77.8503 75.0505 76.079 80.3324 76C85.4151 76.0849 90.2833 77.8659 94 81" stroke="white" stroke-miterlimit="10"/>
<path d="M66 81H64V82H66V81Z" stroke="white" stroke-miterlimit="10"/>
<path d="M65 83H64V89H65V83Z" stroke="white" stroke-miterlimit="10"/>
<path d="M95 81H93V82H95V81Z" stroke="white" stroke-miterlimit="10"/>
<path d="M95 83H94V89H95V83Z" stroke="white" stroke-miterlimit="10"/>
<path d="M93 81H67V88H93V81Z" stroke="white" stroke-miterlimit="10"/>
<path d="M67 83H93" stroke="white" stroke-miterlimit="10"/>
<path d="M67 84H93" stroke="white" stroke-miterlimit="10"/>
<path d="M67 87H93" stroke="white" stroke-miterlimit="10"/>
<path d="M69 81V82" stroke="white" stroke-miterlimit="10"/>
<path d="M71 81V82" stroke="white" stroke-miterlimit="10"/>
<path d="M72 81V82" stroke="white" stroke-miterlimit="10"/>
<path d="M74 81V82" stroke="white" stroke-miterlimit="10"/>
<path d="M76 81V82" stroke="white" stroke-miterlimit="10"/>
<path d="M77 81V82" stroke="white" stroke-miterlimit="10"/>
<path d="M79 81V82" stroke="white" stroke-miterlimit="10"/>
<path d="M81 81V82" stroke="white" stroke-miterlimit="10"/>
<path d="M82 81V82" stroke="white" stroke-miterlimit="10"/>
<path d="M84 81V82" stroke="white" stroke-miterlimit="10"/>
<path d="M86 81V82" stroke="white" stroke-miterlimit="10"/>
<path d="M87 81V82" stroke="white" stroke-miterlimit="10"/>
<path d="M89 81V82" stroke="white" stroke-miterlimit="10"/>
<path d="M91 81V82" stroke="white" stroke-miterlimit="10"/>
<mask id="mask0_4_3232" style="mask-type:luminance" maskUnits="userSpaceOnUse" x="0" y="58" width="15" height="31">
<path d="M15 58H0V89H15V58Z" fill="white"/>
</mask>
<g mask="url(#mask0_4_3232)">
<path d="M15 58H0V89H15V58Z" stroke="white" stroke-miterlimit="10"/>
</g>
<path d="M3 60H2V62H3V60Z" stroke="white" stroke-miterlimit="10"/>
<path d="M5 60H4V62H5V60Z" stroke="white" stroke-miterlimit="10"/>
<path d="M8 60H7V62H8V60Z" stroke="white" stroke-miterlimit="10"/>
<path d="M10 60H9V62H10V60Z" stroke="white" stroke-miterlimit="10"/>
<path d="M13 60H12V62H13V60Z" stroke="white" stroke-miterlimit="10"/>
<path d="M3 64H2V66H3V64Z" stroke="white" stroke-miterlimit="10"/>
<path d="M5 64H4V66H5V64Z" stroke="white" stroke-miterlimit="10"/>
<path d="M8 64H7V66H8V64Z" stroke="white" stroke-miterlimit="10"/>
<path d="M10 64H9V66H10V64Z" stroke="white" stroke-miterlimit="10"/>
<path d="M13 64H12V66H13V64Z" stroke="white" stroke-miterlimit="10"/>
<path d="M3 67H2V69H3V67Z" stroke="white" stroke-miterlimit="10"/>
<path d="M5 67H4V69H5V67Z" stroke="white" stroke-miterlimit="10"/>
<path d="M8 67H7V69H8V67Z" stroke="white" stroke-miterlimit="10"/>
<path d="M10 67H9V69H10V67Z" stroke="white" stroke-miterlimit="10"/>
<path d="M13 67H12V69H13V67Z" stroke="white" stroke-miterlimit="10"/>
<path d="M3 70H2V72H3V70Z" stroke="white" stroke-miterlimit="10"/>
<path d="M5 70H4V72H5V70Z" stroke="white" stroke-miterlimit="10"/>
<path d="M8 70H7V72H8V70Z" stroke="white" stroke-miterlimit="10"/>
<path d="M10 70H9V72H10V70Z" stroke="white" stroke-miterlimit="10"/>
<path d="M13 70H12V72H13V70Z" stroke="white" stroke-miterlimit="10"/>
<path d="M3 74H2V76H3V74Z" stroke="white" stroke-miterlimit="10"/>
<path d="M5 74H4V76H5V74Z" stroke="white" stroke-miterlimit="10"/>
<path d="M8 74H7V76H8V74Z" stroke="white" stroke-miterlimit="10"/>
<path d="M10 74H9V76H10V74Z" stroke="white" stroke-miterlimit="10"/>
<path d="M13 74H12V76H13V74Z" stroke="white" stroke-miterlimit="10"/>
<path d="M3 77H2V79H3V77Z" stroke="white" stroke-miterlimit="10"/>
<path d="M5 77H4V79H5V77Z" stroke="white" stroke-miterlimit="10"/>
<path d="M8 77H7V79H8V77Z" stroke="white" stroke-miterlimit="10"/>
<path d="M10 77H9V79H10V77Z" stroke="white" stroke-miterlimit="10"/>
<path d="M13 77H12V79H13V77Z" stroke="white" stroke-miterlimit="10"/>
<path d="M3 80H2V82H3V80Z" stroke="white" stroke-miterlimit="10"/>
<path d="M5 80H4V82H5V80Z" stroke="white" stroke-miterlimit="10"/>
<path d="M8 80H7V82H8V80Z" stroke="white" stroke-miterlimit="10"/>
<path d="M10 80H9V82H10V80Z" stroke="white" stroke-miterlimit="10"/>
<path d="M13 80H12V82H13V80Z" stroke="white" stroke-miterlimit="10"/>
<mask id="mask1_4_3232" style="mask-type:luminance" maskUnits="userSpaceOnUse" x="0" y="58" width="15" height="31">
<path d="M15 58H0V89H15V58Z" fill="white"/>
</mask>
<g mask="url(#mask1_4_3232)">
<path d="M9 84H6V88H9V84Z" stroke="white" stroke-miterlimit="10"/>
</g>
</g>
</g>
<defs>
<clipPath id="clip0_4_3232">
<rect width="96" height="89" fill="white"/>
</clipPath>
</defs>
</svg>
