<svg width="128" height="59" viewBox="0 0 128 59" fill="none" xmlns="http://www.w3.org/2000/svg">
<g clip-path="url(#clip0_4_3060)">
<path d="M77.0672 9.75937C76.1669 6.94273 74.3973 4.48217 72.0112 2.72941C69.6252 0.976641 66.7449 0.0213999 63.7821 0.000226355C61.2772 -0.0141097 58.8158 0.652781 56.6623 1.92926C54.5087 3.20573 52.7444 5.04354 51.5588 7.24526C49.3809 7.63589 47.3846 8.70961 45.8603 10.3103C44.3361 11.9109 43.3633 13.955 43.0835 16.1453C42.8037 18.3356 43.2314 20.5578 44.3045 22.4889C45.3776 24.4199 47.0401 25.959 49.0502 26.8823L49.3112 27H49.3282V24.0489C47.9489 23.2038 46.8691 21.9492 46.2403 20.461C45.6114 18.9729 45.4649 17.3257 45.8213 15.7503C46.1776 14.1749 47.0191 12.7502 48.2276 11.6758C49.4362 10.6015 50.9513 9.9314 52.5607 9.75937L53.2916 9.68255L53.6115 9.02609C54.5205 7.1042 55.9605 5.48117 57.7621 4.34779C59.5638 3.21441 61.6523 2.6178 63.7821 2.62807C66.3199 2.6461 68.7787 3.51016 70.7678 5.08287C72.7569 6.65559 74.1619 8.84667 74.7595 11.3077L75.0104 12.3054H76.0543C77.737 12.3398 79.3396 13.0294 80.5196 14.2269C81.6996 15.4245 82.3635 17.035 82.3694 18.7144C82.3686 19.9067 82.0012 21.0701 81.3167 22.0474C80.6323 23.0247 79.6638 23.769 78.5419 24.1796V26.9731L78.7159 26.9172C80.5146 26.4156 82.1007 25.3434 83.2344 23.8625C84.3682 22.3817 84.9879 20.5729 85 18.7094C84.984 16.5132 84.1718 14.397 82.7136 12.7518C81.2554 11.1066 79.2497 10.0437 77.0672 9.75937Z" fill="white"/>
<path d="M9.50868 35.6869C10.424 35.6888 11.3267 35.9019 12.1473 36.3098C12.9679 36.7177 13.6845 37.3096 14.242 38.0399C14.2617 38.0664 14.2867 38.0885 14.3153 38.1048C14.3439 38.1212 14.3755 38.1315 14.4082 38.1351C14.4409 38.1387 14.474 38.1355 14.5055 38.1257C14.5369 38.1159 14.566 38.0998 14.591 38.0782L16.584 36.481C16.6095 36.4605 16.6307 36.4351 16.6464 36.4064C16.6621 36.3776 16.6721 36.346 16.6756 36.3134C16.6791 36.2808 16.6762 36.2478 16.6671 36.2163C16.6579 36.1848 16.6426 36.1554 16.6221 36.1299C15.7738 35.0225 14.684 34.1259 13.4368 33.5093C12.1896 32.8926 10.8182 32.5723 9.42844 32.5731C4.22374 32.5731 0 37.0854 0 42.6329C0 48.1804 4.23377 52.6927 9.42844 52.6927C10.8181 52.697 12.1899 52.3786 13.4371 51.7622C14.6844 51.1458 15.7733 50.2481 16.6191 49.139C16.6403 49.1136 16.6561 49.0841 16.6655 49.0523C16.6749 49.0205 16.6777 48.9871 16.6738 48.9542C16.6698 48.9213 16.6592 48.8895 16.6426 48.8609C16.6259 48.8323 16.6036 48.8074 16.577 48.7878L14.587 47.2077C14.5616 47.1871 14.5324 47.1718 14.5011 47.1625C14.4698 47.1533 14.437 47.1504 14.4046 47.1539C14.3721 47.1575 14.3407 47.1675 14.3121 47.1833C14.2835 47.1991 14.2583 47.2204 14.2379 47.2461C13.6777 47.9715 12.9608 48.5593 12.1415 48.965C11.3221 49.3707 10.4219 49.5837 9.50868 49.588C5.95195 49.588 3.16955 46.5327 3.16955 42.6389C3.16955 38.7452 5.95195 35.6869 9.50868 35.6869ZM19.1909 32H21.6904C21.7561 32 21.8192 32.0263 21.8656 32.073C21.9121 32.1197 21.9382 32.1831 21.9382 32.2492V52.1861C21.9382 52.2514 21.9124 52.3141 21.8665 52.3602C21.8206 52.4064 21.7583 52.4323 21.6934 52.4323H19.1939C19.1282 52.4323 19.0652 52.4061 19.0187 52.3593C18.9722 52.3126 18.9461 52.2492 18.9461 52.1831V32.2492C18.9458 32.2166 18.9518 32.1843 18.9639 32.1541C18.976 32.1239 18.994 32.0964 19.0168 32.0732C19.0395 32.05 19.0666 32.0316 19.0965 32.019C19.1264 32.0065 19.1585 32 19.1909 32ZM30.4549 38.8965C29.5603 38.877 28.6712 39.0427 27.8429 39.3834C27.0146 39.724 26.2648 40.2323 25.64 40.8766C25.0151 41.521 24.5287 42.2877 24.2107 43.1291C23.8928 43.9705 23.7502 44.8687 23.7918 45.7679C23.7607 46.6695 23.9104 47.5683 24.232 48.4105C24.5535 49.2527 25.0404 50.0212 25.6635 50.6701C26.2866 51.3191 27.0332 51.8351 27.8588 52.1876C28.6844 52.5401 29.5721 52.7217 30.4689 52.7217C31.3658 52.7217 32.2535 52.5401 33.0791 52.1876C33.9047 51.8351 34.6513 51.3191 35.2744 50.6701C35.8975 50.0212 36.3843 49.2527 36.7059 48.4105C37.0274 47.5683 37.1771 46.6695 37.1461 45.7679C37.1794 44.8684 37.0303 43.9714 36.7076 43.1319C36.385 42.2923 35.8956 41.5276 35.2695 40.8846C34.6433 40.2416 33.8934 39.7337 33.0657 39.3919C32.2379 39.0501 31.3495 38.8815 30.4549 38.8965ZM34.13 45.7679C34.1728 46.2776 34.1099 46.7908 33.9454 47.2749C33.7808 47.7589 33.5182 48.2034 33.174 48.58C32.8299 48.9567 32.4118 49.2574 31.9461 49.4631C31.4805 49.6688 30.9775 49.775 30.4689 49.775C29.9604 49.775 29.4573 49.6688 28.9917 49.4631C28.5261 49.2574 28.1079 48.9567 27.7638 48.58C27.4197 48.2034 27.157 47.7589 26.9925 47.2749C26.8279 46.7908 26.7651 46.2776 26.8079 45.7679C26.7753 45.2653 26.8453 44.7613 27.0134 44.2869C27.1815 43.8125 27.4443 43.3776 27.7855 43.0091C28.1268 42.6406 28.5394 42.3461 28.9979 42.1438C29.4564 41.9415 29.9512 41.8357 30.4519 41.8328C30.9533 41.8382 31.4485 41.9455 31.9077 42.1482C32.367 42.3509 32.7808 42.6448 33.1243 43.0123C33.4679 43.3797 33.7342 43.8132 33.9072 44.2867C34.0801 44.7603 34.1563 45.264 34.131 45.7679H34.13ZM50.6167 39.1841H48.1172C48.0848 39.1837 48.0526 39.1898 48.0226 39.202C47.9925 39.2142 47.9652 39.2322 47.9422 39.2551C47.9191 39.278 47.9008 39.3053 47.8883 39.3354C47.8758 39.3655 47.8694 39.3977 47.8694 39.4303V46.1019C47.9142 46.5603 47.8606 47.0231 47.7123 47.459C47.564 47.8949 47.3245 48.2936 47.0098 48.6284C46.6952 48.9632 46.3129 49.2261 45.8886 49.3995C45.4643 49.5728 45.008 49.6526 44.5504 49.6334C43.1963 49.6334 41.8312 48.6042 41.8312 46.3036V39.4323C41.8312 39.3997 41.8248 39.3675 41.8123 39.3374C41.7998 39.3073 41.7815 39.2801 41.7585 39.2572C41.7354 39.2343 41.7081 39.2162 41.678 39.204C41.648 39.1918 41.6158 39.1857 41.5834 39.1861H39.0839C39.019 39.1861 38.9567 39.2121 38.9108 39.2582C38.8649 39.3044 38.8392 39.367 38.8392 39.4323V46.6306C38.8392 50.5808 40.6155 52.7542 43.8443 52.7542C44.6075 52.7499 45.3567 52.5476 46.0195 52.1669C46.6822 51.7862 47.2362 51.2399 47.6277 50.5808L47.8684 50.6303V52.1892C47.8684 52.2553 47.8945 52.3187 47.941 52.3654C47.9874 52.4121 48.0504 52.4384 48.1162 52.4384H50.6157C50.6814 52.4384 50.7444 52.4121 50.7909 52.3654C50.8373 52.3187 50.8634 52.2553 50.8634 52.1892V39.4303C50.8634 39.3977 50.857 39.3655 50.8445 39.3354C50.832 39.3053 50.8137 39.278 50.7907 39.2551C50.7677 39.2322 50.7403 39.2142 50.7103 39.202C50.6802 39.1898 50.6491 39.1837 50.6167 39.1841ZM65.963 32H63.4554C63.423 32 63.391 32.0065 63.3611 32.019C63.3312 32.0316 63.3041 32.05 63.2813 32.0732C63.2585 32.0964 63.2406 32.1239 63.2285 32.1541C63.2163 32.1843 63.2103 32.2166 63.2107 32.2492V41.1608L63.0572 40.9146C62.5814 40.2574 61.9517 39.7284 61.2241 39.3744C60.4964 39.0205 59.6932 38.8525 58.8856 38.8854C55.8284 38.8854 52.7351 41.2556 52.7351 45.785C52.7351 49.7353 55.3911 52.7128 58.9097 52.7128C59.7157 52.7388 60.5156 52.5647 61.2388 52.2059C61.962 51.8471 62.5862 51.3146 63.0562 50.6555L63.2097 50.4022V52.1861C63.2093 52.2187 63.2153 52.2511 63.2274 52.2813C63.2396 52.3115 63.2575 52.339 63.2803 52.3622C63.3031 52.3854 63.3302 52.4038 63.3601 52.4163C63.39 52.4289 63.422 52.4354 63.4544 52.4354H65.962C65.9944 52.4354 66.0265 52.4289 66.0564 52.4163C66.0862 52.4038 66.1134 52.3854 66.1361 52.3622C66.1589 52.339 66.1768 52.3115 66.189 52.2813C66.2011 52.2511 66.2071 52.2187 66.2067 52.1861V32.2492C66.2071 32.2166 66.2011 32.1843 66.189 32.1541C66.1768 32.1239 66.1589 32.0964 66.1361 32.0732C66.1134 32.05 66.0862 32.0316 66.0564 32.019C66.0265 32.0065 65.9954 32 65.963 32ZM63.1706 45.7679C63.1873 46.2783 63.1032 46.787 62.9232 47.2645C62.7431 47.7421 62.4708 48.1789 62.1218 48.5499C61.7729 48.9208 61.3542 49.2184 60.8902 49.4255C60.4261 49.6327 59.9258 49.7451 59.4183 49.7565C58.917 49.7398 58.4241 49.6229 57.9682 49.4126C57.5123 49.2023 57.1026 48.9028 56.7631 48.5315C56.4235 48.1602 56.1608 47.7246 55.9904 47.2501C55.8199 46.7756 55.7451 46.2718 55.7702 45.7679C55.7456 45.2668 55.8211 44.7658 55.9924 44.2946C56.1637 43.8233 56.4272 43.3915 56.7673 43.0246C57.1075 42.6576 57.5174 42.3631 57.9727 42.1584C58.4281 41.9537 58.9196 41.8429 59.4183 41.8328C60.4322 41.8584 61.3949 42.2867 62.0961 43.024C62.7973 43.7613 63.1799 44.7477 63.1605 45.7679H63.1706ZM69.7143 39.1841H72.2139C72.2788 39.1841 72.341 39.2101 72.3869 39.2562C72.4328 39.3024 72.4586 39.365 72.4586 39.4303V52.1861C72.4586 52.2514 72.4328 52.3141 72.3869 52.3602C72.341 52.4064 72.2788 52.4323 72.2139 52.4323H69.7143C69.6486 52.4323 69.5856 52.4061 69.5391 52.3593C69.4927 52.3126 69.4666 52.2492 69.4666 52.1831V39.4303C69.4674 39.3647 69.4938 39.3021 69.5402 39.256C69.5866 39.2099 69.6491 39.1841 69.7143 39.1841ZM70.9741 32.4036C70.7153 32.398 70.458 32.4444 70.2173 32.5401C69.9766 32.6359 69.7573 32.779 69.5723 32.9611C69.3873 33.1433 69.2403 33.3608 69.14 33.6008C69.0397 33.8409 68.9881 34.0987 68.9881 34.3591C68.9937 34.8837 69.2059 35.3846 69.5783 35.752C69.9506 36.1194 70.4526 36.3231 70.9741 36.3185C71.2305 36.3207 71.4848 36.2715 71.7221 36.1739C71.9595 36.0763 72.1751 35.9321 72.3566 35.7499C72.538 35.5676 72.6816 35.3509 72.779 35.1123C72.8765 34.8737 72.9257 34.618 72.924 34.3601C72.9283 34.1009 72.8804 33.8435 72.7834 33.6034C72.6863 33.3633 72.542 33.1454 72.3592 32.9628C72.1763 32.7801 71.9586 32.6366 71.7193 32.5406C71.4799 32.4447 71.2237 32.3985 70.9661 32.4046L70.9741 32.4036ZM82.7506 38.8955C81.9857 38.8938 81.2336 39.0934 80.5691 39.4747C79.9047 39.856 79.351 40.4056 78.9632 41.0689L78.7225 41.0195V39.4303C78.7225 39.3977 78.7161 39.3655 78.7036 39.3354C78.6911 39.3053 78.6728 39.278 78.6497 39.2551C78.6267 39.2322 78.5994 39.2142 78.5693 39.202C78.5393 39.1898 78.5071 39.1837 78.4747 39.1841H75.9752C75.9103 39.1841 75.848 39.2101 75.8021 39.2562C75.7562 39.3024 75.7305 39.365 75.7305 39.4303V52.1861C75.7301 52.2187 75.7361 52.2511 75.7482 52.2813C75.7603 52.3115 75.7783 52.339 75.8011 52.3622C75.8238 52.3854 75.851 52.4038 75.8808 52.4163C75.9107 52.4289 75.9428 52.4354 75.9752 52.4354H78.4747C78.5404 52.4354 78.6035 52.4091 78.6499 52.3624C78.6964 52.3156 78.7225 52.2522 78.7225 52.1861V45.5106C78.6801 45.0535 78.7355 44.5927 78.8849 44.159C79.0343 43.7253 79.2743 43.3288 79.5888 42.9961C79.9032 42.6635 80.2847 42.4024 80.7078 42.2305C81.1309 42.0585 81.5856 41.9797 82.0415 41.9992C83.3956 41.9992 84.7607 43.0214 84.7607 45.2997V52.1821C84.7607 52.2482 84.7868 52.3116 84.8333 52.3583C84.8797 52.4051 84.9427 52.4313 85.0085 52.4313H87.516C87.5486 52.4313 87.5808 52.4249 87.6108 52.4124C87.6409 52.3998 87.6682 52.3815 87.6912 52.3583C87.7142 52.3352 87.7325 52.3077 87.7449 52.2775C87.7574 52.2472 87.7638 52.2148 87.7638 52.1821V44.9879C87.7517 41.0629 85.9724 38.8965 82.7466 38.8965L82.7506 38.8955ZM102.692 39.1831H100.192C100.16 39.1827 100.128 39.1888 100.098 39.201C100.068 39.2132 100.04 39.2312 100.017 39.2541C99.9942 39.277 99.9759 39.3043 99.9634 39.3344C99.9509 39.3645 99.9445 39.3967 99.9445 39.4293V41.185L99.7941 40.9388C99.3156 40.2801 98.6831 39.7503 97.9524 39.3963C97.2218 39.0424 96.4157 38.8752 95.6054 38.9097C92.5512 38.9097 89.4549 41.2798 89.4549 45.8092C89.4549 49.7595 92.1109 52.7371 95.6335 52.7371C96.4394 52.7626 97.2392 52.5883 97.9623 52.2295C98.6854 51.8707 99.3096 51.3385 99.78 50.6797L99.9305 50.4264V52.1851C99.9305 52.2512 99.9566 52.3146 100.003 52.3614C100.049 52.4081 100.113 52.4344 100.178 52.4344H102.678C102.71 52.4344 102.742 52.4279 102.772 52.4153C102.802 52.4028 102.829 52.3844 102.852 52.3612C102.875 52.338 102.893 52.3105 102.905 52.2803C102.917 52.2501 102.923 52.2177 102.923 52.1851V39.4303C102.923 39.3667 102.898 39.3056 102.854 39.2597C102.811 39.2138 102.751 39.1867 102.688 39.1841L102.692 39.1831ZM99.8994 45.7669C99.9161 46.2781 99.8317 46.7876 99.651 47.2658C99.4704 47.744 99.1971 48.1813 98.8471 48.5524C98.4971 48.9235 98.0773 49.2209 97.612 49.4274C97.1468 49.6339 96.6454 49.7454 96.137 49.7555C95.636 49.7386 95.1434 49.6215 94.6879 49.411C94.2323 49.2005 93.823 48.9009 93.4838 48.5296C93.1446 48.1584 92.8823 47.7228 92.7122 47.2485C92.5421 46.7742 92.4676 46.2705 92.493 45.7669C92.468 45.266 92.5431 44.7651 92.714 44.294C92.8848 43.8229 93.1479 43.391 93.4878 43.0241C93.8276 42.6571 94.2371 42.3625 94.6922 42.1577C95.1473 41.9529 95.6386 41.842 96.137 41.8317C97.1533 41.854 98.1193 42.2807 98.8233 43.0184C99.5273 43.7561 99.9117 44.7445 99.8923 45.7669H99.8994ZM114.095 39.2285C113.525 38.9961 112.916 38.8769 112.301 38.8774C110.64 38.8774 109.431 39.8783 108.81 41.7742L108.587 41.7429V39.4303C108.587 39.3977 108.58 39.3655 108.568 39.3354C108.555 39.3053 108.537 39.278 108.514 39.2551C108.491 39.2322 108.463 39.2142 108.433 39.202C108.403 39.1898 108.371 39.1837 108.339 39.1841H105.839C105.807 39.1837 105.775 39.1898 105.745 39.202C105.715 39.2142 105.687 39.2322 105.664 39.2551C105.641 39.278 105.623 39.3053 105.61 39.3354C105.598 39.3655 105.592 39.3977 105.592 39.4303V52.1861C105.592 52.2522 105.618 52.3156 105.664 52.3624C105.711 52.4091 105.774 52.4354 105.839 52.4354H108.367C108.399 52.4354 108.431 52.4289 108.461 52.4163C108.491 52.4038 108.518 52.3854 108.541 52.3622C108.564 52.339 108.582 52.3115 108.594 52.2813C108.606 52.2511 108.612 52.2187 108.612 52.1861V47.8313C108.612 42.6349 110.675 41.862 111.907 41.862C112.427 41.8632 112.941 41.9707 113.418 42.1778C113.451 42.1934 113.488 42.2015 113.524 42.2015C113.561 42.2015 113.598 42.1934 113.631 42.1778C113.663 42.1608 113.691 42.1369 113.712 42.1077C113.734 42.0786 113.749 42.045 113.756 42.0093L114.252 39.5131C114.264 39.4545 114.254 39.3936 114.226 39.3413C114.197 39.2891 114.151 39.2491 114.095 39.2285ZM127.963 39.2921C127.941 39.2579 127.91 39.23 127.874 39.211C127.838 39.1919 127.798 39.1823 127.757 39.1831H125.066C125.017 39.1837 124.968 39.199 124.927 39.2272C124.886 39.2554 124.854 39.2952 124.836 39.3415L121.571 47.8313L118.283 39.3405C118.264 39.2941 118.232 39.2544 118.191 39.2262C118.15 39.198 118.102 39.1826 118.052 39.1821H115.309C115.269 39.1822 115.23 39.1922 115.195 39.2112C115.16 39.2302 115.13 39.2576 115.108 39.2911C115.085 39.3247 115.071 39.3636 115.067 39.4041C115.063 39.4446 115.069 39.4855 115.084 39.5231L119.971 51.5949L117.273 58.6488C117.256 58.6871 117.249 58.7292 117.252 58.771C117.255 58.8129 117.269 58.8532 117.292 58.8882C117.315 58.9232 117.347 58.9518 117.384 58.9714C117.421 58.9909 117.462 59.0007 117.503 59H120.121C120.171 59.0001 120.219 58.985 120.26 58.9567C120.3 58.9283 120.331 58.8881 120.348 58.8415L127.978 39.5292C127.995 39.4915 128.003 39.45 127.999 39.4086C127.996 39.3673 127.982 39.3275 127.959 39.2931L127.963 39.2921Z" fill="white"/>
<path d="M59.3324 26.235L59.9087 26.807C59.9242 26.8229 59.9347 26.8429 59.9389 26.8647C59.9431 26.8864 59.9409 26.9089 59.9324 26.9294C59.924 26.9499 59.9097 26.9675 59.8913 26.98C59.8729 26.9925 59.8512 26.9995 59.8289 27H55.2835C54.7314 27 54.2019 26.7823 53.8115 26.3947C53.4211 26.0072 53.2018 25.4816 53.2018 24.9335V16.1709C53.2018 16.1407 53.1897 16.1118 53.1682 16.0904C53.1467 16.0691 53.1175 16.0571 53.0871 16.0571H52.116C52.0934 16.0573 52.0712 16.051 52.0522 16.0387C52.0332 16.0265 52.0183 16.0089 52.0094 15.9883C52.0004 15.9677 51.9978 15.9448 52.0019 15.9227C52.006 15.9006 52.0165 15.8802 52.0323 15.8641L55.8907 12.034C55.9014 12.0232 55.9141 12.0147 55.9282 12.0088C55.9422 12.003 55.9573 12 55.9725 12C55.9877 12 56.0028 12.003 56.0168 12.0088C56.0308 12.0147 56.0436 12.0232 56.0542 12.034L59.9087 15.8641C59.9242 15.88 59.9347 15.9 59.9389 15.9218C59.9431 15.9435 59.9409 15.966 59.9324 15.9865C59.924 16.007 59.9097 16.0246 59.8913 16.0371C59.8729 16.0496 59.8512 16.0566 59.8289 16.0571H58.8429C58.8122 16.0571 58.7827 16.069 58.7607 16.0902C58.7387 16.1115 58.726 16.1404 58.7252 16.1709V24.7811C58.7265 25.3263 58.9448 25.8488 59.3324 26.235ZM67.8568 26.235L68.4361 26.807C68.4519 26.8231 68.4624 26.8436 68.4665 26.8657C68.4706 26.8878 68.468 26.9106 68.4591 26.9312C68.4501 26.9519 68.4352 26.9694 68.4162 26.9816C68.3972 26.9939 68.375 27.0003 68.3524 27H63.819C63.5452 27.0004 63.2741 26.9472 63.0211 26.8435C62.7682 26.7397 62.5383 26.5875 62.3446 26.3954C62.151 26.2034 61.9974 25.9754 61.8927 25.7243C61.7879 25.4733 61.7341 25.2042 61.7342 24.9325V18.3858C61.7342 18.3553 61.7222 18.3261 61.7008 18.3043C61.6794 18.2824 61.6502 18.2698 61.6195 18.269H60.6375C60.6152 18.2685 60.5935 18.2616 60.5751 18.249C60.5568 18.2365 60.5425 18.2189 60.534 18.1984C60.5255 18.1779 60.5233 18.1555 60.5275 18.1337C60.5317 18.112 60.5422 18.0919 60.5577 18.076L64.4122 14.2529C64.4228 14.2421 64.4356 14.2336 64.4496 14.2277C64.4636 14.2219 64.4787 14.2189 64.4939 14.2189C64.5091 14.2189 64.5242 14.2219 64.5383 14.2277C64.5523 14.2336 64.565 14.2421 64.5757 14.2529L68.4341 18.0691C68.4499 18.0852 68.4604 18.1057 68.4645 18.1278C68.4686 18.1499 68.466 18.1727 68.4571 18.1933C68.4481 18.2139 68.4332 18.2315 68.4142 18.2437C68.3952 18.256 68.373 18.2624 68.3504 18.2621H67.3653C67.3346 18.2629 67.3055 18.2755 67.2841 18.2973C67.2626 18.3191 67.2507 18.3484 67.2507 18.3789V24.7811C67.2512 25.3258 67.4683 25.8483 67.8549 26.235H67.8568ZM76.3853 26.235L76.9615 26.807C76.9771 26.8229 76.9876 26.8429 76.9918 26.8647C76.996 26.8864 76.9937 26.9089 76.9853 26.9294C76.9768 26.9499 76.9625 26.9675 76.9441 26.98C76.9258 26.9925 76.9041 26.9995 76.8818 27H72.3334C71.7813 27 71.2518 26.7823 70.8614 26.3947C70.471 26.0072 70.2517 25.4816 70.2517 24.9335V20.5789C70.2517 20.5487 70.2396 20.5198 70.2181 20.4985C70.1966 20.4771 70.1674 20.4651 70.137 20.4651H69.1659C69.1426 20.4656 69.1196 20.4591 69.1001 20.4463C69.0807 20.4335 69.0656 20.4151 69.0569 20.3936C69.0482 20.3721 69.0464 20.3484 69.0516 20.3259C69.0568 20.3033 69.0689 20.2828 69.0862 20.2672L72.9446 16.4411C72.9549 16.4304 72.9673 16.4219 72.981 16.4161C72.9947 16.4104 73.0095 16.4074 73.0243 16.4074C73.0392 16.4074 73.054 16.4104 73.0677 16.4161C73.0814 16.4219 73.0938 16.4304 73.1041 16.4411L76.9625 20.2672C76.9798 20.2828 76.9919 20.3033 76.9971 20.3259C77.0023 20.3484 77.0005 20.3721 76.9918 20.3936C76.9831 20.4151 76.968 20.4335 76.9486 20.4463C76.9291 20.4591 76.9061 20.4656 76.8828 20.4651H75.8918C75.8613 20.4651 75.8322 20.4771 75.8107 20.4985C75.7892 20.5198 75.7771 20.5487 75.7771 20.5789V24.7772C75.7784 25.3223 75.9966 25.8449 76.3843 26.231L76.3853 26.235Z" fill="white"/>
</g>
<defs>
<clipPath id="clip0_4_3060">
<rect width="128" height="59" fill="white"/>
</clipPath>
</defs>
</svg>
