<svg width="106" height="77" viewBox="0 0 106 77" fill="none" xmlns="http://www.w3.org/2000/svg">
<path d="M61.3416 13.8345H63.262L68.73 8.41077L69 6.10716C65.867 3.36279 62.0803 1.45606 57.9978 0.567123C53.9152 -0.321816 49.6715 -0.163607 45.6678 1.0268C41.664 2.21721 38.0323 4.40051 35.1158 7.3704C32.1994 10.3403 30.0945 13.9987 29 18C29.6094 17.7508 30.2852 17.7104 30.9204 17.8851L41.8615 16.0951C41.8615 16.0951 42.4136 15.1817 42.7058 15.2357C45.0501 12.6817 48.29 11.1134 51.7622 10.852C55.2343 10.5906 58.6758 11.6558 61.3819 13.8295L61.3416 13.8345Z" fill="#EA4335"/>
<path d="M77.1722 17.8463C75.9133 13.2662 73.3271 9.1489 69.7312 6L62.0408 13.5935C63.644 14.8872 64.9289 16.5234 65.7984 18.3787C66.668 20.2341 67.0996 22.2602 67.0607 24.3042V25.6531C68.8415 25.7054 70.5316 26.4406 71.7725 27.7028C73.0134 28.9651 73.7074 30.655 73.7074 32.4141C73.7074 34.1732 73.0134 35.8631 71.7725 37.1253C70.5316 38.3876 68.8415 39.1228 67.0607 39.1751H53.366L52 40.5439V48.6507L53.366 49.9996H67.0607C70.8838 50.0263 74.6141 48.8379 77.7004 46.6098C80.7866 44.3818 83.065 41.2325 84.1987 37.6273C85.3325 34.0222 85.2614 30.1525 83.9961 26.5903C82.7307 23.0281 80.3382 19.9624 77.1722 17.8463Z" fill="#4285F4"/>
<path d="M39.547 49.9999H53V39.5878H39.547C38.5965 39.583 37.6579 39.3826 36.7937 39L34.9033 39.5667L29.4721 44.7703L29 46.5979C32.0355 48.8178 35.7408 50.013 39.547 49.9999Z" fill="#34A853"/>
<path d="M39.2043 15.0001C35.5982 15.0231 32.0891 16.2068 29.1669 18.3859C26.2448 20.565 24.0555 23.6307 22.9049 27.1549C21.7542 30.6792 21.6996 34.486 22.7487 38.0438C23.7978 41.6016 25.8981 44.7327 28.7565 47L36.4797 39.042C35.4989 38.585 34.6402 37.8894 33.9774 37.015C33.3145 36.1405 32.8673 35.1133 32.6741 34.0215C32.4808 32.9296 32.5474 31.8057 32.868 30.7462C33.1886 29.6867 33.7536 28.7232 34.5147 27.9384C35.2758 27.1536 36.2102 26.5709 37.2376 26.2403C38.2651 25.9097 39.355 25.8411 40.4139 26.0403C41.4727 26.2396 42.4689 26.7008 43.3169 27.3843C44.1649 28.0678 44.8394 28.9533 45.2826 29.9647L53 22.0229C51.3831 19.8327 49.2959 18.0588 46.9022 16.8403C44.5086 15.6218 41.8737 14.9919 39.2043 15.0001Z" fill="#FBBC05"/>
<path d="M7.44132 72.7227C6.46942 72.7384 5.50434 72.5574 4.60378 72.1906C3.70322 71.8239 2.88565 71.2788 2.19996 70.588C1.50419 69.9153 0.950784 69.109 0.572798 68.217C0.194812 67.3251 0 66.3659 0 65.3968C0 64.4277 0.194812 63.4686 0.572798 62.5766C0.950784 61.6847 1.50419 60.8783 2.19996 60.2056C2.87961 59.5022 3.69434 58.9442 4.595 58.5652C5.49566 58.1862 6.46357 57.9941 7.44032 58.0005C8.37038 57.9898 9.29328 58.1647 10.1553 58.515C11.0174 58.8652 11.8014 59.3837 12.4617 60.0405L11.0477 61.4804C10.0791 60.5419 8.77913 60.0263 7.43228 60.0465C6.73452 60.0388 6.04276 60.1765 5.40086 60.4509C4.75896 60.7252 4.18092 61.1303 3.70337 61.6405C2.69776 62.6286 2.12482 63.9767 2.1106 65.3884C2.09638 66.8 2.64205 68.1595 3.62755 69.1678C4.61306 70.176 5.95768 70.7505 7.36561 70.7647C8.77354 70.779 10.1295 70.2319 11.1351 69.2438C11.7645 68.5624 12.1527 67.6923 12.2398 66.7678H7.46341V64.7328H14.2002C14.2647 65.1429 14.2906 65.5583 14.2775 65.9733C14.3194 66.8333 14.187 67.6929 13.8884 68.5003C13.5898 69.3076 13.1311 70.0459 12.5401 70.6706C11.8807 71.351 11.0863 71.8851 10.2082 72.2384C9.33012 72.5917 8.38786 72.7563 7.44232 72.7217L7.44132 72.7227ZM23.0991 71.3936C22.4323 72.0599 21.5835 72.5131 20.66 72.6961C19.7364 72.879 18.7795 72.7835 17.9101 72.4216C17.0406 72.0596 16.2977 71.4475 15.775 70.6624C15.2523 69.8774 14.9733 68.9547 14.9733 68.0108C14.9733 67.0669 15.2523 66.1442 15.775 65.3592C16.2977 64.5741 17.0406 63.962 17.9101 63.6001C18.7795 63.2381 19.7364 63.1426 20.66 63.3255C21.5835 63.5085 22.4323 63.9617 23.0991 64.628C23.9724 65.5365 24.4604 66.7491 24.4604 68.0108C24.4604 69.2725 23.9724 70.4851 23.0991 71.3936ZM17.8588 70.0644C18.3251 70.5634 18.9699 70.8563 19.6516 70.879C20.3332 70.9016 20.996 70.6521 21.4943 70.1853L21.6148 70.0644C22.1245 69.5014 22.4069 68.7682 22.4069 68.0078C22.4069 67.2474 22.1245 66.5142 21.6148 65.9511C21.3774 65.7024 21.0934 65.5031 20.7791 65.3646C20.4647 65.226 20.1262 65.151 19.7829 65.1438C19.4397 65.1366 19.0983 65.1974 18.7785 65.3226C18.4587 65.4478 18.1666 65.6351 17.919 65.8736L17.8417 65.9511C17.3296 66.513 17.0457 67.2467 17.0457 68.0078C17.0457 68.7689 17.3296 69.5025 17.8417 70.0644H17.8588ZM33.4332 71.3936C32.7664 72.0599 31.9176 72.5131 30.9941 72.6961C30.0705 72.879 29.1136 72.7835 28.2442 72.4216C27.3747 72.0596 26.6318 71.4475 26.1091 70.6624C25.5864 69.8774 25.3074 68.9547 25.3074 68.0108C25.3074 67.0669 25.5864 66.1442 26.1091 65.3592C26.6318 64.5741 27.3747 63.962 28.2442 63.6001C29.1136 63.2381 30.0705 63.1426 30.9941 63.3255C31.9176 63.5085 32.7664 63.9617 33.4332 64.628C34.3065 65.5365 34.7945 66.7491 34.7945 68.0108C34.7945 69.2725 34.3065 70.4851 33.4332 71.3936ZM28.1928 70.0644C28.6592 70.5634 29.304 70.8563 29.9857 70.879C30.6673 70.9016 31.33 70.6521 31.8284 70.1853L31.9489 70.0644C32.4586 69.5014 32.741 68.7682 32.741 68.0078C32.741 67.2474 32.4586 66.5142 31.9489 65.9511C31.4696 65.4507 30.8118 65.1614 30.12 65.1468C29.4282 65.1323 28.7589 65.3937 28.2591 65.8736L28.1818 65.9511C27.6697 66.513 27.3858 67.2467 27.3858 68.0078C27.3858 68.7689 27.6697 69.5025 28.1818 70.0644H28.1928ZM40.2252 76.9951C39.2731 77.0256 38.3394 76.7277 37.5799 76.1513C36.9065 75.6433 36.376 74.9688 36.0403 74.1938L37.848 73.4386C38.0448 73.9019 38.3529 74.309 38.7449 74.6238C39.1639 74.9637 39.6904 75.1422 40.2292 75.1273C40.5704 75.1474 40.912 75.0938 41.2308 74.9701C41.5496 74.8464 41.8382 74.6555 42.0771 74.4103C42.5546 73.8323 42.791 73.0917 42.7369 72.3431V71.6594H42.6656C42.364 72.0145 41.9849 72.2952 41.5577 72.4798C41.1305 72.6644 40.6666 72.7478 40.2021 72.7237C39.6065 72.7254 39.017 72.6033 38.4708 72.3652C37.9246 72.1271 37.4335 71.7781 37.0285 71.3402C36.1584 70.4445 35.6715 69.2436 35.6715 67.9932C35.6715 66.7428 36.1584 65.5419 37.0285 64.6462C37.4321 64.2057 37.9227 63.8543 38.469 63.6142C39.0154 63.3741 39.6056 63.2506 40.2021 63.2516C40.7078 63.2502 41.2076 63.3613 41.6653 63.5768C42.0609 63.7494 42.4138 64.0072 42.6987 64.332H42.77V63.5768H44.7384V72.0622C44.7886 72.7325 44.7024 73.4061 44.485 74.042C44.2677 74.678 43.9237 75.263 43.474 75.7616C43.0449 76.174 42.5375 76.4958 41.982 76.708C41.4266 76.9202 40.8343 77.0186 40.2402 76.9971L40.2252 76.9951ZM40.3678 70.88C40.7064 70.8875 41.0425 70.8202 41.3523 70.6829C41.6621 70.5456 41.938 70.3417 42.1604 70.0856C42.65 69.5219 42.9075 68.7926 42.8805 68.0455C42.9112 67.2864 42.6539 66.5438 42.1604 65.9672C41.9383 65.7108 41.6624 65.5067 41.3526 65.3693C41.0427 65.232 40.7065 65.1649 40.3678 65.1728C40.0195 65.1656 39.6736 65.2327 39.3531 65.3697C39.0327 65.5066 38.7449 65.7103 38.5089 65.9672C37.9842 66.5232 37.6994 67.2642 37.7165 68.0294C37.7079 68.4051 37.7736 68.7787 37.9095 69.1288C38.0455 69.4789 38.2492 69.7986 38.5089 70.0695C38.7454 70.3331 39.0359 70.5424 39.3606 70.6832C39.6852 70.8239 40.0363 70.8928 40.3899 70.8851L40.3678 70.88ZM48.2213 58.5462V72.4579H46.1675V58.5472L48.2213 58.5462ZM53.8965 72.7217C53.2849 72.7357 52.6769 72.6246 52.1095 72.3952C51.5421 72.1658 51.0273 71.823 50.5964 71.3875C50.1565 70.9455 49.8107 70.4185 49.5801 69.8385C49.3495 69.2585 49.2387 68.6375 49.2547 68.0133C49.2315 67.3875 49.334 66.7634 49.556 66.1781C49.7781 65.5928 50.1151 65.0581 50.5472 64.6059C50.9551 64.1755 51.4479 63.835 51.9943 63.6061C52.5407 63.3773 53.1287 63.2651 53.7207 63.2767C54.2661 63.2703 54.8071 63.3755 55.3105 63.5859C55.7634 63.7686 56.1763 64.0385 56.5257 64.3803C56.8255 64.6707 57.0913 64.9944 57.3181 65.345C57.5012 65.6408 57.6575 65.9525 57.7851 66.2764L58 66.8282L51.6369 69.414C51.8288 69.8569 52.1502 70.2311 52.5587 70.4871C52.9671 70.7431 53.4434 70.8689 53.9246 70.8478C54.392 70.8491 54.8517 70.7292 55.2592 70.4999C55.6667 70.2705 56.0082 69.9395 56.2505 69.5388L57.8403 70.6142C57.4359 71.1962 56.9175 71.6895 56.3168 72.0642C55.5919 72.5195 54.7485 72.7487 53.8935 72.7227L53.8965 72.7217ZM51.2462 67.8421L55.4692 66.083C55.339 65.7732 55.1059 65.5181 54.8094 65.3611C54.4731 65.1695 54.0914 65.0725 53.7047 65.0802C53.0586 65.0965 52.445 65.3679 51.9974 65.8353C51.7324 66.0987 51.5292 66.4181 51.4027 66.7701C51.2763 67.1221 51.2296 67.498 51.2663 67.8703L51.2462 67.8421Z" fill="white"/>
<path d="M68.7868 71.9942C67.9109 72.009 67.0405 71.8594 66.2253 71.5538C65.4101 71.2482 64.6662 70.7927 64.0361 70.2133C63.406 69.6339 62.902 68.942 62.5529 68.1771C62.2038 67.4121 62.0166 66.5892 62.0018 65.7553C62.0018 65.6702 62.0018 65.5847 62.0018 65.499C61.9611 63.816 62.6238 62.1865 63.8444 60.9685C65.065 59.7504 66.7435 59.0434 68.5114 59.0028H68.7807C69.6899 58.9759 70.5937 59.1448 71.4247 59.4969C72.2558 59.849 72.9926 60.3752 73.5802 61.0362L72.4138 62.1085C71.9848 61.5879 71.4324 61.1714 70.8018 60.893C70.1712 60.6146 69.4804 60.4823 68.7858 60.5069C68.1196 60.4931 67.4573 60.6075 66.8387 60.8432C66.22 61.0788 65.6577 61.431 65.1854 61.8785C64.2459 62.8613 63.7253 64.1424 63.7253 65.4712C63.7253 66.8 64.2459 68.081 65.1854 69.0639C65.6574 69.5115 66.2195 69.8637 66.838 70.0994C67.4565 70.3351 68.1187 70.4494 68.7848 70.4354C69.5587 70.4438 70.3247 70.2859 71.0257 69.9735C71.7267 69.6611 72.3447 69.2022 72.8337 68.631L74 69.7414C73.3867 70.4271 72.6206 70.9743 71.7574 71.343C70.8323 71.7724 69.8171 71.997 68.7878 72L68.7868 71.9942Z" fill="white"/>
<path d="M77 73H75V60H77V73Z" fill="white"/>
<path d="M79.2686 64.2863C80.1278 63.4624 81.2894 63 82.5002 63C83.7109 63 84.8725 63.4624 85.7317 64.2863C86.5486 65.1708 87 66.3147 87 67.5C87 68.6853 86.5486 69.8292 85.7317 70.7137C84.8725 71.5376 83.7109 72 82.5002 72C81.2894 72 80.1278 71.5376 79.2686 70.7137C78.4516 69.8293 78 68.6853 78 67.5C78 66.3146 78.4516 65.1707 79.2686 64.2863ZM80.4859 69.7131C80.7338 69.9703 81.0321 70.1773 81.3635 70.322C81.6949 70.4668 82.0529 70.5465 82.4165 70.5564C82.7801 70.5663 83.1421 70.5062 83.4815 70.3797C83.8208 70.2532 84.1307 70.0628 84.3932 69.8195L84.5034 69.7131C85.0505 69.0951 85.3511 68.3087 85.3511 67.4956C85.3511 66.6825 85.0505 65.8962 84.5034 65.2782C84.2556 65.021 83.9573 64.814 83.6258 64.6692C83.2944 64.5245 82.9364 64.4448 82.5728 64.4349C82.2092 64.425 81.8472 64.485 81.5078 64.6115C81.1685 64.738 80.8586 64.9285 80.5961 65.1717L80.4859 65.2782C79.9352 65.8935 79.6321 66.6798 79.6321 67.4932C79.6321 68.3067 79.9352 69.0929 80.4859 69.7083V69.7131Z" fill="white"/>
<path d="M96 72.6723H94.3684V71.47H94.318C94.0289 71.9297 93.6183 72.3069 93.1283 72.563C92.6143 72.85 92.0298 72.9986 91.436 72.9932C90.96 73.0238 90.4829 72.9504 90.0404 72.7783C89.598 72.6063 89.2015 72.3401 88.8805 71.9996C88.263 71.2472 87.952 70.3029 88.006 69.3447V64H89.6983V69.0436C89.6983 70.6612 90.4389 71.47 91.9201 71.47C92.2463 71.4772 92.5696 71.41 92.8637 71.2737C93.1577 71.1375 93.4143 70.9361 93.6124 70.6861C94.0495 70.1522 94.2827 69.4894 94.2727 68.8091V64H95.965V72.6733L96 72.6723Z" fill="white"/>
<path d="M101.261 72.9997C100.691 73.002 100.128 72.8842 99.6095 72.6545C99.0913 72.4248 98.6306 72.0886 98.2594 71.6692C97.4468 70.7508 97 69.5804 97 68.37C97 67.1597 97.4468 65.9893 98.2594 65.0708C98.6306 64.6514 99.0913 64.3153 99.6095 64.0856C100.128 63.8559 100.691 63.7381 101.261 63.7404C101.899 63.7311 102.529 63.8773 103.094 64.1656C103.591 64.4074 104.013 64.7748 104.313 65.2292H104.386L104.313 64.0242V60H106V72.7169H104.375V71.5119H104.302C104.001 71.9663 103.58 72.3337 103.082 72.5755C102.521 72.8618 101.895 73.0077 101.261 72.9997ZM101.536 71.5109C101.916 71.516 102.292 71.4428 102.64 71.2962C102.988 71.1496 103.3 70.9329 103.555 70.6605C104.08 70.0056 104.365 69.1997 104.365 68.37C104.365 67.5404 104.08 66.7344 103.555 66.0796C103.065 65.5585 102.381 65.2475 101.655 65.2148C100.929 65.1821 100.219 65.4305 99.6812 65.9053C99.6196 65.9601 99.558 66.0198 99.5016 66.0796C98.976 66.731 98.6904 67.5344 98.6904 68.3616C98.6904 69.1888 98.976 69.9921 99.5016 70.6435C99.7538 70.9267 100.066 71.1534 100.418 71.3082C100.769 71.4629 101.151 71.5419 101.536 71.5398V71.5109Z" fill="white"/>
</svg>
