<svg width="122" height="50" viewBox="0 0 122 50" fill="none" xmlns="http://www.w3.org/2000/svg">
<mask id="mask0_4_2517" style="mask-type:luminance" maskUnits="userSpaceOnUse" x="0" y="0" width="122" height="51">
<path d="M122 0.00146484H0V50.0015H122V0.00146484Z" fill="white"/>
</mask>
<g mask="url(#mask0_4_2517)">
<mask id="mask1_4_2517" style="mask-type:luminance" maskUnits="userSpaceOnUse" x="0" y="0" width="122" height="51">
<path d="M122 0.00146484H0V50.0015H122V0.00146484Z" fill="white"/>
</mask>
<g mask="url(#mask1_4_2517)">
<mask id="mask2_4_2517" style="mask-type:alpha" maskUnits="userSpaceOnUse" x="-12" y="-12" width="141" height="63">
<path d="M129 -11.9985H-12V50.0015H129V-11.9985Z" fill="white"/>
</mask>
<g mask="url(#mask2_4_2517)">
<path d="M106.921 28.8449C103.869 29.2398 100.815 29.598 97.7564 29.9196C68.2607 33.0177 38.4879 32.6568 9.081 28.8449C4.40608 28.1906 1.88701 24.1628 3.47631 19.8332C4.84189 16.0622 6.09125 12.1923 7.45102 8.2323C8.25003 5.942 10.8214 4.02121 13.169 4.00146H102.833C105.177 4.00146 107.751 5.93072 108.551 8.2323C109.922 12.181 111.165 16.0622 112.525 19.8332C114.111 24.1685 111.593 28.1906 106.921 28.8449Z" fill="#C7C8CA"/>
<path d="M106.919 29.8458C103.868 30.2408 100.814 30.599 97.7555 30.9205C68.2594 34.0174 38.4867 33.6565 9.07962 29.8458C4.40756 29.1887 1.88851 25.155 3.4749 20.8311C4.84339 17.0626 6.08984 13.1926 7.44962 9.23242C8.24865 6.93926 10.8228 5.0212 13.1676 5.00146H102.832C105.179 5.00146 107.75 6.92797 108.549 9.23242C109.923 13.1813 111.165 17.0626 112.524 20.8311C114.114 25.1664 111.592 29.1887 106.919 29.8572" fill="#C7C8CA"/>
<path d="M106.919 29.7972C103.87 30.208 100.817 30.5486 97.7546 30.8693C68.2631 33.9646 38.4813 33.7592 9.07999 29.7972C4.40497 29.167 1.88877 25.1291 3.4752 20.7929C4.84081 17.0335 6.09019 13.1729 7.44999 9.22225C8.24901 6.9346 10.8204 5.02116 13.1682 5.00146H102.831C105.178 5.00146 107.75 6.92334 108.548 9.22225C109.923 13.1617 111.163 17.0335 112.524 20.7929C114.112 25.1177 111.597 29.1557 106.919 29.7972Z" fill="#C7C9CB"/>
<path d="M106.921 29.7957C103.87 30.2066 100.82 30.5501 97.7568 30.8683C68.2619 33.9651 38.4822 33.7595 9.08016 29.7957C4.40502 29.1678 1.88874 25.1279 3.47521 20.8007C4.84086 17.0368 6.09028 13.1771 7.45011 9.22437C8.24916 6.93556 10.8206 5.02118 13.1684 5.00146H102.833C105.178 5.00146 107.749 6.92431 108.548 9.22437C109.923 13.1658 111.164 17.0368 112.523 20.8007C114.113 25.1279 111.596 29.1678 106.921 29.8097" fill="#C8CACC"/>
<path d="M106.935 29.7957C103.883 30.2067 100.832 30.5474 97.7688 30.8683C68.2723 33.9651 38.485 33.7595 9.08136 29.7957C4.40261 29.165 1.88886 25.128 3.47557 20.8009C4.84143 17.0369 6.09104 13.1743 7.45107 9.22443C8.25023 6.93557 10.8221 5.02117 13.1703 5.00146H102.831C105.176 5.00146 107.748 6.9243 108.547 9.22443C109.922 13.1658 111.163 17.0369 112.523 20.8009C114.113 25.128 111.597 29.165 106.92 29.8097" fill="#C9CBCD"/>
<path d="M106.932 29.7978C103.88 30.2087 100.829 30.5492 97.7662 30.87C68.2693 33.9657 38.4821 33.7574 9.08136 29.7978C4.40261 29.1673 1.88886 25.129 3.47557 20.7921C4.84143 17.0324 6.09104 13.1712 7.45107 9.22282C8.25023 6.93485 10.8221 5.02118 13.1703 5.00146H102.831C105.176 5.00146 107.748 6.92641 108.547 9.22282C109.922 13.1628 111.163 17.0324 112.523 20.7921C114.113 25.1178 111.597 29.1561 106.92 29.7978" fill="#CACBCD"/>
<path d="M106.929 29.7978C103.878 30.2087 100.827 30.5492 97.7632 30.8701C68.27 33.9657 38.4801 33.7574 9.08243 29.7978C4.40372 29.1674 1.88709 25.1289 3.47669 20.7923C4.84254 17.0324 6.09214 13.1713 7.45217 9.22287C8.25131 6.93486 10.8232 5.02117 13.1684 5.00146H102.832C105.177 5.00146 107.749 6.92359 108.547 9.22287C109.922 13.1628 111.163 17.0324 112.523 20.7923C114.113 25.1177 111.597 29.1561 106.921 29.7978" fill="#CBCCCE"/>
<path d="M106.926 29.7957C103.878 30.2068 100.824 30.5474 97.761 30.8682C68.2692 33.9651 38.4955 33.7596 9.08792 29.7957C4.4036 29.1679 1.88709 25.1279 3.47662 20.8009C4.84239 17.0395 6.09191 13.1771 7.45187 9.22443C8.25101 6.93838 10.8227 5.024 13.1678 5.00146H102.831C105.176 5.00146 107.752 6.92712 108.547 9.22443C109.922 13.1657 111.163 17.0395 112.523 20.8009C114.113 25.1279 111.597 29.1679 106.92 29.8098" fill="#CBCDCF"/>
<path d="M106.923 29.7956C103.875 30.2066 100.822 30.5473 97.7581 30.8683C68.2665 33.9651 38.4956 33.7595 9.0851 29.7956C4.40659 29.165 1.89008 25.1279 3.4738 20.8008C4.84539 17.0396 6.0891 13.1771 7.45487 9.22439C8.25111 6.93838 10.8257 5.02399 13.1708 5.00146H102.832C105.178 5.00146 107.751 6.92711 108.547 9.22439C109.923 13.1657 111.163 17.0396 112.524 20.8008C114.113 25.1279 111.596 29.165 106.921 29.8097" fill="#CCCED0"/>
<path d="M106.92 29.7965C103.872 30.2075 100.818 30.5482 97.7555 30.8692C68.2663 33.9661 38.4956 33.7577 9.08508 29.7965C4.40956 29.1658 1.89306 25.1258 3.47096 20.8014C4.83672 17.04 6.08625 13.1773 7.44621 9.22451C8.24243 6.93845 10.817 5.02117 13.1621 5.00146H102.832C105.18 5.00146 107.752 6.92719 108.548 9.22451C109.922 13.1661 111.164 17.04 112.523 20.8014C114.113 25.1258 111.596 29.1658 106.92 29.8106" fill="#CDCFD0"/>
<path d="M106.917 29.7979C103.869 30.209 100.814 30.5497 97.7542 30.8679C68.2601 33.9649 38.4869 33.7594 9.07683 29.7979C4.40381 29.1671 1.8871 25.1269 3.47676 20.8023C4.84264 17.0407 6.07484 13.1778 7.45234 9.2248C8.24861 6.93855 10.8235 5.02116 13.1687 5.00146H102.831C105.18 5.00146 107.751 6.92729 108.548 9.2248C109.922 13.1665 111.164 17.0407 112.523 20.8023C114.113 25.1269 111.596 29.1671 106.92 29.812" fill="#CED0D1"/>
<path d="M106.9 29.7953C103.852 30.2064 100.798 30.5471 97.7387 30.868C68.2494 33.9652 38.4839 33.7597 9.07877 29.7953C4.40355 29.1647 1.88726 25.1271 3.47665 20.7996C4.84231 17.038 6.09174 13.1779 7.45159 9.22485C8.24775 6.93577 10.8221 5.02117 13.1669 5.00146H102.833C105.181 5.00146 107.752 6.92449 108.548 9.22485C109.922 13.1666 111.163 17.038 112.523 20.7996C114.113 25.1271 111.596 29.1647 106.92 29.8094" fill="#CFD0D2"/>
<path d="M106.9 29.7962C103.852 30.2073 100.798 30.548 97.7378 30.8689C68.248 33.9662 38.4792 33.7578 9.07077 29.7962C4.40379 29.1655 1.88721 25.1277 3.47678 20.8001C4.84258 17.0384 6.07762 13.1781 7.44924 9.22496C8.24842 6.93583 10.8202 5.02118 13.1682 5.00146H102.833C105.181 5.00146 107.753 6.92456 108.549 9.22496C109.922 13.1669 111.164 17.0384 112.523 20.8001C114.113 25.1277 111.597 29.1655 106.921 29.7962" fill="#CFD1D3"/>
<path d="M106.9 29.7962C103.852 30.2073 100.798 30.548 97.7374 30.8689C68.2457 33.9662 38.4753 33.7578 9.06818 29.7962C4.40389 29.1654 1.88718 25.1279 3.47683 20.8001C4.84271 17.0384 6.09234 13.1753 7.44951 9.22493C8.2487 6.93582 10.8206 5.02119 13.1658 5.00146H102.831C105.18 5.00146 107.752 6.92457 108.548 9.22493C109.922 13.1669 111.164 17.0384 112.523 20.8001C114.113 25.1279 111.596 29.1654 106.921 29.8103" fill="#D0D2D3"/>
<path d="M106.916 29.7976C103.868 30.2087 100.813 30.5495 97.7528 30.8676C68.2622 33.965 38.4895 33.7594 9.08021 29.7976C4.40389 29.1668 1.88699 25.1262 3.47677 20.801C4.84274 17.0391 6.09247 13.1758 7.44974 9.22519C8.24901 6.93594 10.821 5.02118 13.1665 5.00146H102.833C105.178 5.00146 107.751 6.92468 108.547 9.22519C109.922 13.1674 111.163 17.0391 112.524 20.801C114.113 25.1262 111.595 29.1668 106.919 29.8117" fill="#D1D3D4"/>
<path d="M106.92 29.7958C103.871 30.2069 100.816 30.5477 97.7558 30.8687C68.2636 33.9663 38.4897 33.7578 9.08196 29.7958C4.40542 29.165 1.88842 25.127 3.47535 20.7989C4.84429 17.0397 6.09118 13.1762 7.4514 9.22542C8.25071 6.93602 10.8229 5.02118 13.1685 5.00146H102.833C105.179 5.00146 107.751 6.92476 108.547 9.22542C109.922 13.1677 111.163 17.0397 112.523 20.7989C114.113 25.127 111.596 29.1679 106.92 29.8099" fill="#D2D3D5"/>
<path d="M106.922 29.7958C103.873 30.2069 100.819 30.5477 97.7576 30.8687C68.2639 33.9663 38.4914 33.7579 9.08225 29.7958C4.4055 29.1651 1.88836 25.127 3.47537 20.7989C4.8444 17.0396 6.09133 13.1761 7.45163 9.22539C8.25097 6.93602 10.8233 5.02118 13.169 5.00146H102.832C105.178 5.00146 107.75 6.92475 108.549 9.22539C109.922 13.1677 111.166 17.0396 112.523 20.7989C114.113 25.127 111.595 29.1651 106.919 29.8099" fill="#D3D4D6"/>
<path d="M106.924 29.796C103.875 30.2073 100.821 30.5482 97.7596 30.8665C68.2674 33.9655 38.4934 33.7598 9.0826 29.796C4.40557 29.1649 1.8883 25.125 3.4754 20.8063C4.8445 17.0423 6.0915 13.1799 7.45188 9.22732C8.25127 6.93692 10.8237 5.0212 13.1696 5.00146H102.832C105.178 5.00146 107.751 6.92564 108.549 9.22732C109.922 13.1715 111.166 17.0423 112.523 20.8063C114.113 25.1363 111.596 29.1761 106.919 29.8213" fill="#D4D5D7"/>
<path d="M106.928 29.7942C103.877 30.2056 100.823 30.5465 97.765 30.8677C68.268 33.9667 38.4924 33.7583 9.07999 29.7942C4.40567 29.166 1.88827 25.1231 3.47545 20.8012C4.84463 17.0372 6.07716 13.1746 7.45214 9.21906C8.24862 6.92572 10.8243 5.02401 13.17 5.00146H102.831C105.177 5.00146 107.75 6.92572 108.549 9.21339C109.922 13.1577 111.166 17.0316 112.523 20.7957C114.114 25.1231 111.596 29.166 106.918 29.7942" fill="#D4D6D7"/>
<path d="M106.929 29.7943C103.88 30.2056 100.825 30.5465 97.7661 30.8677C68.2714 33.9668 38.4941 33.7582 9.08031 29.7943C4.40574 29.1632 1.88821 25.1231 3.47547 20.7956C4.8418 17.0316 6.09185 13.169 7.45235 9.21342C8.24888 6.92573 10.8246 5.01837 13.1677 5.00146H102.831C105.176 5.00146 107.749 6.92573 108.55 9.2275C109.921 13.1718 111.165 17.0457 112.523 20.8098C114.113 25.1372 111.596 29.1773 106.918 29.8083" fill="#D5D7D8"/>
<path d="M106.918 29.8082C103.869 30.2198 100.814 30.5609 97.7563 30.8822C68.2631 33.9606 38.4912 33.7548 9.07981 29.8082C4.40563 29.1655 1.8883 25.1232 3.47544 20.7876C4.84166 17.0243 6.09159 13.1567 7.452 9.20169C8.24847 6.91554 10.8211 5.00146 13.1669 5.00146H102.831C105.177 5.00146 107.75 6.9268 108.549 9.21577C109.922 13.1624 111.166 17.0384 112.523 20.8017C114.113 25.1344 111.595 29.1767 106.918 29.8082Z" fill="#D6D7D9"/>
<path d="M106.92 29.7965C103.874 30.205 100.814 30.5488 97.7569 30.8673C68.2628 33.9665 38.4898 33.7581 9.09472 29.7965C4.40294 29.1597 1.88842 25.1193 3.47562 20.7801C4.8506 17.0271 6.07733 13.1726 7.46686 9.20819C8.24883 6.92026 10.8215 5.00146 13.1674 5.00146H102.831C105.178 5.00146 107.75 6.92589 108.55 9.22786C109.922 13.1726 111.166 17.0468 112.524 20.8083C114.112 25.139 111.596 29.1794 106.92 29.8246" fill="#D7D8DA"/>
<path d="M106.921 29.7942C103.87 30.2056 100.814 30.5465 97.7533 30.8676C68.2591 33.9667 38.4826 33.7583 9.08103 29.7942C4.40322 29.1659 1.88842 25.1231 3.4758 20.7956C4.83351 17.0316 6.0662 13.1718 7.45007 9.22747C8.23796 6.92572 10.8109 5.00146 13.1571 5.00146H102.83C105.176 5.00146 107.749 6.92572 108.549 9.22747C109.921 13.1718 111.165 17.0457 112.523 20.8068C114.114 25.1343 111.596 29.1772 106.921 29.8055" fill="#D8D9DA"/>
<path d="M106.921 29.7942C103.871 30.2056 100.816 30.5465 97.755 30.8676C68.2626 33.9667 38.4913 33.7583 9.08923 29.7942C4.40305 29.1659 1.88842 25.1259 3.47569 20.7984C4.83911 17.0344 6.07752 13.1718 7.45546 9.22747C8.24906 6.93137 10.8218 5.00146 13.1678 5.00146C41.5438 5.055 70.0563 5.00146 98.4324 5.00146H102.83C105.176 5.00146 107.749 6.92572 108.55 9.22747C109.921 13.1718 111.164 17.0429 112.523 20.8068C114.113 25.1343 111.595 29.1744 106.921 29.8055" fill="#D9DADB"/>
<path d="M107.92 29.7965C104.871 30.2079 101.816 30.5488 98.754 30.8673C69.2622 33.9665 39.4856 33.7581 10.0811 29.7965C5.40323 29.1653 2.8884 25.1249 4.4758 20.797C5.8277 17.0412 7.07202 13.1726 8.44428 9.22786C9.24382 6.93999 11.8168 5.02401 14.1629 5.00146H103.83C106.177 5.00146 108.749 6.92872 109.549 9.22786C110.921 13.1726 112.166 17.044 113.523 20.8083C115.113 25.1362 112.596 29.1766 107.92 29.8077" fill="#D9DADC"/>
<path d="M107.927 29.7927C104.876 30.2042 101.821 30.5453 98.7588 30.8666C69.2657 33.9673 39.4904 33.7586 10.0814 29.7927C5.40331 29.1641 2.88835 25.1219 4.47583 20.7923C5.83942 17.0377 7.0751 13.162 8.44161 9.21566C9.24118 6.92403 11.8142 4.98752 14.1606 5.00154C42.5374 5.05517 71.0539 5.00154 99.4311 5.00154H103.833C106.176 5.00154 108.749 6.92403 109.549 9.22975C110.922 13.176 112.166 17.049 113.523 20.8149C115.114 25.1445 112.595 29.1867 107.921 29.8152" fill="#DADBDD"/>
<path d="M107.922 29.7962C104.872 30.2073 101.816 30.548 98.7571 30.8689C69.2618 33.9662 39.4899 33.7578 10.0813 29.7962C5.40329 29.1654 2.88836 25.1278 4.47582 20.8029C5.8394 17.0441 7.07504 13.1838 8.43573 9.22492C9.23526 6.93583 11.8083 5.024 14.1517 5.00146H103.834C106.178 5.00146 108.751 6.92456 109.55 9.22492C110.922 13.1669 112.167 17.0357 113.524 20.7945C115.112 25.1193 112.598 29.157 107.922 29.7878" fill="#DBDCDD"/>
<path d="M107.921 29.7952C104.871 30.2064 101.816 30.5472 98.7569 30.8683C69.2642 33.9664 39.4895 33.758 10.0812 29.7952C5.40327 29.1643 2.88838 25.1255 4.47581 20.7993C5.84229 17.0392 7.09248 13.1778 8.45023 9.22623C9.24974 6.9364 11.8229 5.00146 14.1661 5.00146C42.5453 5.05779 71.0553 5.00146 99.4343 5.00146C100.856 5.00146 102.412 5.00146 103.834 5.00146C106.18 5.00146 108.749 6.92514 109.549 9.22623C110.922 13.1694 112.166 17.0392 113.524 20.7993C115.112 25.1255 112.596 29.1643 107.921 29.7952Z" fill="#DCDDDE"/>
<path d="M107.922 29.7974C104.872 30.2059 101.816 30.5495 98.7567 30.8678C69.2614 33.9662 39.4871 33.7579 10.0733 29.7974C5.3978 29.1665 2.89722 25.1273 4.47026 20.8007C5.83686 17.0403 7.08715 13.1757 8.44502 9.22663C9.24169 6.93658 11.818 5.02118 14.1614 5.00146H103.834C106.177 5.00146 108.75 6.92531 109.55 9.22663C110.923 13.17 112.167 17.0403 113.524 20.8007C115.111 25.1273 112.597 29.1665 107.922 29.7974Z" fill="#DDDEDF"/>
<path d="M107.92 29.7949C104.87 30.2061 101.815 30.5469 98.7555 30.868C69.2607 33.9666 39.4893 33.7581 10.0727 29.7949C5.40007 29.1667 2.89367 25.1275 4.47253 20.8008C5.83913 17.0404 7.08941 13.1758 8.44728 9.22664C9.244 6.9366 11.8173 5.02401 14.1637 5.00146H103.833C106.179 5.00146 108.749 6.92534 109.549 9.22664C110.922 13.1702 112.166 17.0404 113.524 20.8008C115.112 25.1275 112.597 29.1667 107.92 29.7949Z" fill="#DDDFE0"/>
<path d="M107.921 29.796C104.871 30.2073 101.815 30.5481 98.7564 30.8692C69.2636 33.9674 39.489 33.7562 10.0721 29.796C5.40235 29.1651 2.89013 25.1262 4.4748 20.8025C5.84141 17.0397 7.07718 13.1781 8.4496 9.22639C9.24628 6.93929 11.8196 5.024 14.1661 5.00146H103.833C106.179 5.00146 108.75 6.92521 109.549 9.22639C110.922 13.1697 112.167 17.0397 113.524 20.8025C115.112 25.1262 112.596 29.1651 107.921 29.796Z" fill="#DEDFE1"/>
<path d="M107.922 29.7959C104.871 30.2072 101.814 30.5483 98.7563 30.8667C69.2634 33.9668 39.4915 33.7582 10.0715 29.7959C5.40464 29.1646 2.88658 25.1232 4.47708 20.7946C5.8437 17.0323 7.09401 13.1686 8.45189 9.21468C9.24864 6.92628 11.8219 5.00991 14.1684 5.00146H103.832C106.179 5.00146 108.752 6.92628 109.55 9.21468C110.922 13.1601 112.166 17.0323 113.524 20.7946C115.111 25.1232 112.597 29.1646 107.922 29.7959Z" fill="#DFE0E1"/>
<path d="M107.922 29.7933C104.871 30.2047 101.814 30.5457 98.7562 30.867C69.2665 33.967 39.492 33.7585 10.0723 29.7933C5.40837 29.1649 2.88452 25.1235 4.47792 20.7948C5.84743 17.0324 7.09481 13.1687 8.45561 9.21479C9.25228 6.92644 11.8256 4.98752 14.1721 5.00154C42.548 5.05798 71.0577 5.00154 99.4337 5.00154C100.856 5.00154 102.41 5.00154 103.832 5.00154C106.179 5.00154 108.752 6.92644 109.55 9.22888C110.921 13.1744 112.166 17.0466 113.524 20.8089C115.111 25.1376 112.597 29.1789 107.922 29.8074" fill="#E0E1E2"/>
<path d="M107.921 29.7933C104.873 30.2047 101.815 30.5457 98.7588 30.867C69.2657 33.967 39.4936 33.7585 10.0732 29.7933C5.40918 29.1788 2.87947 25.1235 4.48162 20.7946C5.84535 17.0324 7.08113 13.1687 8.45647 9.2147C9.25316 6.91503 11.8265 5.00991 14.173 5.00146H103.833C106.18 5.00146 108.753 6.9263 109.55 9.2147C110.925 13.1603 112.167 17.0324 113.524 20.7946C115.111 25.1235 112.597 29.1647 107.921 29.7933Z" fill="#E1E2E3"/>
<path d="M107.92 29.7952C104.873 30.2067 101.814 30.5477 98.757 30.869C69.2626 33.9664 39.492 33.7578 10.0819 29.7952C5.40612 29.175 2.88792 25.125 4.4756 20.7959C5.84229 17.0335 7.07814 13.1694 8.45064 9.21518C9.25032 6.92659 11.8237 4.98753 14.1675 5.00154C42.5452 5.05798 71.0568 5.00154 99.4345 5.00154C100.854 5.00154 102.412 5.00154 103.831 5.00154C106.178 5.00154 108.752 6.92659 109.548 9.22926C110.924 13.175 112.166 17.0475 113.523 20.81C115.113 25.125 112.596 29.175 107.92 29.7952Z" fill="#E1E2E4"/>
<path d="M107.92 29.7992C104.872 30.2105 101.814 30.5514 98.7576 30.8697C69.2649 33.9631 39.5049 33.7602 10.0822 29.7992C5.40617 29.1737 2.88787 25.1281 4.47562 20.8035C5.84236 17.0426 7.09278 13.1801 8.4508 9.22741C9.25051 6.93975 11.824 5.00146 14.1679 5.00146C42.5466 5.05782 71.0563 5.00146 99.4352 5.00146C100.857 5.00146 102.413 5.00146 103.832 5.00146C106.179 5.00146 108.752 6.92566 109.549 9.22741C110.924 13.1716 112.166 17.0426 113.524 20.8035C115.112 25.1281 112.596 29.168 107.92 29.7992Z" fill="#E2E3E4"/>
<path d="M107.92 29.797C104.873 30.2086 101.813 30.5496 98.7572 30.871C69.2636 33.9606 39.5 33.7633 10.0823 29.797C5.40621 29.1684 2.88785 25.1259 4.47563 20.7961C5.8424 17.0469 7.07833 13.168 8.45091 9.21577C9.25648 6.92681 11.8242 5.00992 14.1682 5.00146H103.831C106.178 5.00146 108.752 6.92681 109.549 9.22994C110.924 13.1764 112.166 17.0469 113.524 20.8101C115.112 25.1401 112.596 29.1825 107.92 29.8111" fill="#E3E4E5"/>
<path d="M107.92 29.8015C104.872 30.2129 101.813 30.5539 98.7561 30.8751C69.2653 33.9578 39.495 33.7634 10.0825 29.8015C5.40624 29.1674 2.88781 25.1323 4.47564 20.804C5.84245 17.0422 7.09293 13.1789 8.45102 9.22822C9.25077 6.94015 11.8244 5.00146 14.1684 5.00146C42.5456 5.055 71.0567 5.00146 99.4335 5.00146H103.833C106.178 5.00146 108.751 6.92606 109.548 9.22822C110.924 13.1733 112.166 17.0422 113.524 20.804C115.112 25.1323 112.595 29.173 107.92 29.8015Z" fill="#E4E5E6"/>
<path d="M107.924 29.8019C104.876 30.2135 101.816 30.5548 98.7593 30.8762C69.2664 33.955 39.4916 33.7661 10.0803 29.8019C5.40372 29.1619 2.88807 25.13 4.47598 20.7991C5.84287 17.038 7.07889 13.1697 8.45159 9.21663C9.24557 6.92719 11.8223 5.00993 14.1692 5.00146H103.837C106.181 5.00146 108.755 6.92719 109.552 9.23071C110.927 13.1781 112.17 17.0493 113.527 20.8132C115.107 25.13 112.6 29.1619 107.924 29.8019Z" fill="#E5E5E6"/>
<path d="M107.92 29.7952C104.872 30.2039 101.812 30.545 98.7559 30.8663C69.2631 33.967 39.4913 33.7583 10.0802 29.7952C5.40371 29.1638 2.88808 25.1217 4.47598 20.795C5.84286 17.0319 7.09341 13.1674 8.45156 9.21549C9.23969 6.92385 11.8222 5.00992 14.1837 5.00146H103.833C106.177 5.00146 108.751 6.92385 109.549 9.22958C110.924 13.1759 112.165 17.046 113.524 20.8091C115.112 25.1358 112.597 29.1779 107.92 29.8093" fill="#E5E6E7"/>
<path d="M107.911 29.7934C104.863 30.205 101.805 30.5461 98.7481 30.8675C69.2596 33.9682 39.4894 33.7568 10.0799 29.7934C5.40363 29.1649 2.88813 25.1226 4.47595 20.7956C5.84275 17.0324 7.09324 13.1678 8.45132 9.21565C9.2481 6.92394 11.8218 5.00991 14.1773 5.00146H103.834C106.178 5.00146 108.751 6.92394 109.549 9.21565C110.923 13.1621 112.165 17.0324 113.524 20.7956C115.112 25.1226 112.597 29.1649 107.92 29.7934" fill="#E6E7E8"/>
<path d="M107.922 29.7935C104.871 30.2049 101.815 30.546 98.758 30.8674C69.2637 33.9682 39.4904 33.7568 10.0805 29.7935C5.40378 29.1621 2.88802 25.1226 4.476 20.7928C5.84296 17.0295 7.09357 13.1818 8.45179 9.21287C9.24866 6.92394 11.8227 5.00993 14.1726 5.00146H103.833C106.177 5.00146 108.75 6.92394 109.551 9.21287C110.924 13.1593 112.168 17.0295 113.524 20.7928C115.112 25.1226 112.596 29.1621 107.922 29.7935Z" fill="#E7E8E9"/>
<path d="M107.923 29.7949C104.872 30.2065 101.815 30.5476 98.758 30.8661C69.2655 33.967 39.4913 33.7585 10.0807 29.7949C5.40382 29.1634 2.88798 25.1237 4.47602 20.7937C5.84301 17.0303 7.09366 13.1823 8.45193 9.21308C9.24881 6.92405 11.8228 5.00992 14.167 5.00146H103.833C106.177 5.00146 108.751 6.92405 109.551 9.21308C110.924 13.1597 112.168 17.0303 113.524 20.7937C115.112 25.1237 112.596 29.1634 107.923 29.7949Z" fill="#E8E9EA"/>
<path d="M107.922 29.7931C104.871 30.2048 101.815 30.5459 98.7579 30.8672C69.2646 33.9683 39.4894 33.7569 10.0809 29.7931C5.40386 29.1644 2.88795 25.1218 4.47603 20.7943C5.84306 17.0309 7.0763 13.1686 8.45206 9.21327C9.24904 6.92413 11.8347 5.00992 14.1616 5.00146H103.834C106.177 5.00146 108.751 6.92413 109.551 9.21327C110.924 13.1601 112.169 17.0309 113.524 20.7943C115.112 25.1218 112.597 29.1644 107.922 29.7931Z" fill="#E9EAEB"/>
<path d="M107.922 29.7931C104.871 30.2047 101.813 30.5459 98.7566 30.8673C69.2633 33.9683 39.4903 33.7569 10.0809 29.7931C5.4039 29.1644 2.88793 25.1218 4.47604 20.7944C5.84311 17.0308 7.07637 13.1658 8.45216 9.21332C9.2491 6.92413 11.8292 5.00991 14.156 5.00146H103.832C106.179 5.00146 108.751 6.92413 109.55 9.21332C110.924 13.1601 112.169 17.0308 113.524 20.7944C115.112 25.1218 112.596 29.1644 107.922 29.7931Z" fill="#EAEAEB"/>
<path d="M107.921 29.7948C104.871 30.2064 101.814 30.5475 98.7562 30.8661C69.2651 33.9671 39.4913 33.7584 10.0812 29.7948C5.40394 29.1634 2.88789 25.1238 4.47605 20.7965C5.84316 17.0331 7.07646 13.1682 8.44938 9.21595C9.24924 6.92686 11.8235 5.01273 14.1679 5.00146H103.833C106.18 5.00146 108.751 6.92686 109.55 9.23004C110.924 13.1766 112.168 17.0472 113.524 20.8107C115.112 25.1378 112.596 29.1775 107.921 29.8089" fill="#EBEBEC"/>
<path d="M107.921 29.7946C104.873 30.2034 101.813 30.5445 98.7559 30.8659C69.2631 33.9671 39.4883 33.7585 10.08 29.7946C5.4171 29.1631 2.88642 25.1229 4.47464 20.7925C5.84179 17.0315 7.07513 13.1662 8.44811 9.21353C9.24805 6.92424 11.8166 5.00992 14.1669 5.00146H103.832C106.179 5.00146 108.75 6.92424 109.551 9.21353C110.923 13.1606 112.169 17.0315 113.524 20.7925C115.112 25.1229 112.596 29.1631 107.921 29.7946Z" fill="#EBECED"/>
<path d="M107.922 29.7931C104.873 30.2048 101.814 30.5459 98.7562 30.8672C69.2625 33.9683 39.4898 33.7569 10.0778 29.7931C5.41192 29.1645 2.88699 25.1246 4.47525 20.7944C5.84244 17.0336 7.07581 13.1826 8.44882 9.21612C9.24881 6.92696 11.8115 5.01274 14.1678 5.00146H103.832C106.18 5.00146 108.75 6.92696 109.551 9.23021C110.924 13.177 112.169 17.0477 113.524 20.8085C115.112 25.1387 112.597 29.1786 107.922 29.8072" fill="#ECEDEE"/>
<path d="M107.922 29.7948C104.873 30.2061 101.814 30.5471 98.7559 30.8683C69.2644 33.9678 39.4911 33.7565 10.0786 29.7948C5.4067 29.1664 2.88754 25.1257 4.47583 20.8006C5.84014 17.0388 7.07645 13.1926 8.44948 9.22808C9.24941 6.94007 11.821 5.02682 14.1685 5.00146H103.834C106.18 5.00146 108.75 6.92599 109.551 9.22808C110.924 13.1729 112.169 17.0388 113.524 20.8006C115.112 25.1257 112.596 29.1664 107.922 29.7948Z" fill="#EDEEEE"/>
<path d="M107.921 29.7954C104.872 30.207 101.812 30.5482 98.7571 30.8668C69.263 33.9682 39.4892 33.7566 10.0792 29.7954C5.40147 29.1638 2.8881 25.1237 4.47641 20.7958C5.84073 17.0319 7.07707 13.1693 8.45012 9.21652C9.2501 6.92712 11.8217 5.00992 14.1664 5.00146H103.834C106.178 5.00146 108.75 6.92712 109.55 9.2306C110.922 13.1778 112.168 17.046 113.524 20.8099C115.112 25.1377 112.596 29.1779 107.921 29.8095" fill="#EEEEEF"/>
<path d="M107.92 29.797C104.872 30.2057 101.812 30.5466 98.7567 30.8679C69.2648 33.9676 39.4905 33.7564 10.0799 29.797C5.39626 29.1658 2.88865 25.1276 4.477 20.802C5.84135 17.0399 7.07771 13.1793 8.45079 9.22845C9.24789 6.94025 11.8224 5.02401 14.1672 5.00146H103.833C106.178 5.00146 108.75 6.92616 109.55 9.22845C110.923 13.1736 112.168 17.0399 113.524 20.802C115.112 25.1276 112.595 29.1658 107.92 29.797Z" fill="#EEEFF0"/>
<path d="M107.921 29.7928C104.872 30.2044 101.811 30.5456 98.757 30.867C69.2635 33.9684 39.4911 33.757 10.0793 29.7928C5.40418 29.1641 2.88775 25.1238 4.47615 20.7932C5.84056 17.032 7.07696 13.1807 8.45009 9.21655C9.24723 6.92715 11.8218 5.00992 14.1667 5.00146H103.833C106.178 5.00146 108.749 6.92715 109.549 9.23063C110.923 13.1779 112.168 17.0461 113.524 20.8072C115.112 25.1379 112.596 29.1782 107.921 29.8069" fill="#EFF0F0"/>
<path d="M107.921 29.7936C104.872 30.2053 101.81 30.5464 98.7567 30.8679C69.2623 33.9694 39.489 33.7552 10.0794 29.7936C5.40422 29.1622 2.88771 25.1217 4.47617 20.7937C5.8406 17.0324 7.07704 13.1809 8.45019 9.21382C9.24736 6.92721 11.822 5.00993 14.167 5.00146H103.833C106.177 5.00146 108.75 6.92721 109.55 9.21382C110.923 13.1612 112.168 17.0324 113.524 20.7937C115.113 25.1217 112.596 29.1622 107.921 29.7936Z" fill="#F0F1F1"/>
<path d="M107.921 29.7951C104.872 30.204 101.812 30.5451 98.7566 30.8665C69.2651 33.9682 39.4912 33.7568 10.081 29.7951C5.40572 29.1635 2.88917 25.1341 4.47473 20.7946C5.84211 17.0331 7.09311 13.1814 8.45176 9.21412C9.24892 6.92732 11.8236 5.00992 14.1686 5.00146H103.833C106.179 5.00146 108.75 6.92732 109.551 9.21412C110.924 13.1617 112.169 17.0331 113.524 20.7946C115.112 25.1228 112.597 29.1635 107.921 29.7951Z" fill="#F1F2F2"/>
<path d="M107.921 29.7925C104.872 30.2043 101.811 30.5454 98.7562 30.8668C69.2637 33.9685 39.4892 33.7571 10.0814 29.7925C5.40312 29.1637 2.88943 25.1287 4.47503 20.7947C5.84244 17.0333 7.09347 13.1815 8.45214 9.21415C9.24929 6.92733 11.8212 5.00992 14.1691 5.00146H103.833C106.178 5.00146 108.75 6.92733 109.55 9.21415C110.924 13.1617 112.169 17.0333 113.524 20.7947C115.113 25.1231 112.596 29.1637 107.921 29.7925Z" fill="#F2F2F3"/>
<path d="M107.921 29.7984C104.872 30.2102 101.811 30.5515 98.7559 30.873C69.2626 33.9613 39.4902 33.7611 10.0816 29.7984C5.40316 29.1694 2.8894 25.1278 4.47505 20.7986C5.84249 17.0333 7.09356 13.1693 8.45227 9.21514C9.24944 6.92498 11.8215 5.00994 14.1694 5.00146H103.833C106.178 5.00146 108.753 6.92498 109.55 9.21514C110.924 13.1637 112.169 17.0333 113.524 20.7986C115.113 25.1278 112.596 29.1694 107.921 29.7984Z" fill="#F3F3F4"/>
<path d="M107.919 29.7947C104.87 30.2064 101.809 30.5476 98.7538 30.8663C69.2615 33.9683 39.4868 33.7568 10.0759 29.7947C5.39705 29.1631 2.88019 25.1192 4.48342 20.7934C5.85097 17.0315 7.08758 13.1794 8.45803 9.21448C9.25818 6.92469 11.8303 5.00993 14.1755 5.00146H103.831C106.176 5.00146 108.751 6.92469 109.549 9.21448C110.922 13.1625 112.168 17.0315 113.524 20.7934C115.113 25.122 112.595 29.1631 107.919 29.7947Z" fill="#F4F4F5"/>
<path d="M107.919 29.7948C104.87 30.2037 101.81 30.5449 98.757 30.8663C69.2618 33.9683 39.487 33.7568 10.0759 29.7948C5.40002 29.1631 2.88314 25.1136 4.48056 20.7934C5.84811 17.0315 7.09928 13.1794 8.45519 9.21455C9.25537 6.9247 11.8275 5.00993 14.1727 5.00146H103.831C106.177 5.00146 108.753 6.9247 109.549 9.21455C110.923 13.1625 112.168 17.0315 113.524 20.7934C115.112 25.122 112.596 29.1631 107.919 29.7948Z" fill="#F4F5F5"/>
<path d="M107.92 29.7931C104.871 30.2048 101.809 30.546 98.7571 30.8675C69.2646 33.9696 39.4899 33.7552 10.0789 29.7931C5.40295 29.1642 2.88608 25.123 4.47767 20.794C5.84521 17.0321 7.07892 13.1798 8.4523 9.21469C9.24951 6.92478 11.8217 5.00994 14.1668 5.00146H103.832C106.177 5.00146 108.751 6.92478 109.549 9.21469C110.922 13.1629 112.167 17.0321 113.524 20.794C115.113 25.123 112.595 29.1642 107.92 29.7931Z" fill="#F5F6F6"/>
<path d="M107.92 29.7944C104.871 30.2062 101.809 30.5475 98.7571 30.8661C69.2646 33.9684 39.4928 33.7569 10.0818 29.7944C5.4059 29.1656 2.88902 25.1242 4.4748 20.7949C5.84235 17.0328 7.07605 13.1803 8.44942 9.21494C9.2496 6.92489 11.8217 5.00993 14.1669 5.00146H103.832C106.18 5.00146 108.751 6.92489 109.549 9.21494C110.922 13.1634 112.167 17.0328 113.524 20.7949C115.113 25.1242 112.595 29.1656 107.92 29.7944Z" fill="#F6F7F7"/>
<path d="M107.923 29.7944C104.873 30.2062 101.811 30.5474 98.757 30.8662C69.2643 33.9685 39.4926 33.7569 10.0847 29.7944C5.40884 29.1627 2.89198 25.1241 4.47192 20.795C5.83947 17.0328 7.07317 13.1803 8.44653 9.21494C9.24382 6.92489 11.8188 5.00993 14.164 5.00146H103.83C106.179 5.00146 108.752 6.92489 109.549 9.21494C110.922 13.1634 112.167 17.0328 113.524 20.795C115.112 25.1241 112.595 29.1627 107.923 29.7944Z" fill="#F7F7F8"/>
<path d="M107.923 29.7918C104.874 30.2036 101.812 30.5449 98.7561 30.8664C69.2648 33.9687 39.4909 33.7572 10.0808 29.7918C5.40452 29.163 2.88748 25.1215 4.47627 20.7951C5.84392 17.03 7.08061 13.1662 8.45117 9.21501C9.24852 6.92491 11.8237 5.00994 14.1691 5.00146H103.834C106.18 5.00146 108.752 6.92491 109.549 9.21501C110.923 13.1635 112.168 17.03 113.524 20.7951C115.112 25.1215 112.596 29.163 107.923 29.7918Z" fill="#F8F8F9"/>
<path d="M107.922 29.7911C104.872 30.2031 101.811 30.5445 98.7558 30.8662C69.2634 33.9702 39.4918 33.7557 10.0809 29.7911C5.40456 29.1618 2.88744 25.1181 4.47628 20.7867C5.84395 17.0224 7.07778 13.1678 8.45127 9.21727C9.24861 6.92594 11.8211 5.00992 14.1694 5.00146H103.834C106.179 5.00146 108.752 6.92594 109.549 9.21727C110.923 13.1678 112.168 17.0365 113.524 20.8008C115.113 25.1322 112.595 29.1759 107.922 29.8052" fill="#F9FAFA"/>
<path d="M107.922 29.7942C104.872 30.206 101.811 30.5473 98.7552 30.8659C69.2651 33.9685 39.4897 33.757 10.081 29.7942C5.40459 29.1651 2.88742 25.1233 4.47629 20.7937C5.8411 17.0311 7.07785 13.1783 8.45139 9.2154C9.2487 6.92507 11.8212 5.00992 14.1695 5.00146H103.833C106.179 5.00146 108.751 6.92507 109.548 9.2154C110.922 13.1641 112.168 17.0311 113.524 20.7937C115.112 25.1233 112.596 29.1651 107.922 29.7942Z" fill="#FAFAFB"/>
<path d="M107.922 29.7942C104.872 30.2032 101.81 30.5444 98.7582 30.8659C69.264 33.9685 39.4907 33.757 10.0812 29.7942C5.40463 29.1623 2.88739 25.1233 4.4763 20.7937C5.84115 17.0311 7.07794 13.1783 8.45152 9.21534C9.24885 6.92508 11.8214 5.00992 14.167 5.00146H103.834C106.179 5.00146 108.752 6.92508 109.548 9.21534C110.922 13.1641 112.168 17.0311 113.524 20.7937C115.112 25.1233 112.596 29.1623 107.922 29.7942Z" fill="#FCFCFC"/>
<path d="M107.922 29.7977C104.872 30.2096 101.809 30.551 98.7571 30.8726C69.2625 33.9615 39.4915 33.7612 10.0813 29.7977C5.40466 29.1686 2.88736 25.1263 4.47632 20.7989C5.84118 17.0357 7.078 13.1822 8.4516 9.21601C9.24895 6.92818 11.8216 5.01275 14.1672 5.00146H103.833C106.178 5.00146 108.751 6.92818 109.548 9.21601C110.921 13.1653 112.168 17.0357 113.524 20.7989C115.112 25.1263 112.595 29.1686 107.922 29.7977Z" fill="#FDFDFD"/>
<path d="M107.921 29.8452C104.868 30.2409 101.812 30.599 98.7577 30.9192C69.2614 34.0176 39.4885 33.657 10.0813 29.8452C5.40734 29.1895 2.88704 25.1647 4.47604 20.8263C5.84097 17.0587 7.07784 13.1951 8.45148 9.2241C9.24889 6.93187 11.8216 5.01277 14.1672 5.00146H103.833C106.179 5.00146 108.75 6.93187 109.549 9.2241C110.923 13.181 112.167 17.0587 113.524 20.8263C115.113 25.1647 112.592 29.1895 107.921 29.8452Z" fill="white"/>
</g>
<mask id="mask3_4_2517" style="mask-type:alpha" maskUnits="userSpaceOnUse" x="0" y="0" width="116" height="38">
<path d="M9.0121 29.3183C4.33121 28.6603 1.80893 24.6095 3.40027 20.2553C4.76759 16.4626 6.01854 12.5707 7.38004 8.59089C8.18007 6.28468 10.7547 4.35291 13.1054 4.33589H102.884C105.231 4.33589 107.808 6.27616 108.608 8.59089C109.981 12.5622 111.226 16.4626 112.588 20.2553C114.176 24.6151 111.654 28.6603 106.977 29.3183C103.921 29.7156 100.863 30.0758 97.8008 30.3992C84.58 31.7935 71.2919 32.4926 57.9942 32.4926C41.6128 32.4926 25.2494 31.4322 9.0121 29.3183ZM98.6617 0.00146484H12.9774C10.5918 0.00146484 7.97643 2.03251 7.15894 4.46638C4.92081 11.1798 2.69527 17.705 0.482349 24.0422C-1.12934 28.5809 1.43075 32.8358 6.18145 33.5393C37.0248 37.6771 68.2723 38.1077 99.2235 34.8215C102.756 34.4433 106.283 34.0121 109.807 33.528C114.569 32.8358 117.133 28.5809 115.515 24.0422C113.288 17.7183 111.057 11.194 108.823 4.46921C108.008 2.03535 105.394 0.00997477 103.006 0.00430181L98.6617 0.00146484Z" fill="white"/>
</mask>
<g mask="url(#mask3_4_2517)">
<path d="M-21 18.5016L57.4998 -57.9985L136 18.5014L57.4997 95.0015L-21 18.5016Z" fill="url(#paint0_linear_4_2517)"/>
</g>
<mask id="mask4_4_2517" style="mask-type:alpha" maskUnits="userSpaceOnUse" x="4" y="26" width="109" height="8">
<path d="M107.422 29.4821C104.372 29.864 101.316 30.2104 98.2581 30.5214C68.7617 33.5176 38.9886 33.1687 9.58147 29.4821C7.02465 29.1357 5.02856 27.8154 4 26.0015C4.87165 28.0256 6.86484 29.5231 9.58147 29.8967C38.9835 33.6455 68.7638 34.0009 98.2581 30.9552C101.314 30.6387 104.37 30.2859 107.422 29.8967C110.139 29.5231 112.126 28.0256 113 26.0015C111.975 27.8154 109.976 29.1357 107.422 29.4821Z" fill="white"/>
</mask>
<g mask="url(#mask4_4_2517)">
<path d="M113 26.0015H4V34.0015H113V26.0015Z" fill="url(#paint1_linear_4_2517)"/>
</g>
<mask id="mask5_4_2517" style="mask-type:alpha" maskUnits="userSpaceOnUse" x="-12" y="-12" width="141" height="63">
<path d="M129 -11.9985H-12V50.0015H129V-11.9985Z" fill="white"/>
</mask>
<g mask="url(#mask5_4_2517)">
<g opacity="0.5">
<g style="mix-blend-mode:multiply">
<g style="mix-blend-mode:multiply">
<mask id="mask6_4_2517" style="mask-type:alpha" maskUnits="userSpaceOnUse" x="3" y="3" width="111" height="27">
<g style="mix-blend-mode:multiply" opacity="0.5">
<g style="mix-blend-mode:multiply" opacity="0.5">
<g style="mix-blend-mode:multiply">
<g style="mix-blend-mode:multiply">
<path d="M114 3.00146H3V29.0015H114V3.00146Z" fill="white"/>
</g>
</g>
</g>
</g>
</mask>
<g mask="url(#mask6_4_2517)">
<g style="mix-blend-mode:multiply">
<g style="mix-blend-mode:multiply">
<mask id="mask7_4_2517" style="mask-type:alpha" maskUnits="userSpaceOnUse" x="3" y="3" width="111" height="27">
<g style="mix-blend-mode:multiply" opacity="0.5">
<g style="mix-blend-mode:multiply" opacity="0.5">
<g style="mix-blend-mode:multiply">
<g style="mix-blend-mode:multiply">
<path d="M114 3.00146H3V29.0015H114V3.00146Z" fill="white"/>
</g>
</g>
</g>
</g>
</mask>
<g mask="url(#mask7_4_2517)">
<g style="mix-blend-mode:multiply">
<path d="M113.52 19.7185C112.139 15.7363 110.891 11.6457 109.508 7.46129C108.702 5.03798 106.106 3.01026 103.738 3.00146H13.2546C10.8894 3.00146 8.29058 5.05263 7.48465 7.46129C6.10055 11.6457 4.85662 15.7363 3.47545 19.7185C2.01542 23.9234 4.02733 27.8469 8.01317 29.0015C4.17917 27.7943 2.26071 23.9995 3.70029 19.9353C5.0727 16.0205 6.32832 12.0002 7.69489 7.88617C8.49791 5.50682 11.0821 3.51132 13.4386 3.49082H103.554C105.91 3.49082 108.498 5.4951 109.298 7.88617C110.679 11.9884 111.926 16.0205 113.295 19.9353C114.734 23.9995 112.813 27.7943 108.982 29.0015C112.968 27.8469 114.991 23.9234 113.52 19.7185Z" fill="#231F20"/>
</g>
</g>
</g>
</g>
</g>
</g>
</g>
<g style="mix-blend-mode:multiply">
<g style="mix-blend-mode:multiply">
<mask id="mask8_4_2517" style="mask-type:alpha" maskUnits="userSpaceOnUse" x="0" y="25" width="116" height="13">
<g style="mix-blend-mode:multiply" opacity="0.5">
<g style="mix-blend-mode:multiply" opacity="0.5">
<g style="mix-blend-mode:multiply">
<g style="mix-blend-mode:multiply">
<path d="M116 25.0015H0V37.0015H116V25.0015Z" fill="white"/>
</g>
</g>
</g>
</g>
</mask>
<g mask="url(#mask8_4_2517)">
<g style="mix-blend-mode:multiply">
<mask id="mask9_4_2517" style="mask-type:alpha" maskUnits="userSpaceOnUse" x="0" y="25" width="116" height="13">
<g style="mix-blend-mode:multiply" opacity="0.5">
<g style="mix-blend-mode:multiply" opacity="0.5">
<g style="mix-blend-mode:multiply">
<g style="mix-blend-mode:multiply">
<path d="M116 25.0015H0V37.0015H116V25.0015Z" fill="white"/>
</g>
</g>
</g>
</g>
</mask>
<g mask="url(#mask9_4_2517)">
<g style="mix-blend-mode:multiply">
<path d="M115.839 25.0015C116.351 28.6292 113.756 32.5381 109.831 33.1001C106.307 33.5762 102.778 34.0007 99.2457 34.3734C68.2836 37.6067 37.0403 37.1793 6.18125 33.1001C2.61416 32.5896 -0.368114 29.0365 0.138145 25.1735C-0.632882 29.2688 1.88387 32.865 6.18125 33.4901C37.0273 37.68 68.2787 38.1221 99.2337 34.8065C102.767 34.4241 106.295 33.9882 109.819 33.4987C114.183 32.8564 116.703 29.1655 115.827 25.0015" fill="#231F20"/>
</g>
</g>
</g>
</g>
</g>
</g>
</g>
</g>
<mask id="mask10_4_2517" style="mask-type:alpha" maskUnits="userSpaceOnUse" x="1" y="0" width="114" height="25">
<path d="M98.3049 0.00146484H12.9399C10.5578 0.00146484 8.30665 1.86274 7.40681 4.37108C5.05959 10.944 3.19288 17.8647 1 24.0015C3.20743 17.822 5.41778 11.4409 7.63105 4.85848C8.4377 2.47843 11.0354 0.500279 13.3942 0.500279H102.6C104.965 0.500279 107.55 2.49553 108.361 4.86988C110.584 11.4332 112.797 17.8106 115 24.0015C112.822 17.8875 110.883 10.9896 108.593 4.37108C107.721 1.86845 105.446 0.00146484 103.061 0.00146484H98.3049Z" fill="white"/>
</mask>
<g mask="url(#mask10_4_2517)">
<path d="M115 0.00146484H1V24.0015H115V0.00146484Z" fill="url(#paint2_linear_4_2517)"/>
</g>
<mask id="mask11_4_2517" style="mask-type:alpha" maskUnits="userSpaceOnUse" x="-12" y="-12" width="141" height="63">
<path d="M129 -11.9985H-12V50.0015H129V-11.9985Z" fill="white"/>
</mask>
<g mask="url(#mask11_4_2517)">
<path d="M51.4828 15.5484C52.7348 15.0455 53.5308 13.8471 53.4798 12.5418C53.4798 9.44525 50.3514 9.11305 49.0064 9.11305H45.3925V20.8184H48.179V16.5197H48.907C49.1993 16.5957 49.9215 17.7724 51.0911 19.7092L51.7636 20.8184H54.9592L54.5119 20.0808C53.05 17.6908 52.0997 16.1396 51.4828 15.5596V15.5484ZM49.0561 14.2225H48.179V11.4073H49.0561C50.0531 11.4073 50.6964 11.9507 50.6964 12.7952C50.6964 13.6397 50.0385 14.2028 49.0561 14.2028V14.2225ZM28.8147 13.3582C28.5659 13.7157 28.3374 14.086 28.1304 14.4674C27.9115 14.108 27.6724 13.7602 27.4142 13.4259L24.2651 9.10181H21.745V20.8184H24.5254V14.3014C24.5254 14.1296 24.5254 13.9325 24.5254 13.7383C24.6424 13.9044 24.7563 14.0563 24.8675 14.2L24.9874 14.3604L27.4785 17.7386H28.7884L31.1273 14.2985C31.2238 14.155 31.3466 13.9775 31.4578 13.8003C31.4578 13.9944 31.4578 14.1888 31.4578 14.3802V20.8268H34.2382V9.10181H31.715L28.8147 13.3582ZM13.757 9.06235L9 20.8184H11.8595L12.9531 18.0398H16.7335L17.8825 20.8184H20.8063L15.8358 9.06235H13.757ZM13.7834 15.8187L14.5757 13.7975C14.6693 13.5469 14.7687 13.2766 14.8681 13.012C14.9442 13.2625 15.0377 13.5412 15.1429 13.8312L15.871 15.8187H13.7834ZM42.9687 11.3848L43.7231 9.13277H36.4837V20.8184H43.6559V18.5663H39.2701V15.9847H43.0331V13.7045H39.2672V11.3764L42.9687 11.3848ZM92.4715 15.0783C92.4715 15.4218 92.4715 15.8862 92.4715 16.317C92.2289 15.9819 91.9742 15.6441 91.653 15.2528L86.6677 9.10181H83.937V20.8184H86.7205V14.4223C86.7205 14.0986 86.7205 13.6988 86.7205 13.3498C86.9631 13.6848 87.229 14.0395 87.5536 14.4392L92.7314 20.8184H95.2525V9.10181H92.4715V15.0783ZM55.854 20.8184H58.6519V9.10181H55.854V20.8184ZM103.042 9.06235H100.941L96.185 20.8184H99.0532L100.146 18.0398H103.927L105.077 20.8184H108L103.042 9.06235ZM100.968 15.8187L101.76 13.7975C101.854 13.5469 101.953 13.2766 102.038 13.012C102.114 13.2625 102.208 13.5412 102.313 13.8312L103.042 15.8187H100.968ZM69.7507 17.9187C68.8825 18.4065 67.8965 18.6667 66.8913 18.6732C64.7656 18.6732 63.2804 17.1446 63.2804 14.9545C63.2804 12.2491 65.327 11.2947 67.1077 11.2947C68.1199 11.294 69.113 11.5608 69.9788 12.0661L70.2332 12.2068L70.2741 9.67325L70.1805 9.62539C69.1878 9.19221 68.1067 8.97953 67.017 9.00325C63.1049 9.00325 60.266 11.5622 60.266 15.0895C60.266 18.617 62.7628 21.0013 66.479 21.0013C67.9323 21.0101 69.3617 20.6446 70.6191 19.9429L70.7448 19.8696L69.9203 17.8287L69.7507 17.9187ZM75.955 9.06235L71.1922 20.8184H74.0546L75.148 18.0398H78.9285L80.0747 20.8184H82.9985L78.028 9.06235H75.955ZM75.9784 15.8187L76.7707 13.7975C76.8644 13.5469 76.9638 13.2766 77.0631 13.012C77.1391 13.2625 77.2328 13.5412 77.3409 13.8312L78.066 15.8187H75.9784Z" fill="#E02826"/>
<path d="M9 25.0015L10.1028 25.0562C10.8214 25.0955 11.8777 25.144 13.2189 25.2289C14.5602 25.3138 16.1896 25.4079 18.0575 25.5322L21.0312 25.7445L24.3277 25.8992C26.6233 26.0053 29.1111 26.1175 31.7384 26.2691C32.396 26.3026 33.0593 26.348 33.7344 26.3693L35.7711 26.4208C37.153 26.4481 38.5642 26.5027 39.9987 26.5481L44.363 26.6876C45.1021 26.715 45.844 26.7422 46.5918 26.7362L48.8409 26.7575L57.9798 26.8575L67.1158 26.7575L69.3679 26.7332C70.1157 26.7332 70.8576 26.7119 71.5966 26.6876L75.9611 26.5451C77.3954 26.5027 78.8066 26.445 80.1887 26.4178L82.2398 26.3662C82.9149 26.345 83.5783 26.2965 84.2358 26.2661L88.0677 26.0629L91.6755 25.8962L94.9747 25.7445L97.9459 25.5413C99.8117 25.4079 101.438 25.3138 102.782 25.2381C104.126 25.1622 105.176 25.1047 105.898 25.0652L107 25.0106L105.909 25.1865C105.197 25.2956 104.164 25.4686 102.823 25.6626C101.481 25.8567 99.8747 26.0963 98.0189 26.3511L95.0623 26.7696C94.0176 26.8968 92.9178 26.9969 91.7717 27.1183L88.1845 27.4912L84.358 27.8673C83.6975 27.925 83.0313 27.9978 82.3562 28.0493L80.3022 28.1827C78.9172 28.2797 77.5031 28.3495 76.0629 28.4344C73.1824 28.583 70.2088 28.8226 67.1798 28.8287L58.0002 29.0015L48.8205 28.8287C45.7916 28.8287 42.818 28.5799 39.9376 28.4314C38.4828 28.3465 37.0804 28.2766 35.6983 28.1796L33.6442 28.0463C32.9662 27.9947 32.2999 27.9219 31.6395 27.8643C29.0208 27.6217 26.5185 27.3639 24.2229 27.1244C23.0766 26.9999 21.9738 26.906 20.9322 26.7726L17.979 26.3511C16.1227 26.0932 14.5079 25.8476 13.1782 25.6504C11.8485 25.4534 10.804 25.2866 10.0911 25.1774L9 25.0015Z" fill="#E02826"/>
<path d="M120 26.0015C118.896 26.0015 118 25.1061 118 24.0015C118 22.8969 118.896 22.0015 120 22.0015C121.106 22.0015 122 22.8969 122 24.0015C122.001 24.5322 121.791 25.0413 121.416 25.4164C121.04 25.7918 120.531 26.0021 120 26.0015ZM120 22.36C119.339 22.3464 118.735 22.7348 118.471 23.3429C118.208 23.9507 118.339 24.6573 118.803 25.1306C119.266 25.6038 119.97 25.7496 120.583 25.4994C121.196 25.2492 121.597 24.6527 121.598 23.9903C121.605 23.5615 121.44 23.1476 121.14 22.8412C120.84 22.5348 120.43 22.3616 120 22.36ZM120.42 25.0687L119.978 24.2115H119.698V25.0687H119.301V22.9175H120.113C120.294 22.9107 120.47 22.9773 120.601 23.1023C120.732 23.2272 120.807 23.4 120.81 23.5813C120.815 23.8498 120.642 24.089 120.385 24.1667L120.863 25.0798L120.42 25.0687ZM120.068 23.2564H119.703V23.9091H120.068C120.191 23.9205 120.311 23.861 120.377 23.7552C120.442 23.6495 120.442 23.5159 120.377 23.4101C120.311 23.3045 120.191 23.2449 120.068 23.2564Z" fill="white"/>
</g>
<path d="M24 48.0015V41.0015H26.8361C27.5493 41.0015 28.0667 41.0651 28.3884 41.1925C28.7132 41.3167 28.9727 41.5394 29.167 41.8609C29.3611 42.1825 29.4583 42.5501 29.4583 42.964C29.4583 43.4892 29.311 43.9237 29.0167 44.2675C28.7224 44.6081 28.2822 44.823 27.6965 44.9121C27.9879 45.0903 28.2277 45.2862 28.4158 45.4995C28.607 45.7127 28.8634 46.0915 29.1852 46.6359L30 48.0015H28.3884L27.4143 46.4782C27.0683 45.934 26.8316 45.5917 26.7041 45.4516C26.5766 45.3085 26.4416 45.2113 26.2989 45.1604C26.1563 45.1063 25.9302 45.0792 25.6206 45.0792H25.3474V48.0015H24ZM25.3474 43.9619H26.3444C26.9909 43.9619 27.3945 43.9333 27.5554 43.876C27.7162 43.8187 27.8422 43.7199 27.9332 43.5799C28.0243 43.4398 28.0697 43.2648 28.0697 43.0547C28.0697 42.8191 28.0091 42.6298 27.8877 42.4864C27.7694 42.34 27.6009 42.2477 27.3824 42.2095C27.2731 42.1936 26.9454 42.1857 26.3991 42.1857H25.3474V43.9619Z" fill="white"/>
<path d="M31 48.0015V41.0015H35.8745V42.1857H32.3273V43.7374H35.6279V44.9169H32.3273V46.8221H36V48.0015H31Z" fill="white"/>
<path d="M37 45.6804L38.4497 45.5512C38.537 45.9973 38.7132 46.3249 38.9782 46.534C39.2467 46.7433 39.6074 46.8478 40.0604 46.8478C40.5403 46.8478 40.901 46.7556 41.1426 46.571C41.3876 46.3833 41.5101 46.1649 41.5101 45.9157C41.5101 45.7558 41.4581 45.6205 41.354 45.5097C41.2534 45.3959 41.0755 45.2974 40.8205 45.2143C40.646 45.159 40.2483 45.0605 39.6276 44.919C38.8289 44.7375 38.2685 44.5145 37.9464 44.2499C37.4934 43.8778 37.2668 43.424 37.2668 42.8887C37.2668 42.5443 37.3726 42.2228 37.584 41.9243C37.7987 41.6229 38.1057 41.3937 38.505 41.2369C38.9077 41.08 39.3926 41.0015 39.9598 41.0015C40.886 41.0015 41.5822 41.1876 42.0487 41.5598C42.5184 41.932 42.765 42.4289 42.7886 43.0503L41.2987 43.1102C41.2349 42.7627 41.0974 42.5134 40.886 42.3627C40.6779 42.2089 40.3642 42.132 39.9447 42.132C39.5118 42.132 39.1729 42.2136 38.928 42.3765C38.7701 42.4811 38.6913 42.6211 38.6913 42.7965C38.6913 42.9564 38.7651 43.0934 38.9129 43.2071C39.1008 43.3517 39.5571 43.5025 40.2819 43.6593C41.0068 43.8162 41.542 43.9793 41.8876 44.1485C42.2366 44.3146 42.5085 44.5437 42.7031 44.836C42.901 45.1252 43 45.4835 43 45.911C43 46.2987 42.8825 46.6617 42.6476 47.0001C42.4127 47.3385 42.0805 47.5907 41.651 47.7569C41.2214 47.9198 40.6862 48.0015 40.0453 48.0015C39.1125 48.0015 38.3961 47.8045 37.8961 47.4107C37.3961 47.0139 37.0974 46.4371 37 45.6804Z" fill="white"/>
<path d="M44.8669 48.0015V42.1857H43V41.0015H48V42.1857H46.1373V48.0015H44.8669Z" fill="white"/>
<path d="M55 48.0015H53.4677L52.8586 46.4114H50.07L49.4942 48.0015H48L50.7172 41.0015H52.2067L55 48.0015ZM52.4065 45.232L51.4453 42.6345L50.503 45.232H52.4065Z" fill="white"/>
<path d="M56 41.0015H57.5192V44.7292C57.5192 45.3206 57.5381 45.7041 57.5757 45.8794C57.6408 46.1611 57.7947 46.388 58.0377 46.5601C58.284 46.7291 58.6193 46.8137 59.0436 46.8137C59.4748 46.8137 59.7999 46.7338 60.0188 46.5742C60.2378 46.4114 60.3696 46.2128 60.414 45.978C60.4585 45.7432 60.4808 45.3536 60.4808 44.809V41.0015H62V44.6165C62 45.4427 61.959 46.0265 61.8768 46.3677C61.7947 46.7088 61.6424 46.9968 61.4199 47.2314C61.2009 47.4662 60.9068 47.654 60.5372 47.7948C60.1677 47.9326 59.6852 48.0015 59.0898 48.0015C58.3712 48.0015 57.8255 47.9263 57.4526 47.7761C57.083 47.6227 56.7905 47.4255 56.5749 47.1845C56.3593 46.9404 56.2173 46.6853 56.1489 46.4193C56.0498 46.025 56 45.4427 56 44.6728V41.0015Z" fill="white"/>
<path d="M63 48.0015V41.0015H65.8361C66.5493 41.0015 67.0667 41.0651 67.3885 41.1925C67.7133 41.3167 67.9727 41.5394 68.1669 41.8609C68.3611 42.1825 68.4583 42.5501 68.4583 42.964C68.4583 43.4892 68.3111 43.9237 68.0167 44.2675C67.7223 44.6081 67.2822 44.823 66.6965 44.9121C66.9879 45.0903 67.2277 45.2862 67.4158 45.4995C67.607 45.7127 67.8634 46.0915 68.1851 46.6359L69 48.0015H67.3885L66.4142 46.4782C66.0683 45.934 65.8316 45.5917 65.7041 45.4516C65.5766 45.3085 65.4416 45.2113 65.299 45.1604C65.1563 45.1063 64.9303 45.0792 64.6206 45.0792H64.3475V48.0015H63ZM64.3475 43.9619H65.3444C65.9909 43.9619 66.3946 43.9333 66.5553 43.876C66.7162 43.8187 66.8422 43.7199 66.9332 43.5799C67.0243 43.4398 67.0698 43.2648 67.0698 43.0547C67.0698 42.8191 67.0092 42.6298 66.8877 42.4864C66.7694 42.34 66.6009 42.2477 66.3824 42.2095C66.2731 42.1936 65.9454 42.1857 65.399 42.1857H64.3475V43.9619Z" fill="white"/>
<path d="M76 48.0015H74.4677L73.8586 46.4114H71.07L70.4943 48.0015H69L71.7173 41.0015H73.2068L76 48.0015ZM73.4065 45.232L72.4454 42.6345L71.5031 45.232H73.4065Z" fill="white"/>
<path d="M77 48.0015V41.0015H78.2382L80.8177 45.676V41.0015H82V48.0015H80.7231L78.1823 43.4367V48.0015H77Z" fill="white"/>
<path d="M84.8668 48.0015V42.1857H83V41.0015H88V42.1857H86.137V48.0015H84.8668Z" fill="white"/>
<path d="M89 45.6804L90.4497 45.5512C90.5371 45.9973 90.7135 46.3249 90.9782 46.534C91.2467 46.7433 91.608 46.8478 92.0603 46.8478C92.5401 46.8478 92.9014 46.7556 93.1432 46.571C93.3877 46.3833 93.51 46.1649 93.51 45.9157C93.51 45.7558 93.4584 45.6205 93.3546 45.5097C93.2534 45.3959 93.076 45.2974 92.8205 45.2143C92.6459 45.159 92.2487 45.0605 91.6273 44.919C90.8294 44.7375 90.2686 44.5145 89.9469 44.2499C89.4937 43.8778 89.2666 43.424 89.2666 42.8887C89.2666 42.5443 89.3723 42.2228 89.5838 41.9243C89.7988 41.6229 90.1059 41.3937 90.5049 41.2369C90.9075 41.08 91.3928 41.0015 91.96 41.0015C92.8858 41.0015 93.5825 41.1876 94.0486 41.5598C94.5184 41.932 94.7657 42.4289 94.7886 43.0503L93.2986 43.1102C93.2351 42.7627 93.0972 42.5134 92.8858 42.3627C92.678 42.2089 92.3646 42.132 91.9444 42.132C91.5124 42.132 91.1732 42.2136 90.9277 42.3765C90.7706 42.4811 90.6915 42.6211 90.6915 42.7965C90.6915 42.9564 90.765 43.0934 90.913 43.2071C91.1005 43.3517 91.5574 43.5025 92.2818 43.6593C93.0071 43.8162 93.5421 43.9793 93.8878 44.1485C94.237 44.3146 94.5083 44.5437 94.7031 44.836C94.9008 45.1252 95 45.4835 95 45.911C95 46.2987 94.8824 46.6617 94.648 47.0001C94.4126 47.3385 94.0808 47.5907 93.6515 47.7569C93.2213 47.9198 92.6863 48.0015 92.0455 48.0015C91.1125 48.0015 90.3964 47.8045 89.8963 47.4107C89.3962 47.0139 89.0975 46.4371 89 45.6804Z" fill="white"/>
</g>
</g>
<defs>
<linearGradient id="paint0_linear_4_2517" x1="23.1041" y1="51.8072" x2="89.088" y2="-15.8098" gradientUnits="userSpaceOnUse">
<stop stop-color="#004E96"/>
<stop offset="0.3" stop-color="#006EAF"/>
<stop offset="0.5" stop-color="#009BDF"/>
<stop offset="0.7" stop-color="#006EAF"/>
<stop offset="1" stop-color="#004E96"/>
</linearGradient>
<linearGradient id="paint1_linear_4_2517" x1="58.3214" y1="33.0676" x2="58.3214" y2="26.0662" gradientUnits="userSpaceOnUse">
<stop stop-color="#8ED8F8"/>
<stop offset="0.72" stop-color="#009EDB"/>
<stop offset="1" stop-color="#009EDB"/>
</linearGradient>
<linearGradient id="paint2_linear_4_2517" x1="58.1292" y1="0.100087" x2="58.1292" y2="24.1001" gradientUnits="userSpaceOnUse">
<stop stop-color="#6DCFF6"/>
<stop offset="0.22" stop-color="#0097D6"/>
<stop offset="0.3" stop-color="#0077C0"/>
<stop offset="1" stop-color="#0077C0"/>
</linearGradient>
</defs>
</svg>
