<svg width="35" height="49" viewBox="0 0 35 49" fill="none" xmlns="http://www.w3.org/2000/svg">
<g clip-path="url(#clip0_4_3049)">
<path d="M17.4518 49.0002L3.18204 45.1165L0 10.0002H35L31.818 45.0243L17.4518 49.0002Z" fill="#264DE4"/>
<path d="M29.3337 41.887L32 12.0002H18V45.0002L29.3337 41.8888V41.887Z" fill="#2965F1"/>
<path d="M6.77197 25.9148L7.15796 30.3724H17V25.9148H6.77197ZM6 17.0002L6.38599 21.4578H17V17.0002H6ZM17 37.4458L12.0787 36.0891L11.7892 32.6006H7.35095L8.02643 39.4807L17 42.0002V37.4458Z" fill="#EBEBEB"/>
<path d="M8 0.000244141H13.2939V2.30024H10.2141V4.60024H13.2945V6.90024H8V0.000244141ZM14.3558 0.000244141H19.6497V2.00024H16.5668V2.40024H19.6472V7.00024H14.3558V4.8996H17.4363V4.50024H14.3558V0.000244141ZM20.7117 0.000244141H26V2.00024H22.9196V2.40024H26V7.00024H20.7061V4.8996H23.7866V4.50024H20.7061V0.000244141H20.7117Z" fill="black"/>
<path d="M27.228 25.8808L28 17.0002H17V21.4408H23.1752L22.7892 25.8814H17V30.322H22.4032L21.9207 36.0151L17 37.3678V42.0002L25.9736 39.4903L26.0701 38.7181L27.1315 27.1345L27.228 25.8796V25.8808Z" fill="white"/>
</g>
<defs>
<clipPath id="clip0_4_3049">
<rect width="35" height="49" fill="white" transform="translate(0 0.000244141)"/>
</clipPath>
</defs>
</svg>
