<svg width="140" height="67" viewBox="0 0 140 67" fill="none" xmlns="http://www.w3.org/2000/svg">
<g clip-path="url(#clip0_4_2050)">
<path d="M32.5045 45.5501C32.1164 44.6005 31.5357 43.7438 30.7998 43.0355C30.0639 42.3272 29.1892 41.7831 28.2324 41.4382C26.9271 41.0137 25.5434 40.8956 24.1862 41.0928C23.2938 41.175 22.4262 41.4346 21.6331 41.8567C20.84 42.2788 20.1372 42.8551 19.5647 43.5525C18.7221 44.6321 18.1144 45.8796 17.7815 47.2132C17.2313 49.4206 16.9696 51.6914 17.0028 53.9675C17.0032 55.1649 17.0691 56.3614 17.2002 57.5514C17.3651 59.243 17.7982 60.8967 18.4831 62.4489C19.1864 64.1318 20.4699 65.499 22.095 66.2963C23.3737 66.861 24.7722 67.0917 26.1619 66.9671C27.8911 66.9307 29.5486 66.2619 30.8278 65.0844C31.8228 64.0957 32.5619 62.8745 32.9802 61.5285C33.7003 59.1758 34.0431 56.7215 33.9957 54.259C34.0135 53.0508 33.9538 51.8427 33.8171 50.6423C33.6615 48.8843 33.2207 47.1642 32.5124 45.5511M29.3544 59.9173C29.1668 60.7928 28.7856 61.614 28.2393 62.3192C27.8723 62.7485 27.412 63.0859 26.8945 63.3049C26.377 63.524 25.8163 63.6188 25.2565 63.5819C24.6966 63.5449 24.1529 63.3773 23.6679 63.092C23.1829 62.8067 22.7699 62.4117 22.4612 61.9378C21.8888 60.973 21.5317 59.8933 21.4151 58.7743C20.9465 55.516 20.9648 52.205 21.4694 48.9522C21.6122 47.9594 21.9361 47.0021 22.4247 46.1291C22.7521 45.6062 23.2049 45.1756 23.741 44.8772C24.277 44.5788 24.879 44.4224 25.4909 44.4224C26.1027 44.4224 26.7047 44.5788 27.2407 44.8772C27.7768 45.1756 28.2296 45.6062 28.5571 46.1291C29.1066 47.1302 29.4646 48.2272 29.612 49.3625C29.8377 50.9239 29.9455 52.5004 29.9347 54.0784C29.9668 56.0395 29.7724 57.9977 29.3554 59.9133" fill="#86BC41"/>
<path d="M10.8993 52.0316C8.91182 51.52 6.8384 51.4878 4.83711 51.9373C4.38135 52.0245 4.38232 52.0276 4.43101 51.5448C4.43101 51.5225 4.43101 51.5012 4.43783 51.4789C4.59949 49.6624 4.76991 47.847 4.91307 46.0295C4.93741 45.7252 5.01922 45.6532 5.30261 45.6542C8.18423 45.6654 11.0658 45.6542 13.9475 45.6664C14.189 45.6664 14.2757 45.6136 14.2718 45.3418C14.2555 44.3567 14.2555 43.3715 14.2718 42.3864C14.2766 42.0913 14.2104 41.999 13.9095 42C10.5497 42.0122 7.18993 42.0081 3.82917 42.0081C3.11632 42.0081 2.40443 42.0132 1.69158 42.0081C1.50557 42.0081 1.43253 42.0598 1.41987 42.2647C1.34002 43.4818 1.24945 44.6907 1.15693 45.9037C1.03715 47.4798 0.912496 49.0559 0.792713 50.632C0.700197 51.849 0.613525 53.057 0.522957 54.27C0.510297 54.4414 0.512245 54.5823 0.692407 54.6858C1.17933 54.9637 1.64775 55.2639 2.12104 55.56C2.16988 55.5931 2.22481 55.6153 2.28232 55.6251C2.33983 55.6349 2.39866 55.6321 2.45507 55.6169C3.09587 55.4566 3.74737 55.3582 4.40277 55.2609C5.81035 55.0126 7.25068 55.0495 8.64486 55.3694C9.30428 55.4809 9.92473 55.7684 10.4458 56.2039C10.9668 56.6393 11.3707 57.2079 11.618 57.8542C11.881 58.6415 11.9683 59.4809 11.8732 60.3086C11.8498 60.8799 11.7144 61.4402 11.4752 61.955C11.236 62.4697 10.8982 62.9279 10.4825 63.3015C9.65031 63.9849 8.63808 64.3881 7.58044 64.4578C4.95717 64.6928 2.3246 64.1328 0 62.8452C0 64.0846 0 65.2793 0 66.47C0 66.615 0.0973849 66.6545 0.187953 66.7052C0.638871 66.9524 1.11056 67.1561 1.59711 67.3138C2.7678 67.6819 3.97847 67.8946 5.20035 67.9466C6.8869 68.0909 8.58474 67.9421 10.2244 67.5065C11.2407 67.2523 12.1945 66.7794 13.0246 66.118C13.8547 65.4567 14.5426 64.6217 15.044 63.6667C15.7726 62.1441 16.0945 60.4455 15.976 58.7488C15.9636 57.2019 15.4586 55.703 14.5402 54.4872C13.6218 53.2714 12.3419 52.4073 10.9013 52.0306" fill="#86BC41"/>
<path d="M113.847 42.0183C113.458 42.015 113.081 42.1555 112.78 42.4152C112.479 42.675 112.274 43.0377 112.2 43.4405C111.933 44.4552 111.933 45.5273 112.2 46.542C112.291 46.9928 112.538 47.3913 112.894 47.6587C113.249 47.9261 113.687 48.0428 114.12 47.9859C114.524 47.9996 114.919 47.859 115.233 47.59C115.547 47.3209 115.759 46.9415 115.829 46.5213C115.946 46.0402 116.003 45.5452 115.999 45.0487C116.012 44.4763 115.935 43.9056 115.773 43.3592C115.662 42.9259 115.405 42.5504 115.049 42.3035C114.694 42.0565 114.265 41.9551 113.844 42.0183M114.407 46.2529C114.366 46.4955 114.28 46.7382 113.999 46.7362C113.717 46.7342 113.647 46.4866 113.593 46.247C113.525 45.8324 113.497 45.4117 113.508 44.9913C113.494 44.5598 113.526 44.128 113.602 43.7039C113.655 43.49 113.738 43.2711 113.989 43.2672C114.239 43.2632 114.354 43.4791 114.396 43.7138C114.547 44.5523 114.55 45.4131 114.405 46.2529" fill="#86BC41"/>
<path d="M110.726 44.1209C110.414 44.0415 110.09 44.0321 109.774 44.0934C109.601 44.1218 109.561 44.0772 109.588 43.9138C109.61 43.8166 109.62 43.7171 109.619 43.6174C109.603 43.3809 109.703 43.321 109.92 43.3281C110.4 43.3444 110.881 43.3281 111.361 43.3383C111.565 43.3444 111.62 43.2713 111.61 43.0713C111.595 42.7948 111.595 42.5176 111.61 42.2411C111.619 42.0462 111.547 41.9965 111.37 42.0005C110.901 42.0107 110.43 42.0005 109.961 42.0005C109.491 42.0005 109.043 42.0127 108.584 42.0005C108.358 41.9924 108.297 42.0766 108.291 42.305C108.252 43.1119 108.187 43.9168 108.146 44.7238C108.136 44.9176 107.975 45.1653 108.292 45.285C108.497 45.3622 108.663 45.5093 108.92 45.42C109.257 45.299 109.622 45.2961 109.96 45.4119C110.101 45.4516 110.223 45.5429 110.303 45.6689C110.384 45.7948 110.419 45.9469 110.4 46.097C110.368 46.4573 110.088 46.6929 109.648 46.7162C109.166 46.7246 108.688 46.63 108.244 46.4381C108.048 46.361 107.999 46.4198 108.005 46.6157C108.013 46.8817 108.02 47.1486 108.005 47.4125C107.998 47.4554 107.998 47.4994 108.008 47.5419C108.017 47.5844 108.034 47.6247 108.058 47.6602C108.083 47.6958 108.114 47.7259 108.149 47.7489C108.185 47.7719 108.225 47.7873 108.266 47.7942C108.809 47.9607 109.377 48.027 109.942 47.99C110.238 48.0196 110.536 47.976 110.812 47.8627C111.088 47.7495 111.335 47.5698 111.531 47.3384C111.728 47.1071 111.868 46.8307 111.942 46.532C112.015 46.2332 112.019 45.9207 111.954 45.62C111.927 45.2694 111.795 44.9364 111.576 44.6679C111.358 44.3995 111.063 44.2092 110.734 44.1239" fill="#86BC41"/>
<path d="M96.9996 44.5988C97.0066 44.2624 96.9143 43.9332 96.7379 43.6655C96.5615 43.3978 96.3115 43.2076 96.029 43.126C95.221 42.8992 94.3712 42.98 93.6061 43.3564C93.4871 43.4108 93.4566 43.4769 93.5138 43.6155C93.6153 43.8555 93.7094 44.0997 93.7906 44.3482C93.846 44.5103 93.9106 44.5497 94.0582 44.4772C94.378 44.3042 94.7265 44.214 95.0795 44.2128C95.176 44.2043 95.2719 44.2343 95.3515 44.2978C95.4311 44.3612 95.4895 44.4543 95.5169 44.5615C95.5658 44.7407 95.5501 44.8452 95.3489 44.8324C95.0168 44.8145 94.6839 44.8385 94.3562 44.9038C94.1281 44.8987 93.9025 44.9615 93.7014 45.0862C93.5003 45.2109 93.3304 45.3934 93.2079 45.6159C93.0854 45.8385 93.0145 46.0937 93.002 46.3571C92.9895 46.6205 93.0358 46.8832 93.1365 47.1199C93.1823 47.3188 93.276 47.4987 93.4067 47.6385C93.5373 47.7784 93.6996 47.8725 93.8746 47.9102C94.1977 48.0286 94.5444 48.03 94.8681 47.9141C95.1919 47.7982 95.4771 47.5706 95.6857 47.2618C96.0206 47.9017 96.0206 47.9016 96.6416 47.9016C96.692 47.8978 96.7426 47.8978 96.793 47.9016C96.9507 47.9251 97.0006 47.8526 96.9987 47.6681C96.9913 46.6443 97.0051 45.6205 96.9913 44.5967M95.5446 46.046C95.5547 46.2189 95.5072 46.3896 95.4118 46.5233C95.3164 46.657 95.1803 46.7434 95.0316 46.7648C94.8221 46.8 94.6108 46.7754 94.5361 46.496C94.4984 46.3792 94.501 46.2502 94.5432 46.1355C94.5854 46.0208 94.6641 45.9292 94.7631 45.8796C94.9653 45.7734 95.1875 45.728 95.409 45.7474C95.6203 45.7474 95.5141 45.9468 95.5446 46.046Z" fill="#86BC41"/>
<path d="M81.9894 43.25C82.0142 43.1219 81.9637 43.0584 81.8425 43.0659C81.1218 43.1133 80.403 42.9809 79.6841 43.0024C79.5077 42.9928 79.3316 43.0252 79.1662 43.0975C79.0008 43.1697 78.8495 43.2805 78.7216 43.4231C78.5936 43.5657 78.4916 43.7372 78.4216 43.9272C78.3516 44.1172 78.3151 44.3218 78.3143 44.5288C78.2861 44.822 78.3321 45.1184 78.4463 45.3813C78.5606 45.6443 78.7381 45.8621 78.957 46.0078C78.396 46.6353 78.373 46.8689 78.8192 47.4598C78.2335 47.7311 77.9801 48.1164 78.0012 48.6805C78.0084 48.9718 78.103 49.2509 78.2685 49.4685C78.4339 49.686 78.6595 49.8282 78.9056 49.8699C79.6292 50.0868 80.3926 50.0315 81.0878 49.7117C81.3956 49.5885 81.6517 49.3321 81.8035 48.995C81.9554 48.6578 81.9917 48.2654 81.905 47.8979C81.793 47.2844 81.3413 46.9485 80.6325 46.9431C80.2726 46.9431 79.9118 46.9432 79.5528 46.9109C79.4077 46.9001 79.2278 46.8441 79.2618 46.5998C79.2679 46.4989 79.3068 46.4047 79.3706 46.3365C79.4343 46.2684 79.518 46.2316 79.6042 46.2338C79.7741 46.2338 79.9448 46.2456 80.1147 46.2338C80.3213 46.244 80.5272 46.1982 80.7162 46.0998C80.9052 46.0013 81.0723 45.853 81.2044 45.6663C81.3365 45.4797 81.43 45.2599 81.4776 45.0239C81.5253 44.7879 81.5257 44.5421 81.479 44.3059C81.4399 44.1262 81.3908 43.9497 81.3321 43.7774C81.5102 43.7333 81.6855 43.6892 81.8618 43.6483C82.0904 43.5945 81.96 43.3856 81.9867 43.2468M80.8409 47.8872C81.2081 47.9948 81.2348 48.5879 80.9043 48.913C80.6323 49.1363 80.3081 49.2555 79.976 49.2542C79.9164 49.2617 79.8558 49.2542 79.7704 49.2542C79.5984 49.2689 79.4255 49.2455 79.2608 49.1853C79.1359 49.1602 79.0217 49.0869 78.9363 48.9772C78.8508 48.8674 78.799 48.7274 78.789 48.5793C78.7829 48.4185 78.8238 48.2602 78.9049 48.1304C78.9861 48.0006 79.1025 47.9071 79.2351 47.8656C79.7642 47.721 80.3152 47.7273 80.8418 47.8839M79.9237 45.5868C79.8154 45.596 79.7067 45.5765 79.6058 45.5295C79.5049 45.4825 79.4143 45.4094 79.3408 45.3156C79.2674 45.2219 79.213 45.1098 79.1816 44.9879C79.1503 44.866 79.1428 44.7374 79.1599 44.6117C79.1663 43.9766 79.4353 43.63 79.9265 43.6364C80.3993 43.6429 80.6426 43.9755 80.6435 44.6181C80.6444 45.2607 80.4103 45.5868 79.9237 45.5868Z" fill="white"/>
<path d="M91.7676 42C91.352 42.0113 90.9356 42 90.5201 42C90.0873 42 89.6544 42.0062 89.2164 42C89.0641 42 89 42.0401 89 42.2405C89.0058 44.0805 89.0058 45.9201 89 47.7593C89 47.9649 89.0658 48.004 89.2173 47.9988C89.5194 47.9885 89.8233 47.9813 90.1246 47.9988C90.3237 48.0122 90.3583 47.9125 90.3548 47.7059C90.3453 47.157 90.3643 46.606 90.3462 46.0612C90.3366 45.7878 90.3928 45.685 90.637 45.7025C90.9832 45.7271 91.3356 45.7097 91.6853 45.7076C91.7667 45.7076 91.8697 45.7333 91.8662 45.574C91.8585 45.206 91.9701 44.7835 91.8194 44.4896C91.7216 44.2994 91.3615 44.4505 91.1191 44.429C91.1001 44.429 91.081 44.429 91.062 44.429C90.3236 44.429 90.3305 44.4289 90.3452 43.5388C90.3452 43.325 90.4076 43.2746 90.5764 43.2797C90.9729 43.2931 91.3702 43.2797 91.7667 43.2879C91.9312 43.2879 92.0108 43.2509 91.9987 43.031C91.9838 42.7736 91.9838 42.5154 91.9987 42.258C92.0116 42.0381 91.9303 41.9969 91.7667 42.0021" fill="#86BC41"/>
<path d="M100.861 44.965C100.542 44.8254 100.218 44.6977 99.8986 44.5614C99.7957 44.5174 99.694 44.454 99.7106 44.3295C99.7305 44.1868 99.8687 44.1653 99.987 44.1492C100.216 44.1415 100.445 44.1679 100.666 44.2275C100.951 44.2726 101.255 44.5721 101.484 44.4015C101.692 44.2458 101.729 43.883 101.866 43.6232C101.961 43.4429 101.893 43.3838 101.729 43.3183C101.058 43.0428 100.325 42.9436 99.6023 43.0307C99.2799 43.0239 98.9629 43.1128 98.6938 43.2854C98.4248 43.458 98.2163 43.7062 98.0963 43.9968C98.0317 44.178 98.0047 44.3699 98.0171 44.5613C98.0294 44.7527 98.0808 44.9398 98.1683 45.1117C98.2557 45.2837 98.3775 45.4371 98.5265 45.563C98.6755 45.6889 98.8486 45.7848 99.0361 45.8452C99.3733 45.9998 99.7228 46.1297 100.063 46.2746C100.193 46.3315 100.353 46.4055 100.322 46.5729C100.291 46.7404 100.101 46.7705 99.9473 46.7876C99.6219 46.8013 99.2961 46.7699 98.9798 46.6943C98.6658 46.6363 98.2357 46.3444 98.0886 46.5064C97.9183 46.6954 98.0509 47.129 98.0233 47.4553C98.0023 47.6958 98.1162 47.7849 98.3318 47.8375C98.7869 47.956 99.2574 48.0092 99.7284 47.9952C99.8964 47.9952 100.067 48.0028 100.235 47.9952C100.624 48.0246 101.011 47.9172 101.326 47.6926C101.64 47.468 101.861 47.1411 101.949 46.7715C102 46.5833 102.013 46.3871 101.986 46.194C101.96 46.0009 101.894 45.8149 101.793 45.6467C101.692 45.4784 101.557 45.3313 101.397 45.2137C101.237 45.0962 101.055 45.0106 100.861 44.9618" fill="#86BC41"/>
<path d="M60.6739 43.6501C60.3565 43.5868 60.0266 43.6087 59.7217 43.7134C59.4168 43.8181 59.149 44.0014 58.9488 44.2426C59.0056 43.6981 58.9782 43.1641 58.9803 42.632C58.9803 42.0022 58.9802 42.0156 58.3044 42.0003C58.0467 41.9945 58 42.0713 58 42.2985C58.0101 43.9617 58.0061 45.6249 58.0061 47.2882C58.0061 47.9986 58.0061 47.9909 58.7529 47.9775C58.9559 47.9775 58.9874 47.9075 58.9853 47.7397C58.9762 47.1645 58.9853 46.5894 58.9853 46.0142C58.9675 45.711 58.9952 45.407 59.0675 45.1111C59.1381 44.8655 59.3064 44.6552 59.5374 44.5242C59.7683 44.3933 60.0439 44.3518 60.3065 44.4084C60.7632 44.4717 60.9885 44.7737 60.9905 45.3326C60.9905 46.1484 61.0006 46.9623 60.9854 47.78C60.9854 48.0072 61.1234 48.0005 61.2553 47.966C61.4948 47.9027 61.9301 48.1702 61.9565 47.7954C62.0105 46.8762 62.0142 45.9549 61.9676 45.0354C61.983 44.8642 61.9617 44.6918 61.9049 44.5285C61.8482 44.3652 61.7572 44.2145 61.6373 44.0852C61.5175 43.9559 61.3714 43.8507 61.2076 43.7759C61.0438 43.7012 60.8657 43.6584 60.684 43.6501" fill="white"/>
<path d="M104.531 46.6087C104.493 46.6183 104.454 46.6255 104.415 46.6304C104.081 46.6619 103.948 46.5218 103.943 46.11C103.943 45.7907 103.943 45.4702 103.943 45.1508C103.943 44.3002 103.943 44.3001 104.657 44.2947C104.696 44.2923 104.735 44.2923 104.774 44.2947C104.901 44.3099 104.947 44.2404 104.942 44.0883C104.93 43.7472 105.018 43.3366 104.891 43.0856C104.785 42.8759 104.422 43.0399 104.177 43.0139C104.167 43.0125 104.158 43.0125 104.148 43.0139C103.997 43.0399 103.946 42.965 103.945 42.7771C103.945 42.5337 104.043 42.1937 103.897 42.0699C103.751 41.946 103.487 42.0264 103.272 42.0177C103.243 42.0177 103.213 42.0177 103.183 42.0177C103.157 42.0104 103.13 42.0097 103.104 42.0154C103.078 42.0212 103.053 42.0334 103.031 42.0513C103.009 42.0692 102.989 42.0924 102.975 42.1195C102.96 42.1466 102.95 42.177 102.946 42.2089C102.888 42.4829 102.786 42.74 102.645 42.9652C102.504 43.1904 102.328 43.379 102.127 43.5201C101.916 43.6592 102.03 43.9547 102.037 44.172C102.044 44.3892 102.223 44.2806 102.318 44.2806C102.485 44.2806 102.54 44.3468 102.533 44.5467C102.523 44.89 102.533 45.2333 102.533 45.5766H102.551C102.551 45.9666 102.53 46.3599 102.556 46.7477C102.557 47.0669 102.66 47.373 102.843 47.6015C103.027 47.8301 103.275 47.9633 103.537 47.9731C103.837 48.0189 104.141 48.0061 104.438 47.9351C104.999 47.7863 105 47.7928 105 47.0975C105 46.5 105 46.5 104.535 46.6032" fill="#86BC41"/>
<path d="M86.242 43.0045C86.1899 42.9931 86.1355 43.0034 86.0909 43.0332C86.0462 43.0629 86.0147 43.1097 86.0034 43.1633C85.6978 44.1288 85.3868 45.0934 85.0775 46.0581C85.0806 46.0975 85.076 46.1372 85.0638 46.1747C85.0517 46.2123 85.0322 46.2469 85.0068 46.2766C84.947 46.2327 84.9706 46.1758 84.976 46.1225C84.7239 45.0953 84.3113 44.126 83.9894 43.1249C83.9809 43.086 83.9582 43.0518 83.926 43.0296C83.8937 43.0074 83.8544 42.9987 83.8162 43.0054C83.5541 43.011 83.292 43.0054 83 43.0054C83.5169 44.3436 84.0202 45.6435 84.5207 46.9443C84.5764 47.0389 84.5953 47.1516 84.5734 47.2599C84.3531 48.0293 84.0665 48.26 83.3039 48.2339C83.2005 48.2339 83.1552 48.2451 83.157 48.3525C83.166 48.9921 83.0472 48.9884 83.6801 48.9977C83.8182 49.0053 83.9567 48.994 84.0919 48.9641C84.3743 48.8815 84.6311 48.7253 84.8377 48.5105C85.0442 48.2957 85.1933 48.0296 85.2707 47.738C85.7495 46.4375 86.2253 45.1355 86.698 43.8319L87 43.0045C86.7153 43.0045 86.4786 43.012 86.242 43.0045Z" fill="white"/>
<path d="M70.9193 44.6841C70.8372 44.2367 70.6278 43.8327 70.3236 43.5344C70.0194 43.2362 69.6373 43.0604 69.2364 43.0344C68.7987 42.9433 68.3468 43.0345 67.9632 43.2914C67.5796 43.5482 67.2899 43.9535 67.1472 44.4333C66.9804 45.0188 66.9549 45.6446 67.0731 46.2452C67.1709 46.7278 67.4051 47.1606 67.7397 47.4772C68.0743 47.7938 68.4909 47.9767 68.9256 47.9979C69.3603 48.0191 69.7891 47.8775 70.1463 47.5947C70.5035 47.3119 70.7694 46.9035 70.9031 46.4322C70.9765 46.137 71.0085 45.8306 70.9981 45.5241C71.0074 45.2416 70.9829 44.959 70.925 44.6841M69.9753 46.3381C69.9089 46.5687 69.7802 46.7694 69.6076 46.9118C69.4351 47.0541 69.2273 47.1308 69.0142 47.1308C68.8011 47.1308 68.5934 47.0541 68.4208 46.9118C68.2483 46.7694 68.1196 46.5687 68.0532 46.3381C67.8914 45.7611 67.903 45.1392 68.0864 44.5706C68.1477 44.3615 68.2687 44.1817 68.4301 44.0598C68.5915 43.938 68.7841 43.8811 68.9772 43.8982C69.1751 43.8726 69.375 43.9212 69.5464 44.0368C69.7178 44.1523 69.8514 44.3284 69.9268 44.5382C70.038 44.844 70.087 45.1743 70.0702 45.5047C70.0807 45.7877 70.0486 46.0707 69.9753 46.3414" fill="white"/>
<path d="M77.9192 44.6842C77.8372 44.2368 77.6278 43.8327 77.3236 43.5344C77.0193 43.2361 76.6372 43.0604 76.2364 43.0343C75.7988 42.9434 75.347 43.0346 74.9635 43.2912C74.58 43.5478 74.2903 43.9528 74.1472 44.4323C73.9804 45.0179 73.9549 45.6437 74.0731 46.2444C74.1708 46.7271 74.4048 47.16 74.7394 47.4767C75.0739 47.7935 75.4905 47.9765 75.9252 47.9979C76.3599 48.0192 76.7887 47.8777 77.146 47.5949C77.5033 47.3121 77.7692 46.9038 77.9031 46.4324C77.9764 46.1373 78.0085 45.8308 77.9981 45.5243C78.0073 45.2418 77.9827 44.9591 77.9249 44.6842M76.9857 46.2952C76.9252 46.5343 76.7985 46.7447 76.6243 46.895C76.4501 47.0452 76.2378 47.1273 76.0193 47.1289C75.8007 47.1305 75.5876 47.0515 75.4118 46.9037C75.2359 46.756 75.1067 46.5475 75.0436 46.3092C74.8952 45.7528 74.9048 45.1572 75.0712 44.6074C75.1288 44.3842 75.2529 44.1908 75.4223 44.0606C75.5917 43.9304 75.7956 43.8714 75.999 43.8939C76.2019 43.8722 76.4054 43.9291 76.5764 44.0555C76.7474 44.1819 76.8758 44.3703 76.9411 44.5902C77.0384 44.8889 77.0808 45.2072 77.0655 45.5254C77.074 45.7847 77.047 46.0441 76.9857 46.2941" fill="white"/>
<path d="M66.9895 44.6438C67.007 44.4169 66.9768 44.1886 66.9013 43.976C66.8258 43.7633 66.7067 43.5716 66.5531 43.4151C66.3994 43.2587 66.2151 43.1415 66.0137 43.0721C65.8123 43.0028 65.5989 42.9831 65.3894 43.0146C65.1109 42.9984 64.8329 43.0533 64.5779 43.1748C64.3229 43.2963 64.0982 43.481 63.9221 43.7137C63.7505 43.0849 63.7505 43.1003 63.2931 43.0838C63.0562 43.075 62.998 43.1519 63.0001 43.4026C63.0123 44.6735 63.0052 45.9455 63.0052 47.2175C63.0052 48.0255 63.0051 48.0178 63.7699 47.9925C63.9507 47.987 63.9926 47.9254 63.9895 47.7429C63.9803 47.047 63.9895 46.3512 63.9895 45.6542C63.976 45.3425 64.0021 45.0303 64.0671 44.7262C64.1294 44.4425 64.2928 44.1965 64.522 44.0413C64.7512 43.886 65.0279 43.8339 65.2924 43.8963C65.7693 43.9589 66.0011 44.3074 66.0072 44.9703C66.0072 45.8817 66.0072 46.7931 66.0072 47.7056C66.0072 47.8023 65.9235 47.9738 66.1093 47.9826C66.3656 47.9936 66.6198 47.9826 66.8782 47.9826C67.0201 47.9826 66.9905 47.8617 66.9905 47.7727C66.9905 46.7293 67.0161 45.6838 66.9834 44.6427" fill="white"/>
<path d="M51.6391 43.0967C51.2066 42.9523 50.7407 42.97 50.319 43.1469C49.8973 43.3238 49.5454 43.6491 49.322 44.0686C49.015 44.7156 48.9241 45.4545 49.0641 46.1637C49.1163 46.606 49.3025 47.0182 49.5945 47.3379C49.8865 47.6577 50.2685 47.8676 50.6827 47.9359C51.119 48.0214 51.5663 48.0214 52.0027 47.9359C52.8069 47.7912 52.815 47.7825 52.7754 46.8646C52.3211 47.0737 51.8334 47.1885 51.3386 47.2027C51.1776 47.2178 51.0154 47.1985 50.8616 47.1458C50.7078 47.0931 50.5655 47.008 50.4431 46.8957C50.3208 46.7834 50.2209 46.6462 50.1494 46.492C50.0778 46.3379 50.0361 46.1701 50.0267 45.9985C49.9912 45.7728 50.049 45.7188 50.2582 45.722C50.9456 45.735 51.6331 45.722 52.3205 45.722C53.0079 45.722 53.011 45.722 52.9968 44.9887C53.0111 44.5547 52.8835 44.1288 52.6358 43.7834C52.3881 43.4381 52.0356 43.1947 51.6381 43.0946M51.8737 45.0168C51.5975 45.0093 51.3203 45.0168 51.0441 45.0168C50.7679 45.0168 50.4908 45.0103 50.2146 45.0168C50.0653 45.0168 50.0348 44.978 50.0562 44.8149C50.0748 44.542 50.1911 44.2871 50.3812 44.1027C50.5712 43.9183 50.8204 43.8184 51.0776 43.8235C51.2027 43.8195 51.3272 43.8421 51.4439 43.8901C51.5606 43.9382 51.6671 44.0106 51.757 44.1031C51.8469 44.1956 51.9185 44.3064 51.9675 44.4288C52.0165 44.5512 52.0419 44.6829 52.0423 44.816C52.0606 44.9812 52.0159 45.0201 51.8737 45.0168Z" fill="white"/>
<path d="M48.9928 42.2948C48.9982 42.0607 48.9457 41.997 48.7356 42.0001C47.6791 42.0135 46.6217 42.0062 45.567 42.0062C44.9867 42.0062 44.9957 42.0063 45.0011 42.6522C45.0011 42.8575 45.0681 42.8883 45.2238 42.8842C45.5986 42.8739 45.9753 42.8904 46.3501 42.876C46.5194 42.8698 46.5647 42.9294 46.5619 43.1183C46.5529 43.8916 46.5619 44.6638 46.5619 45.437V47.3521C46.5619 47.9928 46.5619 47.9743 47.1268 47.999C47.3894 48.0103 47.4519 47.9291 47.4492 47.6334C47.4338 46.1434 47.4492 44.6555 47.4365 43.1645C47.4365 42.9222 47.4953 42.8565 47.6999 42.875C47.9552 42.8955 48.2132 42.875 48.4704 42.875C48.9982 42.875 48.9873 42.875 49 42.2897" fill="white"/>
<path d="M56.8693 43.1972C56.5019 43.0449 56.1139 42.9798 55.7263 43.0055C55.3546 42.996 54.9914 43.142 54.6973 43.4191C54.4032 43.6963 54.1959 44.088 54.1102 44.5287C53.9944 45.0301 53.9695 45.5561 54.0373 46.0703C54.0447 46.3443 54.0984 46.6135 54.195 46.8611C54.2917 47.1087 54.4291 47.3295 54.5989 47.5095C54.7686 47.6895 54.967 47.825 55.1817 47.9075C55.3963 47.99 55.6226 48.0177 55.8464 47.989C56.0199 47.9706 56.196 47.9684 56.3659 47.9294C56.9324 47.7994 56.9582 47.7464 56.9449 47.0627C56.9449 46.858 56.9173 46.7735 56.735 46.8872C56.5334 47.0052 56.3163 47.0785 56.0937 47.1039C55.9703 47.1407 55.8421 47.1468 55.7168 47.1217C55.5915 47.0967 55.4716 47.0411 55.3644 46.9582C55.2571 46.8753 55.1647 46.7669 55.0927 46.6395C55.0208 46.512 54.9706 46.3682 54.9454 46.2166C54.8706 45.8488 54.8564 45.4666 54.9036 45.092C54.899 44.8851 54.9376 44.6801 55.0157 44.4962C55.0938 44.3124 55.2089 44.1557 55.3503 44.0408C55.4916 43.9259 55.6546 43.8565 55.824 43.8391C55.9934 43.8217 56.1636 43.8569 56.3187 43.9415C56.8159 44.0866 56.8097 44.0845 56.9787 43.4767C57.0241 43.3131 57.0009 43.2601 56.8702 43.2005" fill="white"/>
<path d="M72.9938 42.6737C72.9938 42 72.9938 42.0067 72.2827 42C72.0669 42 71.997 42.0462 72.0001 42.2579C72.0135 43.1607 72.0052 44.0635 72.0052 44.9662V47.3597C72.0052 47.9978 72.0052 47.9862 72.6825 47.9997C72.9301 48.0045 73.001 47.9506 73 47.711C72.9877 46.0316 72.9938 44.3531 72.9938 42.6737Z" fill="white"/>
<path d="M85.022 47.186C85.0593 47.128 85.0893 47.0655 85.1111 47L85 47.069C85.036 47.116 85.047 47.162 85.022 47.186Z" fill="white"/>
<path d="M49.7734 57H46.2803V56.2651L47.5347 54.9971C47.7876 54.7373 47.9904 54.5208 48.1431 54.3477C48.298 54.1722 48.4097 54.0127 48.478 53.8691C48.5487 53.7256 48.584 53.5718 48.584 53.4077C48.584 53.2095 48.5282 53.0614 48.4165 52.9634C48.3071 52.8631 48.1602 52.813 47.9756 52.813C47.7819 52.813 47.5939 52.8574 47.4116 52.9463C47.2293 53.0352 47.0391 53.1616 46.8408 53.3257L46.2666 52.6455C46.4102 52.5225 46.5617 52.4062 46.7212 52.2969C46.883 52.1875 47.0698 52.0998 47.2817 52.0337C47.4959 51.9653 47.7523 51.9312 48.0508 51.9312C48.3789 51.9312 48.6603 51.9904 48.895 52.1089C49.132 52.2274 49.3143 52.3892 49.4419 52.5942C49.5695 52.797 49.6333 53.0272 49.6333 53.2847C49.6333 53.5604 49.5786 53.8122 49.4692 54.04C49.3599 54.2679 49.2004 54.4935 48.9907 54.7168C48.7834 54.9401 48.5327 55.1873 48.2388 55.4585L47.5962 56.0635V56.1113H49.7734V57ZM53.752 54.5015C53.752 54.9048 53.7201 55.2648 53.6562 55.5815C53.5947 55.8983 53.4945 56.1672 53.3555 56.3882C53.2188 56.6092 53.0387 56.7778 52.8154 56.894C52.5921 57.0103 52.321 57.0684 52.002 57.0684C51.6009 57.0684 51.2716 56.967 51.0142 56.7642C50.7567 56.5591 50.5664 56.2651 50.4434 55.8823C50.3203 55.4972 50.2588 55.0369 50.2588 54.5015C50.2588 53.9614 50.3146 53.5 50.4263 53.1172C50.5402 52.7321 50.7248 52.437 50.98 52.2319C51.2352 52.0269 51.5758 51.9243 52.002 51.9243C52.4007 51.9243 52.7288 52.0269 52.9863 52.2319C53.2461 52.4347 53.4386 52.7287 53.564 53.1138C53.6893 53.4966 53.752 53.9591 53.752 54.5015ZM51.3081 54.5015C51.3081 54.882 51.3286 55.1999 51.3696 55.4551C51.4129 55.708 51.4847 55.8983 51.585 56.0259C51.6852 56.1535 51.8242 56.2173 52.002 56.2173C52.1774 56.2173 52.3153 56.1546 52.4155 56.0293C52.5181 55.9017 52.591 55.7114 52.6343 55.4585C52.6776 55.2033 52.6992 54.8843 52.6992 54.5015C52.6992 54.1209 52.6776 53.8031 52.6343 53.5479C52.591 53.2926 52.5181 53.1012 52.4155 52.9736C52.3153 52.8438 52.1774 52.7788 52.002 52.7788C51.8242 52.7788 51.6852 52.8438 51.585 52.9736C51.4847 53.1012 51.4129 53.2926 51.3696 53.5479C51.3286 53.8031 51.3081 54.1209 51.3081 54.5015ZM57.7852 57H54.292V56.2651L55.5464 54.9971C55.7993 54.7373 56.0021 54.5208 56.1548 54.3477C56.3097 54.1722 56.4214 54.0127 56.4897 53.8691C56.5604 53.7256 56.5957 53.5718 56.5957 53.4077C56.5957 53.2095 56.5399 53.0614 56.4282 52.9634C56.3188 52.8631 56.1719 52.813 55.9873 52.813C55.7936 52.813 55.6056 52.8574 55.4233 52.9463C55.241 53.0352 55.0508 53.1616 54.8525 53.3257L54.2783 52.6455C54.4219 52.5225 54.5734 52.4062 54.7329 52.2969C54.8947 52.1875 55.0815 52.0998 55.2935 52.0337C55.5076 51.9653 55.764 51.9312 56.0625 51.9312C56.3906 51.9312 56.672 51.9904 56.9067 52.1089C57.1437 52.2274 57.326 52.3892 57.4536 52.5942C57.5812 52.797 57.645 53.0272 57.645 53.2847C57.645 53.5604 57.5903 53.8122 57.481 54.04C57.3716 54.2679 57.2121 54.4935 57.0024 54.7168C56.7951 54.9401 56.5444 55.1873 56.2505 55.4585L55.6079 56.0635V56.1113H57.7852V57ZM61.5962 53.1206C61.5962 53.3507 61.5483 53.5501 61.4526 53.7188C61.3569 53.8874 61.2271 54.0252 61.063 54.1323C60.9012 54.2394 60.7189 54.318 60.5161 54.3682V54.3887C60.9172 54.4388 61.2214 54.5618 61.4287 54.7578C61.6383 54.9538 61.7432 55.2158 61.7432 55.5439C61.7432 55.8356 61.6714 56.0965 61.5278 56.3267C61.3866 56.5568 61.1678 56.738 60.8716 56.8701C60.5754 57.0023 60.1937 57.0684 59.7266 57.0684C59.4508 57.0684 59.1934 57.0456 58.9541 57C58.7171 56.9567 58.4938 56.8895 58.2842 56.7983V55.8994C58.4984 56.0088 58.7228 56.092 58.9575 56.1489C59.1922 56.2036 59.411 56.231 59.6138 56.231C59.992 56.231 60.2563 56.166 60.4067 56.0361C60.5594 55.904 60.6357 55.7194 60.6357 55.4824C60.6357 55.3434 60.6004 55.2261 60.5298 55.1304C60.4591 55.0347 60.3361 54.9618 60.1606 54.9116C59.9875 54.8615 59.7448 54.8364 59.4326 54.8364H59.0532V54.0264H59.4395C59.7471 54.0264 59.9806 53.9979 60.1401 53.9409C60.3019 53.8817 60.4113 53.8019 60.4683 53.7017C60.5275 53.5991 60.5571 53.4829 60.5571 53.353C60.5571 53.1753 60.5024 53.0363 60.3931 52.936C60.2837 52.8358 60.1014 52.7856 59.8462 52.7856C59.6867 52.7856 59.5409 52.8062 59.4087 52.8472C59.2788 52.8859 59.1615 52.9338 59.0566 52.9907C58.9518 53.0454 58.8595 53.099 58.7798 53.1514L58.291 52.4233C58.487 52.2821 58.716 52.1647 58.978 52.0713C59.2424 51.9779 59.5568 51.9312 59.9214 51.9312C60.4364 51.9312 60.8442 52.0348 61.145 52.2422C61.4458 52.4495 61.5962 52.7424 61.5962 53.1206Z" fill="white"/>
<path d="M67.6035 55V50.7168H67.9053V55H67.6035ZM72.2324 55H71.9248L69.3936 51.2119H69.3789C69.3828 51.3174 69.3857 51.4248 69.3877 51.5342C69.3916 51.6416 69.3945 51.7529 69.3965 51.8682C69.4004 51.9814 69.4023 52.0986 69.4023 52.2197V55H69.1152V50.7168H69.4258L71.9482 54.4932H71.9629C71.9609 54.4072 71.958 54.3076 71.9541 54.1943C71.9521 54.0811 71.9492 53.9648 71.9453 53.8457C71.9434 53.7266 71.9424 53.6143 71.9424 53.5088V50.7168H72.2324V55ZM76.7031 52.8174C76.7031 53.2959 76.6182 53.6973 76.4482 54.0215C76.2803 54.3457 76.0303 54.5898 75.6982 54.7539C75.3682 54.918 74.959 55 74.4707 55H73.4453V50.7168H74.6055C75.0625 50.7168 75.4463 50.7969 75.7568 50.957C76.0674 51.1172 76.3027 51.3535 76.4629 51.666C76.623 51.9766 76.7031 52.3604 76.7031 52.8174ZM76.3867 52.8291C76.3867 52.4209 76.3203 52.0801 76.1875 51.8066C76.0547 51.5332 75.8516 51.3281 75.5781 51.1914C75.3047 51.0527 74.958 50.9834 74.5381 50.9834H73.7471V54.7334H74.4561C75.1025 54.7334 75.5859 54.5752 75.9062 54.2588C76.2266 53.9404 76.3867 53.4639 76.3867 52.8291ZM77.6816 55V50.7168H77.9834V55H77.6816ZM81.874 55L81.291 53.4854H79.4922L78.8975 55H78.5898L80.2744 50.7021H80.5498L82.1904 55H81.874ZM81.1943 53.2129L80.6025 51.6074C80.5869 51.5664 80.5674 51.5137 80.5439 51.4492C80.5225 51.3848 80.499 51.3164 80.4736 51.2441C80.4502 51.1719 80.4268 51.1035 80.4033 51.0391C80.3838 51.1074 80.3623 51.1758 80.3389 51.2441C80.3154 51.3125 80.293 51.3789 80.2715 51.4434C80.25 51.5059 80.2295 51.5625 80.21 51.6133L79.5947 53.2129H81.1943Z" fill="white"/>
<path d="M133 22.5002C133 21.5719 133.369 20.6816 134.025 20.0252C134.681 19.3688 135.572 19 136.5 19C137.428 19 138.319 19.3688 138.975 20.0252C139.631 20.6816 140 21.5719 140 22.5002C139.987 23.4245 139.615 24.3073 138.961 24.961C138.307 25.6146 137.425 25.9873 136.5 26C135.572 25.9998 134.682 25.631 134.026 24.9747C133.37 24.3184 133 23.4284 133 22.5002Z" fill="#96BA3A"/>
<path d="M21.999 13.4924C21.999 17.8643 20.9342 21.1466 18.6515 23.4861C16.3687 25.8257 13.1733 27 9.06515 27H1V1H9.5215C13.5541 1 16.5974 2.01518 18.728 4.20166C20.9342 6.30958 22 9.43268 22 13.4934M15.0007 13.7281C15.0007 11.311 14.5443 9.58979 13.6267 8.4185C13.1147 7.82994 12.4784 7.36919 11.7664 7.07142C11.0545 6.77365 10.2856 6.64673 9.51855 6.70034H7.69511V21.2231H9.21628C10.0557 21.2936 10.8996 21.1608 11.6798 20.8352C12.4601 20.5096 13.1548 20.0005 13.7081 19.3489C14.6716 17.6474 15.1218 15.691 15.0016 13.7271" fill="white"/>
<path d="M50 0H44V26H50V0Z" fill="white"/>
<path d="M71.9909 16.9614C71.9909 20.0687 71.2101 22.5565 69.4913 24.3437C68.5708 25.249 67.4694 25.9518 66.2586 26.4068C65.0477 26.8618 63.7543 27.0587 62.4621 26.9849C61.1866 27.0562 59.9108 26.8498 58.7238 26.3802C57.5367 25.9105 56.4669 25.1888 55.589 24.2655C53.8117 22.2546 52.8876 19.6363 53.0109 16.9614C53.0109 13.8541 53.7917 11.3663 55.5105 9.65729C56.4309 8.75178 57.5321 8.04868 58.743 7.59353C59.9539 7.13838 61.2474 6.94132 62.5397 7.01511C64.2533 6.97632 65.9481 7.37781 67.4602 8.18083C68.8862 8.95115 70.0334 10.1469 70.7406 11.5998C71.6373 13.2415 72.0695 15.0946 71.9909 16.9614ZM59.7238 16.9614C59.6637 18.2346 59.8766 19.506 60.3484 20.6911C60.533 21.1026 60.8445 21.4449 61.2378 21.6683C61.6311 21.8918 62.0857 21.9849 62.5357 21.934C62.9843 21.9748 63.4347 21.8775 63.826 21.6552C64.2172 21.4328 64.5303 21.0963 64.7229 20.6911C65.1798 19.502 65.3922 18.2337 65.3476 16.9614C65.4076 15.6881 65.1947 14.4168 64.7229 13.2317C64.5251 12.8306 64.2109 12.4978 63.821 12.2762C63.4311 12.0546 62.9834 11.9545 62.5357 11.9888C62.09 11.9674 61.6475 12.073 61.26 12.2931C60.8726 12.5133 60.5563 12.8389 60.3484 13.2317C59.8766 14.4167 59.6637 15.6881 59.7238 16.9614Z" fill="white"/>
<path d="M80 7H74V26H80V7Z" fill="white"/>
<path d="M80 0H74V4H80V0Z" fill="white"/>
<path d="M93.8379 21.6248C94.918 21.5761 95.9843 21.363 97 20.9928V25.9711C96.1895 26.3305 95.3403 26.5956 94.4692 26.7611C93.5302 26.9322 92.5768 27.0118 91.6224 26.9986C89.4079 26.9986 87.8268 26.4451 86.7986 25.2607C85.7079 23.7789 85.1757 21.9599 85.2961 20.1244V12.0636H83V7.00579H85.293V2.10595L91.9355 1V7.16379H96.2053V12.1421H91.9355V19.7289C92.0937 21.0723 92.6495 21.6258 93.8338 21.6258" fill="white"/>
<path d="M108.837 21.6248C109.918 21.5761 110.984 21.363 112 20.9928V25.9711C111.189 26.3305 110.34 26.5956 109.469 26.7611C108.53 26.9323 107.576 27.0118 106.621 26.9986C104.406 26.9986 102.825 26.4451 101.796 25.2607C100.706 23.7789 100.173 21.9599 100.294 20.1243V12.0636H98V7.00579H100.294V2.02747L106.937 1V7.16378H111.208V12.1421H106.937V19.7289C107.017 21.0723 107.652 21.6258 108.836 21.6258" fill="white"/>
<path d="M128.62 9.26207C127.088 7.71378 124.944 7.01799 122.187 7.01799C120.931 6.937 119.672 7.13007 118.496 7.5841C117.32 8.03813 116.254 8.74249 115.371 9.6494C113.763 11.4293 113 13.906 113 17.1563C113 20.2509 113.843 22.7285 115.527 24.4306C116.501 25.3143 117.639 25.9948 118.875 26.4331C120.11 26.8713 121.419 27.0585 122.727 26.9841C124.01 27.016 125.293 26.9123 126.555 26.6746C127.623 26.4654 128.654 26.1005 129.618 25.5915L128.699 21.2581C127.084 21.9747 125.331 22.3185 123.568 22.2643C122.532 22.3132 121.508 22.0138 120.658 21.4128C120.305 21.0927 120.026 20.698 119.841 20.2567C119.655 19.8154 119.569 19.3383 119.586 18.8593H130.997V15.8406C131.058 13.4237 130.211 11.0732 128.626 9.26207M119.589 14.6017C119.603 13.754 119.9 12.9358 120.432 12.2798C120.686 12.0367 120.988 11.8491 121.317 11.7289C121.646 11.6087 121.997 11.5583 122.346 11.581C122.713 11.5602 123.081 11.6184 123.424 11.7517C123.767 11.8851 124.079 12.0906 124.338 12.3547C124.83 12.9972 125.099 13.786 125.103 14.5987L119.589 14.6017Z" fill="white"/>
<path d="M39.6253 9.24621C37.7227 7.72713 35.352 6.93349 32.9288 7.00437C30.5055 7.07525 28.1842 8.00613 26.3717 9.63388C24.7629 11.4154 24 13.8942 24 17.1475C24 20.2448 24.8429 22.7247 26.5278 24.4283C27.5026 25.3128 28.6407 25.9939 29.8766 26.4325C31.1125 26.8711 32.422 27.0586 33.7297 26.9841C35.0136 27.016 36.2974 26.9122 37.5599 26.6743C38.6276 26.4649 39.6595 26.0997 40.6233 25.5903L39.7043 21.175C38.0887 21.8924 36.3353 22.2364 34.5716 22.1822C33.5348 22.2311 32.5111 21.9314 31.6605 21.3299C31.3073 21.0095 31.0282 20.6144 30.8429 20.1727C30.6576 19.731 30.5707 19.2535 30.5883 18.7741H41.9969V15.8306C42.0581 13.4116 41.2107 11.0589 39.6253 9.24621ZM30.5082 14.5906C30.5224 13.7421 30.8194 12.9233 31.3512 12.2666C31.6057 12.0233 31.9071 11.8356 32.2366 11.7152C32.5661 11.5949 32.9166 11.5445 33.2663 11.5672C33.6343 11.5391 34.004 11.594 34.3485 11.7279C34.693 11.8618 35.0038 12.0714 35.2584 12.3416C35.7512 12.9847 36.0204 13.7742 36.0243 14.5877L30.5082 14.5906Z" fill="white"/>
<path d="M40 42V68" stroke="white" stroke-miterlimit="10"/>
<mask id="mask0_4_2050" style="mask-type:luminance" maskUnits="userSpaceOnUse" x="47" y="62" width="74" height="3">
<path d="M121 62H47V65H121V62Z" fill="white"/>
</mask>
<g mask="url(#mask0_4_2050)">
<path d="M48.0002 64C48.5527 64 49.0005 63.5523 49.0005 63C49.0005 62.4477 48.5527 62 48.0002 62C47.4478 62 47 62.4477 47 63C47 63.5523 47.4478 64 48.0002 64Z" fill="#86BC41"/>
<path d="M53.0002 64C53.5527 64 54.0005 63.5523 54.0005 63C54.0005 62.4477 53.5527 62 53.0002 62C52.4478 62 52 62.4477 52 63C52 63.5523 52.4478 64 53.0002 64Z" fill="#86BC41"/>
<path d="M58.0002 64C58.5527 64 59.0005 63.5523 59.0005 63C59.0005 62.4477 58.5527 62 58.0002 62C57.4478 62 57 62.4477 57 63C57 63.5523 57.4478 64 58.0002 64Z" fill="#86BC41"/>
<path d="M63.0002 64C63.5527 64 64.0005 63.5523 64.0005 63C64.0005 62.4477 63.5527 62 63.0002 62C62.4478 62 62 62.4477 62 63C62 63.5523 62.4478 64 63.0002 64Z" fill="#86BC41"/>
<path d="M68.0002 64C68.5527 64 69.0005 63.5523 69.0005 63C69.0005 62.4477 68.5527 62 68.0002 62C67.4478 62 67 62.4477 67 63C67 63.5523 67.4478 64 68.0002 64Z" fill="#86BC41"/>
<path d="M73.0002 64C73.5527 64 74.0005 63.5523 74.0005 63C74.0005 62.4477 73.5527 62 73.0002 62C72.4478 62 72 62.4477 72 63C72 63.5523 72.4478 64 73.0002 64Z" fill="#86BC41"/>
<path d="M78.0002 64C78.5527 64 79.0005 63.5523 79.0005 63C79.0005 62.4477 78.5527 62 78.0002 62C77.4478 62 77 62.4477 77 63C77 63.5523 77.4478 64 78.0002 64Z" fill="#86BC41"/>
<path d="M83.0002 64C83.5527 64 84.0005 63.5523 84.0005 63C84.0005 62.4477 83.5527 62 83.0002 62C82.4478 62 82 62.4477 82 63C82 63.5523 82.4478 64 83.0002 64Z" fill="#86BC41"/>
<path d="M88.0002 64C88.5527 64 89.0005 63.5523 89.0005 63C89.0005 62.4477 88.5527 62 88.0002 62C87.4478 62 87 62.4477 87 63C87 63.5523 87.4478 64 88.0002 64Z" fill="#86BC41"/>
<path d="M93.0002 64C93.5527 64 94.0005 63.5523 94.0005 63C94.0005 62.4477 93.5527 62 93.0002 62C92.4478 62 92 62.4477 92 63C92 63.5523 92.4478 64 93.0002 64Z" fill="#86BC41"/>
<path d="M98.0002 64C98.5527 64 99.0005 63.5523 99.0005 63C99.0005 62.4477 98.5527 62 98.0002 62C97.4478 62 97 62.4477 97 63C97 63.5523 97.4478 64 98.0002 64Z" fill="#86BC41"/>
<path d="M103 64C103.553 64 104 63.5523 104 63C104 62.4477 103.553 62 103 62C102.448 62 102 62.4477 102 63C102 63.5523 102.448 64 103 64Z" fill="#86BC41"/>
<path d="M108 64C108.553 64 109 63.5523 109 63C109 62.4477 108.553 62 108 62C107.448 62 107 62.4477 107 63C107 63.5523 107.448 64 108 64Z" fill="#86BC41"/>
<path d="M113 64C113.553 64 114 63.5523 114 63C114 62.4477 113.553 62 113 62C112.448 62 112 62.4477 112 63C112 63.5523 112.448 64 113 64Z" fill="#86BC41"/>
<path d="M118 64C118.553 64 119 63.5523 119 63C119 62.4477 118.553 62 118 62C117.448 62 117 62.4477 117 63C117 63.5523 117.448 64 118 64Z" fill="#86BC41"/>
</g>
</g>
<defs>
<clipPath id="clip0_4_2050">
<rect width="140" height="67" fill="white"/>
</clipPath>
</defs>
</svg>
