<svg width="129" height="23" viewBox="0 0 129 23" fill="none" xmlns="http://www.w3.org/2000/svg">
<g clip-path="url(#clip0_4_741)">
<path d="M15 22.0002H20.688V13.8732H29.0558V8.99569H20.69V5.09454H30V0.000244141H15V22.0002Z" fill="#D9003D"/>
<path d="M43.6374 7.80182C43.66 8.18699 43.6004 8.57255 43.4622 8.93344C43.324 9.29433 43.1104 9.62247 42.8353 9.89649C42.2069 10.4293 41.3944 10.702 40.5674 10.6577H37.751V4.91619H40.5674C41.3872 4.87694 42.1934 5.13383 42.8353 5.63883C43.1253 5.91137 43.351 6.2436 43.4964 6.61194C43.6418 6.98028 43.7033 7.3757 43.6765 7.77013V7.80676L43.6374 7.80182ZM48.2835 11.5219C49.0568 10.3282 49.4397 8.92858 49.3804 7.51276V7.36823C49.3955 6.35808 49.2211 5.35389 48.866 4.40639C48.5667 3.58482 48.0783 2.84305 47.4393 2.23945C45.9755 0.754572 43.7447 0.000244141 40.7448 0.000244141H32V22.0002H37.7069V15.1698H39.7552L43.5231 22.0002H50L45.4271 14.0185C46.5693 13.429 47.5487 12.5734 48.2805 11.5259" fill="#D9003D"/>
<path d="M57 0.000244141H51V22.0002H57V0.000244141Z" fill="#D9003D"/>
<path d="M72.3197 11.1265C72.3887 11.915 72.2984 12.7095 72.0543 13.4612C71.8101 14.2128 71.4173 14.9056 70.9 15.497C70.4014 15.9714 69.8151 16.3402 69.1751 16.582C68.5352 16.8238 67.8544 16.9338 67.1723 16.9056H65.5745V5.02668H67.1723C67.8547 4.99523 68.5364 5.10373 69.1768 5.34572C69.8172 5.58772 70.4032 5.95826 70.9 6.43531C71.4173 7.03388 71.8098 7.73299 72.0538 8.49033C72.2978 9.24767 72.3883 10.0475 72.3197 10.8414V11.1265ZM77.9974 11.0899V10.7286C78.0099 9.22936 77.7697 7.73905 77.287 6.32246C76.8388 5.04125 76.1105 3.88028 75.1571 2.92707C74.183 1.95176 73.0062 1.21127 71.7135 0.760153C70.2301 0.233839 68.6672 -0.0228382 67.0964 0.00187267H60V21.9977H66.9942C68.5909 22.0293 70.1795 21.7609 71.6804 21.2058C72.9754 20.7417 74.152 19.9888 75.124 19.0023C76.0661 18.026 76.7923 16.8562 77.254 15.5712C77.7627 14.1352 78.0151 12.6182 77.9993 11.0919" fill="#D9003D"/>
<path d="M85.4076 13.553L87.4471 7.15493L89.4874 13.553H85.4076ZM84.6566 0.000244141L77 22.0002H82.7594L84.0114 18.0465H90.8444L92.1328 22.0002H98L90.3081 0.000244141H84.6566Z" fill="#D9003D"/>
<path d="M107.769 0.00222316L104.017 7.9494L100.305 0.00222316H94L101.14 13.764V22.0002H106.86V13.6917L114 0.000244141L107.769 0.00222316Z" fill="#D9003D"/>
<path d="M126.718 21.1626C127.411 20.5458 127.976 19.7953 128.382 18.9545C128.801 18.0322 129.011 17.026 128.997 16.0102V15.9375C129.024 15.078 128.863 14.2231 128.527 13.434C128.202 12.7277 127.748 12.091 127.189 11.5578C126.553 10.9713 125.833 10.4873 125.054 10.1224C124.14 9.68551 123.197 9.31637 122.231 9.01789C121.653 8.81426 121.086 8.58096 120.531 8.31888C120.152 8.14198 119.789 7.93242 119.445 7.69248C119.219 7.54472 119.032 7.34235 118.902 7.1034C118.795 6.9001 118.745 6.6709 118.757 6.44069V6.40337C118.757 6.19792 118.802 5.99513 118.891 5.81027C118.979 5.62541 119.107 5.46331 119.266 5.33617C119.7 5.02899 120.226 4.88622 120.753 4.93268C121.677 4.92964 122.59 5.13064 123.43 5.52178C124.308 5.90449 125.135 6.39935 125.89 6.99446L128.713 2.72567C127.619 1.80482 126.369 1.0942 125.025 0.628592C123.669 0.188911 122.251 -0.022657 120.828 0.00220634C119.723 -0.00522817 118.623 0.169505 117.572 0.519651C116.651 0.818005 115.801 1.30668 115.074 1.95503C114.404 2.55292 113.872 3.29466 113.518 4.12674C113.147 5.01044 112.962 5.96317 112.975 6.92386V7.0338C112.953 7.93242 113.127 8.82478 113.483 9.64733C113.829 10.3702 114.322 11.0098 114.93 11.5235C115.616 12.0858 116.37 12.556 117.173 12.9225C118.042 13.326 118.982 13.6952 120.034 14.0634C120.573 14.2444 121.103 14.4531 121.621 14.6888C121.97 14.8246 122.299 15.0108 122.597 15.2415C122.804 15.3863 122.978 15.5749 123.106 15.7943C123.209 15.986 123.259 16.2024 123.251 16.4207V16.458C123.258 16.6877 123.209 16.9156 123.108 17.1211C123.007 17.3266 122.857 17.5033 122.672 17.6352C122.164 17.9587 121.569 18.1131 120.971 18.077C119.896 18.0823 118.832 17.8432 117.859 17.3769C116.829 16.8966 115.867 16.2778 114.999 15.5371L112 19.7272C113.236 20.8357 114.675 21.6864 116.233 22.2308C117.76 22.7444 119.358 23.0039 120.966 22.9994C122.07 23.0135 123.168 22.8518 124.223 22.5203C125.144 22.2621 125.997 21.7968 126.719 21.1585" fill="#D9003D"/>
<path d="M2.56028 15.0002H0V23.0002H2.56028V20.3799H11V17.6551H2.56028V15.0002Z" fill="#D9003D"/>
<path d="M4.61097 5.00024V9.24931H6.74096V7.57776H8.31215C8.53883 7.94271 8.64833 8.36805 8.626 8.79681C8.626 10.1553 7.54378 11.1996 5.58794 11.1996H5.44823C3.66845 11.1996 2.51541 10.1543 2.51541 8.83117C2.52446 8.04823 2.83725 7.29924 3.38808 6.74149L1.29349 5.21408C0.427906 6.23384 -0.0318271 7.53542 0.00171396 8.87128C-0.00336481 9.56896 0.135326 10.2603 0.409183 10.9022C0.68304 11.5442 1.08622 12.1232 1.5937 12.6033C2.10118 13.0833 2.70214 13.4542 3.35928 13.6929C4.01642 13.9317 4.71571 14.0331 5.41378 13.9909H5.62333C8.93985 13.9909 11 11.7953 11 8.90564C10.9901 7.49665 10.525 6.12842 9.67377 5.00408L4.61097 5.00024Z" fill="#D9003D"/>
<path d="M11 0.000244141H0V3.00024H11V0.000244141Z" fill="#D9003D"/>
</g>
<defs>
<clipPath id="clip0_4_741">
<rect width="129" height="23" fill="white" transform="translate(0 0.000244141)"/>
</clipPath>
</defs>
</svg>
