<svg width="93" height="30" viewBox="0 0 93 30" fill="none" xmlns="http://www.w3.org/2000/svg">
<g clip-path="url(#clip0_4_762)">
<path d="M22.8038 10.4708H11.8965V13.5992H19.631C19.2487 17.9889 15.4728 19.8608 11.9086 19.8608C10.7657 19.8721 9.63173 19.664 8.57247 19.2486C7.51321 18.8332 6.54965 18.2188 5.73753 17.4408C4.92542 16.6628 4.28089 15.7368 3.84125 14.7163C3.40161 13.6958 3.17558 12.6011 3.17624 11.4955C3.17691 10.39 3.40427 9.29553 3.84514 8.27553C4.28602 7.25553 4.93166 6.33024 5.74471 5.55319C6.55775 4.77613 7.52205 4.16274 8.58182 3.74854C9.64158 3.33434 10.7757 3.12755 11.9187 3.14012C14.0916 3.13574 16.1816 3.94665 17.749 5.40226L20.0152 3.1333C18.9264 2.11479 17.6405 1.31395 16.2313 0.776642C14.8221 0.239336 13.3172 -0.0239119 11.8027 0.00198508C10.2415 0.0129377 8.69776 0.321209 7.2597 0.909205C5.82163 1.4972 4.51739 2.35342 3.42144 3.42894C2.32548 4.50446 1.45927 5.77824 0.872272 7.17755C0.285274 8.57686 -0.0110111 10.0743 0.000312751 11.5844C0.0116366 13.0944 0.330354 14.5876 0.938275 15.9785C1.5462 17.3694 2.43141 18.6309 3.54338 19.6909C4.65535 20.751 5.97229 21.5888 7.41902 22.1565C8.86575 22.7243 10.4139 23.0109 11.9752 22.9999C18.34 22.9999 22.9985 18.7829 22.9985 12.5467C23.0113 11.8496 22.9436 11.1534 22.7968 10.4708H22.8038Z" fill="#396DB4"/>
<path d="M31.4761 8.00251C29.9949 8.00701 28.5482 8.45009 27.3185 9.2758C26.0888 10.1015 25.1312 11.2729 24.5665 12.6422C24.0017 14.0115 23.8551 15.5174 24.1452 16.9699C24.4353 18.4224 25.149 19.7565 26.1964 20.8039C27.2437 21.8512 28.5778 22.565 30.0303 22.855C31.4828 23.1451 32.9887 22.9985 34.358 22.4338C35.7274 21.869 36.8987 20.9114 37.7245 19.6817C38.5502 18.452 38.9932 17.0053 38.9977 15.5242C39.0224 14.5297 38.8448 13.5405 38.4755 12.6168C38.1063 11.693 37.5532 10.854 36.8497 10.1505C36.1463 9.44711 35.3072 8.89397 34.3835 8.52472C33.4597 8.15547 32.4706 7.9778 31.4761 8.00251ZM31.5196 10.9488C32.5173 10.9412 33.487 11.2784 34.2647 11.9035C35.0424 12.5285 35.5802 13.403 35.7874 14.379C35.9945 15.355 35.8581 16.3725 35.4013 17.2596C34.9445 18.1466 34.1953 18.8485 33.2805 19.2468C32.3657 19.645 31.3414 19.715 30.3809 19.4449C29.4205 19.1748 28.5828 18.5812 28.0096 17.7646C27.4363 16.948 27.1628 15.9584 27.2353 14.9633C27.3077 13.9683 27.7216 13.0287 28.4071 12.3037C28.8072 11.879 29.2894 11.5399 29.8244 11.307C30.3594 11.0741 30.9361 10.9523 31.5196 10.9488Z" fill="#D01B28"/>
<path d="M48.4761 8.00254C46.9949 8.00704 45.5482 8.45012 44.3185 9.27583C43.0888 10.1015 42.1312 11.2729 41.5665 12.6422C41.0017 14.0115 40.8551 15.5174 41.1452 16.9699C41.4353 18.4224 42.149 19.7565 43.1964 20.8039C44.2437 21.8512 45.5778 22.565 47.0303 22.855C48.4829 23.1451 49.9887 22.9985 51.358 22.4338C52.7273 21.869 53.8987 20.9114 54.7244 19.6817C55.5502 18.452 55.9932 17.0054 55.9977 15.5242C56.0226 14.5296 55.845 13.5404 55.4758 12.6166C55.1066 11.6928 54.5535 10.8537 53.85 10.1502C53.1465 9.44677 52.3074 8.89364 51.3836 8.52444C50.4598 8.15524 49.4706 7.97768 48.4761 8.00254ZM48.5196 10.9489C49.5173 10.9412 50.487 11.2784 51.2647 11.9035C52.0424 12.5285 52.5802 13.403 52.7873 14.379C52.9945 15.355 52.8581 16.3726 52.4013 17.2596C51.9445 18.1466 51.1953 18.8486 50.2805 19.2468C49.3657 19.645 48.3414 19.715 47.3809 19.4449C46.4205 19.1748 45.5828 18.5812 45.0095 17.7646C44.4363 16.948 44.1628 15.9584 44.2353 14.9634C44.3077 13.9683 44.7216 13.0287 45.407 12.3037C45.8072 11.879 46.2893 11.5399 46.8244 11.307C47.3594 11.0741 47.9361 10.9523 48.5196 10.9489Z" fill="#F7B301"/>
<path d="M64.5064 8.0049C62.494 8.08516 60.5908 8.91504 59.1928 10.322C57.7947 11.7289 57.0094 13.6046 57.0001 15.559C56.9908 17.5134 57.7582 19.396 59.1428 20.8154C60.5274 22.2348 62.4226 23.0817 64.4342 23.18C65.2481 23.2233 66.061 23.0787 66.8062 22.7583C67.5515 22.4379 68.2079 21.9508 68.7217 21.3367V22.8326C68.7217 25.4499 67.0841 27.0169 64.6117 27.0169C63.742 27.008 62.8951 26.7454 62.1813 26.2633C61.4674 25.7812 60.9196 25.1018 60.609 24.3135L57.6041 25.532C58.1849 26.8713 59.1644 28.0119 60.4172 28.8078C61.67 29.6037 63.1391 30.0187 64.6365 29.9996C68.8156 29.9996 72 27.4464 72 22.0896V8.46046H68.7217V9.74308C68.1879 9.17742 67.5354 8.72931 66.8081 8.42896C66.0808 8.12861 65.2956 7.98297 64.5054 8.00187L64.5064 8.0049ZM64.8108 10.9787C66.8746 10.9787 68.9869 12.6858 68.9869 15.6015C68.9869 18.5652 66.8757 20.1983 64.7644 20.1983C64.1678 20.1841 63.5803 20.0535 63.0369 19.8142C62.4935 19.5748 62.0053 19.2317 61.6016 18.8053C61.1979 18.3789 60.8868 17.8779 60.687 17.3322C60.4872 16.7866 60.4028 16.2075 60.4387 15.6295C60.3999 15.0432 60.4833 14.4553 60.6839 13.901C60.8845 13.3467 61.1981 12.8372 61.6061 12.4031C62.0141 11.969 62.5081 11.6192 63.0585 11.3744C63.6089 11.1297 64.2056 10.9951 64.8108 10.9787Z" fill="#396DB4"/>
<path d="M86.1239 8.00715C82.2523 8.00715 79.0051 11.0289 79.0051 15.487C78.9678 16.4695 79.1347 17.4493 79.4957 18.3665C79.8567 19.2838 80.4042 20.1193 81.1048 20.8221C81.8054 21.525 82.6445 22.0805 83.5709 22.4548C84.4974 22.8292 85.4918 23.0144 86.4936 22.9994C87.751 23.002 88.9902 22.704 90.104 22.1312C91.2178 21.5584 92.1727 20.728 92.8862 19.7117L90.2484 17.9888C89.8658 18.6255 89.3185 19.1517 88.6619 19.5138C88.0053 19.8759 87.2628 20.0612 86.5097 20.0508C85.7258 20.0819 84.9504 19.8821 84.2834 19.4769C83.6163 19.0717 83.0882 18.4797 82.767 17.7773L93 13.6098L92.4692 12.3891C91.9811 11.1179 91.1153 10.0199 89.984 9.23741C88.8526 8.45488 87.5078 8.02388 86.1239 8.00024V8.00715ZM86.2579 10.8876C86.8341 10.8644 87.4051 11.0024 87.9045 11.2856C88.4038 11.5688 88.8108 11.9854 89.078 12.4869L82.2442 15.2903C82.2109 14.742 82.2885 14.1927 82.4726 13.6741C82.6566 13.1555 82.9435 12.6777 83.3167 12.2684C83.6898 11.8591 84.1418 11.5264 84.6466 11.2894C85.1514 11.0524 85.699 10.9158 86.2579 10.8876Z" fill="#D01B28"/>
<path d="M74 23.0002H77V1.00024H74V23.0002Z" fill="#4BA93F"/>
</g>
<defs>
<clipPath id="clip0_4_762">
<rect width="93" height="30" fill="white" transform="translate(0 0.000244141)"/>
</clipPath>
</defs>
</svg>
