<svg width="35" height="49" viewBox="0 0 35 49" fill="none" xmlns="http://www.w3.org/2000/svg">
<g clip-path="url(#clip0_4_3036)">
<path d="M3.18204 45.1167L0 10.0002H35L31.818 45.1167L17.4518 49.0002L3.18204 45.1167Z" fill="#E44D26"/>
<path d="M18 46.0002L29.2571 42.797L32 13.0002H18V46.0002Z" fill="#F16529"/>
<path d="M17 25.6667H11.2606L10.7823 21.3332H17V17.0002H6L6.19132 18.1307L7.24355 30.0002H17V25.6667Z" fill="#EBEBEB"/>
<path d="M18 36.6836H17.9L12.9 35.3978L12.6 32.0002H8L8.6 38.6123L17.8994 41.0002H18V36.6836Z" fill="#EBEBEB"/>
<path d="M3 0.000244141H5.0597V2.33358H6.9403V0.000244141H9V6.99959H6.9403V4.66691H5.0597V7.00024H3V0.000244141Z" fill="black"/>
<path d="M12.905 2.33358H11V0.000244141H17V2.33358H15.095V7.00024H12.905V2.33358Z" fill="black"/>
<path d="M18 0.000244141H20.4617L22.0003 2.43525L23.5383 0.000244141H26V7.00024H23.6408V3.5513L22.1029 5.98371H22.0003L20.3565 3.5487V6.99569H18.1026L18 0.000244141Z" fill="black"/>
<path d="M26 0.000244141H28.0536V4.66691H31V7.00024H26V0.000244141Z" fill="black"/>
<path d="M17 26.0009V30.4348H22.2827L21.811 36.1193L17 37.4706V42.0002L25.7735 39.4941L25.8679 38.8194L26.9057 27.2533L27 26.0002L17 26.0009Z" fill="white"/>
<path d="M17 17.0002V21.0002H27.614L27.7105 20.1307L27.9035 18.0437L28 17.0002H17Z" fill="white"/>
</g>
<defs>
<clipPath id="clip0_4_3036">
<rect width="35" height="49" fill="white" transform="translate(0 0.000244141)"/>
</clipPath>
</defs>
</svg>
