<svg width="111" height="19" viewBox="0 0 111 19" fill="none" xmlns="http://www.w3.org/2000/svg">
<g clip-path="url(#clip0_4_770)">
<path d="M12.6241 19.0002C12.9616 19.0002 13.1035 18.8675 12.9176 18.6635C12.6314 17.8962 12.5016 17.0796 12.536 16.2616V2.74771C12.5016 1.9297 12.6314 1.11308 12.9176 0.345752C13.1016 0.141766 12.9616 0.000244141 12.6241 0.000244141H0.372477C0.0349005 0.000244141 -0.0981733 0.141766 0.0789322 0.345752C0.366135 1.11283 0.495905 1.92965 0.460541 2.74771V16.2528C0.494924 17.0708 0.365184 17.8874 0.0789322 18.6547C-0.0991518 18.8587 0.0349005 18.9915 0.372477 18.9915H12.6241V19.0002Z" fill="#0057A4"/>
<path d="M31.203 6.78275L35.6767 0.745285C35.8553 0.567569 35.766 0.310759 35.766 0.204325C35.766 0.0978904 35.766 0.000244141 35.8553 0.000244141H47.9835C48.1435 0.000244141 48.0728 0.115467 48.01 0.204325L43.0201 7.14599C42.9168 7.26834 42.8638 7.42514 42.872 7.58478C42.8802 7.74441 42.9489 7.89502 43.0643 8.00626L49.9259 18.7962C49.9975 18.885 50.0594 19.0002 49.8994 19.0002H35.0887C34.9994 19.0002 34.9994 18.9114 34.9994 18.7962C34.9994 18.6809 35.2311 17.7055 35.0436 17.5268L31.2158 11.6934V16.2505C31.1813 17.0689 31.3114 17.8859 31.5986 18.6536C31.7772 18.8577 31.6427 18.9905 31.3041 18.9905H19.3771C19.0385 18.9905 18.8962 18.8577 19.0826 18.6536C19.3698 17.8859 19.4999 17.0689 19.4654 16.2505V2.74899C19.4999 1.9306 19.3698 1.11359 19.0826 0.345912C18.905 0.141831 19.0385 0.000244141 19.3771 0.000244141H31.3012C31.6398 0.000244141 31.7821 0.133043 31.5956 0.337124C31.3085 1.10481 31.1784 1.92181 31.2128 2.7402L31.203 6.78275Z" fill="#0057A4"/>
<path d="M67.0274 12.0584C67.024 12.0129 67.0305 11.9672 67.0465 11.9244C67.0626 11.8816 67.0877 11.8428 67.1202 11.8105C67.1528 11.7782 67.192 11.7533 67.2351 11.7374C67.2783 11.7216 67.3244 11.7151 67.3703 11.7185H72.1404C72.9473 11.6651 73.7576 11.6952 74.5583 11.8081C74.7113 11.9598 74.9011 11.8613 74.9011 11.5756V6.97758C74.9011 6.69088 74.7113 6.59335 74.5583 6.74507C73.7576 6.8578 72.9473 6.88785 72.1404 6.83473H67.3703C67.3245 6.83762 67.2786 6.83081 67.2357 6.81475C67.1928 6.79869 67.1538 6.77375 67.1213 6.74159C67.0889 6.70943 67.0638 6.67079 67.0476 6.62824C67.0314 6.58569 67.0245 6.54021 67.0274 6.49483V5.56478C67.024 5.51927 67.0305 5.47358 67.0465 5.4308C67.0626 5.38803 67.0877 5.34918 67.1202 5.31692C67.1528 5.28465 67.192 5.25973 67.2351 5.24384C67.2783 5.22796 67.3244 5.22149 67.3703 5.22487H74.2393C75.0631 5.19029 75.8855 5.32098 76.6571 5.60911C76.8648 5.78842 77 5.65345 77 5.31354V0.000244141H55.3783C55.0354 0.000244141 54.9003 0.170687 55.0802 0.375614C55.3708 1.14061 55.5027 1.95592 55.4677 2.77266V16.2633C55.5027 17.08 55.3708 17.8953 55.0802 18.6603C54.8993 18.8663 55.0354 19.0002 55.3783 19.0002H76.998V13.3559C76.998 13.016 76.8629 12.882 76.6552 13.0603C75.8835 13.3485 75.0611 13.4792 74.2373 13.4446H67.3703C67.3245 13.4475 67.2786 13.4407 67.2357 13.4246C67.1928 13.4085 67.1538 13.3836 67.1213 13.3514C67.0889 13.3193 67.0638 13.2806 67.0476 13.2381C67.0314 13.1955 67.0245 13.1501 67.0274 13.1047V12.0584Z" fill="#0057A4"/>
<path d="M110.994 19.0002C110.994 19.0002 103.853 2.01965 103.754 1.74189C103.604 1.35663 103.594 0.930515 103.728 0.53895C103.908 0.0990892 103.754 0.000244141 103.45 0.000244141H86.7268C86.4215 0.000244141 86.2694 0.0990892 86.4492 0.53895C86.5873 0.929764 86.5778 1.35759 86.4225 1.74189C86.3237 2.01965 80 19.0002 80 19.0002H90.276C90.5181 19.0002 90.5724 18.8836 90.4914 18.7225C90.4058 18.4487 90.4184 18.1537 90.527 17.8882L91.0744 16.0576C91.1146 15.8653 91.2277 15.696 91.39 15.5854C91.5524 15.4748 91.7513 15.4315 91.9449 15.4646H96.4663C96.6601 15.4302 96.8596 15.473 97.0223 15.5838C97.1849 15.6946 97.2978 15.8647 97.3368 16.0576L97.8842 17.8882C97.9928 18.1537 98.0054 18.4487 97.9198 18.7225C97.8388 18.8935 97.8931 19.0002 98.1352 19.0002H111H110.994ZM92.7739 11.7144C92.6128 11.7055 92.5941 11.5345 92.6395 11.4178L93.7521 8.77966C93.7966 8.69861 93.8242 8.62744 93.922 8.62744C94.0199 8.62744 94.0475 8.7085 94.093 8.77966L95.2056 11.4178C95.25 11.5345 95.2322 11.6956 95.0712 11.7144H92.7739Z" fill="#0057A4"/>
</g>
<defs>
<clipPath id="clip0_4_770">
<rect width="111" height="19" fill="white" transform="translate(0 0.000244141)"/>
</clipPath>
</defs>
</svg>
