<svg width="128" height="75" viewBox="0 0 128 75" fill="none" xmlns="http://www.w3.org/2000/svg">
<g clip-path="url(#clip0_4_4067)">
<path d="M108 68H61" stroke="white" stroke-linecap="round" stroke-linejoin="round"/>
<path d="M2 74C2.08673 67.173 2.07784 60.3431 2.08981 53.5181C2.09978 48.3175 2.09678 43.1091 2.00706 37.9056C1.97516 36.0203 2.01896 36.042 4.03465 36.209C4.70257 36.2643 5.38951 36.0667 6.06639 36.0657C17.3611 36.0559 28.6558 36.0559 39.9505 36.0657C40.9105 36.0657 41.8935 35.7762 43 36.4125V47.9786" stroke="white" stroke-linecap="round" stroke-linejoin="round"/>
<path d="M4.01958 36C3.94443 35.0407 4.08625 34.0764 4.43368 33.1834C15.0366 33.1834 25.7137 33.2072 36.3899 33.1368C37.2119 33.1316 38.4298 34.0619 38.8669 32.8022C39.0561 31.9379 39.0435 31.0395 38.8299 30.1813C38.6104 28.931 39.1577 27.6103 38.7587 26.1413C35.9378 26.1413 33.0969 26.1413 30.256 26.1413C29.9249 26.1987 29.5857 26.1821 29.2613 26.0928C28.937 26.0034 28.6347 25.8434 28.3751 25.6234C26.4374 23.6272 23.9324 23.9794 21.5706 24.1078C20.8039 24.1947 20.056 24.4098 19.3562 24.7449C18.9232 24.9366 18.3758 25.0888 18.5001 25.7922" stroke="white" stroke-linecap="round" stroke-linejoin="round"/>
<path d="M40 59.5005V71H33V48H40V59.1656" stroke="white" stroke-linecap="round" stroke-linejoin="round"/>
<path d="M44.1823 74C44.2678 70.0216 44.8126 66.0802 45.1586 62.1228C45.4561 60.2165 45.6 58.2907 45.5883 56.3628C45.4511 55.6046 45.6278 54.8245 46.0804 54.1919C45.2198 52.8784 44.5215 51.4715 44 50H59.7769C60.02 50.7765 59.4557 51.3205 59.1828 51.7496C58.6588 52.6186 58.3254 53.583 58.2037 54.5825C58.0819 55.5821 58.1745 56.5952 58.4752 57.5585C58.6721 58.9621 58.7932 60.3746 58.8378 61.7904C59.2189 65.1101 59.3702 68.4547 59.571 71.7913C59.6163 72.5458 60.1889 73.2055 59.9356 73.995" stroke="white" stroke-linecap="round" stroke-linejoin="round"/>
<path d="M5.19342 53.2234C5.11694 53.7256 5.06586 54.2318 5.04059 54.7398C5.02865 59.7387 5.02865 64.7376 5.04059 69.7365C5.04059 70.1262 4.86328 70.5646 5.24981 71H12V48H5.03023V52.8862" stroke="white" stroke-linecap="round" stroke-linejoin="round"/>
<path d="M54.1808 20.3274C54.2894 20.2182 54.4565 20.1273 54.4988 19.9959C55.0989 18.1124 55.0605 18.1356 53.0382 18.1704C51.5141 18.2961 49.981 18.2533 48.4662 18.0428C48.2018 17.9772 47.9245 17.9872 47.6654 18.0717C47.4063 18.1562 47.1759 18.3119 47 18.5212C47.4302 19.2064 47.3205 20.1834 48.0484 20.5738H54.0983C54.4027 24.0982 54.7013 27.5491 55 31" stroke="white" stroke-linecap="round" stroke-linejoin="round"/>
<path d="M27 26C24.0607 26.2339 21.1115 26.2896 18.1664 26.1669C14.4998 26.2197 10.8323 26.1795 7 26.1795V33" stroke="white" stroke-linecap="round" stroke-linejoin="round"/>
<path d="M99 37C98.5601 37.2057 98.0824 37.3261 97.5941 37.3542C93.0812 37.3263 88.5682 37.3422 84.0553 37.3313C83.6996 37.3044 83.3467 37.2502 83 37.1691" stroke="white" stroke-linecap="round" stroke-linejoin="round"/>
<path d="M56.8934 50C56.7071 49.4384 56.5913 48.8535 56.5488 48.2601C56.3616 44.5483 56.1443 40.8385 55.8971 37.1307C55.7626 35.1462 55.7182 35.1493 57 32H46.1151C46.0042 32.2983 45.9727 32.623 46.0239 32.9389C46.0751 33.2548 46.2071 33.5498 46.4056 33.7921C47.396 35.3273 47.1181 36.9424 46.8209 38.5145C46.616 40.0753 46.4959 41.6472 46.4609 43.2225C46.1649 45.4666 46.0205 47.7302 46.0291 49.9959" stroke="white" stroke-linecap="round" stroke-linejoin="round"/>
<path d="M44 41H1" stroke="white" stroke-linecap="round" stroke-linejoin="round"/>
<path d="M64 45C63.3785 45.9003 63.0756 46.9942 63.1422 48.098C63.1981 53.4906 63.1696 58.8842 63.1628 64.2778C63.2424 64.8571 63.1866 65.4476 63 66" stroke="white" stroke-linecap="round" stroke-linejoin="round"/>
<path d="M114 43.0717C113.409 43.1079 112.815 43.1039 112.225 43.0596C109.455 42.6748 107.794 44.2057 106.376 46.1545C106.105 46.56 105.974 47.0384 106.004 47.5202C106.023 53.3948 106.014 59.2704 106.023 65.1449C106.052 65.4345 106.108 65.7208 106.193 66" stroke="white" stroke-linecap="round" stroke-linejoin="round"/>
<path d="M80 44C78.3182 46.3483 79.2871 49.0027 79.1967 51.5021C79.023 56.3292 79.1464 61.166 79.1464 66" stroke="white" stroke-linecap="round" stroke-linejoin="round"/>
<path d="M73.0019 44C72.9507 45.1378 73.9334 45.4948 74.3559 46.2825C74.6993 46.89 74.8751 47.6057 74.8597 48.3335C74.8597 53.6661 74.8597 58.9992 74.8597 64.3325C74.7918 64.8934 74.8399 65.4652 75 66" stroke="white" stroke-linecap="round" stroke-linejoin="round"/>
<path d="M90 40.3378C89.6817 39.9358 89.2223 40.0044 88.7856 40.0044H79.2291C79.1536 40.33 79.0507 40.5143 79.0854 40.6683C79.2997 41.6155 78.4149 43.0578 79.7904 43.4255C81.0515 43.7628 81.1933 42.0891 82.2799 41.5841C83.9125 43.1686 85.897 44.764 85.341 47.6712C85.2611 48.4453 85.2536 49.2247 85.3185 50" stroke="white" stroke-linecap="round" stroke-linejoin="round"/>
<path d="M69.1665 46C69.1665 52.1014 69.1665 58.2028 69.1665 64.3042C69.2479 64.8746 69.1908 65.4561 69 66" stroke="white" stroke-linecap="round" stroke-linejoin="round"/>
<path d="M102.225 45C101.794 48.0086 102.124 51.0293 102.07 54.049C102.003 58.0313 102.053 62.0156 102.053 66" stroke="white" stroke-linecap="round" stroke-linejoin="round"/>
<path d="M88.1662 53C88.1662 56.7778 88.1662 60.5553 88.1662 64.3324C88.2475 64.8933 88.1906 65.4651 88 66" stroke="white" stroke-linecap="round" stroke-linejoin="round"/>
<path d="M100.166 53C100.166 56.7778 100.166 60.5553 100.166 64.3324C100.248 64.8933 100.191 65.4651 100 66" stroke="white" stroke-linecap="round" stroke-linejoin="round"/>
<path d="M94.0361 53C94.0361 56.7778 94.0361 60.5553 94.0361 64.3324C93.9546 64.8933 94.0117 65.4651 94.2025 66" stroke="white" stroke-linecap="round" stroke-linejoin="round"/>
<path d="M86 53V66" stroke="white" stroke-linecap="round" stroke-linejoin="round"/>
<path d="M96 53V66" stroke="white" stroke-linecap="round" stroke-linejoin="round"/>
<path d="M82.0361 53C82.0361 56.7778 82.0361 60.5553 82.0361 64.3324C81.9546 64.8933 82.0117 65.4651 82.2025 66" stroke="white" stroke-linecap="round" stroke-linejoin="round"/>
<path d="M46 54H57" stroke="white" stroke-linecap="round" stroke-linejoin="round"/>
<path d="M83 37C81.0743 37.428 79.1002 36.9947 77 37.2814V43" stroke="white" stroke-linecap="round" stroke-linejoin="round"/>
<path d="M105 43V37.2825C102.896 37.0117 100.924 37.4002 99 37" stroke="white" stroke-linecap="round" stroke-linejoin="round"/>
<path d="M48 21C47.8892 21.2155 47.6814 21.4301 47.6814 21.6446C47.6814 24.7773 47.2236 27.8815 47 31" stroke="white" stroke-linecap="round" stroke-linejoin="round"/>
<path d="M80 50H102" stroke="white" stroke-linecap="round" stroke-linejoin="round"/>
<path d="M86 44.7924C87.7025 43.4421 89.5809 42.2768 90.7927 40.4318C90.8502 40.3037 90.9461 40.1944 91.0684 40.1177C91.1908 40.0409 91.3343 40 91.481 40C91.6277 40 91.771 40.0409 91.8933 40.1177C92.0157 40.1944 92.1116 40.3037 92.1691 40.4318C93.0297 42.0384 94.652 42.9227 95.9659 44.0634C96.3204 44.3254 96.5998 44.6679 96.7786 45.0592C96.9574 45.4505 97.0297 45.8783 96.989 46.3031C96.9348 47.5337 96.9755 48.7674 96.9755 50" stroke="white" stroke-linecap="round" stroke-linejoin="round"/>
<path d="M67 35C65.8968 35.3409 64.8292 35.7765 63.8106 36.3015C62.8043 36.8862 62.0069 37.7417 61.5215 38.7574C61.0361 39.7731 60.8849 40.9025 61.0874 42" stroke="white" stroke-linecap="round" stroke-linejoin="round"/>
<path d="M16.0253 41C16.0253 43.4334 16.0193 45.8678 16.0253 48.3011C16.0253 48.8827 15.8628 49.5093 16.3612 50" stroke="white" stroke-linecap="round" stroke-linejoin="round"/>
<path d="M126 47.1917C122.339 46.8196 118.665 47.122 115 47.0225" stroke="white" stroke-linecap="round" stroke-linejoin="round"/>
<path d="M55 35H47" stroke="white" stroke-linecap="round" stroke-linejoin="round"/>
<path d="M83.1819 32C82.5391 29.7149 83.6601 28.1728 85.5948 26.8905C89.9137 24.0295 94.4585 24.597 98.223 27.3764C98.9677 27.9048 99.517 28.6328 99.7955 29.4604C100.074 30.288 100.068 31.1747 99.7783 31.9991" stroke="white" stroke-linecap="round" stroke-linejoin="round"/>
<path d="M102.738 45C103.232 43.4133 102.73 41.8277 103 40.0169C99.158 40.2485 95.5689 39.6215 92 40.4251" stroke="white" stroke-linecap="round" stroke-linejoin="round"/>
<path d="M17 53.242C13.5184 52.9126 10.0279 53.0937 6.54228 53.1116C5.37015 53.1176 4.16022 52.7842 3 53.242" stroke="white" stroke-linecap="round" stroke-linejoin="round"/>
<path d="M15 60.0021C11.2734 60.0021 7.55567 59.9941 3.83399 60.0091C3.22204 60.0091 2.61194 60.1146 2 60.1703" stroke="white" stroke-linecap="round" stroke-linejoin="round"/>
<path d="M43 60.0014C39.1942 60.0014 35.3873 59.9954 31.5815 60.0084C31.0517 60.0353 30.5238 60.089 30 60.1695" stroke="white" stroke-linecap="round" stroke-linejoin="round"/>
<path d="M30 53H43" stroke="white" stroke-linecap="round" stroke-linejoin="round"/>
<path d="M120 41C119.636 41.2453 119.257 41.4723 118.866 41.6801C115.844 43.1068 114.455 45.1207 115.196 48.3889C115.522 49.8307 114.921 51.4572 115.287 53" stroke="white" stroke-linecap="round" stroke-linejoin="round"/>
<path d="M120.061 40C119.933 40.5505 120.008 41.1257 120.272 41.6307C120.537 42.1357 120.976 42.5402 121.517 42.7772C122.171 43.116 122.784 43.5212 123.346 43.9857C123.847 44.3842 124.242 44.8875 124.502 45.4556C124.762 46.0238 124.879 46.6413 124.843 47.2594C124.682 49.5062 124.734 51.7621 125 54" stroke="white" stroke-linecap="round" stroke-linejoin="round"/>
<path d="M99 30.6582C96.9933 30.8517 94.977 30.271 92.9761 30.9814C92.5422 31.1362 92.3372 30.2826 92 30" stroke="white" stroke-linecap="round" stroke-linejoin="round"/>
<path d="M90 30C89.6629 30.2826 89.4579 31.1362 89.0231 30.9814C87.0234 30.2652 85.0064 30.8536 83 30.6582" stroke="white" stroke-linecap="round" stroke-linejoin="round"/>
<path d="M108 66.158C104.618 66.1012 101.236 65.9587 97.8545 66.0115C93.9087 66.0783 89.9641 66.0284 86.0183 66.0524C81.6803 66.0783 77.3415 66.1115 73.0015 66.1521C69.0011 66.1889 65.0005 66.16 61 66.16" stroke="white" stroke-linecap="round" stroke-linejoin="round"/>
<path d="M127 63.8139C126.152 63.5766 125.553 62.4651 124.39 63.3157C123.901 63.6203 123.511 64.0658 123.27 64.596C123.028 65.1263 122.946 65.7176 123.034 66.2952C123.067 66.8629 123.07 67.432 123.044 68" stroke="white" stroke-linecap="round" stroke-linejoin="round"/>
<path d="M117.007 68C117.007 67.1144 116.998 66.2288 117.007 65.3441C116.981 65.0439 117.027 64.7422 117.14 64.4581C117.253 64.174 117.433 63.9136 117.666 63.6934C117.9 63.4732 118.183 63.2979 118.497 63.1785C118.811 63.0592 119.15 62.9984 119.493 63C120.107 63.1046 120.672 63.3692 121.113 63.7595C121.554 64.1498 121.852 64.6478 121.967 65.1887C122.032 66.1231 121.981 67.0629 121.981 68" stroke="white" stroke-linecap="round" stroke-linejoin="round"/>
<path d="M110 64.1088C111.599 62.775 112.306 62.6761 113.361 63.6425C113.592 63.8561 113.77 64.1231 113.878 64.421C113.987 64.7189 114.024 65.0391 113.985 65.3545C113.937 66.2339 113.974 67.1179 113.974 68" stroke="white" stroke-linecap="round" stroke-linejoin="round"/>
<path d="M110.976 58.1376C110.976 57.1036 110.942 56.0655 110.986 55.0355C111.034 54.5829 110.958 54.1216 110.776 53.7441C110.593 53.3666 110.316 53.1008 110 53V74" stroke="white" stroke-linecap="round" stroke-linejoin="round"/>
<path d="M75 52H69" stroke="white" stroke-linecap="round" stroke-linejoin="round"/>
<path d="M53 4C53.7233 5.32226 53.4487 6.7618 53.8842 8.11799C54.1184 8.84698 53.2631 9.81247 54.7646 10.2826C54.8706 10.3156 54.8562 10.717 54.7646 10.9147C54.1358 12.4748 54.1312 14.1367 54.7516 15.6987C54.9922 16.4403 54.5644 17.2497 55 18" stroke="white" stroke-linecap="round" stroke-linejoin="round"/>
<path d="M54 10C52.0734 10.4525 50.0442 9.92122 48 10.2277C48.5731 11.3806 49.0007 12.1194 48.6013 13.2924C48.1038 14.7528 48.3746 16.4196 48.313 18" stroke="white" stroke-linecap="round" stroke-linejoin="round"/>
<path d="M82 34H75V43" stroke="white" stroke-linecap="round" stroke-linejoin="round"/>
<path d="M100 34H106.495C107.004 35.7445 106.229 37.4605 107 39" stroke="white" stroke-linecap="round" stroke-linejoin="round"/>
<path d="M61 52.444C61.7973 51.7256 62.7667 52.0788 63.6091 52.1455C65.4023 52.3355 67.21 52.3208 69 52.1017" stroke="white" stroke-linecap="round" stroke-linejoin="round"/>
<path d="M103 52.1692C93.9997 52.1334 84.9982 52.3274 76 52" stroke="white" stroke-linecap="round" stroke-linejoin="round"/>
<path d="M50 4C48.8984 5.93259 50.081 8.06634 49 10" stroke="white" stroke-linecap="round" stroke-linejoin="round"/>
<path d="M75 39C73.7263 36.9821 71.8593 35.9955 70 35" stroke="white" stroke-linecap="round" stroke-linejoin="round"/>
<path d="M113 35C112.01 35.7987 110.671 35.8745 109.567 36.5421C107.336 37.8914 106.818 39.75 107.051 42" stroke="white" stroke-linecap="round" stroke-linejoin="round"/>
<path d="M69 69V74" stroke="white" stroke-linecap="round" stroke-linejoin="round"/>
<path d="M127 58.6888C127.109 57.1128 126.687 55.4075 127.676 54C128.162 55.577 127.954 57.2401 127.965 58.8553C127.975 60.5733 127.955 62.2936 127.905 64.0162C127.854 65.6686 127.89 67.3464 127.913 69.0047C127.935 70.6629 127.913 72.3349 127.981 74" stroke="white" stroke-linecap="round" stroke-linejoin="round"/>
<path d="M126 53.6977C125.8 53.4128 125.508 53.1983 125.169 53.0864C124.83 52.9744 124.462 52.9712 124.121 53.0773C123.724 53.268 123.404 53.5776 123.209 53.9588C123.013 54.34 122.953 54.772 123.037 55.1889C123.102 56.1247 123.111 57.0633 123.062 58" stroke="white" stroke-linecap="round" stroke-linejoin="round"/>
<path d="M99.8054 40C99.7342 37.9208 99.791 35.8391 99.9756 33.7671C100.115 32.6993 99.6572 32.201 98.6157 32.3895C96.0318 32.8582 93.5188 32.0206 90.9549 32.0002C87.7691 31.9748 84.5684 33.9199 84.1157 37.2254C84.0987 37.3487 84.0595 37.8368 83.4335 37.7084C82.8216 36.883 83.2232 35.7978 83.133 34.8054C82.9578 32.9417 81.4707 32.043 79.5458 32.3345C79.0015 32.3632 78.4755 32.5446 78.0262 32.8586C77.5769 33.1726 77.2217 33.607 77 34.1136" stroke="white" stroke-linecap="round" stroke-linejoin="round"/>
<path d="M95 32C96.2394 33.1478 97.5624 34.2326 98 36" stroke="white" stroke-linecap="round" stroke-linejoin="round"/>
<path d="M110 69H127" stroke="white" stroke-linecap="round" stroke-linejoin="round"/>
<path d="M79 43C76.8708 43.4425 74.6989 43.1478 72.5558 43.2383C70.3209 43.3355 68.0382 43.2742 65.7804 43.1634C65.5594 43.1414 65.3376 43.1963 65.154 43.3184C64.9704 43.4404 64.8369 43.6218 64.7771 43.8305C64.3782 45.0423 63.4148 45.022 62.3906 44.9908C61.2617 44.9568 60.1309 44.9831 59 44.9831" stroke="white" stroke-linecap="round" stroke-linejoin="round"/>
<path d="M53 12H49" stroke="white" stroke-linecap="round" stroke-linejoin="round"/>
<path d="M96 44.3301L99.0139 41C99.7822 41.9618 100.422 42.8472 101.156 43.6592C101.514 44.0747 101.976 44.4015 102.5 44.6108C103.024 44.8202 103.595 44.9057 104.163 44.86C105.108 44.707 106.077 44.7548 107 45" stroke="white" stroke-linecap="round" stroke-linejoin="round"/>
<path d="M79 45.2061C77.6793 44.9313 76.3207 44.9313 75 45.2061" stroke="white" stroke-linecap="round" stroke-linejoin="round"/>
<path d="M119 37C117.918 35.9323 116.293 35.7306 115 35" stroke="white" stroke-linecap="round" stroke-linejoin="round"/>
<path d="M59 48V43.021C61.002 42.9599 63.0055 43.032 65 43.2367" stroke="white" stroke-linecap="round" stroke-linejoin="round"/>
<path d="M124 48.4102C122.045 47.5169 121.035 48.0821 121.058 50.1109C120.942 51.0761 121 52.0526 121.232 53" stroke="white" stroke-linecap="round" stroke-linejoin="round"/>
<path d="M111 53.84C111.86 53.3387 112.629 52.3392 113.697 53.6443C113.811 53.7879 113.895 53.9526 113.945 54.1289C113.994 54.3051 114.008 54.4894 113.986 54.6712C114.011 55.7795 113.995 56.8888 113.995 58" stroke="white" stroke-linecap="round" stroke-linejoin="round"/>
<path d="M120 53.9163C119.374 53.5827 118.896 52.6663 118.062 53.1269C117.673 53.3446 117.365 53.6821 117.182 54.0894C117 54.4967 116.953 54.9522 117.048 55.3884C117.108 56.2577 117.116 57.1298 117.07 58" stroke="white" stroke-linecap="round" stroke-linejoin="round"/>
<path d="M123 53.6975C122.799 53.4128 122.507 53.1983 122.168 53.0864C121.829 52.9745 121.462 52.9712 121.121 53.0771C120.724 53.2679 120.404 53.5774 120.209 53.9586C120.013 54.3399 119.953 54.7719 120.037 55.1888C120.102 56.1246 120.111 57.0633 120.062 58" stroke="white" stroke-linecap="round" stroke-linejoin="round"/>
<path d="M114 31V34" stroke="white" stroke-linecap="round" stroke-linejoin="round"/>
<path d="M68.7171 31C68.9547 32.3879 69.4665 33.8027 68 35" stroke="white" stroke-linecap="round" stroke-linejoin="round"/>
<path d="M86 32.2323C84.9692 32.0091 83.9152 31.9463 82.8687 32.0457C82.2885 32.0118 81.997 32.3578 82 33" stroke="white" stroke-linecap="round" stroke-linejoin="round"/>
<path d="M102.012 30C101.971 31.1017 101.954 32.0252 103.335 32.1642C103.744 32.2353 104.123 32.45 104.421 32.7787C104.72 33.1074 104.922 33.5341 105 34" stroke="white" stroke-linecap="round" stroke-linejoin="round"/>
<path d="M51 0V3" stroke="white" stroke-linecap="round" stroke-linejoin="round"/>
<path d="M67 44C67.2385 44.2658 67.4573 44.5474 67.7168 44.7926C69.6451 46.6034 70.6906 46.4078 72 44" stroke="white" stroke-linecap="round" stroke-linejoin="round"/>
<path d="M103 32L100 33" stroke="white" stroke-linecap="round" stroke-linejoin="round"/>
<path d="M91.8211 25C91.943 24.6885 92.0043 24.3441 91.9998 23.996C91.9952 23.6478 91.9248 23.3062 91.7948 23H89.2048C89.0749 23.3062 89.0048 23.6478 89.0002 23.996C88.9957 24.3441 89.0569 24.6884 89.1787 25" stroke="white" stroke-linecap="round" stroke-linejoin="round"/>
<path d="M39 33C39.3001 33.0629 39.5984 33.1533 39.9003 33.1831C41.9992 33.3883 42 33.3851 42 36" stroke="white" stroke-linecap="round" stroke-linejoin="round"/>
<path d="M109 43.2399C107.009 42.9933 105.001 42.9367 103 43.0707" stroke="white" stroke-linecap="round" stroke-linejoin="round"/>
<path d="M103 52H109" stroke="white" stroke-linecap="round" stroke-linejoin="round"/>
<path d="M110 44C110.292 45.2499 111.806 45.6854 112 47" stroke="white" stroke-linecap="round" stroke-linejoin="round"/>
<path d="M115 54C116 52.4077 117 52.9532 118 54" stroke="white" stroke-linecap="round" stroke-linejoin="round"/>
<path d="M121 48.7648C120.309 48.5861 120.012 47.6305 118.889 48.1561C117.65 48.7368 118.146 49.5959 118.086 50.3552C117.902 51.2486 118.015 52.1788 118.405 53" stroke="white" stroke-linecap="round" stroke-linejoin="round"/>
<path d="M114 45L112 45.1691" stroke="white" stroke-linecap="round" stroke-linejoin="round"/>
<path d="M116 48.5306C116.222 48.3258 116.476 48.1753 116.748 48.0879C117.021 48.0005 117.305 47.978 117.585 48.0217C117.864 48.0655 118.134 48.1746 118.377 48.3426C118.62 48.5107 118.832 48.7342 119 49" stroke="white" stroke-linecap="round" stroke-linejoin="round"/>
<path d="M91 20V23" stroke="white" stroke-linecap="round" stroke-linejoin="round"/>
</g>
<defs>
<clipPath id="clip0_4_4067">
<rect width="128" height="75" fill="white"/>
</clipPath>
</defs>
</svg>
