<svg width="69" height="21" viewBox="0 0 69 21" fill="none" xmlns="http://www.w3.org/2000/svg">
<g clip-path="url(#clip0_4_752)">
<path d="M59.3498 16.9942C61.1225 16.9196 62.8753 16.5753 64.5527 15.9723L63.6052 20.2274C61.3511 20.7205 59.0558 20.9793 56.7528 20.9999C48.5505 21.0429 45.0206 16.6427 45 12.074C44.9834 5.95819 51.2807 -0.141335 61.4202 0.0027475C63.3114 0.0314661 65.1895 0.335866 67 0.907102L65.6589 5.92852H64.9737C64.1386 4.78301 62.8641 3.91954 60.3483 3.91954C55.2169 3.91954 52.0335 6.85435 52.0482 10.7732C52.0609 14.3109 54.9849 17.0126 59.3528 16.9901" fill="#FF0000"/>
<path d="M30.3731 0.000244141L30.0605 1.30519C30.3068 1.31871 30.5464 1.39311 30.759 1.52208C30.9716 1.65105 31.151 1.8308 31.2821 2.04623C31.4132 2.26165 31.4921 2.50642 31.5122 2.75987C31.5322 3.01333 31.4929 3.26807 31.3975 3.50256L27 19.9872L35.794 20.0002L36.1231 18.5818C35.9143 18.5419 35.7157 18.4581 35.5397 18.3355C35.3637 18.213 35.214 18.0544 35.1001 17.8696C34.9862 17.6848 34.9104 17.4778 34.8775 17.2615C34.8446 17.0452 34.8553 16.8242 34.9088 16.6124C34.941 16.4748 36.1971 11.7248 36.1971 11.7248L40.2333 11.7117C40.7292 11.6572 41.2305 11.7276 41.6942 11.9168C42.1579 12.106 42.5702 12.4083 42.8956 12.7979L44.0641 7.9043H37.2751L38.2819 4.05869H44.1829C45.2647 4.05869 46.033 4.80554 46.033 5.35764H46.6991L48 0.00324627H30.375" fill="#FF0000"/>
<path d="M23.1356 17.0286C22.6189 16.4601 18.1456 9.19576 18.1456 9.19576L26.3227 2.37755C26.9429 1.71447 27.7885 1.33236 28.6768 1.31374L29 0.000244141L18.8344 0.0082611L18.5159 1.31172C19.2096 1.35383 20.1773 1.99758 19.3818 2.76463C19.2856 2.85988 11.2142 9.28199 11.2142 9.28199L12.9545 2.7175C13.0763 2.34446 13.2967 2.01481 13.5903 1.76649C13.8838 1.51816 14.2387 1.36123 14.614 1.31374L14.9324 0.00324285H5.22857L4.91398 1.3067C5.15969 1.31775 5.39917 1.39076 5.61188 1.51943C5.82459 1.6481 6.00419 1.82861 6.13528 2.04549C6.26637 2.26237 6.34505 2.50917 6.36457 2.76469C6.38409 3.02021 6.34386 3.27683 6.24734 3.51259C3.00342 15.7101 3.37861 14.5039 3.16889 15.1716C2.28095 18.689 0.851392 18.5156 0.334789 18.5527L0 19.9695H10.1502L10.4937 18.5437C10.4937 18.5437 8.8775 18.2068 9.18823 16.9905C9.49127 15.7873 10.7698 10.9895 10.7698 10.9895C12.0937 13.18 13.5251 15.2977 15.0584 17.3344C17.1749 20.3785 19.4414 19.9835 25.4482 19.9835L25.783 18.5667C25.2644 18.5193 24.7612 18.3578 24.3069 18.0929C23.8525 17.8279 23.4572 17.4655 23.1471 17.0296" fill="#FF0000"/>
<path fill-rule="evenodd" clip-rule="evenodd" d="M67.3317 0.391778C67.1676 0.553265 67.0757 0.770601 67.0757 0.996996C67.0757 1.22339 67.1676 1.44079 67.3317 1.60228C67.4116 1.68724 67.509 1.75493 67.6178 1.801C67.7265 1.84706 67.8441 1.87042 67.9628 1.86957C68.0824 1.87019 68.2009 1.84676 68.3107 1.80074C68.4204 1.75471 68.5191 1.68715 68.6003 1.60228C68.7227 1.47982 68.8053 1.3254 68.838 1.15809C68.8706 0.990788 68.8519 0.817886 68.7841 0.660749C68.7163 0.503613 68.6024 0.369101 68.4564 0.273803C68.3105 0.178506 68.1389 0.126612 67.9628 0.12449C67.8444 0.125616 67.7274 0.149837 67.619 0.19578C67.5106 0.241722 67.4128 0.308387 67.3317 0.391778ZM68.698 1.70407C68.603 1.79971 68.4885 1.87536 68.3618 1.92629C68.2351 1.97722 68.0989 2.00238 67.9617 2.0001C67.7004 1.98169 67.456 1.86831 67.2776 1.68283C67.0992 1.49734 67 1.2535 67 1.00023C67 0.746965 67.0992 0.503057 67.2776 0.317574C67.456 0.132091 67.7004 0.0187747 67.9617 0.00036432C68.0984 -0.00170892 68.2342 0.0230613 68.3608 0.073208C68.4874 0.123355 68.6021 0.197795 68.698 0.292063C68.796 0.38406 68.8732 0.494567 68.9252 0.616655C68.9771 0.738743 69.0025 0.869813 68.9998 1.00179C69.0021 1.13277 68.9765 1.26281 68.9246 1.38381C68.8727 1.50481 68.7956 1.61421 68.698 1.70517M68.1493 0.618856C68.0736 0.588815 67.9916 0.576786 67.9101 0.583826H67.74V0.975305H67.92C67.9842 0.980797 68.0488 0.971689 68.1087 0.948757C68.145 0.938401 68.1764 0.916281 68.1978 0.886144C68.2192 0.856006 68.2292 0.819682 68.2261 0.783256C68.2309 0.751733 68.2263 0.719569 68.2129 0.69047C68.1995 0.66137 68.1767 0.636557 68.1493 0.618856ZM67.9386 0.444873C68.044 0.439955 68.1494 0.45433 68.2492 0.487284C68.3052 0.507242 68.3528 0.544686 68.3844 0.593668C68.416 0.642651 68.4298 0.700389 68.4237 0.757809C68.4279 0.799577 68.4199 0.841614 68.4004 0.879151C68.381 0.916688 68.351 0.948212 68.3139 0.969995C68.2651 1.00327 68.2078 1.02303 68.1482 1.02723C68.1865 1.03018 68.2236 1.04121 68.257 1.05954C68.2904 1.07787 68.3192 1.10309 68.3414 1.13336C68.3807 1.18161 68.4047 1.23978 68.4105 1.30093V1.38796C68.4079 1.41371 68.4079 1.43964 68.4105 1.4654C68.4105 1.50041 68.4105 1.52161 68.4105 1.53222H68.4193H68.247V1.51843V1.47174V1.39113C68.2534 1.34218 68.2467 1.29244 68.2275 1.24674C68.2082 1.20103 68.1772 1.16093 68.1372 1.13019C68.0675 1.10362 67.9926 1.09199 67.9178 1.09619H67.762V1.53436H67.5589V0.43529L67.9386 0.444873Z" fill="#FF0000"/>
</g>
<defs>
<clipPath id="clip0_4_752">
<rect width="69" height="21" fill="white" transform="translate(0 0.000244141)"/>
</clipPath>
</defs>
</svg>
