<svg width="232" height="35" viewBox="0 0 232 35" fill="none" xmlns="http://www.w3.org/2000/svg">
<path d="M24 35.0005H21.145C18.3309 35.0005 16 32.5088 16 29.5005V24.0005H23.9966V34.9968L24 35.0005Z" fill="#1163FB"/>
<path d="M12.0414 0.000711441L24 0.0896606V13.7923C24 15.323 23.4564 16.6388 22.4048 17.7322L15.4414 25.0005L11.8317 24.956C5.2449 24.9152 -0.0842575 19.2667 0.00100913 12.3913C0.0436424 5.51586 5.45452 -0.04006 12.0414 0.000711441ZM11.8744 21.2311L13.8888 21.2755L18.5856 16.372C19.1753 15.7604 19.6336 15.0599 19.9285 14.2704C20.2625 13.5254 20.3904 12.6952 20.3904 11.776L20.433 3.80719L18.6282 3.76642V11.776C18.6282 12.432 18.5003 12.9991 18.2942 13.5699C18.0846 14.0962 17.7471 14.6188 17.3279 15.0562L11.4125 21.2274H11.8744V21.2311ZM7.55066 19.9635L13.2564 13.9665C13.8853 13.3512 14.3471 12.6544 14.642 11.8649C14.9369 11.1199 15.1039 10.286 15.1039 9.37053V3.76642L13.3417 3.72195V9.37053C13.299 10.0266 13.2173 10.5974 13.0077 11.1644C12.7981 11.6908 12.4641 12.2171 12.0023 12.6544L6.12599 18.7848C6.54522 19.2222 7.04971 19.6151 7.55066 19.9672V19.9635ZM4.11157 15.5862L7.97344 11.5573C8.55964 10.9458 9.02149 10.2452 9.31637 9.45577C9.65034 8.71078 9.77825 7.88055 9.77825 6.96135L9.82088 4.02959C9.19204 4.20379 8.5632 4.42245 8.01607 4.77456V6.96135C8.01607 7.61739 7.89172 8.18819 7.68211 8.75527C7.47249 9.28158 7.13499 9.80788 6.71576 10.2452L3.61062 13.4846C3.69589 14.2296 3.86288 14.9265 4.11513 15.5862H4.11157Z" fill="#1163FB"/>
<path d="M42.3244 20.6482H45.4266L47.264 23.0303L48.5751 24.5815L51.7235 28.6255H48.3996L46.2576 25.911L45.3435 24.6184L42.3244 20.6482ZM52.1759 17.5459C52.1759 19.5833 51.7943 21.3284 51.031 22.781C50.2739 24.2275 49.2398 25.3355 47.9288 26.1049C46.6238 26.8743 45.1435 27.259 43.4877 27.259C41.8319 27.259 40.3485 26.8743 39.0374 26.1049C37.7325 25.3293 36.6984 24.2183 35.9351 22.7718C35.178 21.3191 34.7995 19.5772 34.7995 17.5459C34.7995 15.5085 35.178 13.7666 35.9351 12.3201C36.6984 10.8674 37.7325 9.75641 39.0374 8.98699C40.3485 8.21758 41.8319 7.83287 43.4877 7.83287C45.1435 7.83287 46.6238 8.21758 47.9288 8.98699C49.2398 9.75641 50.2739 10.8674 51.031 12.3201C51.7943 13.7666 52.1759 15.5085 52.1759 17.5459ZM48.732 17.5459C48.732 16.1118 48.5074 14.9022 48.058 13.9174C47.6148 12.9264 46.9993 12.1785 46.2114 11.6738C45.4235 11.1629 44.5156 10.9074 43.4877 10.9074C42.4598 10.9074 41.5519 11.1629 40.764 11.6738C39.9761 12.1785 39.3575 12.9264 38.9082 13.9174C38.465 14.9022 38.2434 16.1118 38.2434 17.5459C38.2434 18.9801 38.465 20.1927 38.9082 21.1837C39.3575 22.1686 39.9761 22.9164 40.764 23.4273C41.5519 23.9321 42.4598 24.1844 43.4877 24.1844C44.5156 24.1844 45.4235 23.9321 46.2114 23.4273C46.9993 22.9164 47.6148 22.1686 48.058 21.1837C48.5074 20.1927 48.732 18.9801 48.732 17.5459ZM67.3595 8.0914H70.7849V20.4451C70.7849 21.7993 70.4649 22.9903 69.8247 24.0182C69.1907 25.0462 68.2982 25.8494 67.1472 26.428C65.9961 27.0005 64.6512 27.2867 63.1123 27.2867C61.5674 27.2867 60.2194 27.0005 59.0683 26.428C57.9173 25.8494 57.0248 25.0462 56.3908 24.0182C55.7568 22.9903 55.4398 21.7993 55.4398 20.4451V8.0914H58.8652V20.1589C58.8652 20.9467 59.0375 21.6485 59.3822 22.264C59.7331 22.8795 60.2255 23.3627 60.8595 23.7136C61.4935 24.0583 62.2445 24.2306 63.1123 24.2306C63.9802 24.2306 64.7312 24.0583 65.3652 23.7136C66.0053 23.3627 66.4978 22.8795 66.8425 22.264C67.1872 21.6485 67.3595 20.9467 67.3595 20.1589V8.0914ZM76.9364 27.0005H73.2801L79.9371 8.0914H84.1658L90.832 27.0005H87.1757L82.1253 11.9692H81.9776L76.9364 27.0005ZM77.0564 19.5864H87.028V22.3378H77.0564V19.5864ZM108.862 8.0914V27.0005H105.815L96.905 14.1205H96.748V27.0005H93.3226V8.0914H96.3879L105.288 20.9806H105.455V8.0914H108.862ZM111.763 10.9628V8.0914H126.85V10.9628H121.005V27.0005H117.608V10.9628H111.763ZM141.678 8.0914H145.103V20.4451C145.103 21.7993 144.783 22.9903 144.143 24.0182C143.509 25.0462 142.617 25.8494 141.466 26.428C140.314 27.0005 138.97 27.2867 137.431 27.2867C135.886 27.2867 134.538 27.0005 133.387 26.428C132.236 25.8494 131.343 25.0462 130.709 24.0182C130.075 22.9903 129.758 21.7993 129.758 20.4451V8.0914H133.184V20.1589C133.184 20.9467 133.356 21.6485 133.701 22.264C134.051 22.8795 134.544 23.3627 135.178 23.7136C135.812 24.0583 136.563 24.2306 137.431 24.2306C138.299 24.2306 139.05 24.0583 139.684 23.7136C140.324 23.3627 140.816 22.8795 141.161 22.264C141.506 21.6485 141.678 20.9467 141.678 20.1589V8.0914ZM148.826 8.0914H153.018L158.632 21.7931H158.853L164.467 8.0914H168.659V27.0005H165.372V14.0097H165.197L159.971 26.9451H157.515L152.289 13.982H152.113V27.0005H148.826V8.0914ZM172.389 27.0005V8.0914H175.814V16.0964H184.576V8.0914H188.011V27.0005H184.576V18.9678H175.814V27.0005H172.389ZM195.162 8.0914V27.0005H191.737V8.0914H195.162ZM201.401 8.0914L206.322 22.9749H206.516L211.428 8.0914H215.195L208.529 27.0005H204.3L197.643 8.0914H201.401ZM217.686 27.0005V8.0914H229.984V10.9628H221.111V16.0964H229.347V18.9678H221.111V24.129H230.058V27.0005H217.686Z" fill="white"/>
</svg>
