<svg width="115" height="115" viewBox="0 0 115 115" fill="none" xmlns="http://www.w3.org/2000/svg">
<g clip-path="url(#clip0_4_2011)">
<path d="M114 57.0009C114 68.0766 110.715 78.9036 104.562 88.1126C98.4084 97.3216 89.6623 104.499 79.4296 108.737C69.197 112.976 57.9373 114.085 47.0744 111.924C36.2115 109.763 26.2334 104.429 18.4017 96.5976C10.5701 88.7659 5.23668 78.7876 3.07598 67.9247C0.915285 57.0618 2.02433 45.8021 6.26286 35.5695C10.5014 25.3369 17.6791 16.591 26.8882 10.4376C36.0973 4.28432 46.9243 1 58 1C72.8522 1.00025 87.096 6.90043 97.598 17.4026C108.1 27.9048 114 42.1487 114 57.0009Z" fill="white"/>
<path d="M57 113C87.9279 113 113 87.9279 113 57C113 26.0721 87.9279 1 57 1C26.0721 1 1 26.0721 1 57C1 87.9279 26.0721 113 57 113Z" stroke="black" stroke-width="3" stroke-miterlimit="10"/>
<path d="M57.4954 5.58854C70.3669 5.59701 82.7764 10.4316 92.3156 19.154C101.855 27.8765 107.844 39.8648 109.12 52.7926C110.396 65.7205 106.869 78.6658 99.222 89.1166C91.5754 99.5675 80.355 106.778 67.7382 109.35C55.1213 111.922 42.0078 109.671 30.9424 103.035C19.8769 96.3981 11.6487 85.849 7.8543 73.4345C4.05994 61.02 4.97007 47.6254 10.4081 35.8499C15.8461 24.0745 25.4242 14.7581 37.2837 9.70846C43.6804 6.98548 50.5531 5.58457 57.4954 5.58854ZM57.4954 4C46.9145 4.00092 36.5714 7.16864 27.7741 13.1026C18.9768 19.0365 12.1203 27.4702 8.07158 37.3372C4.02287 47.2043 2.96378 58.0615 5.02824 68.536C7.09269 79.0105 12.188 88.632 19.6698 96.1838C27.1516 103.736 36.684 108.878 47.0615 110.962C57.4391 113.046 68.1958 111.977 77.9714 107.89C87.7471 103.804 96.1027 96.8832 101.982 88.0037C107.861 79.1242 110.999 68.6845 111 58.0047C111 50.9129 109.616 43.8905 106.927 37.3386C104.239 30.7867 100.298 24.8335 95.3292 19.819C90.3609 14.8045 84.4626 10.8269 77.9712 8.11326C71.4798 5.39967 64.5224 4.00325 57.4963 4.00374" fill="black"/>
<mask id="mask0_4_2011" style="mask-type:luminance" maskUnits="userSpaceOnUse" x="1" y="1" width="112" height="112">
<path d="M1 57C1 68.0757 4.28434 78.9028 10.4377 88.1119C16.5911 97.3211 25.3371 104.499 35.5697 108.737C45.8024 112.976 57.0621 114.085 67.925 111.924C78.788 109.763 88.7662 104.43 96.598 96.598C104.43 88.7662 109.763 78.788 111.924 67.925C114.085 57.0621 112.976 45.8024 108.737 35.5697C104.499 25.3371 97.3211 16.5911 88.1119 10.4377C78.9028 4.28434 68.0757 1 57 1C42.1479 1 27.904 6.89998 17.402 17.402C6.89998 27.9041 1 42.1479 1 57Z" fill="white"/>
</mask>
<g mask="url(#mask0_4_2011)">
<path d="M115 41H0V67H115V41Z" fill="black"/>
</g>
<path d="M40.5284 35V30.6364H43.1449V31.1051H41.0568V32.5795H42.9489V33.0483H41.0568V35H40.5284ZM44.0499 35V30.6364H46.6834V31.1051H44.5783V32.5795H46.5471V33.0483H44.5783V34.5312H46.7175V35H44.0499ZM47.8148 35H47.2608L48.8631 30.6364H49.4086L51.0108 35H50.4569L49.1529 31.3267H49.1188L47.8148 35ZM48.0194 33.2955H50.2523V33.7642H48.0194V33.2955ZM50.9421 31.1051V30.6364H54.2148V31.1051H52.8427V35H52.3143V31.1051H50.9421ZM57.894 30.6364H58.4224V33.5256C58.4224 33.8239 58.3521 34.0902 58.2115 34.3246C58.0723 34.5575 57.8755 34.7415 57.6213 34.8764C57.367 35.0099 57.0687 35.0767 56.7264 35.0767C56.3841 35.0767 56.0858 35.0099 55.8315 34.8764C55.5772 34.7415 55.3798 34.5575 55.2392 34.3246C55.1 34.0902 55.0304 33.8239 55.0304 33.5256V30.6364H55.5588V33.483C55.5588 33.696 55.6056 33.8857 55.6994 34.0518C55.7931 34.2166 55.9267 34.3466 56.1 34.4418C56.2747 34.5355 56.4835 34.5824 56.7264 34.5824C56.9693 34.5824 57.1781 34.5355 57.3528 34.4418C57.5275 34.3466 57.661 34.2166 57.7534 34.0518C57.8471 33.8857 57.894 33.696 57.894 33.483V30.6364ZM59.4776 35V30.6364H60.9521C61.293 30.6364 61.5728 30.6946 61.7915 30.8111C62.0103 30.9261 62.1722 31.0845 62.2773 31.2862C62.3825 31.4879 62.435 31.7173 62.435 31.9744C62.435 32.2315 62.3825 32.4595 62.2773 32.6584C62.1722 32.8572 62.011 33.0135 61.7937 33.1271C61.5763 33.2393 61.2987 33.2955 60.9606 33.2955H59.7674V32.8182H60.9435C61.1765 32.8182 61.364 32.7841 61.506 32.7159C61.6495 32.6477 61.7532 32.5511 61.8171 32.4261C61.8825 32.2997 61.9151 32.1491 61.9151 31.9744C61.9151 31.7997 61.8825 31.647 61.8171 31.5163C61.7518 31.3857 61.6474 31.2848 61.5039 31.2138C61.3604 31.1413 61.1708 31.1051 60.935 31.1051H60.006V35H59.4776ZM61.5316 33.0398L62.6055 35H61.9918L60.935 33.0398H61.5316ZM63.3155 35V30.6364H65.949V31.1051H63.8439V32.5795H65.8127V33.0483H63.8439V34.5312H65.9831V35H63.3155ZM68.248 35H66.9015V30.6364H68.3077C68.731 30.6364 69.0932 30.7237 69.3944 30.8984C69.6955 31.0717 69.9263 31.321 70.0868 31.6463C70.2473 31.9702 70.3276 32.358 70.3276 32.8097C70.3276 33.2642 70.2466 33.6555 70.0847 33.9837C69.9228 34.3104 69.687 34.5618 69.3773 34.7379C69.0676 34.9126 68.6912 35 68.248 35ZM67.4299 34.5312H68.214C68.5748 34.5312 68.8738 34.4616 69.111 34.3224C69.3482 34.1832 69.525 33.9851 69.6415 33.728C69.758 33.4709 69.8162 33.1648 69.8162 32.8097C69.8162 32.4574 69.7587 32.1541 69.6436 31.8999C69.5286 31.6442 69.3567 31.4482 69.128 31.3118C68.8993 31.174 68.6145 31.1051 68.2736 31.1051H67.4299V34.5312ZM44.2102 39.8182C44.2102 40.2784 44.1271 40.6761 43.9609 41.0114C43.7947 41.3466 43.5668 41.6051 43.277 41.7869C42.9872 41.9688 42.6563 42.0597 42.2841 42.0597C41.9119 42.0597 41.581 41.9688 41.2912 41.7869C41.0014 41.6051 40.7734 41.3466 40.6072 41.0114C40.4411 40.6761 40.358 40.2784 40.358 39.8182C40.358 39.358 40.4411 38.9602 40.6072 38.625C40.7734 38.2898 41.0014 38.0312 41.2912 37.8494C41.581 37.6676 41.9119 37.5767 42.2841 37.5767C42.6563 37.5767 42.9872 37.6676 43.277 37.8494C43.5668 38.0312 43.7947 38.2898 43.9609 38.625C44.1271 38.9602 44.2102 39.358 44.2102 39.8182ZM43.6989 39.8182C43.6989 39.4403 43.6357 39.1214 43.5092 38.8615C43.3842 38.6016 43.2145 38.4048 43 38.2713C42.7869 38.1378 42.5483 38.071 42.2841 38.071C42.0199 38.071 41.7805 38.1378 41.5661 38.2713C41.353 38.4048 41.1832 38.6016 41.0568 38.8615C40.9318 39.1214 40.8693 39.4403 40.8693 39.8182C40.8693 40.196 40.9318 40.5149 41.0568 40.7749C41.1832 41.0348 41.353 41.2315 41.5661 41.3651C41.7805 41.4986 42.0199 41.5653 42.2841 41.5653C42.5483 41.5653 42.7869 41.4986 43 41.3651C43.2145 41.2315 43.3842 41.0348 43.5092 40.7749C43.6357 40.5149 43.6989 40.196 43.6989 39.8182ZM48.5589 37.6364V42H48.0476L45.6697 38.5739H45.6271V42H45.0987V37.6364H45.6101L47.9964 41.071H48.0391V37.6364H48.5589Z" fill="black"/>
<mask id="mask1_4_2011" style="mask-type:luminance" maskUnits="userSpaceOnUse" x="0" y="1" width="115" height="113">
<path d="M115 1H0V114H115V1Z" fill="white"/>
</mask>
<g mask="url(#mask1_4_2011)">
<path d="M57.0005 15L58.4308 19.1814L63 19.2006L59.3149 21.804L60.7073 26L56.9995 23.4267L53.2917 26L54.6842 21.804L51 19.2052L55.5692 19.186L57.0005 15Z" fill="black"/>
<path d="M48.0004 20L48.7153 22.2826L51 22.2929L49.1583 23.7118L49.8554 26L48.0022 24.596L46.1516 26L46.8488 23.7118L45 22.2957L47.2855 22.2854L48.0004 20Z" fill="black"/>
<path d="M66 20L66.7155 22.2826L69 22.2929L67.1564 23.7109L67.8533 25.9991L66 24.595L64.1458 26L64.8418 23.7118L63 22.291L65.2836 22.2807L66 20Z" fill="black"/>
</g>
<path d="M28.3161 77V73.3636H30.7237V73.9975H29.0849V74.864H30.5639V75.4979H29.0849V77H28.3161ZM31.4135 77H30.5897L31.845 73.3636H32.8358L34.0893 77H33.2654L32.3546 74.1946H32.3262L31.4135 77ZM31.362 75.5707H33.3081V76.1708H31.362V75.5707ZM36.4166 74.4094C36.4024 74.2662 36.3415 74.1549 36.2338 74.0756C36.126 73.9963 35.9798 73.9567 35.7952 73.9567C35.6697 73.9567 35.5638 73.9744 35.4774 74.0099C35.391 74.0443 35.3247 74.0922 35.2785 74.1538C35.2335 74.2153 35.211 74.2852 35.211 74.3633C35.2087 74.4284 35.2223 74.4852 35.2519 74.5337C35.2826 74.5823 35.3247 74.6243 35.3779 74.6598C35.4312 74.6941 35.4927 74.7243 35.5626 74.7504C35.6324 74.7752 35.707 74.7965 35.7863 74.8143L36.113 74.8924C36.2716 74.9279 36.4172 74.9753 36.5498 75.0344C36.6824 75.0936 36.7972 75.1664 36.8943 75.2528C36.9913 75.3393 37.0665 75.4411 37.1198 75.5582C37.1742 75.6754 37.202 75.8098 37.2032 75.9613C37.202 76.1838 37.1452 76.3768 37.0328 76.5401C36.9215 76.7023 36.7605 76.8284 36.5498 76.9183C36.3403 77.0071 36.0876 77.0515 35.7916 77.0515C35.4981 77.0515 35.2424 77.0065 35.0246 76.9165C34.808 76.8266 34.6387 76.6934 34.5168 76.517C34.396 76.3395 34.3327 76.1199 34.3268 75.8583H35.0708C35.079 75.9802 35.114 76.082 35.1755 76.1637C35.2383 76.2442 35.3217 76.3052 35.4259 76.3466C35.5312 76.3868 35.6502 76.407 35.7828 76.407C35.913 76.407 36.026 76.388 36.1219 76.3501C36.219 76.3123 36.2941 76.2596 36.3474 76.1921C36.4007 76.1246 36.4273 76.0471 36.4273 75.9595C36.4273 75.8778 36.403 75.8092 36.3545 75.7536C36.3071 75.6979 36.2373 75.6506 36.145 75.6115C36.0538 75.5724 35.942 75.5369 35.8094 75.505L35.4134 75.4055C35.1069 75.331 34.8648 75.2144 34.6872 75.0558C34.5097 74.8971 34.4215 74.6835 34.4227 74.4148C34.4215 74.1946 34.4801 74.0022 34.5985 73.8377C34.718 73.6732 34.882 73.5447 35.0903 73.4524C35.2986 73.3601 35.5354 73.3139 35.8005 73.3139C36.0704 73.3139 36.306 73.3601 36.5072 73.4524C36.7096 73.5447 36.867 73.6732 36.9795 73.8377C37.0919 74.0022 37.1499 74.1928 37.1535 74.4094H36.4166ZM37.5819 73.9975V73.3636H40.5684V73.9975H39.4551V77H38.6951V73.9975H37.5819ZM41.0602 77V73.3636H43.5105V73.9975H41.829V74.864H43.3844V75.4979H41.829V76.3661H43.5176V77H41.0602ZM46.0944 74.4094C46.0802 74.2662 46.0192 74.1549 45.9115 74.0756C45.8038 73.9963 45.6576 73.9567 45.4729 73.9567C45.3474 73.9567 45.2415 73.9744 45.1551 74.0099C45.0687 74.0443 45.0024 74.0922 44.9562 74.1538C44.9113 74.2153 44.8888 74.2852 44.8888 74.3633C44.8864 74.4284 44.9 74.4852 44.9296 74.5337C44.9604 74.5823 45.0024 74.6243 45.0557 74.6598C45.1089 74.6941 45.1705 74.7243 45.2403 74.7504C45.3102 74.7752 45.3847 74.7965 45.464 74.8143L45.7907 74.8924C45.9494 74.9279 46.095 74.9753 46.2275 75.0344C46.3601 75.0936 46.4749 75.1664 46.572 75.2528C46.6691 75.3393 46.7442 75.4411 46.7975 75.5582C46.8519 75.6754 46.8798 75.8098 46.8809 75.9613C46.8798 76.1838 46.8229 76.3768 46.7105 76.5401C46.5992 76.7023 46.4382 76.8284 46.2275 76.9183C46.018 77.0071 45.7653 77.0515 45.4694 77.0515C45.1758 77.0515 44.9201 77.0065 44.7023 76.9165C44.4857 76.8266 44.3164 76.6934 44.1945 76.517C44.0738 76.3395 44.0104 76.1199 44.0045 75.8583H44.7485C44.7568 75.9802 44.7917 76.082 44.8532 76.1637C44.916 76.2442 44.9994 76.3052 45.1036 76.3466C45.209 76.3868 45.3279 76.407 45.4605 76.407C45.5907 76.407 45.7037 76.388 45.7996 76.3501C45.8967 76.3123 45.9719 76.2596 46.0251 76.1921C46.0784 76.1246 46.105 76.0471 46.105 75.9595C46.105 75.8778 46.0808 75.8092 46.0322 75.7536C45.9849 75.6979 45.915 75.6506 45.8227 75.6115C45.7316 75.5724 45.6197 75.5369 45.4871 75.505L45.0912 75.4055C44.7846 75.331 44.5425 75.2144 44.365 75.0558C44.1874 74.8971 44.0992 74.6835 44.1004 74.4148C44.0992 74.1946 44.1578 74.0022 44.2762 73.8377C44.3957 73.6732 44.5597 73.5447 44.768 73.4524C44.9764 73.3601 45.2131 73.3139 45.4782 73.3139C45.7481 73.3139 45.9837 73.3601 46.1849 73.4524C46.3873 73.5447 46.5448 73.6732 46.6572 73.8377C46.7697 74.0022 46.8277 74.1928 46.8312 74.4094H46.0944ZM47.2596 73.9975V73.3636H50.2461V73.9975H49.1328V77H48.3729V73.9975H47.2596ZM54.3064 74.5391C54.2815 74.4527 54.2466 74.3763 54.2016 74.31C54.1566 74.2425 54.1016 74.1857 54.0365 74.1396C53.9726 74.0922 53.8992 74.0561 53.8163 74.0312C53.7346 74.0064 53.6441 73.994 53.5447 73.994C53.3588 73.994 53.1955 74.0401 53.0546 74.1325C52.9149 74.2248 52.806 74.3591 52.7279 74.5355C52.6498 74.7107 52.6107 74.925 52.6107 75.1783C52.6107 75.4316 52.6492 75.647 52.7261 75.8246C52.8031 76.0021 52.912 76.1377 53.0528 76.2312C53.1937 76.3235 53.36 76.3697 53.5518 76.3697C53.7258 76.3697 53.8743 76.3389 53.9974 76.2773C54.1217 76.2146 54.2164 76.1264 54.2815 76.0128C54.3478 75.8991 54.3809 75.7648 54.3809 75.6097L54.5372 75.6328H53.5997V75.054H55.1214V75.5121C55.1214 75.8317 55.0539 76.1063 54.9189 76.3359C54.784 76.5644 54.5982 76.7408 54.3614 76.8651C54.1247 76.9882 53.8536 77.0497 53.5482 77.0497C53.2073 77.0497 52.9078 76.9746 52.6498 76.8242C52.3917 76.6727 52.1905 76.4579 52.0461 76.1797C51.9028 75.9003 51.8312 75.5689 51.8312 75.1854C51.8312 74.8906 51.8738 74.6278 51.9591 74.397C52.0455 74.165 52.1662 73.9685 52.3213 73.8075C52.4764 73.6465 52.6569 73.524 52.8628 73.44C53.0688 73.3559 53.2919 73.3139 53.5322 73.3139C53.7382 73.3139 53.93 73.3441 54.1075 73.4045C54.2851 73.4637 54.4425 73.5477 54.5798 73.6566C54.7183 73.7655 54.8314 73.8951 54.9189 74.0455C55.0065 74.1946 55.0628 74.3591 55.0876 74.5391H54.3064ZM55.6989 77V73.3636H57.1335C57.4081 73.3636 57.6425 73.4128 57.8366 73.511C58.032 73.6081 58.1805 73.746 58.2823 73.9247C58.3853 74.1023 58.4368 74.3112 58.4368 74.5515C58.4368 74.793 58.3847 75.0007 58.2805 75.1747C58.1764 75.3475 58.0254 75.4801 57.8278 75.5724C57.6313 75.6648 57.3933 75.7109 57.114 75.7109H56.1534V75.093H56.9897C57.1365 75.093 57.2584 75.0729 57.3555 75.0327C57.4525 74.9924 57.5247 74.9321 57.5721 74.8516C57.6206 74.7711 57.6449 74.671 57.6449 74.5515C57.6449 74.4308 57.6206 74.329 57.5721 74.2461C57.5247 74.1632 57.4519 74.1005 57.3537 74.0579C57.2566 74.0141 57.1341 73.9922 56.9862 73.9922H56.4677V77H55.6989ZM57.6626 75.3452L58.5664 77H57.7177L56.8335 75.3452H57.6626ZM62.3217 75.1818C62.3217 75.5784 62.2466 75.9157 62.0962 76.1939C61.9471 76.4721 61.7435 76.6845 61.4854 76.8313C61.2286 76.9769 60.9397 77.0497 60.619 77.0497C60.2958 77.0497 60.0058 76.9763 59.7489 76.8295C59.4921 76.6828 59.2891 76.4703 59.1399 76.1921C58.9908 75.9139 58.9162 75.5772 58.9162 75.1818C58.9162 74.7853 58.9908 74.4479 59.1399 74.1697C59.2891 73.8916 59.4921 73.6797 59.7489 73.5341C60.0058 73.3873 60.2958 73.3139 60.619 73.3139C60.9397 73.3139 61.2286 73.3873 61.4854 73.5341C61.7435 73.6797 61.9471 73.8916 62.0962 74.1697C62.2466 74.4479 62.3217 74.7853 62.3217 75.1818ZM61.5423 75.1818C61.5423 74.925 61.5038 74.7083 61.4268 74.532C61.3511 74.3556 61.244 74.2218 61.1055 74.1307C60.967 74.0395 60.8048 73.994 60.619 73.994C60.4331 73.994 60.271 74.0395 60.1325 74.1307C59.994 74.2218 59.8862 74.3556 59.8093 74.532C59.7335 74.7083 59.6957 74.925 59.6957 75.1818C59.6957 75.4387 59.7335 75.6553 59.8093 75.8317C59.8862 76.008 59.994 76.1418 60.1325 76.233C60.271 76.3241 60.4331 76.3697 60.619 76.3697C60.8048 76.3697 60.967 76.3241 61.1055 76.233C61.244 76.1418 61.3511 76.008 61.4268 75.8317C61.5038 75.6553 61.5423 75.4387 61.5423 75.1818ZM63.5731 77L62.5326 73.3636H63.3724L63.9743 75.8903H64.0045L64.6686 73.3636H65.3877L66.05 75.8956H66.0819L66.6839 73.3636H67.5237L66.4832 77H65.7339L65.0415 74.6225H65.0131L64.3224 77H63.5731ZM68.704 73.3636V77H67.9352V73.3636H68.704ZM72.3781 73.3636V77H71.714L70.132 74.7113H70.1054V77H69.3366V73.3636H70.0113L71.5809 75.6506H71.6128V73.3636H72.3781ZM75.4245 74.5391C75.3997 74.4527 75.3648 74.3763 75.3198 74.31C75.2748 74.2425 75.2198 74.1857 75.1547 74.1396C75.0907 74.0922 75.0173 74.0561 74.9345 74.0312C74.8528 74.0064 74.7623 73.994 74.6628 73.994C74.477 73.994 74.3136 74.0401 74.1728 74.1325C74.0331 74.2248 73.9242 74.3591 73.8461 74.5355C73.7679 74.7107 73.7289 74.925 73.7289 75.1783C73.7289 75.4316 73.7673 75.647 73.8443 75.8246C73.9212 76.0021 74.0301 76.1377 74.171 76.2312C74.3118 76.3235 74.4782 76.3697 74.6699 76.3697C74.8439 76.3697 74.9925 76.3389 75.1156 76.2773C75.2399 76.2146 75.3346 76.1264 75.3997 76.0128C75.466 75.8991 75.4991 75.7648 75.4991 75.6097L75.6554 75.6328H74.7179V75.054H76.2395V75.5121C76.2395 75.8317 76.1721 76.1063 76.0371 76.3359C75.9022 76.5644 75.7163 76.7408 75.4796 76.8651C75.2428 76.9882 74.9718 77.0497 74.6664 77.0497C74.3255 77.0497 74.026 76.9746 73.7679 76.8242C73.5099 76.6727 73.3087 76.4579 73.1642 76.1797C73.021 75.9003 72.9494 75.5689 72.9494 75.1854C72.9494 74.8906 72.992 74.6278 73.0772 74.397C73.1636 74.165 73.2844 73.9685 73.4395 73.8075C73.5945 73.6465 73.775 73.524 73.981 73.44C74.187 73.3559 74.4101 73.3139 74.6504 73.3139C74.8564 73.3139 75.0481 73.3441 75.2257 73.4045C75.4032 73.4637 75.5607 73.5477 75.698 73.6566C75.8365 73.7655 75.9495 73.8951 76.0371 74.0455C76.1247 74.1946 76.1809 74.3591 76.2058 74.5391H75.4245ZM28.9428 83H28.119L29.3743 79.3636H30.3651L31.6186 83H30.7947L29.8839 80.1946H29.8555L28.9428 83ZM28.8913 81.5707H30.8374V82.1708H28.8913V81.5707ZM32.0563 83V79.3636H33.4909C33.7667 79.3636 34.0017 79.4163 34.1958 79.5217C34.39 79.6258 34.5379 79.7708 34.6397 79.9567C34.7427 80.1413 34.7942 80.3544 34.7942 80.5959C34.7942 80.8374 34.7421 81.0504 34.638 81.2351C34.5338 81.4197 34.3829 81.5636 34.1852 81.6665C33.9887 81.7695 33.7508 81.821 33.4714 81.821H32.557V81.2049H33.3471C33.4951 81.2049 33.617 81.1795 33.7129 81.1286C33.81 81.0765 33.8822 81.0049 33.9295 80.9137C33.978 80.8214 34.0023 80.7154 34.0023 80.5959C34.0023 80.4751 33.978 80.3698 33.9295 80.2798C33.8822 80.1887 33.81 80.1183 33.7129 80.0685C33.6158 80.0176 33.4927 79.9922 33.3436 79.9922H32.8251V83H32.0563ZM35.2936 83V79.3636H36.7282C37.0041 79.3636 37.239 79.4163 37.4331 79.5217C37.6273 79.6258 37.7752 79.7708 37.877 79.9567C37.98 80.1413 38.0315 80.3544 38.0315 80.5959C38.0315 80.8374 37.9794 81.0504 37.8753 81.2351C37.7711 81.4197 37.6202 81.5636 37.4225 81.6665C37.226 81.7695 36.9881 81.821 36.7087 81.821H35.7943V81.2049H36.5844C36.7324 81.2049 36.8543 81.1795 36.9502 81.1286C37.0473 81.0765 37.1195 81.0049 37.1668 80.9137C37.2153 80.8214 37.2396 80.7154 37.2396 80.5959C37.2396 80.4751 37.2153 80.3698 37.1668 80.2798C37.1195 80.1887 37.0473 80.1183 36.9502 80.0685C36.8531 80.0176 36.73 79.9922 36.5809 79.9922H36.0624V83H35.2936Z" fill="black"/>
<path d="M25.6051 83H24.3161V79.3636H25.6158C25.9815 79.3636 26.2964 79.4364 26.5604 79.582C26.8243 79.7264 27.0273 79.9342 27.1694 80.2053C27.3126 80.4763 27.3842 80.8007 27.3842 81.1783C27.3842 81.5571 27.3126 81.8826 27.1694 82.1548C27.0273 82.4271 26.8232 82.636 26.5568 82.7816C26.2917 82.9272 25.9744 83 25.6051 83ZM25.0849 82.3413H25.5732C25.8004 82.3413 25.9916 82.301 26.1467 82.2205C26.3029 82.1388 26.4201 82.0128 26.4982 81.8423C26.5775 81.6707 26.6172 81.4493 26.6172 81.1783C26.6172 80.9096 26.5775 80.69 26.4982 80.5195C26.4201 80.3491 26.3035 80.2236 26.1484 80.1431C25.9934 80.0626 25.8022 80.0224 25.5749 80.0224H25.0849V82.3413ZM27.9537 83V79.3636H30.404V79.9975H28.7226V80.864H30.278V81.4979H28.7226V82.3661H30.4111V83H27.9537ZM31.6722 79.3636L32.5511 82.1264H32.5849L33.4656 79.3636H34.3178L33.0643 83H32.0735L30.8182 79.3636H31.6722ZM34.7555 83V79.3636H37.2058V79.9975H35.5243V80.864H37.0797V81.4979H35.5243V82.3661H37.2129V83H34.7555ZM37.817 83V79.3636H38.5858V82.3661H40.1448V83H37.817ZM43.854 81.1818C43.854 81.5784 43.7788 81.9157 43.6285 82.1939C43.4793 82.4721 43.2757 82.6845 43.0177 82.8313C42.7608 82.9769 42.472 83.0497 42.1512 83.0497C41.828 83.0497 41.538 82.9763 41.2812 82.8295C41.0243 82.6828 40.8213 82.4703 40.6721 82.1921C40.523 81.9139 40.4484 81.5772 40.4484 81.1818C40.4484 80.7853 40.523 80.4479 40.6721 80.1697C40.8213 79.8916 41.0243 79.6797 41.2812 79.5341C41.538 79.3873 41.828 79.3139 42.1512 79.3139C42.472 79.3139 42.7608 79.3873 43.0177 79.5341C43.2757 79.6797 43.4793 79.8916 43.6285 80.1697C43.7788 80.4479 43.854 80.7853 43.854 81.1818ZM43.0745 81.1818C43.0745 80.925 43.036 80.7083 42.9591 80.532C42.8833 80.3556 42.7762 80.2218 42.6377 80.1307C42.4992 80.0395 42.337 79.994 42.1512 79.994C41.9653 79.994 41.8032 80.0395 41.6647 80.1307C41.5262 80.2218 41.4185 80.3556 41.3415 80.532C41.2658 80.7083 41.2279 80.925 41.2279 81.1818C41.2279 81.4387 41.2658 81.6553 41.3415 81.8317C41.4185 82.008 41.5262 82.1418 41.6647 82.233C41.8032 82.3241 41.9653 82.3697 42.1512 82.3697C42.337 82.3697 42.4992 82.3241 42.6377 82.233C42.7762 82.1418 42.8833 82.008 42.9591 81.8317C43.036 81.6553 43.0745 81.4387 43.0745 81.1818ZM44.4235 83V79.3636H45.8581C46.1339 79.3636 46.3689 79.4163 46.563 79.5217C46.7572 79.6258 46.9051 79.7708 47.0069 79.9567C47.1099 80.1413 47.1614 80.3544 47.1614 80.5959C47.1614 80.8374 47.1093 81.0504 47.0051 81.2351C46.901 81.4197 46.7501 81.5636 46.5524 81.6665C46.3559 81.7695 46.118 81.821 45.8386 81.821H44.9242V81.2049H45.7143C45.8623 81.2049 45.9842 81.1795 46.0801 81.1286C46.1771 81.0765 46.2493 81.0049 46.2967 80.9137C46.3452 80.8214 46.3695 80.7154 46.3695 80.5959C46.3695 80.4751 46.3452 80.3698 46.2967 80.2798C46.2493 80.1887 46.1771 80.1183 46.0801 80.0685C45.983 80.0176 45.8599 79.9922 45.7108 79.9922H45.1923V83H44.4235ZM47.6608 79.3636H48.6089L49.6104 81.8068H49.653L50.6544 79.3636H51.6025V83H50.8568V80.6332H50.8266L49.8856 82.9822H49.3778L48.4367 80.6243H48.4065V83H47.6608V79.3636ZM52.236 83V79.3636H54.6863V79.9975H53.0048V80.864H54.5602V81.4979H53.0048V82.3661H54.6934V83H52.236ZM58.339 79.3636V83H57.675L56.093 80.7113H56.0663V83H55.2975V79.3636H55.9722L57.5418 81.6506H57.5738V79.3636H58.339ZM58.8358 79.9975V79.3636H61.8223V79.9975H60.709V83H59.949V79.9975H58.8358ZM27.5245 86.6367H26.7468C26.7326 86.5361 26.7036 86.4467 26.6598 86.3686C26.616 86.2893 26.5598 86.2218 26.4911 86.1662C26.4225 86.1106 26.3432 86.0679 26.2532 86.0384C26.1644 86.0088 26.0679 85.994 25.9638 85.994C25.7756 85.994 25.6116 86.0407 25.4719 86.1342C25.3323 86.2266 25.224 86.3615 25.147 86.5391C25.0701 86.7154 25.0316 86.9297 25.0316 87.1818C25.0316 87.4411 25.0701 87.6589 25.147 87.8352C25.2251 88.0116 25.334 88.1448 25.4737 88.2347C25.6134 88.3247 25.775 88.3697 25.9585 88.3697C26.0614 88.3697 26.1567 88.3561 26.2443 88.3288C26.3331 88.3016 26.4118 88.262 26.4805 88.2099C26.5491 88.1566 26.6059 88.0921 26.6509 88.0163C26.6971 87.9406 26.729 87.8542 26.7468 87.7571L27.5245 87.7607C27.5044 87.9276 27.4541 88.0885 27.3736 88.2436C27.2943 88.3975 27.1871 88.5354 27.0522 88.6573C26.9184 88.7781 26.7586 88.8739 26.5728 88.945C26.3881 89.0148 26.1792 89.0497 25.946 89.0497C25.6217 89.0497 25.3317 88.9763 25.076 88.8295C24.8215 88.6828 24.6203 88.4703 24.4723 88.1921C24.3255 87.9139 24.2521 87.5772 24.2521 87.1818C24.2521 86.7853 24.3267 86.4479 24.4759 86.1697C24.625 85.8916 24.8274 85.6797 25.0831 85.5341C25.3388 85.3873 25.6264 85.3139 25.946 85.3139C26.1567 85.3139 26.352 85.3435 26.532 85.4027C26.7131 85.4619 26.8735 85.5483 27.0131 85.6619C27.1528 85.7744 27.2665 85.9123 27.354 86.0756C27.4428 86.239 27.4996 86.426 27.5245 86.6367ZM31.4174 87.1818C31.4174 87.5784 31.3423 87.9157 31.1919 88.1939C31.0428 88.4721 30.8392 88.6845 30.5811 88.8313C30.3243 88.9769 30.0355 89.0497 29.7147 89.0497C29.3915 89.0497 29.1015 88.9763 28.8446 88.8295C28.5878 88.6828 28.3848 88.4703 28.2356 88.1921C28.0865 87.9139 28.0119 87.5772 28.0119 87.1818C28.0119 86.7853 28.0865 86.4479 28.2356 86.1697C28.3848 85.8916 28.5878 85.6797 28.8446 85.5341C29.1015 85.3873 29.3915 85.3139 29.7147 85.3139C30.0355 85.3139 30.3243 85.3873 30.5811 85.5341C30.8392 85.6797 31.0428 85.8916 31.1919 86.1697C31.3423 86.4479 31.4174 86.7853 31.4174 87.1818ZM30.638 87.1818C30.638 86.925 30.5995 86.7083 30.5225 86.532C30.4468 86.3556 30.3397 86.2218 30.2012 86.1307C30.0627 86.0395 29.9005 85.994 29.7147 85.994C29.5288 85.994 29.3667 86.0395 29.2282 86.1307C29.0897 86.2218 28.9819 86.3556 28.905 86.532C28.8292 86.7083 28.7914 86.925 28.7914 87.1818C28.7914 87.4387 28.8292 87.6553 28.905 87.8317C28.9819 88.008 29.0897 88.1418 29.2282 88.233C29.3667 88.3241 29.5288 88.3697 29.7147 88.3697C29.9005 88.3697 30.0627 88.3241 30.2012 88.233C30.3397 88.1418 30.4468 88.008 30.5225 87.8317C30.5995 87.6553 30.638 87.4387 30.638 87.1818ZM31.9869 85.3636H32.9351L33.9365 87.8068H33.9791L34.9806 85.3636H35.9287V89H35.183V86.6332H35.1528L34.2117 88.9822H33.7039L32.7629 86.6243H32.7327V89H31.9869V85.3636ZM36.5621 89V85.3636H37.9968C38.2726 85.3636 38.5076 85.4163 38.7017 85.5217C38.8958 85.6258 39.0438 85.7708 39.1456 85.9567C39.2486 86.1413 39.3001 86.3544 39.3001 86.5959C39.3001 86.8374 39.248 87.0504 39.1438 87.2351C39.0397 87.4197 38.8887 87.5636 38.6911 87.6665C38.4946 87.7695 38.2566 87.821 37.9773 87.821H37.0629V87.2049H37.853C38.0009 87.2049 38.1229 87.1795 38.2188 87.1286C38.3158 87.0765 38.388 87.0049 38.4354 86.9137C38.4839 86.8214 38.5082 86.7154 38.5082 86.5959C38.5082 86.4751 38.4839 86.3698 38.4354 86.2798C38.388 86.1887 38.3158 86.1183 38.2188 86.0685C38.1217 86.0176 37.9986 85.9922 37.8494 85.9922H37.331V89H36.5621ZM40.0063 89H39.1824L40.4378 85.3636H41.4285L42.6821 89H41.8582L40.9474 86.1946H40.9189L40.0063 89ZM39.9548 87.5707H41.9008V88.1708H39.9548V87.5707ZM46.1613 85.3636V89H45.4972L43.9152 86.7113H43.8886V89H43.1198V85.3636H43.7945L45.3641 87.6506H45.396V85.3636H46.1613ZM47.5653 85.3636V89H46.7965V85.3636H47.5653ZM48.1979 89V85.3636H50.6482V85.9975H48.9667V86.864H50.5221V87.4979H48.9667V88.3661H50.6553V89H48.1979ZM53.2321 86.4094C53.2179 86.2662 53.1569 86.1549 53.0492 86.0756C52.9415 85.9963 52.7953 85.9567 52.6106 85.9567C52.4851 85.9567 52.3792 85.9744 52.2928 86.0099C52.2064 86.0443 52.1401 86.0922 52.0939 86.1538C52.0489 86.2153 52.0265 86.2852 52.0265 86.3633C52.0241 86.4284 52.0377 86.4852 52.0673 86.5337C52.0981 86.5823 52.1401 86.6243 52.1934 86.6598C52.2466 86.6941 52.3082 86.7243 52.378 86.7504C52.4479 86.7752 52.5224 86.7965 52.6017 86.8143L52.9284 86.8924C53.0871 86.9279 53.2327 86.9753 53.3652 87.0344C53.4978 87.0936 53.6126 87.1664 53.7097 87.2528C53.8068 87.3393 53.8819 87.4411 53.9352 87.5582C53.9896 87.6754 54.0175 87.8098 54.0186 87.9613C54.0175 88.1838 53.9606 88.3768 53.8482 88.5401C53.7369 88.7023 53.5759 88.8284 53.3652 88.9183C53.1557 89.0071 52.903 89.0515 52.6071 89.0515C52.3135 89.0515 52.0578 89.0065 51.84 88.9165C51.6234 88.8266 51.4541 88.6934 51.3322 88.517C51.2115 88.3395 51.1481 88.1199 51.1422 87.8583H51.8862C51.8945 87.9802 51.9294 88.082 51.9909 88.1637C52.0537 88.2442 52.1371 88.3052 52.2413 88.3466C52.3467 88.3868 52.4656 88.407 52.5982 88.407C52.7284 88.407 52.8414 88.388 52.9373 88.3501C53.0344 88.3123 53.1096 88.2596 53.1628 88.1921C53.2161 88.1246 53.2427 88.0471 53.2427 87.9595C53.2427 87.8778 53.2185 87.8092 53.1699 87.7536C53.1226 87.6979 53.0527 87.6506 52.9604 87.6115C52.8693 87.5724 52.7574 87.5369 52.6248 87.505L52.2289 87.4055C51.9223 87.331 51.6802 87.2144 51.5027 87.0558C51.3251 86.8971 51.2369 86.6835 51.2381 86.4148C51.2369 86.1946 51.2955 86.0022 51.4139 85.8377C51.5334 85.6732 51.6974 85.5447 51.9057 85.4524C52.1141 85.3601 52.3508 85.3139 52.6159 85.3139C52.8858 85.3139 53.1214 85.3601 53.3226 85.4524C53.525 85.5447 53.6825 85.6732 53.7949 85.8377C53.9074 86.0022 53.9654 86.1928 53.9689 86.4094H53.2321Z" fill="black"/>
<path d="M48.4716 97V96.1136L50.5426 94.196C50.7188 94.0256 50.8665 93.8722 50.9858 93.7358C51.107 93.5994 51.1989 93.4659 51.2614 93.3352C51.3239 93.2027 51.3551 93.0597 51.3551 92.9062C51.3551 92.7358 51.3163 92.589 51.2386 92.4659C51.161 92.3409 51.0549 92.2453 50.9205 92.179C50.786 92.1108 50.6335 92.0767 50.4631 92.0767C50.285 92.0767 50.1297 92.1127 49.9972 92.1847C49.8646 92.2566 49.7623 92.3598 49.6903 92.4943C49.6184 92.6288 49.5824 92.7888 49.5824 92.9744H48.4148C48.4148 92.5937 48.5009 92.2633 48.6733 91.983C48.8456 91.7027 49.0871 91.4858 49.3977 91.3324C49.7083 91.179 50.0663 91.1023 50.4716 91.1023C50.8883 91.1023 51.2509 91.1761 51.5597 91.3239C51.8703 91.4697 52.1117 91.6723 52.2841 91.9318C52.4564 92.1913 52.5426 92.4886 52.5426 92.8239C52.5426 93.0436 52.4991 93.2604 52.4119 93.4744C52.3267 93.6884 52.1742 93.9261 51.9545 94.1875C51.7348 94.447 51.4252 94.7585 51.0256 95.1222L50.1761 95.9545V95.9943H52.6193V97H48.4716ZM55.7919 97.1278C55.3033 97.1259 54.8828 97.0057 54.5305 96.767C54.1802 96.5284 53.9103 96.1828 53.7209 95.7301C53.5334 95.2775 53.4406 94.733 53.4425 94.0966C53.4425 93.4621 53.5362 92.9214 53.7237 92.4744C53.9131 92.0275 54.183 91.6875 54.5334 91.4545C54.8857 91.2197 55.3052 91.1023 55.7919 91.1023C56.2786 91.1023 56.6972 91.2197 57.0476 91.4545C57.3999 91.6894 57.6707 92.0303 57.8601 92.4773C58.0495 92.9223 58.1432 93.4621 58.1413 94.0966C58.1413 94.7348 58.0466 95.2803 57.8572 95.733C57.6697 96.1856 57.4008 96.5312 57.0504 96.7699C56.7 97.0085 56.2805 97.1278 55.7919 97.1278ZM55.7919 96.108C56.1252 96.108 56.3913 95.9403 56.5902 95.6051C56.7891 95.2699 56.8875 94.767 56.8857 94.0966C56.8857 93.6553 56.8402 93.2879 56.7493 92.9943C56.6603 92.7008 56.5334 92.4801 56.3686 92.3324C56.2057 92.1847 56.0135 92.1108 55.7919 92.1108C55.4605 92.1108 55.1953 92.2765 54.9964 92.608C54.7976 92.9394 54.6972 93.4356 54.6953 94.0966C54.6953 94.5436 54.7398 94.9167 54.8288 95.2159C54.9197 95.5133 55.0476 95.7367 55.2124 95.8864C55.3771 96.0341 55.5703 96.108 55.7919 96.108ZM59.0185 97V96.1136L61.0895 94.196C61.2656 94.0256 61.4134 93.8722 61.5327 93.7358C61.6539 93.5994 61.7457 93.4659 61.8082 93.3352C61.8707 93.2027 61.902 93.0597 61.902 92.9062C61.902 92.7358 61.8632 92.589 61.7855 92.4659C61.7079 92.3409 61.6018 92.2453 61.4673 92.179C61.3329 92.1108 61.1804 92.0767 61.0099 92.0767C60.8319 92.0767 60.6766 92.1127 60.544 92.1847C60.4115 92.2566 60.3092 92.3598 60.2372 92.4943C60.1652 92.6288 60.1293 92.7888 60.1293 92.9744H58.9616C58.9616 92.5937 59.0478 92.2633 59.2202 91.983C59.3925 91.7027 59.634 91.4858 59.9446 91.3324C60.2552 91.179 60.6132 91.1023 61.0185 91.1023C61.4351 91.1023 61.7978 91.1761 62.1065 91.3239C62.4171 91.4697 62.6586 91.6723 62.831 91.9318C63.0033 92.1913 63.0895 92.4886 63.0895 92.8239C63.0895 93.0436 63.0459 93.2604 62.9588 93.4744C62.8736 93.6884 62.7211 93.9261 62.5014 94.1875C62.2817 94.447 61.9721 94.7585 61.5724 95.1222L60.723 95.9545V95.9943H63.1662V97H59.0185ZM50.6222 107.08C50.1979 107.08 49.8201 107.007 49.4886 106.861C49.1591 106.713 48.8987 106.51 48.7074 106.253C48.518 105.993 48.4205 105.694 48.4148 105.355H49.6534C49.661 105.497 49.7074 105.622 49.7926 105.73C49.8797 105.836 49.9953 105.919 50.1392 105.977C50.2831 106.036 50.4451 106.065 50.625 106.065C50.8125 106.065 50.9782 106.032 51.1222 105.966C51.2661 105.9 51.3788 105.808 51.4602 105.69C51.5417 105.573 51.5824 105.437 51.5824 105.284C51.5824 105.129 51.5388 104.991 51.4517 104.872C51.3665 104.751 51.2434 104.656 51.0824 104.588C50.9233 104.52 50.7339 104.486 50.5142 104.486H49.9716V103.582H50.5142C50.6998 103.582 50.8636 103.55 51.0057 103.486C51.1496 103.421 51.2614 103.332 51.3409 103.219C51.4205 103.103 51.4602 102.969 51.4602 102.815C51.4602 102.67 51.4252 102.542 51.3551 102.432C51.2869 102.32 51.1903 102.233 51.0653 102.17C50.9422 102.108 50.7983 102.077 50.6335 102.077C50.4669 102.077 50.3144 102.107 50.1761 102.168C50.0379 102.226 49.9271 102.311 49.8438 102.42C49.7604 102.53 49.7159 102.659 49.7102 102.807H48.5312C48.5369 102.472 48.6326 102.176 48.8182 101.92C49.0038 101.665 49.2538 101.465 49.5682 101.321C49.8845 101.175 50.2415 101.102 50.6392 101.102C51.0407 101.102 51.392 101.175 51.6932 101.321C51.9943 101.467 52.2282 101.664 52.3949 101.912C52.5634 102.158 52.6468 102.435 52.6449 102.741C52.6468 103.067 52.5455 103.339 52.3409 103.557C52.1383 103.775 51.8741 103.913 51.5483 103.972V104.017C51.9763 104.072 52.3021 104.221 52.5256 104.463C52.7509 104.704 52.8627 105.005 52.8608 105.366C52.8627 105.698 52.767 105.992 52.5739 106.25C52.3826 106.508 52.1184 106.71 51.7812 106.858C51.4441 107.006 51.0578 107.08 50.6222 107.08Z" fill="#ED1D36"/>
<mask id="mask2_4_2011" style="mask-type:luminance" maskUnits="userSpaceOnUse" x="0" y="1" width="115" height="113">
<path d="M115 1H0V114H115V1Z" fill="white"/>
</mask>
<g mask="url(#mask2_4_2011)">
<path d="M72 47H3V61H72V47Z" fill="#FF0137"/>
<path d="M110 47H108V61H110V47Z" fill="#FF0137"/>
</g>
<path d="M7.88068 49.7273H8.93182L11.4034 55.7642H11.4886L13.9602 49.7273H15.0114V57H14.1875V51.4744H14.1165L11.8438 57H11.0483L8.77557 51.4744H8.70455V57H7.88068V49.7273ZM22.9135 53.3636C22.9135 54.1307 22.775 54.7936 22.498 55.3523C22.2211 55.911 21.8411 56.3419 21.3581 56.6449C20.8752 56.9479 20.3236 57.0994 19.7033 57.0994C19.083 57.0994 18.5314 56.9479 18.0485 56.6449C17.5655 56.3419 17.1855 55.911 16.9086 55.3523C16.6316 54.7936 16.4931 54.1307 16.4931 53.3636C16.4931 52.5966 16.6316 51.9337 16.9086 51.375C17.1855 50.8163 17.5655 50.3854 18.0485 50.0824C18.5314 49.7794 19.083 49.6278 19.7033 49.6278C20.3236 49.6278 20.8752 49.7794 21.3581 50.0824C21.8411 50.3854 22.2211 50.8163 22.498 51.375C22.775 51.9337 22.9135 52.5966 22.9135 53.3636ZM22.0613 53.3636C22.0613 52.7339 21.9559 52.2024 21.7452 51.7692C21.5369 51.3359 21.254 51.008 20.8965 50.7855C20.5414 50.563 20.1436 50.4517 19.7033 50.4517C19.263 50.4517 18.8641 50.563 18.5066 50.7855C18.1515 51.008 17.8685 51.3359 17.6578 51.7692C17.4495 52.2024 17.3453 52.7339 17.3453 53.3636C17.3453 53.9934 17.4495 54.5249 17.6578 54.9581C17.8685 55.3913 18.1515 55.7192 18.5066 55.9418C18.8641 56.1643 19.263 56.2756 19.7033 56.2756C20.1436 56.2756 20.5414 56.1643 20.8965 55.9418C21.254 55.7192 21.5369 55.3913 21.7452 54.9581C21.9559 54.5249 22.0613 53.9934 22.0613 53.3636ZM24.3944 57V49.7273H26.937C27.4436 49.7273 27.8614 49.8149 28.1905 49.9901C28.5196 50.1629 28.7646 50.3961 28.9256 50.6896C29.0866 50.9808 29.1671 51.304 29.1671 51.6591C29.1671 51.9716 29.1114 52.2296 29.0002 52.4332C28.8913 52.6368 28.7469 52.7978 28.5669 52.9162C28.3894 53.0346 28.1964 53.1222 27.9881 53.179V53.25C28.2106 53.2642 28.4344 53.3423 28.6593 53.4844C28.8842 53.6264 29.0724 53.83 29.2239 54.0952C29.3754 54.3603 29.4512 54.6847 29.4512 55.0682C29.4512 55.4328 29.3683 55.7607 29.2026 56.0518C29.0369 56.343 28.7753 56.5739 28.4178 56.7443C28.0603 56.9148 27.5951 57 27.0222 57H24.3944ZM25.275 56.2188H27.0222C27.5975 56.2188 28.0059 56.1075 28.2473 55.8849C28.4912 55.66 28.6131 55.3878 28.6131 55.0682C28.6131 54.822 28.5504 54.5947 28.4249 54.3864C28.2994 54.1757 28.1207 54.0076 27.8887 53.8821C27.6567 53.7543 27.382 53.6903 27.0648 53.6903H25.275V56.2188ZM25.275 52.9233H26.9086C27.1737 52.9233 27.4128 52.8712 27.6259 52.767C27.8413 52.6629 28.0118 52.5161 28.1373 52.3267C28.2651 52.1373 28.329 51.9148 28.329 51.6591C28.329 51.3395 28.2177 51.0684 27.9952 50.8459C27.7727 50.621 27.4199 50.5085 26.937 50.5085H25.275V52.9233ZM31.7789 49.7273V57H30.8983V49.7273H31.7789ZM33.5447 57V49.7273H34.4254V56.2188H37.8061V57H33.5447ZM39.1697 57V49.7273H43.5589V50.5085H40.0504V52.9659H43.3317V53.7472H40.0504V56.2188H43.6158V57H39.1697ZM48.2571 57H47.3338L50.0043 49.7273H50.9134L53.5838 57H52.6605L50.4872 50.8778H50.4304L48.2571 57ZM48.598 54.1591H52.3196V54.9403H48.598V54.1591ZM54.7166 57V49.7273H57.174C57.7446 49.7273 58.2109 49.8303 58.5732 50.0362C58.9377 50.2398 59.2076 50.5156 59.3828 50.8636C59.558 51.2116 59.6456 51.5999 59.6456 52.0284C59.6456 52.4569 59.558 52.8464 59.3828 53.1967C59.21 53.5471 58.9425 53.8265 58.5803 54.0348C58.218 54.2408 57.754 54.3438 57.1882 54.3438H55.4268V53.5625H57.1598C57.5504 53.5625 57.8641 53.495 58.1009 53.3601C58.3376 53.2251 58.5092 53.0429 58.6158 52.8132C58.7247 52.5812 58.7791 52.3196 58.7791 52.0284C58.7791 51.7372 58.7247 51.4768 58.6158 51.2472C58.5092 51.0175 58.3364 50.8376 58.0973 50.7074C57.8582 50.5748 57.541 50.5085 57.1456 50.5085H55.5973V57H54.7166ZM61.0643 57V49.7273H63.5217C64.0922 49.7273 64.5586 49.8303 64.9208 50.0362C65.2854 50.2398 65.5553 50.5156 65.7305 50.8636C65.9057 51.2116 65.9933 51.5999 65.9933 52.0284C65.9933 52.4569 65.9057 52.8464 65.7305 53.1967C65.5576 53.5471 65.2901 53.8265 64.9279 54.0348C64.5657 54.2408 64.1017 54.3438 63.5359 54.3438H61.7745V53.5625H63.5075C63.8981 53.5625 64.2118 53.495 64.4485 53.3601C64.6853 53.2251 64.8569 53.0429 64.9634 52.8132C65.0723 52.5812 65.1268 52.3196 65.1268 52.0284C65.1268 51.7372 65.0723 51.4768 64.9634 51.2472C64.8569 51.0175 64.6841 50.8376 64.445 50.7074C64.2058 50.5748 63.8886 50.5085 63.4933 50.5085H61.945V57H61.0643ZM8.17898 69H7.25568L9.92614 61.7273H10.8352L13.5057 69H12.5824L10.4091 62.8778H10.3523L8.17898 69ZM8.51989 66.1591H12.2415V66.9403H8.51989V66.1591ZM15.5192 61.7273V69H14.6385V61.7273H15.5192ZM17.285 69V61.7273H18.1657V68.2188H21.5463V69H17.285ZM21.9432 61.7273H22.9517L24.9688 65.1222H25.054L27.071 61.7273H28.0795L25.4517 66.0028V69H24.571V66.0028L21.9432 61.7273Z" fill="white"/>
</g>
<defs>
<clipPath id="clip0_4_2011">
<rect width="115" height="115" fill="white"/>
</clipPath>
</defs>
</svg>
