<svg width="159" height="46" viewBox="0 0 159 46" fill="none" xmlns="http://www.w3.org/2000/svg">
<g clip-path="url(#clip0_4_3077)">
<path fill-rule="evenodd" clip-rule="evenodd" d="M148.284 18.6504C148.142 18.6804 148 19.0089 148 19.1877C147.971 20.381 147.942 23.5426 147.942 25.6906C147.95 25.7351 147.971 25.7761 148.001 25.808C148.032 25.84 148.071 25.8614 148.113 25.8693C148.541 25.8993 149.566 25.9293 150.449 25.9293C151.243 25.9708 152.037 25.8494 152.786 25.5718C153.281 25.2742 153.685 24.8363 153.952 24.3085C154.22 23.7807 154.339 23.1846 154.296 22.589C154.296 19.696 152.359 18.5915 149.481 18.5915C149.081 18.5566 148.679 18.5767 148.284 18.6515V18.6504ZM155.632 31.9848C155.632 29.0319 153.551 27.3912 149.79 27.3912C149.239 27.3723 148.687 27.3823 148.137 27.4212C148.051 27.4512 147.94 27.5111 147.94 27.5999C147.94 29.718 147.911 33.0883 147.997 34.4004C148.033 34.7242 148.136 35.0359 148.298 35.314C148.46 35.5921 148.678 35.83 148.937 36.0112C149.734 36.2967 150.576 36.4181 151.416 36.3686C151.98 36.42 152.547 36.342 153.079 36.1403C153.611 35.9386 154.094 35.6178 154.496 35.2005C154.897 34.7832 155.206 34.2793 155.403 33.7239C155.599 33.1685 155.677 32.575 155.632 31.9848ZM142.471 17.0107C142.756 17.0107 143.611 17.0996 145.805 17.0996C147.885 17.0996 149.537 17.0397 151.561 17.0397C154.04 17.0397 157.458 17.9644 157.458 21.842C157.415 22.7667 157.111 23.6571 156.584 24.4006C156.057 25.144 155.331 25.7069 154.498 26.0181C154.413 26.0481 154.413 26.107 154.498 26.1369C156.891 26.7631 159 28.3149 159 31.2378C159 34.1018 157.291 35.9213 154.811 37.0547C153.121 37.728 151.319 38.0423 149.512 37.9794C148.059 37.9794 144.155 37.8006 141.989 37.8606C141.761 37.7707 142.187 36.6972 142.384 36.5174C142.877 36.5087 143.366 36.4284 143.837 36.2788C144.607 36.0721 144.692 35.8314 144.806 34.6081C144.863 33.5635 144.863 29.8647 144.863 27.2404C144.863 23.6304 144.892 21.1848 144.863 19.9915C144.835 19.0668 144.521 18.7682 143.894 18.5895C143.41 18.5006 142.611 18.3828 141.957 18.2919C141.814 18.1421 142.298 17.1285 142.47 17.0087L142.471 17.0107ZM126.03 35.5648C127.004 36.1583 128.124 36.4382 129.25 36.3697C130.079 36.4138 130.909 36.2863 131.691 35.9945C132.473 35.7027 133.193 35.2523 133.809 34.669C135.319 33.237 136.375 31.0301 136.375 27.5101C136.375 24.1387 135.149 21.3946 132.642 19.7838C131.007 18.835 129.152 18.3807 127.285 18.4717C126.745 18.4341 126.204 18.5042 125.689 18.6783C125.547 18.8003 125.446 18.9681 125.404 19.1557C125.347 19.7528 125.347 24.3464 125.347 27.0306C125.347 29.8048 125.347 33.6823 125.404 34.1297C125.401 34.402 125.456 34.6715 125.565 34.919C125.673 35.1665 125.832 35.386 126.031 35.5617L126.03 35.5648ZM119.561 17.0107C120.103 17.0107 122.183 17.0996 123.18 17.0996C124.976 17.0996 126.258 17.0107 129.649 17.0107C132.157 16.8948 134.623 17.7199 136.602 19.3375C137.638 20.284 138.459 21.4608 139.005 22.7819C139.552 24.103 139.81 25.5351 139.76 26.9738C139.839 28.6352 139.521 30.291 138.834 31.7912C138.148 33.2913 137.114 34.5884 135.828 35.5648C133.432 37.2933 130.556 38.1427 127.65 37.9804C125.713 37.9804 122.379 37.9205 119.615 37.8905H119.586C119.444 37.6219 119.814 36.5784 120.042 36.5474C120.489 36.5261 120.931 36.4356 121.353 36.2788C121.951 36.0401 122.065 35.7115 122.151 34.6081C122.236 32.55 122.208 30.0744 122.208 27.2724C122.208 25.2742 122.237 21.3657 122.18 20.1134C122.095 19.0699 121.668 18.8013 120.812 18.6215C120.385 18.5326 119.814 18.4149 119.017 18.3239C118.902 18.1173 119.411 17.1874 119.557 17.0118L119.561 17.0107Z" fill="white"/>
<path fill-rule="evenodd" clip-rule="evenodd" d="M85.104 36.5933C84.4568 36.5349 83.8238 36.3661 83.2314 36.0939C83.1103 35.9643 83.03 35.8006 83.001 35.6241C82.9431 34.5959 82.9431 31.6578 82.9431 29.693C83.0271 28.3171 82.7061 26.947 82.0213 25.7583C81.6527 25.2043 81.1538 24.7533 80.5702 24.4463C79.9866 24.1393 79.3368 23.9862 78.6803 24.001C77.0361 24.2076 75.501 24.949 74.3027 26.1153C74.2738 26.1448 74.0434 26.3502 74.0723 26.0268C74.0723 25.7034 74.1302 25.0576 74.1591 24.6173C74.1723 24.5059 74.1613 24.3929 74.1268 24.2864C74.0924 24.1799 74.0352 24.0824 73.9596 24.001C72.5231 24.5736 71.0242 24.968 69.4952 25.1756C68.8039 25.323 68.6313 25.9973 69.3516 26.2322H69.3805C69.9792 26.4015 70.5505 26.6588 71.0764 26.996C71.1827 27.1006 71.2619 27.2304 71.3071 27.3737C71.3524 27.5171 71.3622 27.6696 71.3358 27.8177C71.3648 30.0195 71.3648 33.3959 71.278 35.2417C71.249 35.9759 71.0475 36.2393 70.5288 36.3604L70.5866 36.3309C70.1877 36.4315 69.7837 36.5099 69.3765 36.5658C69.2909 36.7753 69.2468 36.9999 69.2468 37.2268C69.2468 37.4537 69.2909 37.6784 69.3765 37.8879C69.6937 37.8879 71.3638 37.7994 72.7465 37.7994C74.6469 37.7994 75.6266 37.8879 76.1164 37.8879C76.3181 37.4789 76.3691 37.0098 76.2601 36.5658C75.8118 36.5549 75.3667 36.4866 74.9352 36.3624C74.4165 36.2444 74.2728 35.981 74.2439 35.3637C74.186 33.8077 74.186 30.5188 74.186 28.2876C74.1664 28.092 74.1869 27.8944 74.2463 27.7074C74.3058 27.5204 74.4028 27.3481 74.5312 27.2014C75.2895 26.5696 76.2346 26.2167 77.2138 26.1997C77.9346 26.172 78.6407 26.412 79.2011 26.875C79.7225 27.3539 80.051 28.0131 80.1229 28.7249C80.2665 29.9879 80.2097 32.4877 80.2097 34.6559C80.2097 35.8305 80.1229 36.1244 79.6909 36.2709C79.2616 36.4143 78.8167 36.5031 78.366 36.5353C78.2804 36.7447 78.2364 36.9694 78.2364 37.1963C78.2364 37.4232 78.2804 37.6479 78.366 37.8574C79.2011 37.8574 80.1807 37.7689 81.6213 37.7689C83.407 37.7689 84.5593 37.8574 85.0202 37.8574C85.1792 37.4562 85.2093 37.0139 85.106 36.5943L85.104 36.5933ZM93.0849 25.3769C91.5586 25.3769 90.6078 26.5811 90.6078 28.4594C90.6078 30.3683 91.4428 32.5701 93.8002 32.5701C94.3531 32.5701 94.8863 32.361 95.2966 31.9833C95.9293 31.2349 96.2589 30.2692 96.2184 29.2822C96.2184 26.8414 95.0373 25.3769 93.0789 25.3769H93.0849ZM92.8854 38.3547C92.4521 38.3501 92.0251 38.4616 91.6474 38.6781C90.4372 39.4703 89.8905 40.234 89.8905 41.1442C89.8836 41.5527 89.9714 41.9571 90.1466 42.3244C90.3219 42.6918 90.5797 43.0119 90.8991 43.2586C91.883 44.0373 93.1117 44.4235 94.3549 44.3447C97.2929 44.3447 98.5888 42.7297 98.5888 41.1442C98.6073 40.6291 98.4513 40.1232 98.147 39.7115C97.8427 39.2998 97.4086 39.0074 96.9178 38.8835C95.6145 38.4674 94.2495 38.2884 92.8854 38.3547ZM93.0849 45.9892C91.6132 46.0759 90.1576 45.64 88.9658 44.7556C88.5171 44.4155 88.1477 43.9787 87.8838 43.4762C87.62 42.9738 87.4682 42.4182 87.4394 41.849C87.4508 41.3045 87.6557 40.7827 88.016 40.3805C88.8172 39.5581 89.7059 38.8295 90.6657 38.2082C90.7235 38.1787 90.7515 38.1492 90.7515 38.0903C90.746 38.058 90.7327 38.0276 90.7126 38.002C90.6925 37.9764 90.6665 37.9564 90.6368 37.9438C90.1985 37.8183 89.7978 37.5834 89.4708 37.2604C89.1439 36.9375 88.9011 36.5366 88.7642 36.0939V36.0349C88.7353 35.859 88.6784 35.6831 88.9368 35.5061C89.1364 35.3597 89.4267 35.1837 89.7429 34.9783C90.2033 34.7152 90.6459 34.4209 91.0677 34.0976C91.0896 34.0745 91.1062 34.0467 91.1162 34.0163C91.1262 33.9858 91.1294 33.9535 91.1256 33.9216C91.1201 33.8892 91.1065 33.8588 91.0863 33.8332C91.066 33.8076 91.0397 33.7876 91.0099 33.7752C90.0727 33.5007 89.2584 32.9023 88.7067 32.0827C88.155 31.2631 87.9002 30.2733 87.9861 29.2832C87.976 28.5603 88.1386 27.8458 88.4598 27.2012C88.781 26.5567 89.2511 26.0015 89.8297 25.5834C91.0645 24.7409 92.4952 24.2446 93.9778 24.1444H94.0646C95.1544 24.1778 96.2286 24.4168 97.233 24.8491C97.835 25.0599 98.4692 25.1591 99.1056 25.142C99.4762 25.1763 99.8496 25.1255 100.198 24.9936C100.547 24.8616 100.863 24.6517 101.122 24.3793C101.196 24.5657 101.235 24.7648 101.237 24.9661C101.259 25.4457 101.128 25.9196 100.863 26.3166C100.705 26.4982 100.509 26.6422 100.29 26.7387C100.072 26.8351 99.8347 26.8816 99.5964 26.875H99.4517C99.1999 26.8507 98.9497 26.8113 98.7025 26.757L98.5878 26.816C98.5589 26.875 98.5878 26.9329 98.6167 27.0194L98.6457 27.0784C98.7274 27.4956 98.785 27.9173 98.8182 28.3415C98.8816 29.1632 98.7343 29.9876 98.391 30.7339C98.0477 31.4801 97.5201 32.1227 96.8599 32.5985C95.8782 33.3485 94.7116 33.8062 93.49 33.9206C93.3565 33.9229 93.2233 33.9328 93.0909 33.9501C92.9462 33.9501 92.7447 33.9796 92.7168 33.9796H92.6769C92.4464 34.0386 91.8708 34.3315 91.8708 34.8308C91.8708 35.2712 92.1302 35.8 93.3672 35.8875C93.6266 35.917 93.886 35.917 94.1733 35.9464C95.7334 35.9957 97.2857 36.1922 98.8102 36.5333C99.4473 36.761 99.9982 37.1865 100.386 37.75C100.773 38.3135 100.977 38.9866 100.97 39.6747C100.97 41.847 99.4437 43.8738 96.9088 45.1359C95.706 45.6949 94.3998 45.9852 93.0779 45.9871L93.0849 45.9892ZM109.5 25.5264C108.949 25.5064 108.406 25.6602 107.944 25.9668C106.821 26.6716 106.249 28.0811 106.249 30.1364C106.249 33.9827 108.149 36.6838 110.857 36.6838C111.582 36.7077 112.29 36.4566 112.844 35.979C113.679 35.2742 114.111 33.8647 114.111 31.8978C114.111 28.0811 112.238 25.5264 109.503 25.5264H109.5ZM110.019 38.0933C105.122 38.0933 103.365 34.423 103.365 30.9876C103.325 29.8854 103.567 28.7915 104.067 27.8133C104.566 26.8352 105.307 26.0064 106.217 25.4085C107.542 24.5719 109.064 24.1152 110.623 24.0864C111.482 24.0572 112.337 24.211 113.133 24.538C113.93 24.865 114.651 25.358 115.25 25.9854C115.85 26.6128 116.314 27.3608 116.613 28.1815C116.912 29.0023 117.04 29.8777 116.989 30.7517C117.052 31.9463 116.806 33.1368 116.275 34.2036C115.744 35.2705 114.947 36.176 113.964 36.8292C112.78 37.596 111.42 38.0326 110.019 38.0933ZM58.691 25.5264C58.1405 25.5065 57.5973 25.6603 57.1357 25.9668C56.0124 26.6716 55.4398 28.0811 55.4398 30.1364C55.4398 33.9827 57.3402 36.6838 60.0478 36.6838C60.7729 36.7077 61.481 36.4566 62.035 35.979C62.87 35.2742 63.302 33.8647 63.302 31.8978C63.302 28.0811 61.4584 25.5264 58.694 25.5264H58.691ZM59.2098 38.0933C54.3135 38.0933 52.5566 34.423 52.5566 30.9876C52.5163 29.8854 52.7579 28.7915 53.2578 27.8133C53.7577 26.8352 54.4987 26.0064 55.4078 25.4085C56.7333 24.5719 58.2556 24.1152 59.8143 24.0864C60.6728 24.0572 61.5278 24.211 62.3246 24.538C63.1214 24.865 63.8425 25.358 64.4417 25.9854C65.0409 26.6128 65.505 27.3608 65.8044 28.1815C66.1037 29.0023 66.2317 29.8777 66.1801 30.7517C66.2437 31.9463 65.9976 33.1368 65.4666 34.2036C64.9357 35.2705 64.1385 36.176 63.1553 36.8292C61.9755 37.6043 60.6125 38.0417 59.2098 38.0933ZM26.2883 37.7994C26.1991 37.5867 26.169 37.3531 26.2015 37.1241C26.197 36.9725 26.2267 36.8218 26.2883 36.6838C26.7156 36.6221 27.1387 36.5338 27.5553 36.4193C28.1319 36.2719 28.3614 35.9495 28.3903 35.2152C28.4771 33.4538 28.4771 30.1059 28.4482 27.7913V27.7323C28.47 27.579 28.4522 27.4226 28.3966 27.2785C28.341 27.1344 28.2494 27.0075 28.1309 26.9106C27.5945 26.5717 27.0124 26.3144 26.4031 26.1468C26.1437 26.0593 25.9711 25.9119 26.004 25.74C26.004 25.5641 26.1766 25.3586 26.5517 25.2997C28.0567 25.0809 29.5341 24.697 30.9582 24.1545C31.0586 24.2892 31.1098 24.4554 31.1028 24.6244L31.0739 24.9468C31.045 25.2702 31.0161 25.6515 31.0161 26.0329C31.0219 26.0903 31.0489 26.1434 31.0917 26.1812C31.1346 26.219 31.1899 26.2387 31.2465 26.2363C31.3076 26.2301 31.3666 26.2099 31.4191 26.1773C32.646 25.0761 34.1703 24.3778 35.7927 24.1739C36.4845 24.1711 37.1634 24.3647 37.7534 24.7329C38.3435 25.1011 38.8214 25.6294 39.1337 26.2587C39.1528 26.2953 39.1816 26.3257 39.2169 26.3464C39.2522 26.3671 39.2925 26.3772 39.3332 26.3756C39.3668 26.3766 39.4001 26.3692 39.4302 26.3539C39.4603 26.3387 39.4863 26.3161 39.5058 26.2882C40.7809 25.1523 42.3517 24.4179 44.028 24.1739C46.7066 24.1739 48.2908 26.1997 48.2908 29.6351C48.2908 30.6042 48.2908 31.8663 48.2619 33.0114C48.2619 34.0386 48.233 34.9783 48.233 35.6556C48.255 35.8078 48.314 35.952 48.4046 36.0751C48.4952 36.1982 48.6145 36.2963 48.7517 36.3604C49.2873 36.575 49.8498 36.712 50.4227 36.7672H50.4517C50.4842 37.1488 50.4249 37.5328 50.2791 37.8858C50.0387 37.8885 49.7982 37.8787 49.5588 37.8563C49.0111 37.8269 48.234 37.7974 47.37 37.7974C45.5843 37.7974 44.6625 37.8269 43.7696 37.8858C43.6973 37.5166 43.6973 37.1364 43.7696 36.7672C44.1405 36.7028 44.5071 36.6145 44.867 36.5027C45.4436 36.3268 45.5873 36.0624 45.6162 35.2986C45.6162 34.7413 45.7309 29.9839 45.5583 28.8388C45.4747 28.1138 45.1255 27.4478 44.5808 26.9741C44.036 26.5004 43.3358 26.254 42.6204 26.2841C41.5472 26.3413 40.5192 26.742 39.6824 27.4292C39.6153 27.5128 39.5752 27.6154 39.5676 27.7231V27.7526C39.6758 28.55 39.7142 29.3555 39.6824 30.1598V32.0687C39.6824 33.3908 39.6534 34.6234 39.6824 35.563C39.6657 35.7759 39.7272 35.9874 39.855 36.1566C39.9827 36.3257 40.1676 36.4404 40.3737 36.4783C40.5463 36.5078 40.661 36.5373 40.8057 36.5658C41.0651 36.6248 41.3245 36.6838 41.7275 36.7692C41.7889 37.0409 41.7789 37.3244 41.6986 37.5909C41.6886 37.698 41.6488 37.8 41.5838 37.8848C40.6042 37.8553 39.5966 37.8258 38.1271 37.8258C37.6951 37.8258 36.9459 37.8553 36.3124 37.8553C35.7937 37.8553 35.3038 37.8848 35.0155 37.8848C34.9498 37.6964 34.9203 37.4968 34.9287 37.297C34.9141 37.1129 34.9544 36.9285 35.0444 36.7682C35.1751 36.7344 35.3088 36.7147 35.4435 36.7092C35.7887 36.6502 36.077 36.5912 36.3653 36.5333C36.8551 36.3868 37.0277 36.1265 37.0566 35.4766C37.1923 33.237 37.1826 30.9906 37.0277 28.7523C36.9745 28.0364 36.6503 27.3696 36.1236 26.8928C35.597 26.4161 34.9091 26.1668 34.2054 26.1977C33.1348 26.2667 32.1102 26.6661 31.2675 27.3428C31.0969 27.5241 31.0036 27.7669 31.0081 28.0181V29.7469C31.0081 31.8612 31.0081 34.5034 31.037 35.6454C31.0371 35.8719 31.1195 36.0904 31.2684 36.2585C31.4173 36.4266 31.6221 36.5325 31.8431 36.5556C32.0615 36.6077 32.2827 36.6471 32.5055 36.6736L33.0243 36.7611C33.08 37.1358 33.0503 37.5186 32.9375 37.8797C32.6492 37.8797 32.304 37.8502 31.9009 37.8502C31.2964 37.8207 30.5182 37.7913 29.6543 37.7913C28.6457 37.7913 27.9264 37.8207 27.3498 37.8502C26.9967 37.8028 26.6405 37.7831 26.2843 37.7913L26.2883 37.7994Z" fill="white"/>
<path fill-rule="evenodd" clip-rule="evenodd" d="M10.7487 44.996L9.54958 44.5948C9.54958 44.5948 9.69643 38.5421 7.50283 38.1078C6.04043 36.4276 7.73678 -33.1352 13 37.8761C11.9925 38.3765 11.2253 39.2508 10.8651 40.3086C10.6598 41.864 10.6204 43.4364 10.7477 45L10.7487 44.996Z" fill="white"/>
<path fill-rule="evenodd" clip-rule="evenodd" d="M10.7487 44.996L9.54958 44.5948C9.54958 44.5948 9.69643 38.5421 7.50283 38.1078C6.04043 36.4276 7.73678 -33.1352 13 37.8761C11.9925 38.3765 11.2253 39.2508 10.8651 40.3086C10.6598 41.864 10.6204 43.4364 10.7477 45L10.7487 44.996Z" fill="#A6A385"/>
<path fill-rule="evenodd" clip-rule="evenodd" d="M11.7963 39C11.7963 39 22.0316 32.1002 19.6369 17.7457C17.3272 7.30889 11.8812 3.88835 11.2828 2.573C10.7741 1.76045 10.3444 0.898653 10 0L10.4246 29.031C10.4246 29.0604 9.53588 37.9186 11.7933 39" fill="white"/>
<path fill-rule="evenodd" clip-rule="evenodd" d="M11.7963 39C11.7963 39 22.0316 32.1002 19.6369 17.7457C17.3272 7.30889 11.8812 3.88835 11.2828 2.573C10.7741 1.76045 10.3444 0.898653 10 0L10.4246 29.031C10.4246 29.0604 9.53588 37.9186 11.7933 39" fill="#499D4A"/>
<path fill-rule="evenodd" clip-rule="evenodd" d="M8.86035 39C8.86035 39 -0.533274 32.3614 0.0238358 20.6708C0.552945 8.98016 7.18805 3.23634 8.47028 2.19955C8.77757 1.93166 9.02063 1.59357 9.18029 1.21189C9.33997 0.830208 9.4119 0.415358 9.39042 0C9.97553 1.29973 9.8645 19.427 9.94753 21.5626C10.1986 29.7889 9.50146 37.4383 8.86035 38.997V39Z" fill="white"/>
<path fill-rule="evenodd" clip-rule="evenodd" d="M8.86035 39C8.86035 39 -0.533274 32.3614 0.0238358 20.6708C0.552945 8.98016 7.18805 3.23634 8.47028 2.19955C8.77757 1.93166 9.02063 1.59357 9.18029 1.21189C9.33997 0.830208 9.4119 0.415358 9.39042 0C9.97553 1.29973 9.8645 19.427 9.94753 21.5626C10.1986 29.7889 9.50146 37.4383 8.86035 38.997V39Z" fill="#58AA50"/>
</g>
<defs>
<clipPath id="clip0_4_3077">
<rect width="159" height="46" fill="white"/>
</clipPath>
</defs>
</svg>
