<svg width="133" height="105" viewBox="0 0 133 105" fill="none" xmlns="http://www.w3.org/2000/svg">
<mask id="mask0_4_3353" style="mask-type:luminance" maskUnits="userSpaceOnUse" x="0" y="0" width="133" height="105">
<path d="M133 0H0V105H133V0Z" fill="white"/>
</mask>
<g mask="url(#mask0_4_3353)">
<path d="M110 102H89V105H110V102Z" stroke="white" stroke-linejoin="round"/>
</g>
<path d="M109 100H91V101H109V100Z" stroke="white" stroke-linejoin="round"/>
<path d="M97.1537 81H93V100H98" stroke="white" stroke-linejoin="round"/>
<path d="M98 89V65H94V81.4167" stroke="white" stroke-linejoin="round"/>
<path d="M99 54.6613V49H95V65" stroke="white" stroke-linejoin="round"/>
<path d="M102 100H107V91H102V94.9324" stroke="white" stroke-linejoin="round"/>
<path d="M102 75H105V91" stroke="white" stroke-linejoin="round"/>
<path d="M101 78V60H105V76.2167" stroke="white" stroke-linejoin="round"/>
<path d="M99 43.1247V37H96V49" stroke="white" stroke-linejoin="round"/>
<path d="M103 60V41H99" stroke="white" stroke-linejoin="round"/>
<path d="M98 37.6763V24H102V41" stroke="white" stroke-linejoin="round"/>
<path d="M101 2V26" stroke="white" stroke-linejoin="round"/>
<path d="M99 24V13H101" stroke="white" stroke-linejoin="round"/>
<path d="M106 83H93V84H106V83Z" stroke="white" stroke-linejoin="round"/>
<path d="M105 67H94V68H105V67Z" stroke="white" stroke-linejoin="round"/>
<path d="M99 51H95V52H99V51Z" stroke="white" stroke-linejoin="round"/>
<path d="M102 26H98V27H102V26Z" stroke="white" stroke-linejoin="round"/>
<path d="M103 78V83" stroke="white" stroke-linejoin="round"/>
<path d="M95 86V100" stroke="white" stroke-linejoin="round"/>
<path d="M97 86V100" stroke="white" stroke-linejoin="round"/>
<path d="M106 93H104" stroke="white" stroke-linejoin="round"/>
<path d="M106 95H104" stroke="white" stroke-linejoin="round"/>
<path d="M106 96H104" stroke="white" stroke-linejoin="round"/>
<path d="M106 98H104" stroke="white" stroke-linejoin="round"/>
<path d="M94 69H97" stroke="white" stroke-linejoin="round"/>
<path d="M94 71H97" stroke="white" stroke-linejoin="round"/>
<path d="M94 73H97" stroke="white" stroke-linejoin="round"/>
<path d="M102 61V65" stroke="white" stroke-linejoin="round"/>
<path d="M95 53H97" stroke="white" stroke-linejoin="round"/>
<path d="M95 55H97" stroke="white" stroke-linejoin="round"/>
<path d="M95 57H97" stroke="white" stroke-linejoin="round"/>
<path d="M95 58H97" stroke="white" stroke-linejoin="round"/>
<path d="M95 60H97" stroke="white" stroke-linejoin="round"/>
<path d="M95 61H97" stroke="white" stroke-linejoin="round"/>
<path d="M95 62H97" stroke="white" stroke-linejoin="round"/>
<path d="M98 39V47" stroke="white" stroke-linejoin="round"/>
<path d="M103 44H102" stroke="white" stroke-linejoin="round"/>
<path d="M103 46H102" stroke="white" stroke-linejoin="round"/>
<path d="M103 47H102" stroke="white" stroke-linejoin="round"/>
<path d="M103 49H102" stroke="white" stroke-linejoin="round"/>
<path d="M105 77H104" stroke="white" stroke-linejoin="round"/>
<path d="M105 78H104" stroke="white" stroke-linejoin="round"/>
<path d="M105 80H104" stroke="white" stroke-linejoin="round"/>
<path d="M105 82H104" stroke="white" stroke-linejoin="round"/>
<path d="M103 51H102" stroke="white" stroke-linejoin="round"/>
<path d="M103 53H102" stroke="white" stroke-linejoin="round"/>
<path d="M103 54H102" stroke="white" stroke-linejoin="round"/>
<path d="M103 56H102" stroke="white" stroke-linejoin="round"/>
<path d="M99 29H101" stroke="white" stroke-linejoin="round"/>
<path d="M99 30H101" stroke="white" stroke-linejoin="round"/>
<path d="M99 32H101" stroke="white" stroke-linejoin="round"/>
<path d="M103 84V89" stroke="white" stroke-linejoin="round"/>
<path d="M99 56V62" stroke="white" stroke-linejoin="round"/>
<path d="M99 44V45" stroke="white" stroke-linejoin="round"/>
<path d="M97 39V47" stroke="white" stroke-linejoin="round"/>
<path d="M99 33H101" stroke="white" stroke-linejoin="round"/>
<path d="M100 13V24" stroke="white" stroke-miterlimit="10"/>
<mask id="mask1_4_3353" style="mask-type:luminance" maskUnits="userSpaceOnUse" x="0" y="0" width="133" height="105">
<path d="M133 0H0V105H133V0Z" fill="white"/>
</mask>
<g mask="url(#mask1_4_3353)">
<path d="M101 2V0" stroke="white" stroke-miterlimit="10"/>
</g>
<path d="M103 61V65" stroke="white" stroke-linejoin="round"/>
<path d="M101 78V80" stroke="white" stroke-linejoin="round"/>
<path d="M96 91V100" stroke="white" stroke-linejoin="round"/>
<path d="M94 91V100" stroke="white" stroke-linejoin="round"/>
<path d="M98 91V100" stroke="white" stroke-linejoin="round"/>
<path d="M100 96V100" stroke="white" stroke-linejoin="round"/>
<path d="M101 98V100" stroke="white" stroke-linejoin="round"/>
<path d="M89 103H110" stroke="white" stroke-linejoin="round"/>
<mask id="mask2_4_3353" style="mask-type:luminance" maskUnits="userSpaceOnUse" x="0" y="0" width="133" height="105">
<path d="M133 0H0V105H133V0Z" fill="white"/>
</mask>
<g mask="url(#mask2_4_3353)">
<path d="M17 85H11V105H17V85Z" stroke="white" stroke-linejoin="round"/>
<path d="M38 89.415V105H44V85H38.0022V89.415" stroke="white" stroke-linejoin="round"/>
<path d="M38 86H16V104H38V86Z" stroke="white" stroke-linejoin="round"/>
<path d="M23 97H19V105H23V97Z" stroke="white" stroke-linejoin="round"/>
<path d="M23 91.1849C23 90.1775 21 89 21 89C21 89 19 90.1775 19 91.1849C19.0002 91.2538 19.0047 91.3227 19.0136 91.3911V95H22.9864V91.3911C22.9951 91.3227 22.9996 91.2538 23 91.1849Z" stroke="white" stroke-linejoin="round"/>
<path d="M21 89C20.6081 89.4434 20 90.2475 20 90.9687C20.0003 91.0416 20.0033 91.1143 20.009 91.1867V95H20.9678" stroke="white" stroke-linejoin="round"/>
<path d="M27 89C26.6078 89.4434 26 90.2475 26 90.9687C26.0001 91.0416 26.0031 91.1143 26.009 91.1867V95H26.9686" stroke="white" stroke-linejoin="round"/>
<path d="M34 89C33.6078 89.4434 33 90.2475 33 90.9687C33.0003 91.0416 33.0033 91.1143 33.009 91.1867V95H33.9686" stroke="white" stroke-linejoin="round"/>
<path d="M4.99999 99.092C4.99999 98.5881 4 98 4 98C4 98 3 98.5881 3 99.092C3.00034 99.1265 3.00277 99.1609 3.00726 99.1951V101H4.99377V99.1951C4.99808 99.1609 5.00016 99.1265 4.99999 99.092Z" stroke="white" stroke-linejoin="round"/>
<path d="M7.99991 99.092C7.99991 98.5881 6.99996 98 6.99996 98C6.99996 98 6 98.5881 6 99.092C6.00034 99.1265 6.00277 99.1609 6.00726 99.1951V101H7.99473V99.1951C7.9987 99.1609 8.00043 99.1264 7.99991 99.092Z" stroke="white" stroke-linejoin="round"/>
<path d="M18 90V104" stroke="white" stroke-linejoin="round"/>
<path d="M23 90V104" stroke="white" stroke-linejoin="round"/>
<path d="M29 97H25V105H29V97Z" stroke="white" stroke-linejoin="round"/>
<path d="M29 91.1849C29 90.1775 27 89 27 89C27 89 25 90.1775 25 91.1849C25.0002 91.2538 25.0047 91.3227 25.0136 91.3911V95H28.9887V91.3911C28.9966 91.3226 29.0003 91.2538 29 91.1849Z" stroke="white" stroke-linejoin="round"/>
<path d="M24 90V104" stroke="white" stroke-linejoin="round"/>
<path d="M30 90V104" stroke="white" stroke-linejoin="round"/>
<path d="M36 97H32V105H36V97Z" stroke="white" stroke-linejoin="round"/>
<path d="M36 91.1849C36 90.1775 34 89 34 89C34 89 32 90.1775 32 91.1849C32.0004 91.2538 32.0049 91.3227 32.0136 91.3911V95H35.9864V91.3911C35.9953 91.3227 35.9998 91.2538 36 91.1849Z" stroke="white" stroke-linejoin="round"/>
<path d="M31 90V104" stroke="white" stroke-linejoin="round"/>
<path d="M36 90V104" stroke="white" stroke-linejoin="round"/>
<path d="M15 88H12V104H15V88Z" stroke="white" stroke-linejoin="round"/>
<path d="M42 88H39V104H42V88Z" stroke="white" stroke-linejoin="round"/>
<path d="M10 96H16" stroke="white" stroke-linejoin="round"/>
<path d="M38 96H44" stroke="white" stroke-linejoin="round"/>
<path d="M11 95H1V105H11V95Z" stroke="white" stroke-linejoin="round"/>
<path d="M11 94H0V95H11V94Z" stroke="white" stroke-linejoin="round"/>
<path d="M49.0016 99.092C49.0016 98.5881 50.0008 98 50.0008 98C50.0008 98 51 98.5881 51 99.092C50.9998 99.1264 50.9978 99.1609 50.9938 99.1951V101H49.0016V99.1951C48.9995 99.1608 48.9995 99.1264 49.0016 99.092Z" stroke="white" stroke-linejoin="round"/>
<path d="M46 99.092C46 98.5881 47 98 47 98C47 98 48 98.5881 48 99.092C48 99.1265 47.9979 99.1609 47.9938 99.1951V101H46.0072V99.1951C46.0026 99.1609 46.0002 99.1265 46 99.092Z" stroke="white" stroke-linejoin="round"/>
<path d="M54 95H44V105H54V95Z" stroke="white" stroke-linejoin="round"/>
<path d="M55 94H44V95H55V94Z" stroke="white" stroke-linejoin="round"/>
<path d="M34 82H21V86H34V82Z" stroke="white" stroke-linejoin="round"/>
<path d="M21 82C21.0213 80.4019 21.7155 78.8759 22.9322 77.7528C24.1489 76.6298 25.79 76 27.5 76C29.21 76 30.8511 76.6298 32.0678 77.7528C33.2845 78.8759 33.9787 80.4019 34 82" stroke="white" stroke-linejoin="round"/>
<path d="M27 76V74" stroke="white" stroke-linejoin="round"/>
<path d="M22 78L26 82" stroke="white" stroke-linejoin="round"/>
<path d="M21 80L23 82" stroke="white" stroke-linejoin="round"/>
<path d="M21 79L24 82" stroke="white" stroke-linejoin="round"/>
<path d="M24 77L29 83" stroke="white" stroke-linejoin="round"/>
<path d="M23 77L28 82" stroke="white" stroke-linejoin="round"/>
<path d="M26 76L32 82" stroke="white" stroke-linejoin="round"/>
<path d="M27 76L33 82" stroke="white" stroke-linejoin="round"/>
<path d="M28 76L33 81" stroke="white" stroke-linejoin="round"/>
<path d="M27 73V72" stroke="white" stroke-linejoin="round"/>
<path d="M16 84H9.56329L9 83H15.999L16 84Z" stroke="white" stroke-linejoin="round"/>
<path d="M38.001 84H44.4376L45 83H38L38.001 84Z" stroke="white" stroke-linejoin="round"/>
<path d="M10 84C10 83.2044 10.3161 82.4413 10.8787 81.8787C11.4413 81.3161 12.2043 81 13 81C13.7956 81 14.5587 81.3161 15.1213 81.8787C15.6839 82.4413 16 83.2044 16 84" stroke="white" stroke-linejoin="round"/>
<path d="M12.1207 75L12 81" stroke="white" stroke-linejoin="round"/>
<path d="M14.1197 81L14 75" stroke="white" stroke-linejoin="round"/>
<path d="M15 74H11V75H15V74Z" stroke="white" stroke-linejoin="round"/>
<path d="M14 74L13.8341 66.7539C13.8341 66.5539 13.7473 66.3622 13.5929 66.2208C13.4385 66.0794 13.2291 66 13.0107 66C12.7924 66 12.5829 66.0794 12.4285 66.2208C12.2741 66.3622 12.1874 66.5539 12.1874 66.7539H12.1659L12 74" stroke="white" stroke-linejoin="round"/>
<path d="M38 84C38 83.2043 38.3161 82.4413 38.8787 81.8787C39.4413 81.3161 40.2044 81 41 81C41.7957 81 42.5587 81.3161 43.1213 81.8787C43.6839 82.4413 44 83.2043 44 84" stroke="white" stroke-linejoin="round"/>
<path d="M40.1197 75L40 81" stroke="white" stroke-linejoin="round"/>
<path d="M42.1197 81L42 75" stroke="white" stroke-linejoin="round"/>
<path d="M43 74H39V75H43V74Z" stroke="white" stroke-linejoin="round"/>
<path d="M42 74L41.834 66.7539C41.834 66.5539 41.7472 66.3622 41.5927 66.2208C41.4382 66.0794 41.2287 66 41.0102 66C40.7917 66 40.5821 66.0794 40.4276 66.2208C40.2731 66.3622 40.1863 66.5539 40.1863 66.7539H40.166L40 74" stroke="white" stroke-linejoin="round"/>
<path d="M20 97V105" stroke="white" stroke-linejoin="round"/>
<path d="M26 97V105" stroke="white" stroke-linejoin="round"/>
<path d="M33 97V105" stroke="white" stroke-linejoin="round"/>
<path d="M11 84C11 82.3434 11.8953 81 13 81C14.1047 81 15 82.3434 15 84" stroke="white" stroke-linejoin="round"/>
<path d="M13 84C13 82.3434 13.2242 81 13.5 81C13.7758 81 14 82.3434 14 84" stroke="white" stroke-linejoin="round"/>
<path d="M14 88V104" stroke="white" stroke-linejoin="round"/>
<path d="M13 88V104" stroke="white" stroke-linejoin="round"/>
<path d="M3 102H6" stroke="white" stroke-linejoin="round"/>
<path d="M6 102H9" stroke="white" stroke-linejoin="round"/>
<path d="M46 102H49" stroke="white" stroke-linejoin="round"/>
<path d="M49 102H52" stroke="white" stroke-linejoin="round"/>
<path d="M13 75V81" stroke="white" stroke-linejoin="round"/>
<path d="M13 65V64" stroke="white" stroke-linejoin="round"/>
<path d="M39 84C39 82.3434 39.8953 81 41 81C42.1047 81 43 82.3434 43 84" stroke="white" stroke-linejoin="round"/>
<path d="M40 84C40 82.3434 40.2242 81 40.5 81C40.7758 81 41 82.3434 41 84" stroke="white" stroke-linejoin="round"/>
<path d="M42 88V104" stroke="white" stroke-linejoin="round"/>
<path d="M40 88V104" stroke="white" stroke-linejoin="round"/>
<path d="M41 75V81" stroke="white" stroke-linejoin="round"/>
<path d="M41 65V64" stroke="white" stroke-linejoin="round"/>
<path d="M22 86V83H23" stroke="white" stroke-linejoin="round"/>
<path d="M25 86V83H26" stroke="white" stroke-linejoin="round"/>
<path d="M28 86V83H29" stroke="white" stroke-linejoin="round"/>
<path d="M31 86V83H32" stroke="white" stroke-linejoin="round"/>
<path d="M86 65H57V105H86V65Z" stroke="white" stroke-linejoin="round"/>
<path d="M82 68H60V102H82V68Z" stroke="white" stroke-linejoin="round"/>
<path d="M82 99H83" stroke="white" stroke-linejoin="round"/>
<path d="M84 96H85" stroke="white" stroke-linejoin="round"/>
<path d="M82 97H83" stroke="white" stroke-linejoin="round"/>
<path d="M82 93H83" stroke="white" stroke-linejoin="round"/>
<path d="M82 91H83" stroke="white" stroke-linejoin="round"/>
<path d="M85 90H84" stroke="white" stroke-linejoin="round"/>
<path d="M85.4897 89H85" stroke="white" stroke-width="0.5" stroke-linejoin="round"/>
<path d="M82 86H83" stroke="white" stroke-linejoin="round"/>
<path d="M82 85H83" stroke="white" stroke-linejoin="round"/>
<path d="M85 83H84" stroke="white" stroke-linejoin="round"/>
<path d="M85 82H84" stroke="white" stroke-linejoin="round"/>
<path d="M82 79H83" stroke="white" stroke-linejoin="round"/>
<path d="M82 78H83" stroke="white" stroke-linejoin="round"/>
<path d="M86 75H85" stroke="white" stroke-linejoin="round"/>
<path d="M83 73H84" stroke="white" stroke-linejoin="round"/>
<path d="M82 71H83" stroke="white" stroke-linejoin="round"/>
<path d="M84 70H85" stroke="white" stroke-linejoin="round"/>
<path d="M82 68H84" stroke="white" stroke-linejoin="round"/>
<path d="M84 67H85" stroke="white" stroke-linejoin="round"/>
<path d="M82 66H83" stroke="white" stroke-linejoin="round"/>
<path d="M78 67H79" stroke="white" stroke-linejoin="round"/>
<path d="M79 65H80" stroke="white" stroke-linejoin="round"/>
<path d="M73 66H74" stroke="white" stroke-linejoin="round"/>
<path d="M75 66H76" stroke="white" stroke-linejoin="round"/>
<path d="M68 67H69" stroke="white" stroke-linejoin="round"/>
<path d="M70 66H71" stroke="white" stroke-linejoin="round"/>
<path d="M66 65H67" stroke="white" stroke-linejoin="round"/>
<path d="M65 66H66" stroke="white" stroke-linejoin="round"/>
<path d="M58 66H57" stroke="white" stroke-linejoin="round"/>
<path d="M58 67H57" stroke="white" stroke-linejoin="round"/>
<path d="M59 69H60" stroke="white" stroke-linejoin="round"/>
<path d="M61 66H61.4388" stroke="white" stroke-width="0.5" stroke-linejoin="round"/>
<path d="M58 70H57" stroke="white" stroke-linejoin="round"/>
<path d="M59 71H57" stroke="white" stroke-linejoin="round"/>
<path d="M59 73H60" stroke="white" stroke-linejoin="round"/>
<path d="M59 74H60" stroke="white" stroke-linejoin="round"/>
<path d="M59 76H57" stroke="white" stroke-linejoin="round"/>
<path d="M58 78H59" stroke="white" stroke-linejoin="round"/>
<path d="M59 79H60" stroke="white" stroke-linejoin="round"/>
<path d="M58 81H57" stroke="white" stroke-linejoin="round"/>
<path d="M59 83H60" stroke="white" stroke-linejoin="round"/>
<path d="M59 85H57" stroke="white" stroke-linejoin="round"/>
<path d="M59 86H60" stroke="white" stroke-linejoin="round"/>
<path d="M58 90H59" stroke="white" stroke-linejoin="round"/>
<path d="M59 91H61" stroke="white" stroke-linejoin="round"/>
<path d="M58 93H57" stroke="white" stroke-linejoin="round"/>
<path d="M59 94H60" stroke="white" stroke-linejoin="round"/>
<path d="M58 96H59" stroke="white" stroke-linejoin="round"/>
<path d="M58 97H57" stroke="white" stroke-linejoin="round"/>
<path d="M59 99H60" stroke="white" stroke-linejoin="round"/>
<path d="M58 101H57" stroke="white" stroke-linejoin="round"/>
<path d="M58 104H57" stroke="white" stroke-linejoin="round"/>
<path d="M60 103H62" stroke="white" stroke-linejoin="round"/>
<path d="M66 103H67" stroke="white" stroke-linejoin="round"/>
<path d="M65 104H66" stroke="white" stroke-linejoin="round"/>
<path d="M73 103H74" stroke="white" stroke-linejoin="round"/>
<path d="M72 104H73" stroke="white" stroke-linejoin="round"/>
<path d="M70 103H71" stroke="white" stroke-linejoin="round"/>
<path d="M79 103H80" stroke="white" stroke-linejoin="round"/>
<path d="M78 104H79" stroke="white" stroke-linejoin="round"/>
<path d="M82 104H83" stroke="white" stroke-linejoin="round"/>
<path d="M84 102H85" stroke="white" stroke-linejoin="round"/>
<path d="M83 101H82" stroke="white" stroke-linejoin="round"/>
<path d="M84 86H85" stroke="white" stroke-linejoin="round"/>
<path d="M82 88H83" stroke="white" stroke-linejoin="round"/>
<path d="M84 92H85" stroke="white" stroke-linejoin="round"/>
<path d="M85 92H86" stroke="white" stroke-linejoin="round"/>
<path d="M82 95H83" stroke="white" stroke-linejoin="round"/>
<path d="M83 95H83.4927" stroke="white" stroke-width="0.5" stroke-linejoin="round"/>
<path d="M85 97H85.4099" stroke="white" stroke-width="0.5" stroke-linejoin="round"/>
<path d="M85 98H86" stroke="white" stroke-linejoin="round"/>
<path d="M84 98H85" stroke="white" stroke-linejoin="round"/>
<path d="M83 98H84" stroke="white" stroke-linejoin="round"/>
<path d="M84 100H85" stroke="white" stroke-linejoin="round"/>
<path d="M84 101H85" stroke="white" stroke-linejoin="round"/>
<path d="M83 102H84" stroke="white" stroke-linejoin="round"/>
<path d="M82 103H83" stroke="white" stroke-linejoin="round"/>
<path d="M84 104H85" stroke="white" stroke-linejoin="round"/>
<path d="M76 104H77" stroke="white" stroke-linejoin="round"/>
<path d="M77 103H78" stroke="white" stroke-linejoin="round"/>
<path d="M80 104H81" stroke="white" stroke-linejoin="round"/>
<path d="M75 103H75.4747" stroke="white" stroke-width="0.5" stroke-linejoin="round"/>
<path d="M71 104H72" stroke="white" stroke-linejoin="round"/>
<path d="M72 103H72.238" stroke="white" stroke-width="0.5" stroke-linejoin="round"/>
<path d="M69 103H70" stroke="white" stroke-linejoin="round"/>
<path d="M67 104H68" stroke="white" stroke-linejoin="round"/>
<path d="M63 104H64" stroke="white" stroke-linejoin="round"/>
<path d="M64 103H65" stroke="white" stroke-linejoin="round"/>
<path d="M63 103H64" stroke="white" stroke-linejoin="round"/>
<path d="M59 104H60" stroke="white" stroke-linejoin="round"/>
<path d="M57 103H58" stroke="white" stroke-linejoin="round"/>
<path d="M58 102H59" stroke="white" stroke-linejoin="round"/>
<path d="M59 100H60" stroke="white" stroke-linejoin="round"/>
<path d="M58 98H57" stroke="white" stroke-linejoin="round"/>
<path d="M58 95H59" stroke="white" stroke-linejoin="round"/>
<path d="M59 93H60" stroke="white" stroke-linejoin="round"/>
<path d="M58 90H57" stroke="white" stroke-linejoin="round"/>
<path d="M58 89H57" stroke="white" stroke-linejoin="round"/>
<path d="M59 87H60" stroke="white" stroke-linejoin="round"/>
<path d="M58.361 87H58" stroke="white" stroke-width="0.5" stroke-linejoin="round"/>
<path d="M58 84H57" stroke="white" stroke-linejoin="round"/>
<path d="M59 82H60" stroke="white" stroke-linejoin="round"/>
<path d="M58 80H57" stroke="white" stroke-linejoin="round"/>
<path d="M59 80H59.4418" stroke="white" stroke-width="0.5" stroke-linejoin="round"/>
<path d="M58 77H60" stroke="white" stroke-linejoin="round"/>
<path d="M59 76H60" stroke="white" stroke-linejoin="round"/>
<path d="M58 73H57" stroke="white" stroke-linejoin="round"/>
<path d="M58 74H57" stroke="white" stroke-linejoin="round"/>
<path d="M59 71H60" stroke="white" stroke-linejoin="round"/>
<path d="M58 69H57" stroke="white" stroke-linejoin="round"/>
<path d="M57 68H58" stroke="white" stroke-linejoin="round"/>
<path d="M60 67H61" stroke="white" stroke-linejoin="round"/>
<path d="M60 66H61" stroke="white" stroke-linejoin="round"/>
<path d="M62 66H63" stroke="white" stroke-linejoin="round"/>
<path d="M63 66H64" stroke="white" stroke-linejoin="round"/>
<path d="M67 66H68" stroke="white" stroke-linejoin="round"/>
<path d="M67 66H68" stroke="white" stroke-linejoin="round"/>
<path d="M71 66H72" stroke="white" stroke-linejoin="round"/>
<path d="M71 67H72" stroke="white" stroke-linejoin="round"/>
<path d="M75 67H76" stroke="white" stroke-linejoin="round"/>
<path d="M75 66H75.342" stroke="white" stroke-width="0.5" stroke-linejoin="round"/>
<path d="M77 66H78" stroke="white" stroke-linejoin="round"/>
<path d="M80 67H81" stroke="white" stroke-linejoin="round"/>
<path d="M81 66H81.342" stroke="white" stroke-width="0.5" stroke-linejoin="round"/>
<path d="M84 66H85" stroke="white" stroke-linejoin="round"/>
<path d="M84 68H85" stroke="white" stroke-linejoin="round"/>
<path d="M83 70H82" stroke="white" stroke-linejoin="round"/>
<path d="M83 70H82" stroke="white" stroke-linejoin="round"/>
<path d="M84 71H85" stroke="white" stroke-linejoin="round"/>
<path d="M83 74H82" stroke="white" stroke-linejoin="round"/>
<path d="M83 75H84" stroke="white" stroke-linejoin="round"/>
<path d="M84 76H86" stroke="white" stroke-linejoin="round"/>
<path d="M84 77H85" stroke="white" stroke-linejoin="round"/>
<path d="M83 80H82" stroke="white" stroke-linejoin="round"/>
<path d="M83 81H82" stroke="white" stroke-linejoin="round"/>
<path d="M84 79H85" stroke="white" stroke-linejoin="round"/>
<path d="M83 83H82" stroke="white" stroke-linejoin="round"/>
<path d="M84 84H85" stroke="white" stroke-linejoin="round"/>
<path d="M83 90H84" stroke="white" stroke-linejoin="round"/>
<path d="M56.6024 100H55V105H66V100H64.4329" stroke="white" stroke-linejoin="round"/>
<path d="M66 105C56.7094 78.0442 56.7094 45 56.7094 45C56.7094 45 52.2986 78.0452 57.6473 104.984" stroke="white" stroke-linejoin="round"/>
<path d="M64.0418 50C64.0418 50 68.4755 76.4038 64 100" stroke="white" stroke-linejoin="round"/>
<path d="M64 52H62" stroke="white" stroke-linejoin="round"/>
<path d="M65 55H60" stroke="white" stroke-linejoin="round"/>
<path d="M65 57H62" stroke="white" stroke-linejoin="round"/>
<path d="M66 60H61" stroke="white" stroke-linejoin="round"/>
<path d="M66 63H62" stroke="white" stroke-linejoin="round"/>
<path d="M66 65H61" stroke="white" stroke-linejoin="round"/>
<path d="M66 68H62" stroke="white" stroke-linejoin="round"/>
<path d="M66 71H65" stroke="white" stroke-linejoin="round"/>
<path d="M66 74H62" stroke="white" stroke-linejoin="round"/>
<path d="M66 76H63" stroke="white" stroke-linejoin="round"/>
<path d="M66 79H62" stroke="white" stroke-linejoin="round"/>
<path d="M66 82H63" stroke="white" stroke-linejoin="round"/>
<path d="M66 85H62" stroke="white" stroke-linejoin="round"/>
<path d="M66 87H63" stroke="white" stroke-linejoin="round"/>
<path d="M66 90H63" stroke="white" stroke-linejoin="round"/>
<path d="M65 93H62" stroke="white" stroke-linejoin="round"/>
<path d="M56 74C56.3051 81.5359 57.0821 94.191 61 105" stroke="white" stroke-linejoin="round"/>
<path d="M55 50H65" stroke="white" stroke-linejoin="round"/>
<path d="M64 50V45H56V50" stroke="white" stroke-linejoin="round"/>
<path d="M57 66C57 73.306 59.0769 95.4977 63 105" stroke="white" stroke-linejoin="round"/>
<path d="M60 90C60.8165 95.1473 62.1582 100.179 64 105" stroke="white" stroke-linejoin="round"/>
<path d="M57 93C57.4039 97.0594 58.0727 101.072 59 105" stroke="white" stroke-linejoin="round"/>
<path d="M59 96C59.4659 99.0703 60.1351 102.082 61 105" stroke="white" stroke-linejoin="round"/>
<path d="M65 49H59" stroke="white" stroke-linejoin="round"/>
<path d="M65 48H62" stroke="white" stroke-linejoin="round"/>
<path d="M65 47H63" stroke="white" stroke-linejoin="round"/>
<path d="M64 46H56" stroke="white" stroke-linejoin="round"/>
<path d="M65 52H60" stroke="white" stroke-linejoin="round"/>
<path d="M65 55H60" stroke="white" stroke-linejoin="round"/>
<path d="M66 58H64" stroke="white" stroke-linejoin="round"/>
<path d="M65 61H60" stroke="white" stroke-linejoin="round"/>
<path d="M66 64H63" stroke="white" stroke-linejoin="round"/>
<path d="M65 66H62" stroke="white" stroke-linejoin="round"/>
<path d="M66 69H61" stroke="white" stroke-linejoin="round"/>
<path d="M66 72H64" stroke="white" stroke-linejoin="round"/>
<path d="M66 74H62" stroke="white" stroke-linejoin="round"/>
<path d="M66 77H63" stroke="white" stroke-linejoin="round"/>
<path d="M66 80H63" stroke="white" stroke-linejoin="round"/>
<path d="M66 83H64" stroke="white" stroke-linejoin="round"/>
<path d="M66 85H65" stroke="white" stroke-linejoin="round"/>
<path d="M66 88H65" stroke="white" stroke-linejoin="round"/>
<path d="M66 91H65" stroke="white" stroke-linejoin="round"/>
<path d="M65 94H64" stroke="white" stroke-linejoin="round"/>
<path d="M132 103H111V105H132V103Z" stroke="white" stroke-linejoin="round"/>
<path d="M114 103V66" stroke="white" stroke-linejoin="round"/>
<path d="M129.877 103C130.598 93.5246 128.505 75.8524 114 71" stroke="white" stroke-linejoin="round"/>
<path d="M128.86 102C129.583 93.2358 127.921 77.0863 114 72" stroke="white" stroke-linejoin="round"/>
<path d="M118 74C123.416 80.7499 124 93.437 124 103" stroke="white" stroke-linejoin="round"/>
<path d="M114 101H119" stroke="white" stroke-linejoin="round"/>
<path d="M114 100H119" stroke="white" stroke-linejoin="round"/>
<path d="M114 98H126" stroke="white" stroke-linejoin="round"/>
<path d="M114 96H119" stroke="white" stroke-linejoin="round"/>
<path d="M114 95H119" stroke="white" stroke-linejoin="round"/>
<path d="M114 93H125" stroke="white" stroke-linejoin="round"/>
<path d="M114 91H119" stroke="white" stroke-linejoin="round"/>
<path d="M114 90H119" stroke="white" stroke-linejoin="round"/>
<path d="M114 88H124" stroke="white" stroke-linejoin="round"/>
<path d="M114 87H119" stroke="white" stroke-linejoin="round"/>
<path d="M114 85H119" stroke="white" stroke-linejoin="round"/>
<path d="M114 83H123" stroke="white" stroke-linejoin="round"/>
<path d="M114 82H119" stroke="white" stroke-linejoin="round"/>
<path d="M114 80H119" stroke="white" stroke-linejoin="round"/>
<path d="M114 78H118" stroke="white" stroke-linejoin="round"/>
<path d="M114 77H116" stroke="white" stroke-linejoin="round"/>
<path d="M114 75H115" stroke="white" stroke-linejoin="round"/>
<path d="M120 87H121" stroke="white" stroke-linejoin="round"/>
<path d="M120 91H122" stroke="white" stroke-linejoin="round"/>
<path d="M120 96H122" stroke="white" stroke-linejoin="round"/>
<path d="M120 101H121" stroke="white" stroke-linejoin="round"/>
<path d="M118 78H119" stroke="white" stroke-linejoin="round"/>
<path d="M118 75C121.147 77.433 128.339 86.2826 126.782 103" stroke="white" stroke-linejoin="round"/>
<path d="M114 66V64" stroke="white" stroke-linejoin="round"/>
<path d="M111 104H132" stroke="white" stroke-linejoin="round"/>
</g>
</svg>
