<svg width="125" height="47" viewBox="0 0 125 47" fill="none" xmlns="http://www.w3.org/2000/svg">
<path fill-rule="evenodd" clip-rule="evenodd" d="M52.9948 0H52.8281V1.24067H52.9948V0ZM49.3164 13.057H49.1497V13.5044H49.3164V13.057ZM52.933 16.9738C51.7763 16.9738 50.8346 17.9134 50.8346 19.0676C50.8346 20.2218 51.7763 21.1615 52.933 21.1615C54.0896 21.1615 55.033 20.2218 55.033 19.0676C55.033 17.9134 54.0913 16.9738 52.933 16.9738ZM52.933 20.9968C51.868 20.9968 51.0013 20.132 51.0013 19.0693C51.0013 18.0065 51.868 17.1417 52.933 17.1417C53.998 17.1417 54.8663 18.0065 54.8663 19.0693C54.8663 20.132 53.9996 20.9968 52.933 20.9968ZM66.6871 26.5714H66.0221C65.9305 26.5714 65.8555 26.4966 65.8555 26.4051V24.9615C65.8555 24.6854 66.0805 24.4626 66.3555 24.4626C66.6305 24.4626 66.8538 24.6871 66.8538 24.9615V26.4051C66.8538 26.4966 66.7788 26.5714 66.6871 26.5714ZM66.3555 24.7935C66.2638 24.7935 66.1888 24.8683 66.1888 24.9599V26.2371H66.5205V24.9599C66.5205 24.8683 66.4471 24.7935 66.3555 24.7935ZM85.1732 26.5714H84.5082H84.5065C84.4148 26.5714 84.3398 26.4966 84.3398 26.4051V24.9615C84.3398 24.6854 84.5632 24.4626 84.8398 24.4626C85.1165 24.4626 85.3398 24.6871 85.3398 24.9615V26.4051C85.3398 26.4966 85.2648 26.5714 85.1732 26.5714ZM84.8415 24.7935C84.7498 24.7935 84.6748 24.8683 84.6748 24.9599H84.6765V26.2371H85.0082V24.9599C85.0082 24.8683 84.9332 24.7935 84.8415 24.7935ZM86.2917 26.5714H85.6267H85.625C85.5333 26.5714 85.4583 26.4966 85.4583 26.4051V24.9615C85.4583 24.6854 85.6817 24.4626 85.9583 24.4626C86.235 24.4626 86.4583 24.6871 86.4583 24.9615V26.4051C86.4583 26.4966 86.3833 26.5714 86.2917 26.5714ZM85.96 24.7935C85.8683 24.7935 85.7933 24.8683 85.7933 24.9599H85.795V26.2371H86.1267V24.9599C86.1267 24.8683 86.0517 24.7935 85.96 24.7935ZM86.7451 26.5714H87.4102C87.5018 26.5714 87.5768 26.4966 87.5768 26.4051V24.9615C87.5768 24.6871 87.3535 24.4626 87.0768 24.4626C86.8002 24.4626 86.5768 24.6854 86.5768 24.9615V26.4051C86.5768 26.4966 86.6518 26.5714 86.7435 26.5714H86.7451ZM86.9118 24.9599C86.9118 24.8683 86.9868 24.7935 87.0785 24.7935C87.1701 24.7935 87.2451 24.8683 87.2451 24.9599V26.2371H86.9135V24.9599H86.9118ZM84.3411 29.6566C84.3411 29.3808 84.5657 29.1581 84.8403 29.1577C85.1166 29.1581 85.3395 29.3824 85.3395 29.6566V31.1001C85.3395 31.1916 85.2645 31.2665 85.1728 31.2665H84.5078C84.4161 31.2665 84.3411 31.1916 84.3411 31.1001V29.6566ZM84.6761 30.9339H85.0078H85.0095V29.6566C85.0095 29.5651 84.9345 29.4903 84.8428 29.4903C84.7512 29.4903 84.6761 29.5651 84.6761 29.6566V30.9339ZM85.9588 29.1577C85.6842 29.1581 85.4596 29.3808 85.4596 29.6566V31.1001C85.4596 31.1916 85.5346 31.2665 85.6263 31.2665H86.2913C86.383 31.2665 86.458 31.1916 86.458 31.1001V29.6566C86.458 29.3824 86.2351 29.1581 85.9588 29.1577ZM85.793 30.9339V29.6566C85.793 29.5651 85.868 29.4903 85.9596 29.4903C86.0513 29.4903 86.1263 29.5651 86.1263 29.6566V30.9339H86.1246H85.793ZM86.5768 29.6566C86.5768 29.3808 86.8014 29.1581 87.076 29.1577C87.3523 29.1581 87.5751 29.3824 87.5751 29.6566V31.1001C87.5751 31.1916 87.5002 31.2665 87.4085 31.2665H86.7435C86.6518 31.2665 86.5768 31.1916 86.5768 31.1001V29.6566ZM86.9118 30.9339H87.2435H87.2451V29.6566C87.2451 29.5651 87.1701 29.4903 87.0785 29.4903C86.9868 29.4903 86.9118 29.5651 86.9118 29.6566V30.9339ZM84.8403 33.8526C84.5657 33.8531 84.3411 34.0757 84.3411 34.3515V35.7952C84.3411 35.8867 84.4161 35.9615 84.5078 35.9615H85.1728C85.2645 35.9615 85.3395 35.8867 85.3395 35.7952V34.3515C85.3395 34.0774 85.1166 33.8531 84.8403 33.8526ZM85.0078 35.6288H84.6761V34.3515C84.6761 34.2601 84.7512 34.1853 84.8428 34.1853C84.9345 34.1853 85.0095 34.2601 85.0095 34.3515V35.6288H85.0078ZM85.4596 34.3515C85.4596 34.0757 85.6842 33.8531 85.9588 33.8526C86.2351 33.8531 86.458 34.0774 86.458 34.3515V35.7952C86.458 35.8867 86.383 35.9615 86.2913 35.9615H85.6263C85.5346 35.9615 85.4596 35.8867 85.4596 35.7952V34.3515ZM85.793 34.3515V35.6288H86.1246H86.1263V34.3515C86.1263 34.2601 86.0513 34.1853 85.9596 34.1853C85.868 34.1853 85.793 34.2601 85.793 34.3515ZM87.076 33.8526C86.8014 33.8531 86.5768 34.0757 86.5768 34.3515V35.7952C86.5768 35.8867 86.6518 35.9615 86.7435 35.9615H87.4085C87.5002 35.9615 87.5751 35.8867 87.5751 35.7952V34.3515C87.5751 34.0774 87.3523 33.8531 87.076 33.8526ZM87.2435 35.6288H86.9118V34.3515C86.9118 34.2601 86.9868 34.1853 87.0785 34.1853C87.1701 34.1853 87.2451 34.2601 87.2451 34.3515V35.6288H87.2435ZM67.1397 26.5714H67.8047C67.8964 26.5714 67.9714 26.4966 67.9714 26.4051V24.9615C67.9714 24.6871 67.748 24.4626 67.4714 24.4626C67.1947 24.4626 66.9714 24.6854 66.9714 24.9615V26.4051C66.9714 26.4966 67.0463 26.5714 67.138 26.5714H67.1397ZM67.3064 24.9599C67.3064 24.8683 67.3814 24.7935 67.473 24.7935C67.5647 24.7935 67.6397 24.8683 67.6397 24.9599V26.2371H67.308V24.9599H67.3064ZM68.9232 26.5714H68.2582H68.2565C68.1648 26.5714 68.0898 26.4966 68.0898 26.4051V24.9615C68.0898 24.6854 68.3132 24.4626 68.5898 24.4626C68.8665 24.4626 69.0898 24.6871 69.0898 24.9615V26.4051C69.0898 26.4966 69.0148 26.5714 68.9232 26.5714ZM68.5915 24.7935C68.4998 24.7935 68.4248 24.8683 68.4248 24.9599H68.4265V26.2371H68.7582V24.9599C68.7582 24.8683 68.6832 24.7935 68.5915 24.7935ZM66.3555 29.1577C66.0805 29.1577 65.8555 29.3805 65.8555 29.6566V31.1001C65.8555 31.1916 65.9305 31.2665 66.0221 31.2665H66.6871C66.7788 31.2665 66.8538 31.1916 66.8538 31.1001V29.6566C66.8538 29.3822 66.6305 29.1577 66.3555 29.1577ZM66.5205 30.9339H66.1888V29.6566C66.1888 29.5651 66.2638 29.4903 66.3555 29.4903C66.4471 29.4903 66.5205 29.5651 66.5205 29.6566V30.9339ZM66.9714 29.6566C66.9714 29.3808 67.1959 29.1581 67.4705 29.1577C67.7468 29.1581 67.9697 29.3824 67.9697 29.6566V31.1001C67.9697 31.1916 67.8947 31.2665 67.803 31.2665H67.138C67.0463 31.2665 66.9714 31.1916 66.9714 31.1001V29.6566ZM67.3064 30.9339H67.638H67.6397V29.6566C67.6397 29.5651 67.5647 29.4903 67.473 29.4903C67.3814 29.4903 67.3064 29.5651 67.3064 29.6566V30.9339ZM68.589 29.1577C68.3144 29.1581 68.0898 29.3808 68.0898 29.6566V31.1001C68.0898 31.1916 68.1648 31.2665 68.2565 31.2665H68.9215C69.0132 31.2665 69.0882 31.1916 69.0882 31.1001V29.6566C69.0882 29.3824 68.8653 29.1581 68.589 29.1577ZM68.7565 30.9339H68.4248V29.6566C68.4248 29.5651 68.4998 29.4903 68.5915 29.4903C68.6832 29.4903 68.7582 29.5651 68.7582 29.6566V30.9339H68.7565ZM65.8555 34.3515C65.8555 34.0755 66.0805 33.8526 66.3555 33.8526C66.6305 33.8526 66.8538 34.0771 66.8538 34.3515V35.7952C66.8538 35.8867 66.7788 35.9615 66.6871 35.9615H66.0221C65.9305 35.9615 65.8555 35.8867 65.8555 35.7952V34.3515ZM66.1888 35.6288H66.5205V34.3515C66.5205 34.2601 66.4471 34.1853 66.3555 34.1853C66.2638 34.1853 66.1888 34.2601 66.1888 34.3515V35.6288ZM67.4705 33.8526C67.1959 33.8531 66.9714 34.0757 66.9714 34.3515V35.7952C66.9714 35.8867 67.0463 35.9615 67.138 35.9615H67.803C67.8947 35.9615 67.9697 35.8867 67.9697 35.7952V34.3515C67.9697 34.0774 67.7468 33.8531 67.4705 33.8526ZM67.638 35.6288H67.3064V34.3515C67.3064 34.2601 67.3814 34.1853 67.473 34.1853C67.5647 34.1853 67.6397 34.2601 67.6397 34.3515V35.6288H67.638ZM68.0898 34.3515C68.0898 34.0757 68.3144 33.8531 68.589 33.8526C68.8653 33.8531 69.0882 34.0774 69.0882 34.3515V35.7952C69.0882 35.8867 69.0132 35.9615 68.9215 35.9615H68.2565C68.1648 35.9615 68.0898 35.8867 68.0898 35.7952V34.3515ZM68.4248 35.6288H68.7565H68.7582V34.3515C68.7582 34.2601 68.6832 34.1853 68.5915 34.1853C68.4998 34.1853 68.4248 34.2601 68.4248 34.3515V35.6288ZM96.1888 25.3159H96.0221V25.8747H96.1888V25.3159ZM100.953 25.3159H101.12V25.8747H100.953V25.3159ZM99.6385 34.0354C99.7302 34.0354 99.8052 33.9606 99.8052 33.8691V33.1922C99.8052 32.5137 99.2519 31.9615 98.5719 31.9615C97.8919 31.9615 97.3385 32.5137 97.3385 33.1922V33.8691C97.3385 33.9606 97.4135 34.0354 97.5052 34.0354H99.6385ZM99.4719 33.1922V33.7027H98.7385V32.3091C99.1552 32.3872 99.4719 32.7532 99.4719 33.1922ZM97.6702 33.1922C97.6702 32.7532 97.9869 32.3872 98.4035 32.3091V33.7027H97.6702V33.1922ZM107.646 37.8657H106.413C106.321 37.8657 106.246 37.7909 106.246 37.6994V35.7519C106.246 35.6604 106.321 35.5856 106.413 35.5856H107.646C107.738 35.5856 107.813 35.6604 107.813 35.7519V37.6994C107.813 37.7909 107.738 37.8657 107.646 37.8657ZM107.196 37.533H107.479V35.9182H107.196V37.533ZM106.863 35.9182H106.579V37.533H106.863V35.9182ZM110.243 37.8657H111.477C111.568 37.8657 111.643 37.7909 111.643 37.6994V35.7519C111.643 35.6604 111.568 35.5856 111.477 35.5856H110.243C110.152 35.5856 110.077 35.6604 110.077 35.7519V37.6994C110.077 37.7909 110.152 37.8657 110.243 37.8657ZM111.31 37.533H111.027V35.9182H111.31V37.533ZM110.41 35.9182H110.693V37.533H110.41V35.9182ZM111.477 41.7224H110.243C110.152 41.7224 110.077 41.6475 110.077 41.556V39.6086C110.077 39.5171 110.152 39.4422 110.243 39.4422H111.477C111.568 39.4422 111.643 39.5171 111.643 39.6086V41.556C111.643 41.6475 111.568 41.7224 111.477 41.7224ZM111.027 41.3898H111.31V39.7748H111.027V41.3898ZM110.693 39.7748H110.41V41.3898H110.693V39.7748ZM97.9452 29.1709C97.9185 29.1095 97.8185 29.1095 97.7919 29.1709L97.3469 30.1987C97.3352 30.2237 97.3385 30.2536 97.3535 30.277C97.3685 30.3002 97.3952 30.3152 97.4235 30.3152H98.3119C98.3402 30.3152 98.3669 30.3019 98.3819 30.277C98.3969 30.2536 98.4002 30.2237 98.3885 30.1987L97.9435 29.1709H97.9452ZM97.5502 30.1488L97.8685 29.4138L98.1869 30.1488H97.5519H97.5502ZM99.3228 29.1708L99.7678 30.1986C99.7795 30.2236 99.7761 30.2535 99.7611 30.2768C99.7461 30.3017 99.7195 30.315 99.6911 30.315H98.8011C98.7728 30.315 98.7461 30.3 98.7311 30.2768C98.7161 30.2535 98.7128 30.2236 98.7245 30.1986L99.1695 29.1708C99.1828 29.1409 99.2128 29.1209 99.2461 29.1209C99.2795 29.1209 99.3095 29.1409 99.3228 29.1708ZM99.2478 29.4136L98.9295 30.1487H99.5661L99.2478 29.4136ZM113.107 25.3159H112.94V25.8747H113.107V25.3159ZM117.871 25.3159H118.038V25.8747H117.871V25.3159ZM116.557 34.0354C116.648 34.0354 116.723 33.9606 116.723 33.8691V33.1922C116.723 32.5137 116.17 31.9615 115.49 31.9615C114.81 31.9615 114.257 32.5137 114.257 33.1922V33.8691C114.257 33.9606 114.332 34.0354 114.423 34.0354H116.557ZM116.39 33.1922V33.7027H115.657V32.3091C116.073 32.3872 116.39 32.7532 116.39 33.1922ZM114.588 33.1922C114.588 32.7532 114.905 32.3872 115.322 32.3091V33.7027H114.588V33.1922ZM114.422 35.5856H116.557C116.649 35.5856 116.724 35.6604 116.724 35.7519V37.6994C116.724 37.7909 116.649 37.8657 116.557 37.8657H114.422C114.33 37.8657 114.255 37.7909 114.255 37.6994V35.7519C114.255 35.6604 114.33 35.5856 114.422 35.5856ZM115.322 35.9182H114.589V37.533H115.322V35.9182ZM115.657 37.533H116.39V35.9182H115.657V37.533ZM116.557 39.4422H114.422C114.33 39.4422 114.255 39.5171 114.255 39.6086V41.556C114.255 41.6475 114.33 41.7224 114.422 41.7224H116.557C116.649 41.7224 116.724 41.6475 116.724 41.556V39.6086C116.724 39.5171 116.649 39.4422 116.557 39.4422ZM114.589 39.7748H115.322V41.3898H114.589V39.7748ZM116.39 41.3898H115.657V39.7748H116.39V41.3898ZM114.786 29.1209C114.82 29.1209 114.85 29.1409 114.863 29.1708H114.861L115.306 30.1986C115.318 30.2236 115.315 30.2535 115.3 30.2768C115.285 30.3017 115.258 30.315 115.23 30.315H114.341C114.313 30.315 114.286 30.3 114.271 30.2768C114.256 30.2535 114.253 30.2236 114.265 30.1986L114.71 29.1708C114.723 29.1409 114.753 29.1209 114.786 29.1209ZM114.786 29.4136L114.468 30.1487H114.47H115.105L114.786 29.4136ZM116.687 30.1987L116.242 29.1709C116.215 29.1095 116.115 29.1095 116.089 29.1709L115.644 30.1987C115.632 30.2237 115.635 30.2536 115.65 30.277C115.665 30.3002 115.692 30.3152 115.72 30.3152H116.61C116.639 30.3152 116.665 30.3019 116.68 30.277C116.695 30.252 116.699 30.2237 116.687 30.1987ZM115.847 30.1488L116.165 29.4138L116.484 30.1488H115.847ZM103.815 34.2234H102.582C102.552 34.2234 102.525 34.2085 102.51 34.1835C102.495 34.1586 102.495 34.1286 102.508 34.102L103.125 32.9594C103.14 32.9328 103.168 32.9162 103.199 32.9162C103.229 32.9162 103.257 32.9328 103.272 32.9594L103.889 34.102C103.902 34.1269 103.902 34.1586 103.887 34.1835C103.872 34.2085 103.845 34.2234 103.815 34.2234ZM103.675 34.0588L103.199 33.174L102.722 34.0588H103.675ZM106.414 34.2233H107.647C107.677 34.2233 107.704 34.2084 107.719 34.1834C107.734 34.1585 107.734 34.1268 107.721 34.1019L107.104 32.9593C107.076 32.9061 106.986 32.9061 106.957 32.9593L106.341 34.1019C106.327 34.1268 106.327 34.1585 106.342 34.1834C106.357 34.2084 106.384 34.2233 106.414 34.2233ZM107.031 33.1739L107.507 34.0587H106.554L107.031 33.1739ZM111.477 34.2234H110.243C110.213 34.2234 110.187 34.2085 110.172 34.1835C110.157 34.1586 110.157 34.1286 110.17 34.102L110.787 32.9594C110.802 32.9328 110.83 32.9162 110.86 32.9162C110.89 32.9162 110.918 32.9328 110.933 32.9594L111.55 34.102C111.563 34.1269 111.563 34.1586 111.548 34.1835C111.533 34.2085 111.507 34.2234 111.477 34.2234ZM111.337 34.0588L110.86 33.174L110.383 34.0588H111.337ZM52.7669 17.4691H53.1003V18.901H53.9286V19.2336H52.9336C52.8419 19.2336 52.7669 19.1588 52.7669 19.0674V17.4691ZM56.5495 13.057H56.7161V13.5044H56.5495V13.057ZM50.7721 22.9609H50.4388V24.5226H50.7721V22.9609ZM51.099 22.9609H51.2656V24.5226H51.099V22.9609ZM51.9245 22.9609H51.5911V24.5226H51.9245V22.9609ZM52.2513 22.9609H52.418V24.5226H52.2513V22.9609ZM53.0781 22.9609H52.7448V24.5226H53.0781V22.9609ZM53.4062 22.9609H53.5729V24.5226H53.4062V22.9609ZM54.2331 22.9609H53.8997V24.5226H54.2331V22.9609ZM54.5599 22.9609H54.7266V24.5226H54.5599V22.9609ZM55.3867 22.9609H55.0534V24.5226H55.3867V22.9609ZM50.8932 25.5203H51.4699C51.5616 25.5203 51.6366 25.5951 51.6366 25.6865V28.3692C51.6366 28.4606 51.5616 28.5354 51.4699 28.5354H50.8932C50.8016 28.5354 50.7266 28.4606 50.7266 28.3692V25.6865C50.7266 25.5951 50.8016 25.5203 50.8932 25.5203ZM51.0599 28.2028H51.3032V25.8528H51.0599V28.2028ZM52.6248 25.5203H52.0482C51.9565 25.5203 51.8815 25.5951 51.8815 25.6865V28.3692C51.8815 28.4606 51.9565 28.5354 52.0482 28.5354H52.6248C52.7165 28.5354 52.7915 28.4606 52.7915 28.3692V25.6865C52.7915 25.5951 52.7165 25.5203 52.6248 25.5203ZM52.4582 28.2028H52.2148V25.8528H52.4582V28.2028ZM53.2018 25.5203H53.7785C53.8702 25.5203 53.9452 25.5951 53.9452 25.6865V28.3692C53.9452 28.4606 53.8702 28.5354 53.7785 28.5354H53.2018C53.1102 28.5354 53.0352 28.4606 53.0352 28.3692V25.6865C53.0352 25.5951 53.1102 25.5203 53.2018 25.5203ZM53.3685 28.2028H53.6118V25.8528H53.3685V28.2028ZM54.9321 25.5203H54.3555C54.2638 25.5203 54.1888 25.5951 54.1888 25.6865V28.3692C54.1888 28.4606 54.2638 28.5354 54.3555 28.5354H54.9321C55.0238 28.5354 55.0988 28.4606 55.0988 28.3692V25.6865C55.0988 25.5951 55.0238 25.5203 54.9321 25.5203ZM54.7655 28.2028H54.5221V25.8528H54.7655V28.2028ZM50.8932 29.8079H51.4699C51.5616 29.8079 51.6366 29.8827 51.6366 29.9742V32.6568C51.6366 32.7483 51.5616 32.8231 51.4699 32.8231H50.8932C50.8016 32.8231 50.7266 32.7483 50.7266 32.6568V29.9742C50.7266 29.8827 50.8016 29.8079 50.8932 29.8079ZM51.0599 32.4905H51.3032V30.1406H51.0599V32.4905ZM52.6248 29.8079H52.0482C51.9565 29.8079 51.8815 29.8827 51.8815 29.9742V32.6568C51.8815 32.7483 51.9565 32.8231 52.0482 32.8231H52.6248C52.7165 32.8231 52.7915 32.7483 52.7915 32.6568V29.9742C52.7915 29.8827 52.7165 29.8079 52.6248 29.8079ZM52.4582 32.4905H52.2148V30.1406H52.4582V32.4905ZM53.2018 29.8079H53.7785C53.8702 29.8079 53.9452 29.8827 53.9452 29.9742V32.6568C53.9452 32.7483 53.8702 32.8231 53.7785 32.8231H53.2018C53.1102 32.8231 53.0352 32.7483 53.0352 32.6568V29.9742C53.0352 29.8827 53.1102 29.8079 53.2018 29.8079ZM53.3685 32.4905H53.6118V30.1406H53.3685V32.4905ZM54.9321 29.8079H54.3555C54.2638 29.8079 54.1888 29.8827 54.1888 29.9742V32.6568C54.1888 32.7483 54.2638 32.8231 54.3555 32.8231H54.9321C55.0238 32.8231 55.0988 32.7483 55.0988 32.6568V29.9742C55.0988 29.8827 55.0238 29.8079 54.9321 29.8079ZM54.7655 32.4905H54.5221V30.1406H54.7655V32.4905ZM51.4699 37.1105H50.8932C50.8016 37.1105 50.7266 37.0357 50.7266 36.9442V34.2616C50.7266 34.1701 50.8016 34.0953 50.8932 34.0953H51.4699C51.5616 34.0953 51.6366 34.1701 51.6366 34.2616V36.9442C51.6366 37.0357 51.5616 37.1105 51.4699 37.1105ZM51.3032 34.4279H51.0599V36.7779H51.3032V34.4279ZM125 44.7128H82.435V44.716H81.4167V45.6657H125V45.9983H81.25C81.1583 45.9983 81.0833 45.9235 81.0833 45.832V44.5497C81.0833 44.4583 81.1583 44.3835 81.25 44.3835H82.2683V40.6148C82.2683 40.5832 82.28 40.555 82.295 40.53C81.7583 40.0777 80.1983 38.9252 77.01 37.6861L77.1317 37.3768L82.865 39.6053V36.8546H82.435V36.5219H82.865V32.2644H82.435V31.9317H82.865V27.6742H82.435V27.3416H82.865V25.4024H70.58V27.3416H70.92V27.6742H70.58V31.9317H70.92V32.2644H70.58V36.5219H70.92V36.8546H70.58V39.597L76.2917 37.3785L76.4133 37.6878C73.1117 38.9701 71.5617 40.1541 71.0783 40.5716C71.0817 40.5866 71.0867 40.6016 71.0867 40.6165V44.3851H72.125C72.2167 44.3851 72.2917 44.4599 72.2917 44.5514V45.8337C72.2917 45.9252 72.2167 46 72.125 46H0V45.6673H71.9583V44.7177H46.9717C46.955 44.7227 46.9367 44.726 46.9183 44.726H37.1267C37.1083 44.726 37.09 44.7227 37.0733 44.7177H6.25167H5.91833H0V44.3851H5.93333V43.3822C5.715 43.3473 5.51333 43.2475 5.355 43.0878C5.15667 42.89 5.04833 42.6255 5.04833 42.3444C5.05 42.08 5.155 41.0921 5.315 40.204C5.61167 38.5525 5.87167 38.323 6.10833 38.323C6.34667 38.323 6.605 38.5525 6.89667 40.2074C7.05167 41.0955 7.155 42.085 7.155 42.3494C7.155 42.6305 7.045 42.895 6.845 43.0928C6.68667 43.2509 6.485 43.3523 6.265 43.3856V44.3868H8.77167V43.3639C8.55333 43.329 8.35167 43.2292 8.19333 43.0696C7.995 42.8717 7.88667 42.6073 7.88667 42.3262C7.88667 41.8123 8.29833 40.5982 8.94167 40.5982C9.585 40.5999 9.99167 41.8156 9.99167 42.3295C9.99167 42.8533 9.605 43.2858 9.10167 43.3656V44.3885H15.385L16.125 41.6393C13.735 40.9558 11.545 39.7334 9.72667 38.0354L9.71667 38.0254C9.36667 37.6362 9.42167 37.2537 9.63333 37.0475C9.865 36.8213 10.31 36.7664 10.6817 37.1123C12.325 38.6473 14.305 39.7567 16.4633 40.3836L16.6167 39.8116C16.4483 39.7284 16.3067 39.597 16.21 39.4307C16.0817 39.2078 16.0467 38.9484 16.1133 38.7006C16.2333 38.2499 16.6583 37.9605 17.1067 37.9905L17.1883 37.6894C16.2167 37.4134 15.29 37.0275 14.4267 36.5419L14.27 36.813C14.4217 36.9394 14.5317 37.1073 14.5833 37.3002C14.65 37.5481 14.615 37.8075 14.4867 38.0304C14.3583 38.2516 14.15 38.4113 13.9017 38.4777C13.8183 38.4994 13.7333 38.511 13.65 38.511C13.4833 38.511 13.3183 38.4677 13.17 38.3813C12.9483 38.2532 12.7883 38.0453 12.7217 37.7976C12.655 37.5497 12.69 37.2903 12.8183 37.0674C13.055 36.6583 13.5517 36.4904 13.9833 36.6466L14.14 36.3772C13.2733 35.86 12.4733 35.2446 11.7533 34.5445L11.5283 34.769C11.7917 35.1448 11.7567 35.6654 11.4217 35.9997C11.24 36.181 10.9967 36.2808 10.74 36.2808C10.4817 36.2808 10.24 36.181 10.0583 35.9997C9.875 35.8184 9.775 35.5773 9.775 35.3195C9.775 35.0617 9.87667 34.8205 10.0583 34.6393C10.24 34.4563 10.4817 34.3565 10.74 34.3565C10.94 34.3565 11.13 34.4198 11.2917 34.5329L11.515 34.31C10.8133 33.5932 10.1967 32.7933 9.67833 31.9284L9.40667 32.0848C9.47333 32.2694 9.485 32.469 9.43333 32.6619C9.36667 32.9096 9.20833 33.1176 8.985 33.2456C8.83667 33.3321 8.67167 33.3753 8.505 33.3753C8.42 33.3753 8.33667 33.3637 8.25333 33.3421C8.005 33.2756 7.79667 33.1159 7.66833 32.8931C7.53833 32.6701 7.505 32.4107 7.57167 32.1629C7.63833 31.9152 7.79833 31.7072 8.02167 31.5792C8.43167 31.343 8.94667 31.4445 9.24167 31.7954L9.51167 31.6391C9.02333 30.7709 8.63333 29.8412 8.35667 28.8633L8.05667 28.9431C8.075 29.1377 8.03333 29.334 7.93333 29.5069C7.805 29.7281 7.59667 29.8878 7.34833 29.9544C7.265 29.9759 7.18 29.9876 7.09667 29.9876C6.93 29.9876 6.765 29.9427 6.61667 29.8579C6.395 29.7298 6.235 29.5219 6.16833 29.2741C6.03167 28.7619 6.33667 28.2346 6.85 28.0966C7.30833 27.9736 7.77833 28.2047 7.97167 28.6205L8.26833 28.5407C8.025 27.5844 7.89167 26.5866 7.87833 25.5588H7.56833C7.48833 26.0094 7.095 26.3537 6.62 26.3537C6.08833 26.3537 5.65667 25.923 5.65667 25.3924C5.65667 24.8619 6.08833 24.4312 6.62 24.4312C7.095 24.4312 7.48833 24.7754 7.56833 25.2261H7.87833C7.89167 24.1983 8.025 23.2004 8.26833 22.2442L7.97 22.1643C7.88833 22.3423 7.75333 22.4919 7.58 22.5917C7.43167 22.6782 7.26667 22.7214 7.1 22.7214C7.015 22.7214 6.93167 22.7099 6.84833 22.6882C6.6 22.6217 6.39167 22.4637 6.26333 22.2409C6.13333 22.018 6.1 21.7585 6.16667 21.5107C6.30333 20.9985 6.835 20.6942 7.34667 20.8305C7.805 20.9536 8.09667 21.3877 8.05667 21.8433L8.35667 21.9232C8.63333 20.9453 9.02167 20.0156 9.51167 19.1475L9.24 18.9911C9.11333 19.1425 8.945 19.2523 8.75167 19.3038C8.66833 19.3254 8.58333 19.3371 8.5 19.3371C8.33333 19.3371 8.16833 19.2922 8.02 19.2074C7.79833 19.0792 7.63833 18.8714 7.57167 18.6236C7.505 18.3758 7.54 18.1163 7.66833 17.8935C7.935 17.4345 8.525 17.2765 8.985 17.5409C9.39667 17.777 9.565 18.271 9.40833 18.7018L9.67833 18.8581C10.1967 17.9933 10.8133 17.195 11.515 16.4765L11.29 16.252C11.13 16.3651 10.94 16.4283 10.7383 16.4283C10.48 16.4283 10.2383 16.3285 10.0567 16.1472C9.875 15.9659 9.775 15.7248 9.775 15.467C9.775 15.2092 9.87667 14.968 10.0583 14.7868C10.435 14.4126 11.045 14.4126 11.4217 14.7868C11.6033 14.968 11.7033 15.2109 11.7033 15.467C11.7033 15.6666 11.6417 15.8578 11.5283 16.0175L11.7533 16.242C12.4717 15.5418 13.2733 14.9265 14.14 14.4092L13.9833 14.1382C13.8767 14.1781 13.765 14.1981 13.655 14.1981C13.3217 14.1981 12.9967 14.0251 12.8183 13.7174C12.6883 13.4946 12.655 13.2352 12.7217 12.9873C12.7883 12.7395 12.9483 12.5317 13.1717 12.4035C13.6317 12.1391 14.2217 12.2972 14.4883 12.7562C14.725 13.1669 14.6233 13.6792 14.2717 13.9736L14.4283 14.243C15.2983 13.7556 16.23 13.3665 17.21 13.0905L17.13 12.7911C17.1208 12.7916 17.1114 12.7923 17.102 12.7931C17.0824 12.7946 17.0625 12.7961 17.0433 12.7961C16.8767 12.7961 16.7117 12.7512 16.5633 12.6664C16.3417 12.5383 16.1817 12.3304 16.115 12.0826C15.9783 11.5703 16.2833 11.0432 16.7967 10.9051C17.3083 10.7687 17.8383 11.0731 17.9767 11.5853C18.0983 12.0427 17.8683 12.5117 17.4517 12.7046L17.5317 13.0007C18.49 12.7578 19.49 12.6248 20.52 12.6115V12.3022C20.0667 12.2239 19.7217 11.8298 19.7217 11.3558C19.7217 11.098 19.8217 10.8569 20.0033 10.6756C20.185 10.4943 20.4283 10.3945 20.685 10.3945C21.2167 10.3945 21.6483 10.8253 21.6483 11.3558C21.6483 11.8298 21.3033 12.2223 20.8517 12.3022V12.6115C21.88 12.6248 22.88 12.7578 23.8383 13.0007L23.9183 12.7046C23.74 12.6215 23.59 12.4884 23.49 12.3154C23.36 12.0926 23.3267 11.8332 23.3933 11.5853C23.46 11.3375 23.6183 11.1297 23.8417 11.0015C24.065 10.8735 24.325 10.8386 24.5733 10.9051C25.0867 11.0415 25.3917 11.5703 25.255 12.0826C25.1867 12.3304 25.0283 12.5383 24.805 12.6664C24.6567 12.7528 24.4917 12.7961 24.325 12.7961C24.2967 12.7961 24.2667 12.7944 24.2383 12.7911L24.1583 13.0888C25.1383 13.3649 26.0717 13.7524 26.9417 14.2413L27.0983 13.9719C26.9467 13.8455 26.8367 13.6775 26.785 13.4846C26.7183 13.2368 26.7533 12.9773 26.8817 12.7545C27.01 12.5333 27.2183 12.3736 27.4667 12.3071C27.715 12.2406 27.975 12.2755 28.1983 12.4035C28.6583 12.668 28.8167 13.2584 28.5517 13.7174C28.3733 14.0251 28.0483 14.1981 27.715 14.1981C27.605 14.1981 27.495 14.1764 27.3883 14.1382L27.2333 14.4076C28.1 14.9248 28.9 15.5402 29.62 16.2403L29.8433 16.0175C29.73 15.8578 29.6667 15.6683 29.6667 15.467C29.6667 15.2092 29.7667 14.968 29.9483 14.7868C30.325 14.4109 30.935 14.4109 31.3117 14.7868C31.6867 15.1626 31.6867 15.773 31.3117 16.1472C31.1233 16.3351 30.8767 16.4283 30.63 16.4283C30.4367 16.4283 30.2433 16.3685 30.0783 16.2537L29.855 16.4765C30.5567 17.1933 31.1733 17.9933 31.6917 18.8581L31.96 18.7035C31.8917 18.5188 31.8817 18.3193 31.9333 18.1247C32 17.8768 32.1583 17.669 32.3817 17.5409C32.8417 17.2765 33.4333 17.4345 33.6983 17.8935C33.9633 18.3525 33.805 18.9412 33.345 19.2074C33.1967 19.2938 33.0317 19.3371 32.865 19.3371C32.78 19.3371 32.6967 19.3254 32.6133 19.3038C32.4183 19.2506 32.2517 19.1425 32.125 18.9911L31.855 19.1458C32.3433 20.0156 32.7333 20.9453 33.01 21.9232L33.3083 21.8433C33.29 21.6471 33.3317 21.4509 33.4317 21.2779C33.56 21.0567 33.7683 20.8971 34.0167 20.8305C34.5283 20.6925 35.0583 20.9985 35.1967 21.5107C35.2633 21.7585 35.2283 22.018 35.1 22.2409C34.9717 22.462 34.7633 22.6217 34.515 22.6882C34.4317 22.7099 34.3467 22.7214 34.2633 22.7214C34.0967 22.7214 33.9317 22.6765 33.7833 22.5917C33.61 22.4919 33.4767 22.3423 33.3933 22.1643L33.0983 22.2425C33.3417 23.1988 33.475 24.1967 33.4883 25.2245H33.7967C33.8767 24.7738 34.27 24.4295 34.745 24.4295C35.2767 24.4295 35.7083 24.8603 35.7083 25.3907C35.7083 25.9213 35.2767 26.3521 34.745 26.3521C34.27 26.3521 33.8767 26.0078 33.7967 25.5571H33.4883C33.475 26.5849 33.3417 27.5827 33.0983 28.539L33.3933 28.6172C33.4767 28.4392 33.61 28.2895 33.7833 28.1897C34.0067 28.06 34.2667 28.0268 34.515 28.0933C34.7633 28.1615 34.9717 28.3195 35.1 28.5424C35.2283 28.7652 35.2617 29.0247 35.195 29.2724C35.1283 29.5203 34.97 29.7281 34.7467 29.8562C34.5983 29.9427 34.4333 29.9859 34.2667 29.9859C34.1833 29.9859 34.1 29.9743 34.0167 29.9527C33.7683 29.8861 33.56 29.7264 33.4317 29.5036C33.3317 29.329 33.29 29.1327 33.3083 28.9381L33.01 28.8583C32.7333 29.8362 32.345 30.7659 31.855 31.6341L32.1233 31.7887C32.4183 31.4378 32.9317 31.3364 33.3433 31.5725C33.5667 31.7006 33.7267 31.9085 33.7933 32.1562C33.86 32.4041 33.825 32.6636 33.6967 32.8864C33.5683 33.1076 33.36 33.2673 33.1117 33.3337C33.0283 33.3554 32.9433 33.3671 32.86 33.3671C32.6933 33.3671 32.5283 33.3221 32.38 33.2373C32.1583 33.1092 31.9983 32.9013 31.9317 32.6536C31.88 32.459 31.89 32.2594 31.9583 32.0748L31.69 31.9202C31.1717 32.7849 30.555 33.5832 29.8533 34.3017L30.0767 34.5246C30.2367 34.4114 30.4283 34.3482 30.6283 34.3482C30.8867 34.3482 31.1283 34.448 31.31 34.6293C31.4917 34.8106 31.5917 35.0517 31.5917 35.3095C31.5917 35.5673 31.49 35.8084 31.3083 35.9897C31.1267 36.171 30.8833 36.2708 30.6267 36.2708C30.3683 36.2708 30.1267 36.171 29.945 35.9897C29.7633 35.8084 29.6633 35.5656 29.6633 35.3095C29.6633 35.1099 29.7267 34.9187 29.84 34.7591L29.6167 34.5361C28.8983 35.2363 28.0967 35.8517 27.23 36.3689L27.385 36.6367C27.815 36.4804 28.3117 36.65 28.5483 37.0591C28.6783 37.282 28.7117 37.5414 28.645 37.7892C28.5767 38.037 28.4183 38.2432 28.195 38.3713C28.0467 38.4577 27.8817 38.5011 27.715 38.5011C27.6317 38.5011 27.5483 38.4894 27.465 38.4677C27.2167 38.4013 27.0083 38.2432 26.88 38.0204C26.75 37.7976 26.7167 37.5381 26.7833 37.2902C26.835 37.0957 26.945 36.9294 27.0967 36.803L26.94 36.5336C26.0833 37.0142 25.1633 37.3984 24.1983 37.6744L24.2817 37.9805C24.7217 37.9622 25.135 38.2499 25.2533 38.6922C25.32 38.9401 25.285 39.1996 25.1567 39.4224C25.065 39.5837 24.93 39.7085 24.77 39.7916L24.9267 40.3704C27.0783 39.7434 29.05 38.6358 30.69 37.1056C30.8883 36.9045 31.1517 36.8279 31.4083 36.8995C31.6467 36.9676 31.835 37.1572 31.8867 37.3835C31.9383 37.613 31.85 37.8491 31.6433 38.0321C29.8333 39.7234 27.65 40.9424 25.2683 41.6277L26.0133 44.3818H36.9133C36.475 42.8567 36.2133 40.9923 36.11 38.9684L36.0883 38.9384L36.1083 38.9251C35.7567 31.9234 37.2767 23.0292 39.83 19.5899C40.5283 18.6502 41.2683 18.1746 42.035 18.1746C42.8017 18.1746 43.5433 18.6502 44.24 19.5899C46.755 22.9793 48.2683 31.6657 47.975 38.6174C48.5633 38.4162 49.13 38.2017 49.6783 37.9755H49.5683V37.8091H49.835V33.6248H49.5683V33.4585H49.835V29.2741H49.5683V29.1078H49.835V22.7015H49.6933C49.6017 22.7015 49.5267 22.6266 49.5267 22.5352V21.8251H49.2467C49.155 21.8251 49.08 21.7502 49.08 21.6587V16.4848C49.08 16.4233 49.115 16.3717 49.1633 16.3435V13.7756H49.33V16.3186H49.5267V14.5789C49.5267 14.5606 49.53 14.5424 49.5367 14.524L50.8733 10.7571C50.8733 10.7505 50.87 10.7388 50.87 10.7388V8.95264C50.87 8.93435 50.8717 8.91605 50.8783 8.89942L51.6667 6.57274L51.825 6.62595L51.6683 6.57107L51.745 6.35321C52.0933 5.38029 52.74 3.57083 52.74 1.72644H53.0733C53.0733 3.56394 53.7168 5.36676 54.0644 6.34061L54.0683 6.35154L54.1467 6.57107H54.1433L54.9533 8.89776C54.96 8.91605 54.9633 8.93435 54.9633 8.95264V10.7106L56.355 14.524C56.3617 14.5424 56.365 14.5606 56.365 14.5806V16.3202H56.5633V13.7773H56.73V16.3451C56.7783 16.375 56.8133 16.4249 56.8133 16.4865V21.6604C56.8133 21.7519 56.7383 21.8268 56.6467 21.8268H56.365V22.5368C56.365 22.6283 56.29 22.7032 56.1983 22.7032H56.0567V29.1095H56.1983V29.2758H56.0567V33.4602H56.1983V33.6265H56.0567V34.2951C57.895 32.8681 59.3233 31.3746 60.4 30.0408C63.1617 26.6165 64.2383 23.5181 64.38 23.0841H63.96V22.7514H64.3883V19.9807H64.2467C64.1883 19.9807 64.1333 19.9508 64.1033 19.8992C64.0733 19.8476 64.0717 19.7861 64.1 19.7345L64.8717 18.3043C64.93 18.1961 65.1067 18.1961 65.165 18.3043L65.9367 19.7345C65.965 19.7861 65.9633 19.8493 65.9333 19.8992C65.9033 19.9491 65.8483 19.9807 65.79 19.9807H65.6483V22.7514H65.8117L67.2833 16.0791C67.3 16.0025 67.3667 15.9477 67.445 15.9477C67.5217 15.9477 67.5883 16.0008 67.6067 16.0757L69.1533 22.7498H69.3283V19.979H69.1867C69.1283 19.979 69.0733 19.9491 69.0433 19.8975C69.0133 19.846 69.0117 19.7844 69.04 19.7328L69.8117 18.3026C69.84 18.2477 69.8967 18.2145 69.9583 18.2145C70.02 18.2145 70.0767 18.2494 70.105 18.3026L70.8767 19.7328C70.905 19.7844 70.9033 19.8476 70.8733 19.8975C70.8433 19.9474 70.7883 19.979 70.73 19.979H70.5883V22.7498H70.9283V23.0824H70.5883V23.6961H82.8733V23.0824H82.4433V22.7498H82.8733V19.979H82.7317C82.6733 19.979 82.6183 19.9491 82.5883 19.8975C82.5583 19.846 82.5567 19.7844 82.585 19.7328L83.3567 18.3026C83.385 18.2477 83.4417 18.2145 83.5033 18.2145C83.565 18.2145 83.6217 18.2494 83.65 18.3026L84.4217 19.7328C84.45 19.7844 84.4483 19.8476 84.4183 19.8975C84.3883 19.9474 84.3333 19.979 84.275 19.979H84.1333V22.7498H84.295L85.7667 16.0774C85.7833 16.0008 85.85 15.946 85.9283 15.946C86.005 15.946 86.0717 15.9992 86.09 16.0741L87.6367 22.7481H87.8117V19.9773H87.67C87.6117 19.9773 87.5567 19.9458 87.5267 19.8959C87.4967 19.846 87.495 19.7827 87.5233 19.7313L88.295 18.3009C88.3533 18.1928 88.53 18.1928 88.5883 18.3009L89.36 19.7313C89.3883 19.7827 89.3867 19.846 89.3567 19.8959C89.3267 19.9458 89.2717 19.9773 89.2133 19.9773H89.0717V22.7481H89.4117V23.0807H89.08C89.2217 23.5147 90.2983 26.6131 93.06 30.0375C93.7283 30.864 94.53 31.7538 95.4817 32.6486V27.7574C95.4817 27.6659 95.5567 27.591 95.6483 27.591H96.025V26.3138H96.1917V27.591H96.5683C96.66 27.591 96.735 27.6659 96.735 27.7574V29.8995L97.44 27.7491C97.4617 27.6808 97.5267 27.6343 97.5983 27.6343H99.5483C99.62 27.6343 99.685 27.6808 99.7067 27.7491L100.412 29.8995V27.7574C100.412 27.6659 100.487 27.591 100.578 27.591H100.955V26.3138H101.122V27.591H101.498C101.59 27.591 101.665 27.6659 101.665 27.7574V31.7122H112.398V27.7574C112.398 27.6659 112.473 27.591 112.565 27.591H112.942V26.3138H113.108V27.591H113.485C113.577 27.591 113.652 27.6659 113.652 27.7574V29.8995L114.357 27.7491C114.378 27.6808 114.443 27.6343 114.515 27.6343H116.465C116.537 27.6343 116.602 27.6808 116.623 27.7491L117.328 29.8995V27.7574C117.328 27.6659 117.403 27.591 117.495 27.591H117.872V26.3138H118.038V27.591H118.415C118.507 27.591 118.582 27.6659 118.582 27.7574V44.3801H125V44.7128ZM27.2583 37.0991C27.1833 37.1755 27.125 37.2703 27.0967 37.3768C27.085 37.42 27.0783 37.4649 27.0767 37.5082H27.495L27.2583 37.0991ZM27.5433 38.1484C27.7067 38.1917 27.8767 38.1701 28.0217 38.0853V38.0869C28.1667 38.0037 28.2717 37.8674 28.315 37.7061C28.3183 37.6961 28.3183 37.6861 28.32 37.6761H27.0933C27.1067 37.7377 27.1267 37.7992 27.16 37.8557C27.245 38.0004 27.38 38.1052 27.5433 38.1484ZM28.2517 37.2254C28.135 37.0242 27.9233 36.9111 27.705 36.9111H27.7067C27.6533 36.9111 27.6 36.9178 27.5483 36.931L27.8517 37.4566L27.7633 37.5082H28.3333C28.3283 37.41 28.3017 37.3136 28.2517 37.2254ZM32.2283 32.3193H32.3767L32.2467 32.2445C32.245 32.2506 32.2432 32.2569 32.2414 32.2632C32.2361 32.2819 32.2308 32.3005 32.2283 32.3193ZM32.54 32.948C32.685 33.0328 32.855 33.0543 33.0183 33.0111L33.02 33.0094C33.1817 32.9662 33.3183 32.8631 33.4017 32.7167C33.445 32.6452 33.4717 32.5654 33.4817 32.4855H32.8083L32.7733 32.5471L32.6667 32.4855H32.2333C32.2367 32.5122 32.24 32.5388 32.2467 32.5654C32.29 32.7284 32.3933 32.8631 32.54 32.948ZM33.17 31.8569C33.0717 31.8004 32.9633 31.7738 32.8567 31.7738V31.7755C32.6917 31.7755 32.5317 31.8386 32.4117 31.9567L32.9383 32.2594L32.9033 32.3193H33.4767C33.4733 32.2927 33.47 32.266 33.4633 32.2395C33.42 32.0764 33.3167 31.9417 33.17 31.8569ZM34.0967 29.6267C34.26 29.67 34.43 29.6466 34.575 29.5635C34.72 29.4787 34.825 29.344 34.8683 29.181C34.875 29.1544 34.8783 29.1278 34.8817 29.1013L34.2383 29.1012L34.2183 29.1793L33.9283 29.1012H33.635C33.645 29.181 33.6717 29.2591 33.7133 29.3323C33.7983 29.4787 33.9333 29.5835 34.0967 29.6267ZM34.2583 28.3877C34.15 28.3877 34.0417 28.416 33.945 28.4725L33.9433 28.4708C33.8467 28.5257 33.7717 28.6055 33.7167 28.6986L34.3017 28.855L34.2817 28.9331H34.8833C34.8733 28.8533 34.8467 28.7752 34.805 28.702C34.72 28.5574 34.585 28.4526 34.4217 28.4093C34.3683 28.3943 34.3133 28.3877 34.2583 28.3877ZM33.945 22.2974C34.09 22.3822 34.26 22.4038 34.4233 22.3606L34.4217 22.3589C34.585 22.3157 34.7217 22.2125 34.805 22.0662C34.8433 21.9997 34.8683 21.9281 34.88 21.8533H34.2867L34.3033 21.9132L33.7183 22.0695C33.7733 22.1626 33.8483 22.2425 33.945 22.2974ZM34.26 21.1233C34.2067 21.1233 34.1517 21.1299 34.0967 21.1448L34.0983 21.1465C33.935 21.1897 33.7983 21.2929 33.715 21.4392C33.67 21.5174 33.6433 21.6022 33.635 21.6887H33.8617L34.2183 21.5939L34.2433 21.6887H34.8867C34.8833 21.6554 34.8783 21.6222 34.87 21.5906C34.7933 21.3095 34.5383 21.1233 34.26 21.1233ZM32.6917 18.9762C32.8533 19.0194 33.0233 18.9961 33.17 18.913C33.34 18.8148 33.4433 18.6486 33.4733 18.469H32.9133L32.9383 18.5122L32.4133 18.8148C32.4917 18.8897 32.585 18.9479 32.6917 18.9762ZM32.8533 17.7371C32.7467 17.7371 32.6383 17.7655 32.54 17.8219V17.8203C32.395 17.9052 32.29 18.0399 32.2467 18.2028C32.2383 18.2361 32.2333 18.2677 32.23 18.3009H32.635L32.7717 18.2211L32.8167 18.3009H33.48C33.4717 18.2161 33.445 18.1313 33.4 18.0514C33.2833 17.8503 33.0717 17.7371 32.8533 17.7371ZM32.3467 18.469H32.235C32.2383 18.4872 32.2433 18.5072 32.2483 18.5254L32.3467 18.469ZM27.85 13.315L27.5483 13.8372C27.815 13.907 28.1067 13.7956 28.2517 13.5461C28.3 13.463 28.325 13.3715 28.3317 13.2817H27.7917L27.85 13.315ZM27.7067 12.6015C27.6533 12.6015 27.5983 12.6081 27.5433 12.6231L27.545 12.6248C27.3817 12.668 27.245 12.7712 27.1617 12.9174C27.125 12.979 27.1033 13.0472 27.09 13.1154H28.3233C28.29 12.9408 28.1867 12.7811 28.0217 12.6863C27.9233 12.6298 27.8167 12.6015 27.7067 12.6015ZM27.08 13.2801C27.0833 13.3183 27.0883 13.3565 27.0983 13.3931L27.1 13.3914C27.1283 13.4996 27.185 13.5927 27.2617 13.6692L27.4867 13.2801H27.08ZM24.3117 11.1978C24.2033 11.1978 24.095 11.2261 23.9983 11.2826C23.8533 11.3675 23.7483 11.5022 23.705 11.6651C23.7033 11.6718 23.7025 11.6789 23.7017 11.686C23.7008 11.6931 23.7 11.7 23.6983 11.7067H24.93C24.8833 11.4789 24.7167 11.2826 24.4767 11.2195C24.4217 11.2045 24.3667 11.1978 24.3117 11.1978ZM23.6883 11.8731C23.695 11.9662 23.72 12.0593 23.7683 12.1425L23.77 12.1441C23.855 12.2888 23.99 12.3936 24.1533 12.4369C24.3167 12.4801 24.4867 12.4568 24.6317 12.3736C24.7767 12.2888 24.8817 12.1541 24.925 11.9911C24.935 11.9512 24.94 11.913 24.9433 11.8731H23.6883ZM17.6417 11.6668C17.5517 11.3308 17.2067 11.1313 16.87 11.2211C16.63 11.2859 16.4617 11.4805 16.4167 11.7084H17.6483C17.6467 11.7017 17.6458 11.6947 17.645 11.6876C17.6442 11.6806 17.6433 11.6735 17.6417 11.6668ZM16.425 11.9911C16.4683 12.1541 16.5717 12.2888 16.7183 12.3736L16.72 12.372C16.865 12.4568 17.035 12.4784 17.1983 12.4352C17.465 12.3653 17.6433 12.1325 17.6617 11.8731H16.4067C16.4083 11.913 16.415 11.9512 16.425 11.9911ZM14.2683 13.2801H13.8633L14.0883 13.6692C14.1933 13.5628 14.2567 13.4248 14.2683 13.2801ZM13.64 12.5998C13.5333 12.5998 13.425 12.6281 13.3267 12.6846V12.6829C13.1817 12.7678 13.0767 12.9025 13.0333 13.0655C13.0304 13.0744 13.0292 13.0839 13.028 13.0933C13.0272 13.0996 13.0264 13.106 13.025 13.112H14.2583C14.245 13.0439 14.2233 12.9773 14.1867 12.9141C14.07 12.7129 13.8583 12.5998 13.64 12.5998ZM13.015 13.2801C13.0217 13.3715 13.0467 13.463 13.095 13.5445H13.0933C13.2383 13.794 13.53 13.9053 13.7983 13.8355L13.4967 13.3133L13.555 13.2801H13.015ZM9.11333 18.469H9.00333L9.1 18.5254C9.105 18.5055 9.11 18.4872 9.11333 18.469ZM9.11833 18.3043C9.09833 18.1097 8.99 17.9284 8.80833 17.8236L8.81 17.8253C8.50833 17.6507 8.12167 17.7555 7.94833 18.0548C7.90333 18.133 7.87667 18.2178 7.86833 18.3043H8.53333L8.57833 18.2245L8.715 18.3043H9.11833ZM8.17833 18.913C8.32333 18.9978 8.49333 19.0194 8.65667 18.9762V18.9745C8.765 18.9462 8.85833 18.8897 8.935 18.8132L8.41167 18.5122L8.43667 18.469H7.875C7.87616 18.4758 7.87711 18.483 7.87808 18.4902C7.87989 18.5037 7.88174 18.5175 7.885 18.5304C7.92833 18.6935 8.03167 18.8298 8.17833 18.913ZM7.08833 21.1249C6.81 21.1249 6.55333 21.3095 6.47833 21.5906H6.48C6.47167 21.6238 6.46667 21.6554 6.46333 21.6887H7.10667L7.13167 21.5939L7.48833 21.6887H7.71333C7.68667 21.4376 7.51 21.2164 7.25167 21.1465C7.19667 21.1315 7.14167 21.1249 7.08833 21.1249ZM6.925 22.3606C7.08667 22.4038 7.25667 22.3806 7.40333 22.2974H7.40167C7.49833 22.2425 7.57333 22.1626 7.62833 22.0695L7.045 21.9132L7.06167 21.8533H6.46667C6.47833 21.9281 6.50333 22.0014 6.54167 22.0678C6.62667 22.2125 6.76167 22.3173 6.925 22.3606ZM7.08833 28.3877C7.03333 28.3877 6.98 28.3943 6.925 28.4093H6.92667C6.67333 28.4775 6.49833 28.6904 6.465 28.9348H7.06667L7.04667 28.8567L7.63167 28.7003C7.51833 28.5075 7.31167 28.3877 7.08833 28.3877ZM6.77333 29.5618C6.91833 29.6466 7.08833 29.6683 7.25167 29.6251V29.6234C7.415 29.5802 7.55167 29.477 7.635 29.3307C7.67667 29.2575 7.70333 29.1793 7.71333 29.0995H7.42167L7.13167 29.1776L7.11167 29.0995H6.46667C6.47 29.1261 6.47333 29.1527 6.48 29.1793C6.52333 29.3423 6.62667 29.477 6.77333 29.5618ZM8.49167 31.7738C8.385 31.7738 8.27667 31.802 8.17833 31.8586V31.8553C8.03333 31.9401 7.92833 32.0748 7.885 32.2378C7.87833 32.2644 7.875 32.291 7.87167 32.3176H8.445L8.41 32.2577L8.93667 31.9551C8.81667 31.8386 8.655 31.7738 8.49167 31.7738ZM8.33 33.0111C8.49167 33.0543 8.66167 33.0328 8.80833 32.948V32.9495C8.98333 32.8482 9.09 32.6735 9.115 32.4872H8.68167L8.575 32.5488L8.54 32.4872H7.86667C7.87833 32.5671 7.905 32.6452 7.94667 32.7184C8.03167 32.8631 8.16667 32.9679 8.33 33.0111ZM8.97167 32.3193H9.11833C9.115 32.2943 9.10833 32.2694 9.10167 32.2445L8.97167 32.3193ZM13.8 36.931C13.7483 36.9178 13.695 36.9111 13.6417 36.9111H13.64C13.4217 36.9111 13.21 37.0242 13.0933 37.2254C13.0417 37.3136 13.0167 37.41 13.0117 37.5082H13.5833L13.495 37.4566L13.8 36.931ZM13.3267 38.0853C13.4733 38.1701 13.6433 38.1917 13.805 38.1484V38.1468C13.9683 38.1035 14.105 38.0004 14.1883 37.854C14.2217 37.7976 14.2417 37.736 14.255 37.6744H13.0283C13.0289 37.6776 13.0292 37.6806 13.0296 37.6836C13.0303 37.6899 13.0311 37.696 13.0333 37.7028C13.0767 37.8657 13.18 38.0021 13.3267 38.0853ZM13.8533 37.5082H14.27H14.2717C14.2633 37.3568 14.2 37.2121 14.09 37.1007L13.8533 37.5082ZM8.92833 40.9242C8.59667 40.9242 8.20667 41.8455 8.20667 42.3195H8.20833C8.20833 42.5125 8.28333 42.6921 8.41833 42.8284C8.55333 42.9648 8.735 43.0396 8.92667 43.0396C9.32333 43.0396 9.64667 42.7186 9.64667 42.3229C9.64667 41.8489 9.26 40.9242 8.92833 40.9242ZM6.095 38.659C5.76167 38.9517 5.36833 41.7125 5.36833 42.3394L5.37 42.3378C5.37 42.5307 5.445 42.7103 5.58 42.8468C5.715 42.9831 5.89667 43.0579 6.08833 43.0579C6.28 43.0579 6.46 42.9831 6.59667 42.8484C6.73333 42.7136 6.80833 42.5324 6.80833 42.3411C6.81 41.7142 6.42667 38.9517 6.095 38.659ZM83.5767 43.1162H82.6017V43.5735H89.24V43.1162H88.4367V42.9498H89.24V42.0351H86.675V41.8688H89.24V41.473H88.55V41.3067H89.24V40.7778H82.6017V41.3067H83.9583V41.473H82.6017V41.8688H84.7167V42.0351H82.6017V42.9498H83.5767V43.1162ZM95.4783 40.4452V39.9213H89.0667V40.4452H95.4783ZM100.41 31.1085H96.7317V31.1102V33.7578C97.0867 34.0522 97.46 34.3433 97.8483 34.6326H100.41V31.1085ZM104.91 34.9636H101.663V37.0009C101.908 37.1256 102.16 37.2487 102.415 37.3701V35.7519C102.415 35.6604 102.49 35.5856 102.582 35.5856H103.815C103.907 35.5856 103.982 35.6604 103.982 35.7519V37.6994C103.982 37.7909 103.907 37.8657 103.815 37.8657H103.517C103.967 38.057 104.432 38.2382 104.91 38.4128V34.9636ZM117.328 34.9636H113.65V38.5709H117.328V34.9636ZM117.328 38.7372H113.65V42.4277H117.328V38.7372ZM113.65 34.6309H117.328V31.1069H113.65V34.6309ZM117.328 42.5939H113.65H113.648V44.3319H113.997V43.5951C113.997 43.5036 114.072 43.4288 114.163 43.4288H114.678C114.77 43.4288 114.845 43.5036 114.845 43.5951V44.3319H116.132V43.5951C116.132 43.5036 116.207 43.4288 116.298 43.4288H116.813C116.905 43.4288 116.98 43.5036 116.98 43.5951V44.3319H117.328V42.5939ZM114.33 44.3319H114.512V43.7614H114.33V44.3319ZM116.465 44.3319H116.647V43.7614H116.465V44.3319ZM105.278 38.5443V34.9636H105.077V38.4727C105.105 38.4826 105.133 38.4928 105.162 38.503C105.2 38.5169 105.239 38.5309 105.278 38.5443ZM105.278 39.5887V38.8985V38.8968C105.247 38.8861 105.216 38.8752 105.185 38.8641C105.149 38.851 105.113 38.8379 105.077 38.8254V39.5887H105.278ZM106.938 44.3319H107.12V43.7614H106.938V44.3319ZM106.772 43.4271H107.285C107.377 43.4271 107.452 43.5019 107.452 43.5935V44.3302H108.515V42.5923H105.452V42.426H108.515V40.7778H107.812V41.5545C107.812 41.6459 107.737 41.7208 107.645 41.7208H106.412C106.32 41.7208 106.245 41.6459 106.245 41.5545V40.7778H105.443V44.3302H106.605V43.5935C106.605 43.5019 106.68 43.4271 106.772 43.4271ZM103.108 44.3319H103.29V43.7614H103.108V44.3319ZM102.942 43.4271H103.457C103.548 43.4271 103.623 43.5019 103.623 43.5935V44.3302H104.91V42.5923H101.663V44.3302H102.775V43.5935C102.775 43.5019 102.85 43.4271 102.942 43.4271ZM99.5483 44.3319H99.73V43.7614H99.5483V44.3319ZM99.3817 43.4271H99.8967H99.8983C99.99 43.4271 100.065 43.5019 100.065 43.5935V44.3302H100.412V42.5923H96.7333V44.3302H97.08V43.5935C97.08 43.5019 97.155 43.4271 97.2467 43.4271H97.7617C97.8533 43.4271 97.9283 43.5019 97.9283 43.5935V44.3302H99.215V43.5935C99.215 43.5019 99.29 43.4271 99.3817 43.4271ZM97.4133 44.3319H97.595V43.7614H97.4133V44.3319ZM97.3367 40.7795H96.7317V42.4277H100.41V40.7795H99.805V41.5561C99.805 41.6476 99.73 41.7225 99.6383 41.7225H97.5033C97.4117 41.7225 97.3367 41.6476 97.3367 41.5561V40.7795ZM99.4717 37.5331V36.1411V36.1394C99.3533 36.0663 99.2367 35.993 99.1217 35.9182H99.115V37.5331H99.4717ZM97.67 35.9182V37.5331H98.4033V35.9182H97.67ZM98.78 35.9182H98.7367V37.5331H98.78V35.9182ZM97.3367 35.7519C97.3367 35.6604 97.4117 35.5856 97.5033 35.5856H98.6183C98.315 35.381 98.0217 35.1732 97.7367 34.9636H96.7317V38.5709H98.7817V37.8657H97.5033C97.4117 37.8657 97.3367 37.7909 97.3367 37.6994V35.7519ZM98.7817 38.7372H96.7317H96.73V39.5887H97.34C97.3517 39.5072 97.4183 39.4423 97.5033 39.4423H98.7817V38.7372ZM98.4033 40.7795H97.67V41.3899H98.4033V40.7795ZM98.4033 40.4452V39.9213H97.67V40.4452H98.4033ZM99.47 40.7795H98.7367V41.3899H99.47V40.7795ZM98.7367 39.923V40.4469H99.47V39.923H98.7367ZM100.41 39.9213H99.805V40.4452H100.41V39.9213ZM99.6383 39.4423C99.7233 39.4423 99.7917 39.5072 99.8017 39.5887H100.41V38.7372H99.115V39.4423H99.6383ZM97.3367 40.4452V39.9213H96.7317V40.4452H97.3367ZM99.115 38.5709H100.41V36.7015C100.205 36.5852 100.003 36.467 99.805 36.3473V37.6994C99.805 37.7909 99.73 37.8657 99.6383 37.8657H99.115V38.5709ZM99.805 35.7519V35.9548C100.003 36.0762 100.205 36.196 100.41 36.3157V34.9636H98.3067C98.6017 35.1732 98.9067 35.381 99.2217 35.5856H99.6383C99.73 35.5856 99.805 35.6604 99.805 35.7519ZM100.953 40.7795H100.743V44.3319H100.953V40.7795ZM101.33 44.3319V40.7795H101.12V44.3319H101.33ZM104.91 40.4452V39.9213H103.982V40.4452H104.91ZM106.863 40.7795H106.58V41.3899H106.863V40.7795ZM107.48 40.7795H107.197V41.3899H107.48V40.7795ZM107.197 39.923V40.4469H107.48V39.923H107.197ZM108.517 39.9213H107.813V40.4452H108.517V39.9213ZM108.83 39.9213H108.683V40.4452H108.83V39.9213ZM106.863 40.4452V39.9213H106.58V40.4452H106.863ZM105.445 40.4469H106.247V39.923H105.445V40.4469ZM105.077 40.4469H105.278V39.923H105.077V40.4469ZM105.077 40.7795V44.3319H105.278V40.7795H105.077ZM103.365 40.4469H103.648V39.923H103.365V40.4469ZM103.648 41.3899V40.7795H103.365V41.3899H103.648ZM103.032 40.4452V39.9213H102.748V40.4452H103.032ZM103.032 41.3899V40.7795H102.748V41.3899H103.032ZM103.815 41.7225H102.582C102.49 41.7225 102.415 41.6476 102.415 41.5561V40.7795H101.663V42.4277H104.91V40.7795H103.982V41.5561C103.982 41.6476 103.907 41.7225 103.815 41.7225ZM108.683 40.7795V44.3319H108.885V40.7795H108.683ZM108.885 39.5588V34.9636H108.683V39.5139C108.752 39.5289 108.817 39.5438 108.885 39.5588ZM106.25 39.5887C106.262 39.5072 106.328 39.4423 106.413 39.4423H107.033C106.488 39.291 105.958 39.128 105.443 38.9534V39.5887H106.25ZM103.978 39.5887H104.908V38.7655C104.132 38.4877 103.39 38.1867 102.685 37.8657H102.637V39.4423H103.815C103.9 39.4423 103.968 39.5072 103.978 39.5887ZM103.648 37.5331V35.9182H103.365V37.5331H103.648ZM102.762 37.5331H103.032L103.033 35.9182H102.75V37.5264C102.753 37.5297 102.762 37.5331 102.762 37.5331ZM102.415 40.4452V39.9213H101.663V40.4452H102.415ZM101.12 40.4469H101.33V39.923H101.12V40.4469ZM100.743 40.4469H100.953V39.923H100.743V40.4469ZM96.1883 40.4469H96.3983V39.923H96.1883V40.4469ZM96.3983 44.3319V40.7795H96.1883V44.3319H96.3983ZM95.8117 44.3319H96.0217V40.7795H95.8117V44.3319ZM110.77 44.3319H110.952V43.7614H110.77V44.3319ZM111.285 43.5951V44.3319H112.397V42.5939H109.052V44.3319H110.437V43.5951C110.437 43.5036 110.512 43.4288 110.603 43.4288H111.118C111.21 43.4288 111.285 43.5036 111.285 43.5951ZM109.052 42.4277H112.397V34.9669H109.052V39.602C109.117 39.6237 109.163 39.6835 109.163 39.7567V40.6131C109.163 40.6847 109.117 40.7446 109.052 40.7678V42.4277ZM108.683 34.6309H108.883V33.6415L108.785 33.382L108.683 33.6614V34.6309ZM105.445 38.6024C106.412 38.9334 107.437 39.2261 108.517 39.4756V34.9636H105.445V38.6024ZM105.077 34.6309H105.277V33.6415L105.178 33.382L105.077 33.6614V34.6309ZM102.305 39.5887V37.6861C102.087 37.5846 101.873 37.4798 101.663 37.3735V39.5887H102.305ZM101.12 39.5887H101.33V37.2021C101.295 37.1839 101.26 37.1651 101.225 37.1465C101.19 37.1277 101.155 37.109 101.12 37.0907V39.5887ZM100.743 39.5887H100.953V37.0043C100.883 36.9659 100.813 36.926 100.743 36.8878V39.5887ZM96.7317 34.6309H97.295C97.1033 34.483 96.915 34.335 96.7317 34.1853V34.6309ZM96.3983 39.5887V34.7973V33.9109C96.3633 33.881 96.3283 33.8514 96.2933 33.8219C96.2583 33.7923 96.2233 33.7628 96.1883 33.7329V39.5887H96.3983ZM95.8117 39.5887H96.0217V33.5899C95.9882 33.5603 95.9555 33.5312 95.9229 33.5023C95.8858 33.4692 95.849 33.4364 95.8117 33.4036V39.5887ZM96.0217 40.4452V39.9213H95.8117V40.4452H96.0217ZM88.52 36.8512V40.4469H88.7333V36.8512H88.52ZM84.125 37.2753V40.4469H87.8067V37.2753H84.125ZM88.3533 32.261H88.14V36.5186H88.3533V32.261ZM88.7333 32.261H88.52V36.5186H88.7333V32.261ZM88.52 27.6708V31.9284H88.7333V27.6708H88.52ZM88.14 31.9284H88.3533V27.6708H88.14V31.9284ZM84.125 27.9686H87.8067V27.6708H84.125V27.9686ZM87.8067 28.1349H84.125V31.9284H87.8067V28.1349ZM87.8067 32.5738V32.261H84.125V32.5738H87.8067ZM87.8067 32.74H84.125V36.5186H87.8067V32.74ZM87.8067 37.109V36.8512H84.125V37.109H87.8067ZM88.3533 36.8512H88.14V40.4469H88.3533V36.8512ZM91.3417 28.2596V39.5887H91.5783V28.6088C91.4967 28.4925 91.4183 28.376 91.3417 28.2596ZM89.065 39.5887H91.175V39.587V28.0035C90.0867 26.3254 89.42 24.8785 89.065 24.0054V27.3366H89.405V27.6693H89.065V31.9267H89.405V32.2594H89.065V36.5169H89.405V36.8496H89.065V39.5887ZM88.52 27.3383H88.7333V23.0807H88.52V27.3383ZM88.14 27.3383H88.3533V23.0807H88.14V27.3383ZM84.125 27.3383H87.8067V23.5231H84.125V27.3383ZM83.5783 27.3383H83.7917V23.0807H83.5783V27.3383ZM83.7917 31.9284V27.6708H83.5783V31.9284H83.7917ZM83.7917 36.5186V32.261H83.5783V36.5186H83.7917ZM83.7917 40.4469V36.8512H83.5783V40.4469H83.7917ZM95.4783 40.7795H89.5733V44.3818H95.4783V40.7795ZM118.038 44.3319H118.248V27.9237H118.038V44.3319ZM117.872 27.9237H117.662V44.3319H117.872V27.9237ZM116.343 27.9669H114.635L113.713 30.7742H117.265L116.343 27.9669ZM113.317 44.3319V30.9422V27.9237H113.107V44.3319H113.317ZM112.94 27.9237H112.73V44.3319H112.94V27.9237ZM112.397 34.6326V32.0449H101.667V34.6326H104.913V33.6481C104.913 33.6381 104.915 33.6298 104.918 33.6198L105.102 33.1176C105.115 33.0843 105.145 33.0627 105.18 33.0627C105.215 33.0627 105.247 33.0843 105.258 33.1159L105.442 33.5982C105.445 33.6081 105.447 33.6181 105.447 33.6281V34.6326H108.518V33.6481C108.518 33.6433 108.519 33.6389 108.519 33.6345C108.52 33.6298 108.522 33.625 108.523 33.6198L108.707 33.1176C108.72 33.0843 108.75 33.0627 108.785 33.0627C108.82 33.0627 108.852 33.0843 108.863 33.1159L109.047 33.5982C109.05 33.6081 109.052 33.6181 109.052 33.6281V34.6326H112.397ZM101.33 36.8262V31.8785V27.9237H101.12V36.7149C101.19 36.7531 101.26 36.7897 101.33 36.8262ZM100.953 27.9237H100.743V36.5053C100.813 36.5452 100.883 36.5852 100.953 36.6234V27.9237ZM99.425 27.9669H97.7167L96.795 30.7742H100.347L99.425 27.9669ZM96.3983 33.4751V30.9422V27.9237H96.1883V33.2922C96.2582 33.3536 96.3285 33.4153 96.3983 33.4751ZM96.0217 27.9237H95.8117V32.9562L96.0217 33.1458V27.9237ZM95.2833 39.5887H95.4783V39.587V33.1009C95.4566 33.081 95.4347 33.0609 95.4128 33.0409C95.3692 33.001 95.3255 32.9612 95.2833 32.9213V39.5887ZM94.95 39.5887V32.6037C94.8933 32.5488 94.8383 32.4939 94.7833 32.439V39.5887H94.95ZM94.6167 39.5887V32.2744H94.615C93.9183 31.5742 93.3117 30.8857 92.7867 30.2338C92.4733 29.8446 92.1833 29.4604 91.9117 29.0828V39.5887H94.6167ZM88.52 22.7481H88.7333V19.9773H88.52V22.7481ZM88.93 19.643L88.4367 18.73L87.9433 19.643H88.93ZM88.3533 19.9773H88.14V22.7481H88.3533V19.9773ZM85.7117 22.7481H86.21V21.9116H85.7117V22.7481ZM85.6283 21.7452H86.2917C86.3383 21.7452 86.375 21.7819 86.375 21.8284V22.7481H86.8183V21.4925L85.96 20.9387L85.1017 21.4925V22.7481H85.545V21.8284C85.545 21.7819 85.5817 21.7452 85.6283 21.7452ZM87.1517 22.7481H87.2883L87.1517 22.1594V22.7481ZM86.9217 21.1632L85.925 16.8674L84.975 21.1782L85.87 20.6027C85.925 20.5678 85.995 20.5678 86.05 20.6027L86.9217 21.1632ZM84.7667 22.7498V22.1194L84.6283 22.7498H84.7667ZM87.8067 23.3568V23.0807H84.125V23.3568H87.8067ZM83.5783 22.7481H83.7917V19.9773H83.5783V22.7481ZM83.9883 19.643L83.495 18.73L83.0017 19.643H83.9883ZM83.4117 19.9773H83.1983V22.7481H83.4117V19.9773ZM82.865 24.6623V24.0271H70.58V24.6623H82.865ZM70.0317 22.7481H70.245V19.9773H70.0317V22.7481ZM70.4417 19.6447L69.9483 18.73L69.455 19.6447H70.4417ZM69.865 19.9773H69.6517V22.7481H69.865V19.9773ZM70.7533 41.3083V40.7795H64.115V41.3083H65.4717V41.4747H64.115V41.8704H66.23V42.0368H64.115V42.9515H65.0883V43.1178H64.115V43.5752H70.7533V43.1178H69.95V42.9515H70.7533V42.0368H68.1883V41.8704H70.7533V41.4747H70.0633V41.3083H70.7533ZM54.765 40.7795H54.5217V41.0656H54.765V40.7795ZM54.5217 39.923V40.4469H54.765V39.923H54.5217ZM53.6117 40.7795H53.3683V41.0656H53.6117V40.7795ZM53.3683 39.923V40.4469H53.6117V39.923H53.3683ZM52.4567 40.7795H52.2133V41.0656H52.4567V40.7795ZM52.2133 39.923V40.4469H52.4567V39.923H52.2133ZM51.3033 40.7795H51.06V41.0656H51.3033V40.7795ZM51.06 39.923V40.4469H51.3033V39.923H51.06ZM41.8217 23.563L41.0767 22.5219L40.3317 23.563L41.0767 24.6041L41.8217 23.563ZM42.84 24.9866L42.0267 23.849H42.025L41.7483 24.2366L47.435 32.2211C47.405 31.9018 47.37 31.5825 47.3333 31.2616L42.8683 25.0165C42.8567 25.0083 42.8483 24.9983 42.84 24.9866ZM43.925 23.8507L43.1833 24.8868V24.8885L47.2467 30.5713C47.1267 29.6483 46.9867 28.7552 46.8267 27.9021L44.7633 25.0149C44.7533 25.0066 44.745 24.9983 44.7383 24.9883L43.925 23.8507ZM45.3783 24.4727L45.0817 24.8868L46.6717 27.1104C46.5867 26.6979 46.4967 26.2938 46.4017 25.903L45.3783 24.4727ZM45.4806 24.3289L45.83 23.8391C45.9917 24.353 46.1467 24.8952 46.2917 25.464L45.4806 24.3289ZM44.1317 23.5597L44.8767 24.6008L45.6183 23.563L44.8733 22.5219L44.1317 23.5597ZM40.8533 18.9712L43.9283 23.2737H43.93L44.2267 22.8596L41.2583 18.7084C41.1233 18.7766 40.9883 18.8647 40.8533 18.9712ZM42.9783 24.5991L43.72 23.563L42.975 22.5219L42.2333 23.5581L42.9783 24.5991ZM39.3867 20.9203L40.5967 22.6201H40.5983L40.8767 22.2309L39.6283 20.4862C39.5467 20.6243 39.4667 20.769 39.3867 20.9203ZM40.4944 22.7639L40.1283 23.277L39.315 22.1394C39.2517 22.0513 39.1067 22.0513 39.0433 22.1394L38.5667 22.8063C38.8 22.1726 39.045 21.5973 39.3017 21.0883L40.4944 22.7639ZM39.1783 24.6041L39.9233 23.563L39.1783 22.5219L38.4333 23.563L39.1783 24.6041ZM39.1767 25.0564C39.1233 25.0564 39.0733 25.0299 39.0417 24.9866L39.04 24.985L38.2133 23.8291C38.105 24.1733 38 24.5293 37.8983 24.8985L47.625 38.6391C47.7067 36.7464 47.6533 34.6792 47.4617 32.5504L41.6433 24.3796L41.21 24.9866C41.1467 25.0748 41.0017 25.0748 40.9383 24.9866L40.125 23.849L39.3117 24.9866C39.2817 25.0299 39.23 25.0564 39.1767 25.0564ZM47.24 39.1979L47.5183 39.5887H47.575C47.5867 39.4224 47.5967 39.2528 47.6067 39.0831C47.485 39.1213 47.3633 39.1596 47.24 39.1979ZM45.8683 39.5887H47.11L46.9033 39.3009C46.565 39.4007 46.22 39.4972 45.8683 39.5887ZM47.1678 38.8724C47.2833 38.8366 47.3984 38.8011 47.5117 38.7638H47.51L37.8433 25.108C37.7817 25.3375 37.7233 25.572 37.665 25.8098L47.035 38.9135C47.0793 38.8997 47.1236 38.886 47.1678 38.8724ZM44.6967 39.5272C45.3867 39.3742 46.055 39.2029 46.6983 39.015H46.6967L37.5617 26.2389C37.3733 27.0589 37.2017 27.9253 37.0517 28.8301L44.6967 39.5272ZM44.945 40.4452L44.6133 39.9812V40.4452H44.945ZM47.3483 39.9213H44.98L44.9817 39.923L45.3567 40.4469H47.5067L47.5317 40.1775L47.3483 39.9213ZM47.1433 42.9515C47.2783 42.278 47.3867 41.5495 47.47 40.7795H45.5917L47.1433 42.9515ZM49.8233 40.7795H47.8067C47.665 42.1033 47.4467 43.324 47.1433 44.3818H49.8233V40.7795ZM47.8833 39.923C47.87 40.0992 47.855 40.2739 47.8383 40.4469H49.8217V39.923H47.8833ZM50.7267 39.9213H50.1567V40.4452H50.7267V39.9213ZM52.3825 36.6828C52.4079 36.669 52.4332 36.6552 52.4583 36.6416V34.4281H52.215V36.7731C52.271 36.7434 52.327 36.713 52.3825 36.6828ZM52.6233 37.1106H52.2883H52.2867C51.915 37.3086 51.5317 37.5015 51.1367 37.6878V37.8075H54.3267V37.1056C54.2483 37.0924 54.1867 37.0275 54.1867 36.9444V36.0064C54.1648 36.02 54.1429 36.0337 54.1208 36.0475C54.0621 36.0842 54.0027 36.1215 53.9433 36.1577V36.9444C53.9433 37.0358 53.8683 37.1106 53.7767 37.1106H53.2C53.1083 37.1106 53.0333 37.0358 53.0333 36.9444V36.7015C52.9534 36.7481 52.8717 36.793 52.79 36.8379V36.9444C52.79 37.0358 52.715 37.1106 52.6233 37.1106ZM53.3683 36.1195C53.45 36.0713 53.5317 36.0214 53.6117 35.9715V34.4264H53.3683V36.1195ZM53.6117 36.778V36.3639C53.5627 36.3935 53.5131 36.4224 53.4632 36.4514C53.4316 36.4698 53.4 36.4883 53.3683 36.5069V36.778H53.6117ZM54.6434 35.3078C54.6838 35.28 54.7242 35.2521 54.765 35.2247V34.4281H54.5217V35.391C54.5625 35.3636 54.603 35.3357 54.6434 35.3078ZM53.3683 39.5887H53.6117V38.7156H53.3683V39.5887ZM53.2017 38.3829H53.7783H53.78C53.8717 38.3829 53.9467 38.4578 53.9467 38.5493V39.5887H54.19V38.5493C54.19 38.4661 54.25 38.4013 54.33 38.3879V37.9738H51.14V38.3829H51.4717C51.5633 38.3829 51.6383 38.4578 51.6383 38.5493V39.5887H51.8817V38.5493C51.8817 38.4578 51.9567 38.3829 52.0483 38.3829H52.625C52.7167 38.3829 52.7917 38.4578 52.7917 38.5493V39.5887H53.035V38.5493C53.035 38.4578 53.11 38.3829 53.2017 38.3829ZM52.215 39.5887H52.4583V38.7156H52.215V39.5887ZM51.3033 38.7156H51.1383V39.5887H51.3033V38.7156ZM54.765 38.7156H54.6617V39.5887H54.765V38.7156ZM54.6617 38.3829H54.9317C55.0233 38.3829 55.0983 38.4578 55.0983 38.5493V39.5887H55.71V37.9738H54.6617V38.3829ZM54.6617 37.1106V37.8075H55.71V34.9619C55.5117 35.1099 55.3067 35.2563 55.0983 35.401V36.9444C55.0983 37.0358 55.0233 37.1106 54.9317 37.1106H54.6617ZM54.6617 36.778H54.765V35.6288C54.73 35.6522 54.6967 35.6754 54.6617 35.6987V36.778ZM50.805 37.9738H50.5133V37.9722C50.395 38.0254 50.2767 38.0786 50.1567 38.1302V39.5887H50.7267V38.5493C50.7267 38.4894 50.7583 38.4412 50.805 38.4113V37.9738ZM51.88 39.9213H51.6367V40.4452H51.88V39.9213ZM53.035 39.9213H52.7917V40.4452H53.035V39.9213ZM54.1883 39.9213H53.945V40.4452H54.1883V39.9213ZM55.71 39.9213H55.0983V40.4452H55.71V39.9213ZM64.3767 39.9213H56.0433V40.4452H64.3767V39.9213ZM65.6367 27.3383H69.3183V23.5231H65.6367V27.3383ZM65.6367 37.2753V40.4469H69.3183V37.2753H65.6367ZM64.71 36.8496V39.755V40.4452H64.9233V36.8496H64.71ZM65.09 31.9284H65.3033V27.6708H65.09V31.9284ZM65.09 36.5186H65.3033V32.261H65.09V36.5186ZM64.71 31.9284H64.9233V27.6708H64.71V31.9284ZM64.9233 36.5186V32.261H64.71V36.5186H64.9233ZM65.3033 36.8512H65.09V40.4469H65.3033V36.8512ZM65.6367 37.1073H69.3183V36.8496H65.6367V37.1073ZM65.6367 32.74V36.5186H69.3183V32.74H65.6367ZM65.6367 32.5738H69.3183V32.261H65.6367V32.5738ZM65.6367 28.1349V31.9284H69.3183V28.1349H65.6367ZM65.6367 27.9686H69.3183V27.6708H65.6367V27.9686ZM65.09 27.3383H65.3033V23.0807H65.09V27.3383ZM64.71 27.3383H64.9233V23.0807H64.71V27.3383ZM63.9483 27.3383H64.3767V24.0071C64.0233 24.8802 63.355 26.3254 62.2683 28.0051V39.5903H64.3767V36.8512H63.9483V36.5186H64.3767V32.261H63.9483V31.9284H64.3767V27.6708H63.9483V27.3383ZM61.865 39.5887H62.1017V28.258C62.025 28.3743 61.9467 28.4908 61.865 28.6088V39.5887ZM63.7817 44.3818V40.7795H56.0433V44.3818H63.7817ZM69.6517 36.8512V40.4469H69.865V36.8512H69.6517ZM69.6517 32.261V36.5186H69.865V32.261H69.6517ZM69.6517 27.6708V31.9284H69.865V27.6708H69.6517ZM69.6517 23.0807V27.3383H69.865V23.0807H69.6517ZM67.2233 22.7481H67.7217V21.9116H67.2233V22.7481ZM67.14 21.7452H67.805C67.8517 21.7452 67.8883 21.7819 67.8883 21.8284V22.7481H68.3317V21.4925L67.4733 20.9387L66.6133 21.4925V22.7481H67.0567V21.8284C67.0567 21.7819 67.0933 21.7452 67.14 21.7452ZM68.665 22.7481H68.8017L68.665 22.1594V22.7481ZM67.4392 16.8711L68.435 21.1632L67.5633 20.6027C67.5083 20.5678 67.4383 20.5678 67.3833 20.6027L66.4883 21.1782L67.4392 16.8711ZM66.28 22.7481V22.1177L66.1417 22.7481H66.28ZM69.3183 23.3568V23.0807H65.6367V23.3568H69.3183ZM65.09 22.7481H65.3033V19.9773H65.09V22.7481ZM65.5 19.643L65.0067 18.73L64.5133 19.643H65.5ZM64.9233 19.9773H64.71V22.7481H64.9233V19.9773ZM61.5317 29.0828C61.26 29.4604 60.97 29.8446 60.6567 30.2338C60.14 30.8757 59.5433 31.5525 58.86 32.2428V39.5887H61.5317V29.0828ZM58.6933 39.5887V32.4074C58.6284 32.4721 58.5632 32.5373 58.495 32.6037V39.5887H58.6933ZM58.16 39.5887V32.923C57.5217 33.5217 56.8167 34.1237 56.0433 34.7125V37.8075H56.185V37.9738H56.0433V39.5887H58.16ZM55.9267 21.4891H56.4667V16.6479H55.9267V21.4891ZM52.445 16.3152H51.8483V15.4819C51.8517 15.4704 51.8517 15.457 51.8517 15.4454C51.8517 15.2824 51.9833 15.1511 52.1467 15.1511C52.31 15.1511 52.4417 15.2824 52.4417 15.4454C52.4417 15.457 52.4417 15.4704 52.445 15.4819V16.3152ZM50.2817 18.3193C50.485 17.5991 50.9733 16.9987 51.62 16.6479H50.2817V18.3193ZM50.28 16.3152H50.8783L50.8767 16.3136V15.4787C50.8733 15.467 50.8733 15.4554 50.8733 15.4437C50.8733 15.2808 50.7417 15.1494 50.5783 15.1494C50.415 15.1494 50.2833 15.2808 50.2833 15.4437C50.2833 15.4554 50.2817 15.467 50.28 15.4786V16.3152ZM51.6183 21.4891C50.9733 21.1382 50.485 20.5378 50.28 19.8177V21.4891H51.6183ZM52.9317 16.6462C51.595 16.6462 50.5067 17.7321 50.5067 19.0677C50.5067 20.4031 51.5933 21.4891 52.9317 21.4891C54.27 21.4891 55.3583 20.4031 55.3583 19.0677C55.3583 17.7321 54.2683 16.6462 52.9317 16.6462ZM55.5833 16.3152H54.9867V15.4819C54.99 15.4704 54.99 15.4571 54.99 15.4454C54.99 15.2824 55.1217 15.1511 55.285 15.1511C55.4483 15.1511 55.58 15.2824 55.58 15.4454C55.58 15.457 55.58 15.4704 55.5833 15.4819V16.3152ZM55.595 16.6479H54.82H54.2483C54.9033 17.0021 55.395 17.6158 55.595 18.3475V16.6479ZM54.0133 16.3152H53.4167V15.4804C53.4183 15.4687 53.42 15.457 53.42 15.4454C53.42 15.2824 53.5517 15.1511 53.715 15.1511C53.8783 15.1511 54.01 15.2824 54.01 15.4454C54.01 15.457 54.01 15.4687 54.0133 15.4804V16.3152ZM55.5933 21.4875V19.7877C55.3933 20.5196 54.9017 21.1316 54.2467 21.4875H55.5933ZM54.6167 10.5675V9.11396H51.1933V10.5675H51.3767V9.65946C51.3767 9.42496 51.5683 9.23536 51.8017 9.23536C52.035 9.23536 52.2267 9.42496 52.2267 9.65946V10.5675H52.47V9.65946C52.47 9.42496 52.66 9.23536 52.895 9.23536C53.13 9.23536 53.32 9.42496 53.32 9.65946V10.5675H53.5633V9.65946C53.5633 9.42496 53.7533 9.23536 53.9883 9.23536C54.2233 9.23536 54.4133 9.42496 54.4133 9.65946V10.5675H54.6167ZM52.9433 3.74379C52.9267 3.65731 52.91 3.56917 52.8933 3.47936H52.8917C52.8886 3.49502 52.8856 3.51078 52.8825 3.52661C52.8739 3.5713 52.8653 3.61643 52.8567 3.66064L52.3783 8.78134H53.3367L52.9433 3.74379ZM52.8017 10.5675H52.985V9.65946C52.985 9.60956 52.9433 9.56799 52.8933 9.56799C52.8433 9.56799 52.8017 9.60956 52.8017 9.65946V10.5675ZM53.895 9.65946V10.5675H54.0783V9.65946C54.0783 9.60956 54.0367 9.56799 53.9867 9.56799C53.9367 9.56799 53.895 9.60956 53.895 9.65946ZM51.7083 10.5675H51.8917V9.65946C51.8917 9.60956 51.85 9.56799 51.8 9.56799C51.75 9.56799 51.7083 9.60956 51.7083 9.65946V10.5675ZM51.8867 10.9002H51.1617L49.9167 14.4076H51.2717L51.8867 10.9002ZM52.85 10.9002H52.055L51.44 14.4076H52.85V10.9002ZM53.7917 10.9002H53.0167V14.4076H54.425L53.7917 10.9002ZM53.9617 10.9018L54.595 14.4092H55.9483L54.6667 10.9018H53.9617ZM53.8177 6.67584H53.815L54.5483 8.783H53.505L53.1917 4.77326C53.38 5.45181 53.5883 6.03556 53.7417 6.4613L53.8177 6.67584ZM52.045 6.4613L51.9683 6.67751H51.97L51.2567 8.783H52.2133L52.5833 4.81483C52.3967 5.47509 52.195 6.04387 52.045 6.4613ZM56.02 14.7419H49.855V16.3152H49.955V15.4454C49.955 15.4321 49.9567 15.4188 49.96 15.4055C49.98 15.0778 50.255 14.8184 50.5867 14.8184C50.9183 14.8184 51.1917 15.0778 51.2133 15.4038C51.2167 15.4171 51.2183 15.4305 51.2183 15.4454V16.3152H51.5217V15.4454C51.5217 15.4305 51.5233 15.4155 51.5267 15.4021C51.5483 15.0762 51.8217 14.8168 52.1533 14.8168C52.485 14.8168 52.7583 15.0762 52.78 15.4021C52.7833 15.4171 52.785 15.4305 52.785 15.4454V16.3152H53.0883V15.4454C53.0883 15.4305 53.09 15.4171 53.0933 15.4038C53.1133 15.0762 53.3883 14.8168 53.72 14.8168C54.0517 14.8168 54.325 15.0762 54.3467 15.4038C54.35 15.4171 54.3517 15.4321 54.3517 15.4454V16.3152H54.655V15.4454C54.655 15.4305 54.6567 15.4155 54.66 15.4021C54.6817 15.0762 54.955 14.8168 55.2867 14.8168C55.6183 14.8168 55.8917 15.0762 55.9133 15.4021C55.9167 15.4171 55.9183 15.4305 55.9183 15.4454V16.3152H56.02V14.7419ZM49.9467 16.6479H49.4V21.4891H49.9467V16.6479ZM56.0183 22.3656V21.8218H49.8467V22.3656H56.0183ZM55.7117 22.6982H50.1567V29.1045H55.7117V22.6982ZM55.7117 29.2708H50.1567V33.4552H55.7117V29.2708ZM55.71 33.6248V34.5445C55.51 34.6942 55.3067 34.8439 55.0983 34.9919V34.2617C55.0983 34.1703 55.0233 34.0955 54.9317 34.0955H54.355C54.2633 34.0955 54.1883 34.1703 54.1883 34.2617V35.6089C54.1474 35.6356 54.1069 35.6618 54.0664 35.6881C54.0261 35.7142 53.9858 35.7404 53.945 35.7669V34.2617C53.945 34.1703 53.87 34.0955 53.7783 34.0955H53.2017C53.11 34.0955 53.035 34.1703 53.035 34.2617V36.3173C52.955 36.3639 52.8733 36.4105 52.7917 36.457V34.2634C52.7917 34.1719 52.7167 34.0971 52.625 34.0971H52.0483C51.9567 34.0971 51.8817 34.1719 51.8817 34.2634V36.946V36.951C51.33 37.2354 50.755 37.5098 50.1567 37.7692V33.6248H55.71ZM49.8233 39.5903V38.2699H49.8217C49.22 38.5193 48.595 38.7538 47.945 38.9716C47.935 39.1796 47.9217 39.3858 47.9083 39.5903H49.8233ZM45.47 22.7847C45.0117 21.539 44.5017 20.5179 43.9583 19.7861L43.9567 19.7844C43.13 18.6685 42.2633 18.2859 41.4083 18.6352L44.325 22.7149L44.7367 22.1394C44.8 22.0513 44.945 22.0513 45.0083 22.1394L45.47 22.7847ZM40.6 19.1924C40.4267 19.3603 40.255 19.5566 40.085 19.7861L40.0867 19.7877C39.995 19.9092 39.905 20.0406 39.8167 20.1786L42.03 23.2737L42.7733 22.2325L40.6 19.1924ZM44.355 39.6187L36.9783 29.2974L36.9767 29.2958C36.88 29.9194 36.7933 30.5597 36.7167 31.2133L36.6967 31.3946L45.9933 44.3785H46.7967C46.89 44.0657 46.9733 43.7365 47.0517 43.3906L45.1833 40.7762H44.4467C44.355 40.7762 44.28 40.7013 44.28 40.6098V39.7534C44.28 39.6968 44.3117 39.6486 44.355 39.6187ZM45.7883 44.3801L36.6683 31.644V31.6457C36.6367 31.9434 36.6067 32.2411 36.58 32.5388L45.0467 44.3801H45.7883ZM43.8867 44.3801H44.6383L36.5367 33.0493C36.5117 33.3604 36.4883 33.6714 36.47 33.979L43.8867 44.3801ZM41.2433 44.3801H43.4767V44.3785L36.44 34.5096C36.385 35.5574 36.3667 36.5802 36.3833 37.5647L41.2433 44.3801ZM40.4417 44.3801H41.0383L36.39 37.8607C36.3967 38.195 36.4083 38.526 36.425 38.8503L40.4417 44.3801ZM36.4618 39.4682L40.03 44.3801H37.2483C36.8485 43.0253 36.5852 41.3465 36.4618 39.4682ZM24.7717 41.1038C23.4533 41.4414 22.0783 41.6194 20.675 41.6194L20.6767 41.621C19.28 41.621 17.9117 41.4448 16.6 41.1105L16.5233 41.3982C17.8583 41.7491 19.245 41.9353 20.6767 41.9353C22.1083 41.9353 23.51 41.7474 24.85 41.3915L24.7717 41.1038ZM16.6867 40.7862L16.6433 40.9491H16.6417C17.94 41.2784 19.285 41.453 20.675 41.453C22.065 41.453 23.4233 41.2767 24.7283 40.9441L24.6833 40.7812C23.3967 41.1254 22.0433 41.3067 20.675 41.3067C19.3067 41.3067 17.9683 41.127 16.6867 40.7862ZM24.1567 41.8971C23.0283 42.1383 21.8617 42.2663 20.675 42.2663V42.2646C19.4933 42.2646 18.335 42.1383 17.2117 41.9004L16.5983 44.3651H24.77L24.1567 41.8971ZM24.9433 44.3668H25.6517L24.935 41.7125C24.7317 41.7657 24.5267 41.8173 24.32 41.8639L24.9433 44.3668ZM25.17 41.3051C27.5 40.6331 29.635 39.4391 31.4083 37.7842L31.4067 37.7859C31.5267 37.6794 31.575 37.5681 31.55 37.4583C31.5493 37.4553 31.5478 37.4523 31.5464 37.4492C31.5445 37.4453 31.5426 37.4412 31.5417 37.4366C29.71 39.1347 27.5017 40.3537 25.0933 41.0223L25.17 41.3051ZM31.3083 37.2204C31.2283 37.1971 31.07 37.1839 30.9133 37.3435H30.915C29.2333 38.9135 27.2117 40.0477 25.0067 40.6914L25.0517 40.861C27.4417 40.1957 29.6333 38.9866 31.4483 37.2969C31.4083 37.2637 31.3617 37.2354 31.3083 37.2204ZM23.6867 38.9152H24.18L24.035 38.3779C23.8283 38.4794 23.6967 38.689 23.6867 38.9152ZM24.3567 39.5688L24.225 39.0814V39.0798H23.7017C23.7025 39.0839 23.7029 39.0877 23.7033 39.0914C23.7038 39.0952 23.7042 39.0989 23.705 39.1031C23.7483 39.266 23.8517 39.4024 23.9983 39.4855C24.1083 39.5488 24.2333 39.5771 24.3567 39.5688ZM24.57 39.0814L24.6717 39.4573C24.7467 39.4041 24.8133 39.3376 24.86 39.256C24.8933 39.2012 24.9133 39.1413 24.9267 39.0814H24.57ZM24.9433 38.9152C24.9417 38.8703 24.935 38.8237 24.9233 38.7788C24.8517 38.5143 24.6217 38.3364 24.3633 38.3165L24.525 38.9152H24.9433ZM23.96 36.8262L24.1033 37.3551V37.3535C25.0417 37.0857 25.9333 36.7132 26.7667 36.2459L26.4917 35.7719C25.6983 36.216 24.85 36.5718 23.96 36.8262ZM20.0483 39.3558H20.5067V38.817C20.4017 38.8453 20.305 38.8985 20.2267 38.9766C20.1233 39.0798 20.0633 39.2128 20.0483 39.3558ZM21.12 39.8664C21.215 39.7716 21.2733 39.6519 21.295 39.5222L21.2967 39.5205H20.055C20.0767 39.6502 20.135 39.7699 20.23 39.8647C20.3483 39.9845 20.5067 40.0493 20.675 40.0493C20.8433 40.0493 21.0017 39.9845 21.12 39.8664ZM20.84 38.817V39.3558H21.2967C21.27 39.0964 21.085 38.8852 20.84 38.817ZM23.425 36.1212L20.8417 26.5599V36.4604C21.7317 36.4488 22.5967 36.3323 23.425 36.1212ZM26.08 35.06L21.2083 26.6398L23.7467 36.0313C24.5667 35.7952 25.3483 35.4676 26.08 35.06ZM21.4539 26.3976L28.4017 33.3304C27.7867 33.9259 27.1067 34.4513 26.3683 34.8921L21.4539 26.3976ZM21.6906 26.1631L30.2033 31.067C29.76 31.8037 29.2333 32.4839 28.6383 33.0959L21.6906 26.1631ZM31.355 28.4127L21.855 25.8731L30.37 30.7792C30.7867 30.0375 31.1183 29.2459 31.355 28.4127ZM31.775 25.5521H21.94L31.4433 28.0933C31.6483 27.2784 31.7617 26.4269 31.775 25.5521ZM31.4417 22.6782L21.94 25.2195H31.7733C31.7617 24.3447 31.6483 23.4932 31.4417 22.6782ZM30.37 19.9923L21.8533 24.8985H21.855L31.355 22.3589C31.1167 21.5257 30.785 20.7324 30.37 19.9923ZM21.6889 24.6068L28.6367 17.674C29.2333 18.2859 29.76 18.9662 30.2017 19.7029L21.6889 24.6068ZM26.3683 15.8778L21.4517 24.3746L28.4017 17.4395C27.7883 16.8457 27.1067 16.3202 26.3683 15.8778ZM23.7067 14.727L21.1433 24.2416L26.08 15.7099C25.3367 15.2941 24.5417 14.9631 23.7067 14.727ZM20.8417 14.3095V24.0835L23.385 14.6405C22.57 14.4359 21.7183 14.3228 20.8417 14.3095ZM17.965 14.6405L20.5083 24.0486V14.3095C19.6317 14.3228 18.78 14.4359 17.965 14.6405ZM20.2185 24.2661L15.2683 15.7115C16.0117 15.2957 16.8067 14.9648 17.6417 14.7286L20.2185 24.2661ZM12.9467 17.4395L19.8967 24.3746L14.98 15.8778C14.2417 16.3186 13.56 16.844 12.9467 17.4395ZM11.1467 19.7029L19.6617 24.6091L12.7117 17.674C12.115 18.2859 11.59 18.9662 11.1467 19.7029ZM19.4927 24.8979L9.99667 22.3589C10.2333 21.5257 10.565 20.7341 10.9817 19.994L19.4927 24.8979ZM9.57667 25.2195H19.4083L9.90833 22.6799C9.70333 23.4948 9.59 24.3447 9.57667 25.2195ZM9.90667 28.0933L19.4083 25.5521H9.575C9.58667 26.4269 9.70167 27.2784 9.90667 28.0933ZM19.4936 25.8739L10.9817 30.7776C10.5667 30.0375 10.235 29.2442 9.99833 28.4127L19.4936 25.8739ZM12.7117 33.0959L19.6617 26.1608L11.1467 31.067C11.5883 31.8037 12.115 32.4839 12.7117 33.0959ZM14.98 34.8921L19.8967 26.3953L12.9467 33.3304C13.56 33.9242 14.2417 34.4497 14.98 34.8921ZM17.62 36.0363L20.1617 26.6031L20.16 26.6048L15.2683 35.06C16.005 35.4708 16.7933 35.8001 17.62 36.0363ZM20.5083 36.462V26.6031L17.9433 36.1261C18.765 36.334 19.625 36.4488 20.5083 36.462ZM23.4683 36.2824C22.6267 36.4969 21.7467 36.6151 20.8417 36.6284V36.6301V36.9544C21.775 36.941 22.685 36.8197 23.5533 36.5967L23.4683 36.2824ZM26.1617 35.2031C25.4183 35.6188 24.6233 35.9515 23.7883 36.191L23.8733 36.5053C24.7367 36.2575 25.5567 35.9132 26.325 35.4841L26.1617 35.2031ZM28.52 33.4502C27.895 34.0556 27.2017 34.5894 26.4517 35.0385L26.615 35.3195C27.39 34.8572 28.105 34.305 28.75 33.6797L28.52 33.4502ZM30.3467 31.1501C29.8967 31.8985 29.3617 32.5903 28.755 33.214L28.985 33.4435C29.6117 32.8016 30.1633 32.0864 30.6283 31.313L30.3467 31.1501ZM31.515 28.4559C31.2733 29.3024 30.9367 30.109 30.5133 30.8624H30.515L30.7967 31.0254C31.2333 30.247 31.5817 29.4155 31.83 28.5407L31.515 28.4559ZM31.6037 28.1334L31.9183 28.2181C32.135 27.3632 32.2533 26.4701 32.2667 25.5504H31.9417C31.9283 26.4397 31.8135 27.3056 31.6037 28.1334ZM31.6033 22.635C31.8133 23.4649 31.9283 24.3297 31.9417 25.2195V25.2178H32.2667C32.2533 24.2998 32.135 23.405 31.9183 22.5502L31.6033 22.635ZM31.5149 22.3136C31.2732 21.4672 30.9366 20.6608 30.5133 19.9075L30.795 19.7445C31.2317 20.5212 31.58 21.3544 31.8283 22.2292L31.5149 22.3136ZM28.7567 17.5559C29.3633 18.1796 29.8983 18.8714 30.3483 19.6198L30.63 19.4568C30.1667 18.6835 29.6133 17.97 28.9867 17.3264L28.7567 17.5559ZM26.4517 15.7331C27.2017 16.1821 27.895 16.716 28.52 17.3214L28.75 17.0919C28.1067 16.4665 27.39 15.916 26.615 15.452L26.4517 15.7331ZM23.75 14.5673C24.6 14.8084 25.4083 15.1444 26.1633 15.5668V15.5652L26.3267 15.2841C25.5467 14.8483 24.7117 14.5007 23.835 14.253L23.75 14.5673ZM20.8417 14.1432C21.7317 14.1548 22.5983 14.2712 23.4283 14.4791V14.4808L23.5133 14.1665C22.6567 13.9502 21.7617 13.8322 20.8417 13.8189V14.1432ZM17.9217 14.4791C18.7517 14.2712 19.6183 14.1565 20.5083 14.1432V14.1415V13.8172C19.5883 13.8305 18.6933 13.9486 17.8367 14.1648L17.9217 14.4791ZM15.1867 15.5668C15.9417 15.1444 16.75 14.8084 17.6 14.5673L17.515 14.253C16.6383 14.5024 15.8033 14.85 15.0233 15.2858L15.1867 15.5668ZM12.8283 17.3214C13.4533 16.716 14.1467 16.1821 14.8967 15.7331L14.7333 15.452C13.9583 15.9144 13.2433 16.4665 12.5983 17.0919L12.8283 17.3214ZM11.0017 19.6215C11.4517 18.8714 11.9867 18.1812 12.5933 17.5575L12.3633 17.328C11.7367 17.97 11.185 18.6851 10.72 19.4584L11.0017 19.6215ZM9.835 22.3157C10.0767 21.4691 10.4133 20.6626 10.8367 19.9092H10.835L10.5533 19.7462C10.1167 20.5246 9.76833 21.3561 9.52 22.2309L9.835 22.3157ZM9.40833 25.2178C9.42167 24.328 9.53667 23.4633 9.74667 22.635L9.43167 22.5502C9.215 23.405 9.09667 24.2998 9.08333 25.2178H9.40833ZM9.74667 28.1349C9.53667 27.3066 9.42167 26.4419 9.40833 25.5521H9.08333C9.09667 26.4701 9.215 27.3649 9.43167 28.2197L9.74667 28.1349ZM10.835 30.8607C10.4133 30.109 10.0767 29.3024 9.835 28.4559L9.52 28.5407C9.76833 29.4138 10.1167 30.247 10.5533 31.0237L10.835 30.8607ZM12.5933 33.214C11.9867 32.5903 11.4517 31.8985 11.0017 31.1501L10.72 31.313C11.185 32.0864 11.7367 32.7999 12.3633 33.4435L12.5933 33.214ZM14.8983 35.0368C14.1467 34.5877 13.455 34.0539 12.83 33.4485L12.6 33.678C13.2433 34.3033 13.96 34.8539 14.735 35.3179L14.8983 35.0368ZM17.5783 36.196C16.7367 35.9565 15.935 35.6222 15.1867 35.2031L15.0233 35.4841C15.7967 35.9166 16.625 36.2625 17.4933 36.5103L17.5783 36.196ZM20.5067 36.6284C19.6083 36.6151 18.735 36.4986 17.8983 36.2858L17.8133 36.6001C18.6767 36.8197 19.5783 36.9394 20.5067 36.9527V36.6284ZM20.5067 37.8325V37.2853C19.5483 37.272 18.6183 37.1473 17.7267 36.921L17.585 37.4499C18.52 37.6894 19.5 37.8191 20.5067 37.8325ZM23.6383 36.9177C22.7417 37.1473 21.805 37.272 20.84 37.2853V37.287V37.8341C21.8533 37.8208 22.84 37.6878 23.7817 37.4466L23.6383 36.9177ZM26.78 35.6073L27.055 36.0812C27.8967 35.5789 28.675 34.9802 29.3733 34.3017L28.985 33.9142C28.32 34.5595 27.58 35.1299 26.78 35.6073ZM29.9983 35.2264H30.3017L30.075 35.0002C30.035 35.07 30.0083 35.1448 29.9983 35.2264ZM30.175 35.7552C30.2933 35.875 30.4517 35.9398 30.62 35.9398H30.6217C30.79 35.9398 30.9483 35.8733 31.0667 35.7552C31.165 35.6571 31.225 35.5307 31.2433 35.3943H30.5383L30.5033 35.4292L30.4683 35.3943H29.9983C30.0167 35.529 30.0767 35.6571 30.175 35.7552ZM31.065 34.8654C30.9467 34.7457 30.7883 34.6808 30.62 34.6808C30.51 34.6808 30.4033 34.7125 30.31 34.7657L30.7383 35.1931L30.7033 35.2281H31.2417C31.2233 35.0917 31.1633 34.9652 31.065 34.8654ZM29.2217 33.678L29.61 34.0656C30.29 33.3686 30.89 32.592 31.3933 31.7521L30.9183 31.4777C30.44 32.2777 29.8683 33.0144 29.2217 33.678ZM31.085 31.19L31.56 31.4644V31.4627C32.035 30.6195 32.4133 29.7165 32.6817 28.7669L32.1517 28.6255C31.895 29.5286 31.5367 30.3884 31.085 31.19ZM32.24 28.3062L32.77 28.4476C33.0067 27.5196 33.135 26.5499 33.1483 25.5521H32.6C32.5867 26.5001 32.4633 27.4231 32.24 28.3062ZM34.135 25.5521C34.2083 25.8182 34.45 26.0144 34.74 26.0144C35.0667 26.0144 35.3333 25.7633 35.365 25.4456H34.74V25.5521H34.135ZM35.36 25.2794C35.3083 24.9816 35.0517 24.7555 34.74 24.7555V24.7571C34.45 24.7571 34.2083 24.9534 34.135 25.2195H34.74V25.2794H35.36ZM32.6017 25.2195H33.15C33.1367 24.2216 33.0083 23.252 32.7717 22.324L32.2417 22.4654C32.465 23.3485 32.5883 24.2715 32.6017 25.2195ZM32.1517 22.1444L32.6817 22.003V22.0014C32.4133 21.0517 32.035 20.1487 31.56 19.3055L31.085 19.5799C31.535 20.3815 31.895 21.2413 32.1517 22.1444ZM30.9183 19.2922L31.3933 19.0178C30.89 18.1779 30.29 17.4012 29.61 16.7043L29.2217 17.0919C29.8683 17.7555 30.44 18.4939 30.9183 19.2922ZM30.3111 16.0048L30.7383 15.5784L30.7217 15.5618H31.24C31.22 15.6882 31.1617 15.808 31.065 15.9044C30.8603 16.1087 30.5509 16.1405 30.3111 16.0048ZM31.0667 15.0163C30.9433 14.8932 30.7817 14.8317 30.62 14.8317C30.4583 14.8317 30.2967 14.8932 30.1733 15.0163C30.07 15.1211 30.01 15.2541 29.995 15.3971H30.4483L30.5017 15.3439L30.555 15.3971H31.245C31.23 15.2574 31.1733 15.1227 31.0667 15.0163ZM30.2833 15.5618H30C30.0117 15.635 30.0383 15.7049 30.075 15.7697L30.2833 15.5618ZM28.985 16.8574L29.3733 16.4698C28.675 15.7913 27.8967 15.1926 27.055 14.6903L26.78 15.1643C27.5817 15.6416 28.32 16.2121 28.985 16.8574ZM26.4917 14.998L26.7667 14.524H26.765C25.92 14.05 25.0133 13.6725 24.0617 13.4048L23.92 13.9337C24.825 14.1881 25.6867 14.5473 26.4917 14.998ZM23.5983 13.8439L23.7417 13.315H23.74C22.81 13.0788 21.84 12.9508 20.84 12.9374V13.4846C21.79 13.4979 22.7133 13.6209 23.5983 13.8439ZM20.8417 11.4323V11.9529C21.0817 11.8863 21.2633 11.6835 21.2967 11.4323H20.8417ZM21.295 11.2677C21.255 10.96 20.9933 10.7205 20.6733 10.7205H20.6717C20.5033 10.7205 20.345 10.787 20.2267 10.9051C20.1267 11.0049 20.0683 11.1313 20.05 11.2677H21.295ZM20.5083 11.434H20.0517C20.0867 11.6851 20.2683 11.888 20.5083 11.9545V11.434ZM20.5083 13.4846V12.9374C19.5083 12.9508 18.5367 13.0788 17.6067 13.315L17.75 13.8439C18.635 13.6209 19.5583 13.4979 20.5083 13.4846ZM17.4283 13.9337L17.285 13.4048C16.3333 13.6742 15.4267 14.0517 14.5817 14.5257L14.8567 14.9997C15.6617 14.5489 16.5233 14.1897 17.4283 13.9337ZM14.5683 15.1643L14.2933 14.6903C13.4517 15.1926 12.6733 15.7913 11.975 16.4698L12.3633 16.8574C13.0283 16.2121 13.7683 15.6416 14.5683 15.1643ZM11.3483 15.5618H11.065L11.2733 15.7697C11.31 15.7049 11.3367 15.635 11.3483 15.5618ZM10.7267 14.8317C10.5667 14.8317 10.405 14.8932 10.2817 15.0163H10.2833C10.18 15.1194 10.12 15.2524 10.105 15.3955H10.795L10.8467 15.3439L10.8983 15.3955H11.3517C11.3367 15.2524 11.2767 15.1194 11.1733 15.0163C11.05 14.8932 10.8867 14.8317 10.7267 14.8317ZM10.2833 15.906C10.4017 16.0258 10.56 16.0906 10.7283 16.0906H10.73C10.84 16.0906 10.9467 16.0591 11.04 16.0058L10.6117 15.5784L10.6283 15.5618H10.1083C10.13 15.6915 10.1883 15.8112 10.2833 15.906ZM12.1283 17.0935L11.74 16.706C11.06 17.4045 10.46 18.1796 9.95667 19.0194L10.4317 19.2938C10.9117 18.4939 11.4817 17.7571 12.1283 17.0935ZM10.265 19.5816L9.79 19.3072V19.3088C9.315 20.1519 8.93667 21.055 8.66833 22.0047L9.19833 22.1461C9.455 21.243 9.81333 20.3832 10.265 19.5816ZM9.11 22.4654L8.58 22.324C8.34333 23.252 8.215 24.2216 8.20167 25.2195H8.75C8.76333 24.2698 8.88667 23.3485 9.11 22.4654ZM7.21333 25.2178C7.14 24.9517 6.89833 24.7555 6.60833 24.7555V24.7538C6.29667 24.7538 6.03833 24.9816 5.98833 25.2777H6.60833V25.2178H7.21333ZM5.98333 25.4456C6.015 25.7633 6.28167 26.0144 6.60833 26.0144C6.89833 26.0144 7.14 25.8182 7.21333 25.5521H6.60833V25.4456H5.98333ZM8.75 25.5521H8.20167C8.215 26.5499 8.34333 27.5196 8.58 28.4476L9.11 28.3062C8.88667 27.4231 8.76333 26.5001 8.75 25.5521ZM9.19833 28.6255L8.66833 28.7669V28.7685C8.93667 29.7182 9.315 30.6212 9.79 31.4644L10.265 31.19C9.815 30.3867 9.455 29.5286 9.19833 28.6255ZM10.4317 31.4777L9.95667 31.7521C10.46 32.592 11.06 33.3686 11.74 34.0656L12.1283 33.678C11.4817 33.0144 10.91 32.276 10.4317 31.4777ZM11.0383 34.7657C10.945 34.7125 10.84 34.6808 10.7283 34.6808V34.6825C10.56 34.6825 10.4017 34.7474 10.2833 34.8671C10.185 34.9652 10.125 35.0917 10.1067 35.2281H10.645L10.61 35.1931L11.0383 34.7657ZM10.2833 35.7535C10.4017 35.8733 10.56 35.9381 10.7283 35.9381L10.73 35.9398C10.8983 35.9398 11.0567 35.8733 11.175 35.7552C11.2767 35.6538 11.3333 35.5257 11.3517 35.3927H10.8817L10.8467 35.4276L10.8117 35.3927H10.1067C10.125 35.529 10.1833 35.6555 10.2833 35.7535ZM11.0467 35.2264H11.35C11.3383 35.1482 11.3133 35.0717 11.2733 35.0002L11.0467 35.2264ZM12.365 33.9125L11.9767 34.3001C12.6767 34.9786 13.4533 35.5773 14.295 36.0795L14.57 35.6056C13.7683 35.1283 13.03 34.5578 12.365 33.9125ZM14.8583 35.7719L14.5833 36.2459H14.585C15.425 36.7165 16.3233 37.0924 17.2667 37.3601L17.4083 36.8312C16.51 36.5752 15.6567 36.2192 14.8583 35.7719ZM17.645 39.0814H17.145L17.0133 39.5688C17.3 39.5788 17.565 39.3924 17.6417 39.1048C17.6433 39.0964 17.645 39.0814 17.645 39.0814ZM17.3317 38.3896L17.19 38.9152H17.66C17.65 38.6956 17.5267 38.4944 17.3317 38.3896ZM17.0083 38.3148C16.74 38.3264 16.4983 38.5076 16.425 38.7788H16.4267C16.415 38.8237 16.4083 38.8703 16.4067 38.9152H16.8467L17.0083 38.3148ZM16.42 39.0814C16.435 39.1413 16.455 39.2012 16.4867 39.256L16.485 39.2577C16.5367 39.3459 16.6083 39.4174 16.6933 39.4706L16.7983 39.0814H16.42ZM16.9283 39.8966C16.9644 39.8998 16.9989 39.9031 17.0333 39.9031C17.4583 39.9031 17.8483 39.6187 17.965 39.1912C18.09 38.7272 17.85 38.2499 17.42 38.062L17.4983 37.7709C18.4617 38.0171 19.47 38.1518 20.5067 38.1651V38.4744C20.3133 38.5076 20.1333 38.5975 19.9917 38.7405C19.81 38.9218 19.71 39.1629 19.71 39.4207C19.71 39.6785 19.81 39.9196 19.9917 40.1009C20.1733 40.2822 20.415 40.382 20.6717 40.382H20.6733C20.93 40.382 21.1717 40.2822 21.3533 40.1009C21.535 39.9196 21.6367 39.6768 21.6367 39.4207C21.6367 38.9467 21.2917 38.5542 20.84 38.4744V38.1651C21.8833 38.1518 22.8983 38.0171 23.8683 37.7676L23.945 38.0536C23.5033 38.2349 23.255 38.7189 23.3817 39.1912C23.4483 39.439 23.6083 39.6469 23.8317 39.7749C23.98 39.8597 24.145 39.9047 24.3117 39.9047C24.355 39.9047 24.4 39.9014 24.445 39.8947L24.5983 40.4585C23.3383 40.7961 22.0233 40.9724 20.6767 40.9724C19.33 40.9724 18.0283 40.7961 16.775 40.4635L16.9283 39.8966ZM16.365 40.698C14.1533 40.056 12.1267 38.9218 10.4417 37.3485V37.3501C10.2217 37.1456 9.975 37.1605 9.855 37.2787C9.825 37.3069 9.80667 37.3418 9.795 37.3785L9.885 37.282C11.7083 38.9833 13.9133 40.2007 16.32 40.866L16.365 40.698ZM9.78833 37.4167C9.775 37.5247 9.82833 37.6562 9.94667 37.7892C11.725 39.4473 13.865 40.6415 16.2 41.31L16.2767 41.0257C13.8517 40.3554 11.6283 39.1297 9.78833 37.4167ZM17.0483 41.8671C16.8433 41.8222 16.6383 41.7707 16.435 41.7175V41.7158L15.7217 44.3651H16.4267L17.0483 41.8671ZM50.1567 40.7778V44.3801H55.7083V40.7778H55.0967V41.2302C55.0967 41.3216 55.0217 41.3965 54.93 41.3965H54.3533C54.2617 41.3965 54.1867 41.3216 54.1867 41.2302V40.7778H53.9433V41.2302C53.9433 41.3216 53.8683 41.3965 53.7767 41.3965H53.2C53.1083 41.3965 53.0333 41.3216 53.0333 41.2302V40.7778H52.79V41.2302C52.79 41.3216 52.715 41.3965 52.6233 41.3965H52.0467C51.955 41.3965 51.88 41.3216 51.88 41.2302V40.7778H51.6367V41.2302C51.6367 41.3216 51.5617 41.3965 51.47 41.3965H50.8933C50.8017 41.3965 50.7267 41.3216 50.7267 41.2302V40.7778H50.1567ZM64.115 43.7398V44.3801H70.7533V43.7398H64.115ZM72.3377 39.2692C71.3581 39.8629 70.8678 40.2994 70.715 40.4469H70.58V39.9513L72.3377 39.2692ZM70.0317 40.4469H70.245V36.8512H70.0317V40.4469ZM70.0317 36.5186H70.245V32.261H70.0317V36.5186ZM70.0317 31.9284H70.245V27.6708H70.0317V31.9284ZM70.0317 23.0807V27.3383H70.245V23.0807H70.0317ZM70.5783 24.9966V25.2328H82.8633V24.9966H70.5783ZM83.1983 23.0807V24.8303V27.3383H83.4117V23.0807H83.1983ZM83.4117 27.6708H83.1983V31.9284H83.4117V27.6708ZM83.4117 32.261H83.1983V36.5186H83.4117V32.261ZM83.4117 40.4469V36.8512H83.1983V40.4469H83.4117ZM82.865 40.4452V39.9579L82.8667 39.9562L81.075 39.261C82.06 39.8597 82.555 40.2988 82.7083 40.4452H82.865ZM89.24 43.7398H82.6017V44.3801H89.24V43.7398Z" fill="white"/>
</svg>
