<svg width="123" height="82" viewBox="0 0 123 82" fill="none" xmlns="http://www.w3.org/2000/svg">
<g clip-path="url(#clip0_4_3782)">
<path d="M109 79H108.374V71.8661H105.597V70.5102H99V29H108.108V29.6548H99.6257V69.8534H106.222V71.2073H108.999L109 79Z" fill="white"/>
<path d="M116 18H108V19H116V18Z" fill="white"/>
<path d="M96.9264 71.334V70H103V70.6452H97.5834V71.9792H94.658V79H94V71.337L96.9264 71.334Z" fill="white"/>
<path d="M117 18H116V79H117V18Z" fill="white"/>
<path d="M109 18H108V69H109V18Z" fill="white"/>
<path d="M121.995 58H121.288V47.134L120.732 46.6113V45.0542H119.262V43.5379L116 40.4697L116.499 40L119.973 43.2673V44.3905H121.444V46.3376L122 46.8604L121.995 58Z" fill="white"/>
<path d="M118.656 31V33.1092H116V33.7599H119.3V31.6517H120.594V33.7609H122.356V79H123V33.1092H121.237V31H118.656Z" fill="white"/>
<path d="M105 71H99V71.4451H105V71Z" fill="white"/>
<path d="M107 73H96V73.4451H107V73Z" fill="white"/>
<path d="M107 74H96V74.4451H107V74Z" fill="white"/>
<path d="M107 76H96V76.4451H107V76Z" fill="white"/>
<path d="M107 77H96V77.4451H107V77Z" fill="white"/>
<path d="M101.361 31H101V69H101.361V31Z" fill="white"/>
<path d="M103.36 31H103V69H103.36V31Z" fill="white"/>
<path d="M104.36 31H104V69H104.36V31Z" fill="white"/>
<path d="M105.361 31H105V69H105.361V31Z" fill="white"/>
<path d="M106.361 31H106V69H106.361V31Z" fill="white"/>
<path d="M111 20H110V21H111V20Z" fill="white"/>
<path d="M113 20H112V21H113V20Z" fill="white"/>
<path d="M111 23H110V24H111V23Z" fill="white"/>
<path d="M113 23H112V24H113V23Z" fill="white"/>
<path d="M111 26H110V27H111V26Z" fill="white"/>
<path d="M113 26H112V27H113V26Z" fill="white"/>
<path d="M111 29H110V30H111V29Z" fill="white"/>
<path d="M113 29H112V30H113V29Z" fill="white"/>
<path d="M111 31H110V32H111V31Z" fill="white"/>
<path d="M113 31H112V32H113V31Z" fill="white"/>
<path d="M111 34H110V35H111V34Z" fill="white"/>
<path d="M113 34H112V35H113V34Z" fill="white"/>
<path d="M111 37H110V38H111V37Z" fill="white"/>
<path d="M113 37H112V38H113V37Z" fill="white"/>
<path d="M111 40H110V41H111V40Z" fill="white"/>
<path d="M113 40H112V41H113V40Z" fill="white"/>
<path d="M111 43H110V44H111V43Z" fill="white"/>
<path d="M113 43H112V44H113V43Z" fill="white"/>
<path d="M111 46H110V47H111V46Z" fill="white"/>
<path d="M113 46H112V47H113V46Z" fill="white"/>
<path d="M111 48H110V49H111V48Z" fill="white"/>
<path d="M113 48H112V49H113V48Z" fill="white"/>
<path d="M111 51H110V52H111V51Z" fill="white"/>
<path d="M113 51H112V52H113V51Z" fill="white"/>
<path d="M111 54H110V55H111V54Z" fill="white"/>
<path d="M113 54H112V55H113V54Z" fill="white"/>
<path d="M111 57H110V58H111V57Z" fill="white"/>
<path d="M113 57H112V58H113V57Z" fill="white"/>
<path d="M111 60H110V61H111V60Z" fill="white"/>
<path d="M113 60H112V61H113V60Z" fill="white"/>
<path d="M111 63H110V64H111V63Z" fill="white"/>
<path d="M113 63H112V64H113V63Z" fill="white"/>
<path d="M111 66H110V67H111V66Z" fill="white"/>
<path d="M113 66H112V67H113V66Z" fill="white"/>
<path d="M111 68H110V69H111V68Z" fill="white"/>
<path d="M113 68H112V69H113V68Z" fill="white"/>
<path d="M111 71H110V72H111V71Z" fill="white"/>
<path d="M113 71H112V72H113V71Z" fill="white"/>
<path d="M111 74H110V75H111V74Z" fill="white"/>
<path d="M113 74H112V75H113V74Z" fill="white"/>
<path d="M111 77H110V78H111V77Z" fill="white"/>
<path d="M113 77H112V78H113V77Z" fill="white"/>
<path d="M121 34H117V35H121V34Z" fill="white"/>
<path d="M121 36H117V37H121V36Z" fill="white"/>
<path d="M121 37H117V38H121V37Z" fill="white"/>
<path d="M121 38H117V39H121V38Z" fill="white"/>
<path d="M121 40H117V41H121V40Z" fill="white"/>
<path d="M122 41H120V42H122V41Z" fill="white"/>
<path d="M122 42H120V43H122V42Z" fill="white"/>
<path d="M117.454 46H117V47H117.454V46Z" fill="white"/>
<path d="M117.454 50H117V51H117.454V50Z" fill="white"/>
<path d="M117.454 52H117V53H117.454V52Z" fill="white"/>
<path d="M117.454 54H117V55H117.454V54Z" fill="white"/>
<path d="M117.454 58H117V59H117.454V58Z" fill="white"/>
<path d="M117.454 60H117V61H117.454V60Z" fill="white"/>
<path d="M117.454 62H117V63H117.454V62Z" fill="white"/>
<path d="M117.454 67H117V68H117.454V67Z" fill="white"/>
<path d="M117.454 69H117V70H117.454V69Z" fill="white"/>
<path d="M117.454 71H117V72H117.454V71Z" fill="white"/>
<path d="M117.454 75H117V76H117.454V75Z" fill="white"/>
<path d="M117.454 77H117V78H117.454V77Z" fill="white"/>
<path d="M118.454 46H118V47H118.454V46Z" fill="white"/>
<path d="M118.454 48H118V49H118.454V48Z" fill="white"/>
<path d="M118.454 50H118V51H118.454V50Z" fill="white"/>
<path d="M118.454 54H118V55H118.454V54Z" fill="white"/>
<path d="M118.454 56H118V57H118.454V56Z" fill="white"/>
<path d="M118.454 58H118V59H118.454V58Z" fill="white"/>
<path d="M118.454 62H118V63H118.454V62Z" fill="white"/>
<path d="M118.454 65H118V66H118.454V65Z" fill="white"/>
<path d="M118.454 67H118V68H118.454V67Z" fill="white"/>
<path d="M118.454 71H118V72H118.454V71Z" fill="white"/>
<path d="M118.454 73H118V74H118.454V73Z" fill="white"/>
<path d="M118.454 75H118V76H118.454V75Z" fill="white"/>
<mask id="mask0_4_3782" style="mask-type:luminance" maskUnits="userSpaceOnUse" x="0" y="0" width="123" height="82">
<path d="M123 0H0V82H123V0Z" fill="white"/>
</mask>
<g mask="url(#mask0_4_3782)">
<path d="M54.316 31.999L56.004 22.5766L57.692 32L57.97 30.2992C57.9753 30.2677 57.9854 30.2372 58 30.2089L56.4 21.2966L56 21L55.6 21.2977L54 30.2089C54.0146 30.2376 54.0247 30.2684 54.03 30.3003L54.316 31.999Z" fill="white"/>
<path d="M64 52H62.9047V52.3396C62.9047 52.4323 62.8679 52.5213 62.8024 52.5869C62.7369 52.6525 62.648 52.6893 62.5554 52.6893H61V52.7006H63.3014V53.3005H63.1262V54H63.9989L64 52Z" fill="white"/>
<path d="M49.8749 53.3024H49.6997V52.7022H52V52.6908H50.4446C50.352 52.6908 50.2631 52.654 50.1976 52.5883C50.1321 52.5227 50.0953 52.4337 50.0953 52.3409V52H49V54H49.8726L49.8749 53.3024Z" fill="white"/>
<path d="M50.6659 80V53.6329H52V53H50V79.999L50.6659 80Z" fill="white"/>
<path d="M62.333 80H63V53H61V53.6329H62.3341L62.333 80Z" fill="white"/>
<path d="M61 67H60V79H61V67Z" fill="white"/>
<path d="M53 67H52V79H53V67Z" fill="white"/>
<path d="M57 67H55V71H57V67ZM56.488 70.401H55.5112V67.599H56.488V70.401Z" fill="white"/>
<path d="M61 65H60.3861V66.1911H52.6138V65H52V67H61V65Z" fill="white"/>
<path d="M60.3871 59V64.3766H52.6139V59H52V65H61V59H60.3871Z" fill="white"/>
<path d="M52 60H61V58H60.3861V59.2H52.6138V58H52V60Z" fill="white"/>
<path d="M59 39V49.5502C59.3638 49.6728 59.6999 49.824 60 50V39H59Z" fill="white"/>
<path d="M54 49.5521V39H53V50C53.3002 49.8241 53.6364 49.6729 54 49.5501" fill="white"/>
<path d="M57.381 37.5C57.381 37.6326 57.3409 37.7598 57.2694 37.8535C57.198 37.9473 57.101 38 57 38H58C57.899 38 57.802 37.9473 57.7306 37.8535C57.6591 37.7598 57.619 37.6326 57.619 37.5V37H57.381V37.5Z" fill="white"/>
<path d="M53.1825 39H60V37H59.1056V37.3189C59.1056 37.4035 59.075 37.4846 59.0206 37.5444C58.9663 37.6042 58.8925 37.6378 58.8156 37.6378H59.42V38.3602H52.58V37.6378H53.1844C53.1075 37.6378 53.0337 37.6042 52.9794 37.5444C52.925 37.4846 52.8944 37.4035 52.8944 37.3189V37H52V39H53.1825Z" fill="white"/>
<path d="M55.619 37.5V37H55.381V37.5C55.381 37.6326 55.3409 37.7598 55.2694 37.8535C55.198 37.9473 55.101 38 55 38H56C55.899 38 55.802 37.9473 55.7306 37.8535C55.6591 37.7598 55.619 37.6326 55.619 37.5Z" fill="white"/>
<path d="M52.4162 51.3776C52.4162 51.4571 52.3838 51.5334 52.3263 51.5896C52.2687 51.6459 52.1907 51.6775 52.1093 51.6775H52.0268V51.6872C52.0097 51.8123 52.0007 51.9384 52 52.0647V57H61V52.0647C60.9993 51.9384 60.9903 51.8123 60.9732 51.6872V51.6775H60.8907C60.8093 51.6775 60.7313 51.6459 60.6737 51.5896C60.6161 51.5334 60.5838 51.4571 60.5838 51.3776V50.5875C60.3161 50.1548 59.9366 49.7987 59.4833 49.5548C59.156 49.3748 58.7928 49.2659 58.4185 49.2355C57.8861 49.1996 57.5037 48.5086 57.308 48H56.6594C56.8342 48.5241 57.3547 49.7645 58.3758 49.8334C58.935 49.8948 59.4509 50.1574 59.8229 50.57C60.1948 50.9827 60.3963 51.5158 60.3881 52.0657V56.4012H52.6158V52.0657C52.6076 51.5158 52.8091 50.9827 53.1811 50.57C53.5531 50.1574 54.0689 49.8948 54.6282 49.8334C55.6483 49.7645 56.1697 48.5241 56.3455 48H55.6959C55.4973 48.5086 55.1179 49.1996 54.5855 49.2355C54.2112 49.266 53.848 49.3749 53.5207 49.5548C53.0676 49.799 52.6881 50.1551 52.4201 50.5875L52.4162 51.3776Z" fill="white"/>
<path d="M55 52.1272V55H57V52.1146C56.991 51.9565 56.9576 51.8022 56.902 51.6607C56.8463 51.5191 56.7695 51.3931 56.6758 51.29C56.582 51.1868 56.4734 51.1084 56.356 51.0594C56.2386 51.0104 56.1149 50.9917 55.9919 51.0044C55.8688 50.9907 55.7449 51.0092 55.6276 51.0587C55.5102 51.1083 55.402 51.1879 55.3093 51.2928C55.2165 51.3976 55.1413 51.5255 55.0882 51.6687C55.035 51.812 55.005 51.9686 55 52.1272ZM56.4972 52.1366V54.3529H55.502V52.1303C55.502 52.0498 55.5305 51.6494 55.9902 51.6494C56.428 51.6494 56.4882 52.0143 56.4955 52.1366" fill="white"/>
<path d="M61 52.6558C61 52.7471 61.0313 52.8346 61.0871 52.8992C61.1429 52.9637 61.2186 53 61.2975 53H62.7024C62.7814 53 62.8571 52.9637 62.9129 52.8992C62.9687 52.8346 63 52.7471 63 52.6558V49.2618C62.9998 49.2119 62.9902 49.1626 62.9719 49.1174C62.9536 49.0722 62.9271 49.0321 62.8941 49L62.923 49.2038C62.9302 49.2528 62.9282 49.3029 62.9171 49.3508C62.9059 49.3987 62.8859 49.4433 62.8585 49.4814C62.831 49.5195 62.7967 49.5503 62.758 49.5716C62.7192 49.5929 62.677 49.6043 62.6341 49.6048H62.4088V52.3105H61.598V49.6048H61.3726C61.3298 49.6041 61.2876 49.5926 61.2489 49.5713C61.2103 49.5499 61.1761 49.5191 61.1487 49.481C61.1212 49.443 61.1012 49.3985 61.09 49.3506C61.0788 49.3028 61.0767 49.2527 61.0838 49.2038L61.1136 49C61.0806 49.0321 61.054 49.0722 61.0357 49.1174C61.0175 49.1626 61.0079 49.2119 61.0077 49.2618V52.6558H61Z" fill="white"/>
<path d="M61.0801 49.8796C61.1103 49.9174 61.1479 49.9478 61.1902 49.9686C61.2325 49.9893 61.2785 50.0001 61.3251 50H62.684C62.7302 49.9994 62.7758 49.9882 62.8176 49.9671C62.8593 49.9459 62.8963 49.9154 62.9259 49.8776C62.9555 49.8398 62.977 49.7957 62.989 49.7481C63.001 49.7006 63.0032 49.6509 62.9954 49.6024L62.9643 49.4003L62.3165 45.2832C62.3036 45.2039 62.2649 45.1321 62.207 45.0802C62.1492 45.0284 62.076 45 62.0004 45C61.9248 45 61.8516 45.0284 61.7938 45.0802C61.7359 45.1321 61.6972 45.2039 61.6843 45.2832L61.0365 49.4003L61.0044 49.6024C60.9967 49.6514 60.9991 49.7015 61.0115 49.7494C61.0239 49.7973 61.0459 49.8417 61.076 49.8796M61.9999 47.4058L62.3009 49.3186H61.6988L61.9999 47.4058Z" fill="white"/>
<path d="M50.2934 53H51.7017C51.7808 53 51.8567 52.9637 51.9126 52.8992C51.9686 52.8346 52 52.747 52 52.6557V49.2607C51.9999 49.2109 51.9904 49.1618 51.972 49.1167C51.9537 49.0717 51.927 49.0318 51.8938 49L51.9237 49.2039C51.9308 49.2528 51.9287 49.3029 51.9175 49.3507C51.9063 49.3986 51.8862 49.4431 51.8587 49.4812C51.8312 49.5193 51.7969 49.55 51.7582 49.5714C51.7194 49.5928 51.6771 49.6042 51.6342 49.605H51.4083V52.3114H50.5956V49.605H50.3707C50.3273 49.6051 50.2845 49.5942 50.2451 49.5732C50.2058 49.5521 50.1709 49.5215 50.1429 49.4833C50.1148 49.4451 50.0944 49.4003 50.0828 49.3521C50.0713 49.3038 50.0691 49.2533 50.0762 49.2039L50.1062 49C50.0731 49.0319 50.0465 49.0718 50.0281 49.1168C50.0098 49.1619 50.0002 49.211 50 49.2607V52.6557C50 52.747 50.0314 52.8346 50.0874 52.8992C50.1433 52.9637 50.2192 53 50.2983 53" fill="white"/>
<path d="M50.0772 49.8796C50.1074 49.9174 50.145 49.9478 50.1874 49.9686C50.2297 49.9893 50.2759 50.0001 50.3226 50H51.6836C51.7299 49.9992 51.7755 49.9879 51.8172 49.9667C51.859 49.9455 51.8959 49.915 51.9255 49.8773C51.9551 49.8395 51.9767 49.7954 51.9888 49.748C52.0009 49.7006 52.0032 49.651 51.9956 49.6025L51.9634 49.4005L51.3187 45.2832C51.3058 45.2039 51.267 45.132 51.209 45.0802C51.1511 45.0284 51.0778 45 51.0021 45C50.9263 45 50.853 45.0284 50.7951 45.0802C50.7372 45.132 50.6983 45.2039 50.6854 45.2832L50.0366 49.4005L50.0044 49.6025C49.9967 49.6515 49.9991 49.7016 50.0115 49.7495C50.0239 49.7973 50.047 49.8417 50.0772 49.8796ZM51.0026 47.4064L51.3031 49.3187H50.701L51.0026 47.4064Z" fill="white"/>
<path d="M57.995 48.6048C57.9319 48.1547 57.7474 47.7474 57.4736 47.4541C57.1999 47.1607 56.8544 47 56.4975 47C56.1406 47 55.7951 47.1607 55.5214 47.4541C55.2476 47.7474 55.0631 48.1547 55 48.6048C55 48.7096 55.0325 48.8101 55.0903 48.8842C55.1482 48.9584 55.2267 49 55.3085 49H57.6915C57.7733 49 57.8518 48.9584 57.9096 48.8842C57.9675 48.8101 58 48.7096 58 48.6048M55.7278 48.2095C55.8262 48.0726 55.9456 47.9633 56.0786 47.8886C56.2116 47.8138 56.3553 47.7752 56.5005 47.7752C56.6457 47.7752 56.7894 47.8138 56.9224 47.8886C57.0554 47.9633 57.1748 48.0726 57.2732 48.2095H55.7278Z" fill="white"/>
<path d="M56.5 41C56.0055 41 55.5222 41.1466 55.1111 41.4213C54.6999 41.696 54.3795 42.0865 54.1903 42.5433C54.0011 43.0001 53.9516 43.5028 54.048 43.9877C54.1445 44.4727 54.3826 44.9181 54.7322 45.2678C55.0819 45.6174 55.5273 45.8555 56.0123 45.952C56.4972 46.0484 56.9999 45.9989 57.4567 45.8097C57.9135 45.6205 58.304 45.3 58.5787 44.8889C58.8534 44.4778 59 43.9945 59 43.5C58.9992 42.8372 58.7356 42.2018 58.2669 41.7331C57.7982 41.2644 57.1628 41.0008 56.5 41ZM56.5 45.4078C56.1227 45.4078 55.7538 45.2959 55.4401 45.0863C55.1263 44.8767 54.8818 44.5787 54.7374 44.2301C54.593 43.8815 54.5552 43.4979 54.6288 43.1278C54.7025 42.7577 54.8842 42.4178 55.151 42.151C55.4178 41.8842 55.7577 41.7025 56.1278 41.6288C56.4979 41.5552 56.8815 41.593 57.2301 41.7374C57.5787 41.8818 57.8767 42.1263 58.0863 42.4401C58.2959 42.7538 58.4078 43.1227 58.4078 43.5C58.4071 44.0058 58.2058 44.4906 57.8482 44.8482C57.4906 45.2058 57.0058 45.4071 56.5 45.4078Z" fill="white"/>
<path d="M53.2934 38H54.7017C54.7808 38 54.8567 37.9637 54.9126 37.8992C54.9686 37.8346 55 37.7471 55 37.6558V34.2618C54.9998 34.2119 54.9902 34.1626 54.9719 34.1174C54.9535 34.0722 54.9269 34.0321 54.8938 34L54.9237 34.205C54.9308 34.2538 54.9287 34.3039 54.9175 34.3518C54.9063 34.3996 54.8862 34.4441 54.8587 34.4822C54.8312 34.5202 54.7969 34.551 54.7582 34.5724C54.7194 34.5937 54.6771 34.6052 54.6342 34.606H54.4083V37.3116H53.5927V34.606H53.3668C53.3239 34.6052 53.2816 34.5937 53.2428 34.5724C53.2041 34.551 53.1698 34.5202 53.1423 34.4822C53.1148 34.4441 53.0947 34.3996 53.0835 34.3518C53.0723 34.3039 53.0701 34.2538 53.0772 34.205L53.1062 34C53.0731 34.0321 53.0465 34.0722 53.0281 34.1174C53.0098 34.1626 53.0002 34.2119 53 34.2618V37.6525C53 37.7438 53.0314 37.8313 53.0874 37.8959C53.1433 37.9604 53.2192 37.9967 53.2983 37.9967" fill="white"/>
<path d="M53.0813 34.8797C53.1115 34.9174 53.149 34.9477 53.1913 34.9685C53.2336 34.9892 53.2796 35 53.3262 35H54.6845C54.7305 34.9992 54.7759 34.9879 54.8175 34.9668C54.859 34.9457 54.8959 34.9153 54.9254 34.8777C54.9549 34.8401 54.9765 34.7961 54.9887 34.7488C55.0008 34.7016 55.0032 34.6521 54.9958 34.6037L54.9636 34.4006L54.6035 32.1122L54.3161 30.2852C54.3106 30.2509 54.3001 30.2178 54.285 30.1869C54.2546 30.1228 54.2059 30.0706 54.1459 30.0377C54.086 30.0049 54.0177 29.993 53.951 30.0039C53.8843 30.0149 53.8226 30.0479 53.7747 30.0985C53.7267 30.149 53.695 30.2143 53.6842 30.2852L53.0356 34.4006L53.0045 34.6026C52.9967 34.6515 52.9991 34.7017 53.0114 34.7496C53.0238 34.7974 53.0459 34.8419 53.0761 34.8797M54.3005 34.3189H53.6987L53.9996 32.4069L54.3005 34.3189Z" fill="white"/>
<path d="M56.9923 37.6555V34.262C56.9922 34.212 56.9827 34.1627 56.9644 34.1174C56.9461 34.0721 56.9195 34.0321 56.8864 34L56.9153 34.204C56.9225 34.253 56.9205 34.3032 56.9094 34.3511C56.8982 34.3991 56.8782 34.4437 56.8508 34.4818C56.8233 34.52 56.789 34.5508 56.7503 34.5721C56.7116 34.5934 56.6693 34.6048 56.6264 34.6054H56.4011V37.3133H55.5903V34.6054H55.365C55.3221 34.6048 55.2798 34.5934 55.241 34.5721C55.2023 34.5508 55.168 34.52 55.1406 34.4818C55.1131 34.4437 55.0931 34.3991 55.082 34.3511C55.0708 34.3032 55.0688 34.253 55.0761 34.204L55.1059 34C55.0728 34.032 55.0461 34.0721 55.0278 34.1173C55.0095 34.1626 55 34.212 55 34.262V37.6555C55 37.7469 55.0314 37.8345 55.0872 37.8991C55.143 37.9637 55.2186 38 55.2975 38H56.7025C56.7814 38 56.857 37.9637 56.9128 37.8991C56.9686 37.8345 57 37.7469 57 37.6555" fill="white"/>
<path d="M55.077 34.8796C55.1072 34.9174 55.1447 34.9478 55.187 34.9686C55.2292 34.9893 55.2753 35.0001 55.3219 35H56.6841C56.7304 34.9994 56.7759 34.9882 56.8177 34.9671C56.8594 34.9459 56.8964 34.9154 56.9259 34.8776C56.9555 34.8398 56.9771 34.7957 56.989 34.7481C57.001 34.7006 57.0032 34.6509 56.9954 34.6024L56.9632 34.4003L56.3158 30.2832C56.303 30.2039 56.2642 30.1321 56.2064 30.0802C56.1486 30.0284 56.0755 30 55.9999 30C55.9243 30 55.8512 30.0284 55.7934 30.0802C55.7356 30.1321 55.6968 30.2039 55.684 30.2832L55.0365 34.4014L55.0044 34.6035C54.9967 34.6525 54.9991 34.7026 55.0115 34.7505C55.0239 34.7984 55.0459 34.8428 55.076 34.8807M56.0004 32.4069L56.3003 34.3197H55.6995L56.0004 32.4069Z" fill="white"/>
<path d="M59.8545 34.4838C59.8267 34.5222 59.7919 34.5531 59.7526 34.5743C59.7133 34.5955 59.6705 34.6065 59.6272 34.6065H59.4017V37.3144H58.5915V34.6065H58.3661C58.3232 34.6057 58.281 34.5942 58.2423 34.5729C58.2037 34.5515 58.1694 34.5207 58.142 34.4826C58.1145 34.4444 58.0945 34.3999 58.0833 34.352C58.0721 34.3042 58.07 34.2541 58.0771 34.2051L58.106 34.0011C58.073 34.0333 58.0464 34.0734 58.0281 34.1186C58.0098 34.1638 58.0002 34.2132 58 34.2631V37.6555C58 37.7469 58.0314 37.8345 58.0872 37.8991C58.143 37.9637 58.2187 38 58.2977 38H59.7023C59.7813 38 59.857 37.9637 59.9128 37.8991C59.9686 37.8345 60 37.7469 60 37.6555V34.262C59.9999 34.212 59.9903 34.1627 59.972 34.1174C59.9537 34.0722 59.9271 34.0321 59.894 34L59.9229 34.2051C59.93 34.2544 59.9278 34.3048 59.9163 34.353C59.9048 34.4011 59.8844 34.4458 59.8565 34.4838" fill="white"/>
<path d="M58.3988 32.1128L58.0369 34.4005L58.0046 34.6025C57.9968 34.651 57.999 34.7007 58.011 34.7482C58.0231 34.7957 58.0447 34.8399 58.0745 34.8777C58.1042 34.9155 58.1413 34.946 58.1833 34.9671C58.2253 34.9882 58.271 34.9994 58.3175 35H59.6827C59.729 34.9994 59.7747 34.9882 59.8166 34.9671C59.8585 34.9461 59.8955 34.9157 59.9253 34.878C59.955 34.8404 59.9767 34.7963 59.9888 34.749C60.0009 34.7016 60.0032 34.652 59.9956 34.6036L59.9643 34.4005L59.3135 30.2844C59.3024 30.2136 59.2704 30.1484 59.2222 30.098C59.1739 30.0476 59.1119 30.0146 59.0449 30.0039C58.9779 29.9931 58.9094 30.005 58.8491 30.038C58.7889 30.0709 58.7401 30.1232 58.7096 30.1873C58.6945 30.2177 58.6839 30.2505 58.6784 30.2844L58.3988 32.1128ZM59.3083 34.321H58.7034L59.0069 32.4087L59.3083 34.321Z" fill="white"/>
<path d="M56.5 21.5844L56.9197 21.8577L58.6644 23L57.8377 20.7087L60 19.2903H57.3267L56.501 17L55.6743 19.2903H53L55.1623 20.7087L54.3366 23L56.0814 21.8586L56.5 21.5844ZM54.9955 19.8775H56.1496L56.5052 18.8931L56.8609 19.8775H58.015L57.0844 20.4865L57.44 21.4719L56.5105 20.8619L55.5799 21.4719L55.9355 20.4865L54.9955 19.8775Z" fill="white"/>
<path d="M44 47H43V48H44V47Z" fill="white"/>
<path d="M44 47H43V48H44V47Z" fill="white"/>
<path d="M5 47H4V48H5V47Z" fill="white"/>
<path d="M5 47H4V48H5V47Z" fill="white"/>
<path d="M5.44556 47H17V46.6493H4.519V46.3501H16.222V46H4V47H5.44556Z" fill="white"/>
<path d="M5.44556 47H17V46.6493H4.519V46.3501H16.222V46H4V47H5.44556Z" fill="white"/>
<path d="M31.7781 46.3501H43.481V46.6493H31V47H44V46H31.7781V46.3501Z" fill="white"/>
<path d="M31.7781 46.3501H43.481V46.6493H31V47H44V46H31.7781V46.3501Z" fill="white"/>
<path d="M45 55L45.3389 77H46L45.6611 55H45Z" fill="white"/>
<path d="M45 55L45.3389 77H46L45.6611 55H45Z" fill="white"/>
<path d="M43.6611 77L44 55H43.3389L43 77H43.6611Z" fill="white"/>
<path d="M43.6611 77L44 55H43.3389L43 77H43.6611Z" fill="white"/>
<path d="M45.5372 77H42V79H47V77H45.5372ZM46.4567 77.5744V78.4289H42.5433V77.5744H46.4567Z" fill="white"/>
<path d="M45.5372 77H42V79H47V77H45.5372ZM46.4567 77.5744V78.4289H42.5433V77.5744H46.4567Z" fill="white"/>
<path d="M44.2877 55H47V54H46.4922V54.444H43.5097V54H43V55H44.2877Z" fill="white"/>
<path d="M44.2877 55H47V54H46.4922V54.444H43.5097V54H43V55H44.2877Z" fill="white"/>
<path d="M35.6611 77L36 55H35.3389L35 77H35.6611Z" fill="white"/>
<path d="M35.6611 77L36 55H35.3389L35 77H35.6611Z" fill="white"/>
<path d="M37 55L37.3389 77H38L37.6611 55H37Z" fill="white"/>
<path d="M37 55L37.3389 77H38L37.6611 55H37Z" fill="white"/>
<path d="M37.5372 77H34V79H39V77H37.5372ZM38.4567 77.5744V78.4289H34.5433V77.5744H38.4567Z" fill="white"/>
<path d="M37.5372 77H34V79H39V77H37.5372ZM38.4567 77.5744V78.4289H34.5433V77.5744H38.4567Z" fill="white"/>
<path d="M37.4913 54V54.444H34.5097V54H34V55H38V54H37.4913Z" fill="white"/>
<path d="M37.4913 54V54.444H34.5097V54H34V55H38V54H37.4913Z" fill="white"/>
<path d="M29 55L29.3389 77H30L29.6611 55H29Z" fill="white"/>
<path d="M29 55L29.3389 77H30L29.6611 55H29Z" fill="white"/>
<path d="M27.6611 77L28 55H27.3389L27 77H27.6611Z" fill="white"/>
<path d="M27.6611 77L28 55H27.3389L27 77H27.6611Z" fill="white"/>
<path d="M29.5372 77H26V79H31V77H29.5372ZM30.4567 77.5744V78.4289H26.5433V77.5744H30.4567Z" fill="white"/>
<path d="M29.5372 77H26V79H31V77H29.5372ZM30.4567 77.5744V78.4289H26.5433V77.5744H30.4567Z" fill="white"/>
<path d="M29.4893 54V54.444H26.5097V54H26V55H30V54H29.4893Z" fill="white"/>
<path d="M29.4893 54V54.444H26.5097V54H26V55H30V54H29.4893Z" fill="white"/>
<path d="M18.6611 77L19 55H18.3389L18 77H18.6611Z" fill="white"/>
<path d="M18.6611 77L19 55H18.3389L18 77H18.6611Z" fill="white"/>
<path d="M20 55L20.3389 77H21L20.6611 55H20Z" fill="white"/>
<path d="M20 55L20.3389 77H21L20.6611 55H20Z" fill="white"/>
<path d="M20.535 77H17V79H22V77H20.535ZM21.4539 77.5744V78.4289H17.5419V77.5744H21.4539Z" fill="white"/>
<path d="M20.535 77H17V79H22V77H20.535ZM21.4539 77.5744V78.4289H17.5419V77.5744H21.4539Z" fill="white"/>
<path d="M21.4921 54V54.444H18.5099V54H18V55H22V54H21.4921Z" fill="white"/>
<path d="M21.4921 54V54.444H18.5099V54H18V55H22V54H21.4921Z" fill="white"/>
<path d="M10.6611 77L11 55H10.3389L10 77H10.6611Z" fill="white"/>
<path d="M10.6611 77L11 55H10.3389L10 77H10.6611Z" fill="white"/>
<path d="M12 55L12.3389 77H13L12.6611 55H12Z" fill="white"/>
<path d="M12 55L12.3389 77H13L12.6611 55H12Z" fill="white"/>
<path d="M12.5383 77H9V79H14V77H12.5383ZM13.4578 77.5744V78.4289H9.54435V77.5744H13.4578Z" fill="white"/>
<path d="M12.5383 77H9V79H14V77H12.5383ZM13.4578 77.5744V78.4289H9.54435V77.5744H13.4578Z" fill="white"/>
<path d="M12.4903 54V54.444H9.50974V54H9V55H13V54H12.4903Z" fill="white"/>
<path d="M12.4903 54V54.444H9.50974V54H9V55H13V54H12.4903Z" fill="white"/>
<path d="M4 55L4.33888 77H5L4.66113 55H4Z" fill="white"/>
<path d="M4 55L4.33888 77H5L4.66113 55H4Z" fill="white"/>
<path d="M2.66069 77L3 55H2.33931L2 77H2.66069Z" fill="white"/>
<path d="M2.66069 77L3 55H2.33931L2 77H2.66069Z" fill="white"/>
<path d="M4.5372 77H1V79H6V77H4.5372ZM5.4567 77.5744V78.4289H1.54224V77.5744H5.4525H5.4567Z" fill="white"/>
<path d="M4.5372 77H1V79H6V77H4.5372ZM5.4567 77.5744V78.4289H1.54224V77.5744H5.4525H5.4567Z" fill="white"/>
<path d="M4.49026 54V54.444H1.50974V54H1V55H5V54H4.49026Z" fill="white"/>
<path d="M4.49026 54V54.444H1.50974V54H1V55H5V54H4.49026Z" fill="white"/>
<path d="M43.3592 54H48V52H47.343V52.517H47.4848V53.486H0.516193V52.517H0.657972V52H0V54H43.3592Z" fill="white"/>
<path d="M43.3592 54H48V52H47.343V52.517H47.4848V53.486H0.516193V52.517H0.657972V52H0V54H43.3592Z" fill="white"/>
<path d="M1 53H3V52.4648H1.59838V51H1V53Z" fill="white"/>
<path d="M1 53H3V52.4648H1.59838V51H1V53Z" fill="white"/>
<path d="M46.4028 51V52.4648H45V53H47V51.001L46.4028 51Z" fill="white"/>
<path d="M46.4028 51V52.4648H45V53H47V51.001L46.4028 51Z" fill="white"/>
<path d="M42 52H40V53H42V52Z" fill="white"/>
<path d="M42 52H40V53H42V52Z" fill="white"/>
<path d="M28 52H26V53H28V52Z" fill="white"/>
<path d="M28 52H26V53H28V52Z" fill="white"/>
<path d="M13 52H11V53H13V52Z" fill="white"/>
<path d="M13 52H11V53H13V52Z" fill="white"/>
<path d="M18 52H16V53H18V52Z" fill="white"/>
<path d="M18 52H16V53H18V52Z" fill="white"/>
<path d="M8 52H6V53H8V52Z" fill="white"/>
<path d="M8 52H6V53H8V52Z" fill="white"/>
<path d="M33 52H31V53H33V52Z" fill="white"/>
<path d="M33 52H31V53H33V52Z" fill="white"/>
<path d="M37 52H35V53H37V52Z" fill="white"/>
<path d="M37 52H35V53H37V52Z" fill="white"/>
<path d="M23 52H21V53H23V52Z" fill="white"/>
<path d="M23 52H21V53H23V52Z" fill="white"/>
<path d="M22 53H23V52.4648H22.6155V51H22V53Z" fill="white"/>
<path d="M22 53H23V52.4648H22.6155V51H22V53Z" fill="white"/>
<path d="M25 52.4645V53H26V51H25.3845V52.4656L25 52.4645Z" fill="white"/>
<path d="M25 52.4645V53H26V51H25.3845V52.4656L25 52.4645Z" fill="white"/>
<path d="M23 53H25V51H24.4093V52.4656H23.5919V51H23V53Z" fill="white"/>
<path d="M23 53H25V51H24.4093V52.4656H23.5919V51H23V53Z" fill="white"/>
<path d="M3 52.4656H2.61548V51H2V53H3V52.4656Z" fill="white"/>
<path d="M3 52.4656H2.61548V51H2V53H3V52.4656Z" fill="white"/>
<path d="M5 52.4645V53H6V51H5.38452V52.4656L5 52.4645Z" fill="white"/>
<path d="M5 52.4645V53H6V51H5.38452V52.4656L5 52.4645Z" fill="white"/>
<path d="M3 53H5V51H4.40605V52.4656H3.59052V51H3V53Z" fill="white"/>
<path d="M3 53H5V51H4.40605V52.4656H3.59052V51H3V53Z" fill="white"/>
<path d="M7.00237 53H8V52.4648H7.61402V51H7V52.999L7.00237 53Z" fill="white"/>
<path d="M7.00237 53H8V52.4648H7.61402V51H7V52.999L7.00237 53Z" fill="white"/>
<path d="M10 52.4645V53H11V51H10.3845V52.4656L10 52.4645Z" fill="white"/>
<path d="M10 52.4645V53H11V51H10.3845V52.4656L10 52.4645Z" fill="white"/>
<path d="M8 53H10V51H9.40847V52.4656H8.59153V51H8V53Z" fill="white"/>
<path d="M8 53H10V51H9.40847V52.4656H8.59153V51H8V53Z" fill="white"/>
<path d="M12 53H13V52.4648H12.6155V51H12V53Z" fill="white"/>
<path d="M12 53H13V52.4648H12.6155V51H12V53Z" fill="white"/>
<path d="M15 52.4645V53H16V51H15.3845V52.4656L15 52.4645Z" fill="white"/>
<path d="M15 52.4645V53H16V51H15.3845V52.4656L15 52.4645Z" fill="white"/>
<path d="M13.0023 53H15V51H14.4091V52.4656H13.5909V51H13V53H13.0023Z" fill="white"/>
<path d="M13.0023 53H15V51H14.4091V52.4656H13.5909V51H13V53H13.0023Z" fill="white"/>
<path d="M17 53H18V52.4648H17.6155V51H17V53Z" fill="white"/>
<path d="M17 53H18V52.4648H17.6155V51H17V53Z" fill="white"/>
<path d="M20 52.4645V53H21V51H20.3893V52.4656L20 52.4645Z" fill="white"/>
<path d="M20 52.4645V53H21V51H20.3893V52.4656L20 52.4645Z" fill="white"/>
<path d="M18 53H20V51H19.4093V52.4656H18.5919V51H18V53Z" fill="white"/>
<path d="M18 53H20V51H19.4093V52.4656H18.5919V51H18V53Z" fill="white"/>
<path d="M27 53H28V52.4648H27.6155V51H27V53Z" fill="white"/>
<path d="M27 53H28V52.4648H27.6155V51H27V53Z" fill="white"/>
<path d="M30 52.4645V53H31V51H30.3845V52.4656L30 52.4645Z" fill="white"/>
<path d="M30 52.4645V53H31V51H30.3845V52.4656L30 52.4645Z" fill="white"/>
<path d="M28 53H30V51H29.4093V52.4656H28.5919V51H28V53Z" fill="white"/>
<path d="M28 53H30V51H29.4093V52.4656H28.5919V51H28V53Z" fill="white"/>
<path d="M32 53H33V52.4648H32.6155V51H32V53Z" fill="white"/>
<path d="M32 53H33V52.4648H32.6155V51H32V53Z" fill="white"/>
<path d="M35 52.4645V53H36V51H35.3845V52.4656L35 52.4645Z" fill="white"/>
<path d="M35 52.4645V53H36V51H35.3845V52.4656L35 52.4645Z" fill="white"/>
<path d="M33.0046 53H35V51H34.4093V52.4656H33.5919V51H33V53H33.0046Z" fill="white"/>
<path d="M33.0046 53H35V51H34.4093V52.4656H33.5919V51H33V53H33.0046Z" fill="white"/>
<path d="M37 53H38V52.4648H37.6155V51H37V53Z" fill="white"/>
<path d="M37 53H38V52.4648H37.6155V51H37V53Z" fill="white"/>
<path d="M40 52.4645V53H41V51H40.3845V52.4656L40 52.4645Z" fill="white"/>
<path d="M40 52.4645V53H41V51H40.3845V52.4656L40 52.4645Z" fill="white"/>
<path d="M38 53H40V51H39.4085V52.4656H38.5915V51H38V53Z" fill="white"/>
<path d="M38 53H40V51H39.4085V52.4656H38.5915V51H38V53Z" fill="white"/>
<path d="M42 53H43V52.4648H42.6155V51H42V53Z" fill="white"/>
<path d="M42 53H43V52.4648H42.6155V51H42V53Z" fill="white"/>
<path d="M45 52.4645V53H46V51H45.3845V52.4656L45 52.4645Z" fill="white"/>
<path d="M45 52.4645V53H46V51H45.3845V52.4656L45 52.4645Z" fill="white"/>
<path d="M43 53H45V51H44.4085V52.4656H43.5915V51H43V53Z" fill="white"/>
<path d="M43 53H45V51H44.4085V52.4656H43.5915V51H43V53Z" fill="white"/>
<path d="M0.958399 51H47V49H30.9448V49.596H46.4902V50.4029H0.50878V49.596H16.0542V49H0V51H0.958399Z" fill="white"/>
<path d="M0.958399 51H47V49H30.9448V49.596H46.4902V50.4029H0.50878V49.596H16.0542V49H0V51H0.958399Z" fill="white"/>
<path d="M31 46.4497V46H30.4865V48.4738H16.5135V46H16V49H30.998V46.4507L31 46.4497Z" fill="white"/>
<path d="M31 46.4497V46H30.4865V48.4738H16.5135V46H16V49H30.998V46.4507L31 46.4497Z" fill="white"/>
<path d="M16 47H33V45H29.3146V45.6519H32.4732V46.3468H16.5278V45.6519H19.6865V45H16V47Z" fill="white"/>
<path d="M16 47H33V45H29.3146V45.6519H32.4732V46.3468H16.5278V45.6519H19.6865V45H16V47Z" fill="white"/>
<path d="M23 45H22V46H23V45Z" fill="white"/>
<path d="M23 45H22V46H23V45Z" fill="white"/>
<path d="M26 45H25V46H26V45Z" fill="white"/>
<path d="M26 45H25V46H26V45Z" fill="white"/>
<path d="M23 46H26V41.0032H25.2934V41.548H25.4418V45.4477H23.5603V41.548H23.7077V41H23.0011L23 46Z" fill="white"/>
<path d="M23 46H26V41.0032H25.2934V41.548H25.4418V45.4477H23.5603V41.548H23.7077V41H23.0011L23 46Z" fill="white"/>
<path d="M26 45H29V41H26V45ZM26.5603 41.5323H28.4408V44.4677H26.5603V41.5323Z" fill="white"/>
<path d="M26 45H29V41H26V45ZM26.5603 41.5323H28.4408V44.4677H26.5603V41.5323Z" fill="white"/>
<path d="M19 45H22V41H19V45ZM19.5603 41.5323H21.4397V44.4677H19.5625L19.5603 41.5323Z" fill="white"/>
<path d="M19 45H22V41H19V45ZM19.5603 41.5323H21.4397V44.4677H19.5625L19.5603 41.5323Z" fill="white"/>
<path d="M23 41H24V37H23V41ZM23.3534 37.5013H23.6466V40.4987H23.3534V37.5013Z" fill="white"/>
<path d="M23 41H24V37H23V41ZM23.3534 37.5013H23.6466V40.4987H23.3534V37.5013Z" fill="white"/>
<path d="M99.687 78.8367H94.6646V76.3169C94.6646 76.2321 94.6314 76.1508 94.5724 76.0908C94.5133 76.0309 94.4332 75.9972 94.3497 75.9972H90.5356V74.0324C90.5356 74.0274 90.5356 74.0224 90.5356 74.0174C90.5344 73.983 90.5277 73.949 90.5158 73.9168C90.512 73.9069 90.5077 73.8971 90.5029 73.8877C90.4932 73.8669 90.4812 73.8474 90.4672 73.8293L89.0727 72.0969V55.5997H90.2176C90.259 55.5997 90.3 55.5914 90.3382 55.5754C90.3764 55.5593 90.4111 55.5357 90.4403 55.5061C90.4696 55.4764 90.4928 55.4411 90.5086 55.4023C90.5245 55.3635 90.5326 55.3219 90.5326 55.28V53.3876C90.5326 53.3456 90.5245 53.304 90.5086 53.2653C90.4928 53.2265 90.4696 53.1912 90.4403 53.1615C90.4111 53.1318 90.3764 53.1083 90.3382 53.0922C90.3 53.0761 90.259 53.0679 90.2176 53.0679H89.043L88.3963 45.044C88.3864 44.9032 87.7485 36.0951 87.2801 29.3412L87.6069 29.6117C87.6626 29.6587 87.7326 29.6846 87.805 29.6851H87.8476C87.8898 29.6787 87.9304 29.6638 87.9669 29.6414C88.0035 29.6189 88.0353 29.5894 88.0605 29.5544L89.3986 27.664L89.6541 27.8651C89.7661 27.9519 89.9074 27.9901 90.047 27.9712C90.1866 27.9524 90.3132 27.878 90.3989 27.7646L91.4349 26.381C91.5201 26.2673 91.5575 26.1239 91.539 25.9822C91.5204 25.8405 91.4474 25.7121 91.3358 25.6249L91.0654 25.4157L91.9737 24.1448C92.0208 24.0786 92.0412 23.9967 92.0307 23.9157C92.0202 23.8347 91.9796 23.7609 91.9172 23.7094L88.7043 21.0499C88.6714 21.022 88.6333 21.0012 88.5922 20.9889C88.5511 20.9765 88.508 20.9729 88.4655 20.9782C88.4229 20.9834 88.3819 20.9975 88.345 21.0195C88.308 21.0416 88.2759 21.0711 88.2507 21.1062L87.1681 22.5893L86.8086 22.2032C86.7958 21.9468 86.7888 21.7819 86.7908 21.7286C86.8418 21.4384 86.8056 21.1393 86.6869 20.8703C86.5682 20.6013 86.3725 20.3748 86.1252 20.2203L85.5567 19.9016L84.6515 15.9741C84.7588 15.7389 84.8328 15.4894 84.8714 15.2331L85.4864 14.5966C86.6066 13.6494 87.8872 12.5856 88.012 12.5092L88.1596 12.4086L88.1497 12.3845C88.1786 12.333 88.1913 12.2737 88.1863 12.2146C88.1817 12.1328 88.1464 12.0559 88.0876 11.9998C88.0288 11.9436 87.951 11.9125 87.8703 11.9129H87.8258C87.7545 11.922 86.6026 12.0256 85.4557 12.1271C85.7851 11.3439 86.0501 10.5344 86.2481 9.70688C86.2475 9.64622 86.2306 9.58688 86.1992 9.53529C86.1678 9.4837 86.123 9.44185 86.0698 9.41428C85.8826 9.32077 85.8004 9.28055 83.5333 10.9617L82.6063 8.2469C82.5841 8.18474 82.5438 8.13094 82.4907 8.09267C82.4376 8.0544 82.3743 8.03349 82.3092 8.03273C82.2454 8.03191 82.183 8.05068 82.1299 8.08657C82.0769 8.12246 82.0358 8.17379 82.012 8.23383L80.9978 10.8793L78.911 9.45148C78.8578 9.41526 78.7949 9.3964 78.7307 9.39744C78.6666 9.39847 78.6044 9.41935 78.5523 9.45728C78.5001 9.49521 78.4607 9.54839 78.4391 9.6097C78.4176 9.67101 78.415 9.73754 78.4317 9.80039L78.9942 11.9421L77.7067 11.7108L77.0134 9.16492C77.2115 8.27807 77.4403 7.31279 77.5007 7.1489C77.6364 6.78089 77.2135 6.04285 76.8074 5.46871C76.7296 5.39567 76.6439 5.3319 76.5519 5.27868L76.5895 4.423C76.8327 4.27793 77.0433 4.08287 77.2079 3.85032C77.3725 3.61778 77.4874 3.35288 77.5453 3.07262C77.5547 3.0261 77.5538 2.97803 77.5426 2.93192C77.5314 2.8858 77.5103 2.84279 77.4807 2.806C77.4511 2.76922 77.4138 2.73959 77.3715 2.71927C77.3292 2.69895 77.283 2.68844 77.2362 2.68852H75.8338V2.38687C75.8338 2.34488 75.8257 2.3033 75.8098 2.26451C75.794 2.22572 75.7708 2.19047 75.7416 2.16078C75.7123 2.13108 75.6776 2.10753 75.6394 2.09146C75.6012 2.07539 75.5602 2.06712 75.5189 2.06712H74.7879C74.6934 2.06712 74.6027 2.02899 74.5358 1.9611C74.4689 1.89322 74.4314 1.80115 74.4314 1.70515C74.4314 1.60914 74.4689 1.51707 74.5358 1.44919C74.6027 1.3813 74.6934 1.34317 74.7879 1.34317H76.5935C76.8561 1.34317 77.1081 1.23723 77.2938 1.04866C77.4795 0.860097 77.5839 0.604345 77.5839 0.337671C77.5863 0.29424 77.5799 0.250768 77.5652 0.209916C77.5505 0.169063 77.5277 0.131689 77.4983 0.10008C77.4689 0.0684712 77.4334 0.0432923 77.394 0.026084C77.3547 0.0088757 77.3123 0 77.2694 0C77.2266 0 77.1842 0.0088757 77.1448 0.026084C77.1055 0.0432923 77.07 0.0684712 77.0406 0.10008C77.0111 0.131689 76.9884 0.169063 76.9736 0.209916C76.9589 0.250768 76.9526 0.29424 76.955 0.337671C76.9547 0.433592 76.9171 0.525509 76.8502 0.593335C76.7834 0.661162 76.6929 0.699384 76.5984 0.69965H74.7929C74.5456 0.699709 74.3074 0.794254 74.1256 0.964486C73.9438 1.13472 73.8318 1.36816 73.8118 1.61841C73.7919 1.86865 73.8654 2.11736 74.0178 2.31507C74.1702 2.51279 74.3903 2.64503 74.6344 2.6855H73.7619C73.7152 2.68546 73.6691 2.69595 73.6269 2.71621C73.5847 2.73647 73.5475 2.76601 73.5179 2.80267C73.4883 2.83933 73.4671 2.88221 73.4559 2.9282C73.4446 2.97419 73.4436 3.02215 73.4528 3.0686C73.5153 3.37006 73.6434 3.65351 73.8278 3.89815C74.0122 4.14278 74.2482 4.34239 74.5185 4.48232L74.5374 5.10975H74.4997C74.4303 5.11913 74.3635 5.14235 74.3029 5.17807C74.2424 5.21379 74.1895 5.26131 74.1471 5.31789C74.1049 5.37479 74.0744 5.4397 74.0574 5.50879C74.0404 5.57788 74.0372 5.64973 74.0481 5.72009L74.2749 7.4425C74.2882 7.53997 74.3273 7.63193 74.3882 7.70847C74.4491 7.78501 74.5295 7.84323 74.6206 7.87688L74.6463 8.7587C74.6486 8.84183 74.6829 8.92074 74.7417 8.9786C74.8006 9.03646 74.8793 9.06868 74.9612 9.06839H75.3386C75.3128 9.91401 75.2227 12.9013 75.2207 13.0522V13.0914C75.1829 13.5318 75.2287 13.9755 75.3554 14.3985C75.3881 14.6909 75.3958 14.9856 75.3782 15.2793C75.1495 15.4858 74.981 15.752 74.8913 16.049C74.8015 16.3461 74.7938 16.6624 74.8691 16.9635C74.9648 17.3547 75.1878 17.7016 75.502 17.9479L75.7873 21.4893C75.7873 21.4973 75.7922 21.5034 75.7942 21.5114L75.406 22.6044C75.3899 22.6505 75.3845 22.6999 75.3901 22.7485C75.3958 22.7971 75.4124 22.8438 75.4386 22.8849L76.1527 24.007C76.0609 24.1938 76.007 24.3973 75.9941 24.6056C75.9811 24.8139 76.0095 25.0227 76.0774 25.2197C76.1419 25.6401 76.1342 26.0688 76.0547 26.4866L75.0742 34.9116C74.1471 38.448 73.1527 42.2296 72.4278 44.9817C72.4105 45.0451 72.4131 45.1125 72.4351 45.1744C72.4571 45.2363 72.4974 45.2898 72.5506 45.3276C72.5743 45.3433 72.5999 45.3558 72.6268 45.3648L70.7094 53.0669H69.5447C69.4612 53.0671 69.3813 53.1009 69.3223 53.1608C69.2632 53.2207 69.23 53.3019 69.2297 53.3866V55.279C69.2297 55.3638 69.2629 55.4451 69.3219 55.5051C69.381 55.565 69.4611 55.5987 69.5447 55.5987H70.6391V72.1029L69.298 73.8354C69.2865 73.8514 69.2766 73.8686 69.2683 73.8867C69.2628 73.8947 69.2578 73.9031 69.2535 73.9118C69.2406 73.9455 69.2335 73.9812 69.2327 74.0174C69.2327 74.0174 69.2327 74.0264 69.2327 74.0304V75.9952H65.4186C65.3351 75.9952 65.2549 76.0289 65.1959 76.0888C65.1368 76.1488 65.1036 76.2301 65.1036 76.3149V78.8357H60.315C60.2736 78.8357 60.2327 78.844 60.1944 78.86C60.1562 78.8761 60.1215 78.8997 60.0922 78.9294C60.063 78.959 60.0398 78.9943 60.024 79.0331C60.0082 79.0719 60 79.1135 60 79.1554V81.6803C60 81.7222 60.0082 81.7638 60.024 81.8026C60.0398 81.8414 60.063 81.8766 60.0922 81.9063C60.1215 81.936 60.1562 81.9596 60.1944 81.9757C60.2327 81.9917 60.2736 82 60.315 82H99.685C99.7686 82 99.8487 81.9663 99.9078 81.9063C99.9668 81.8464 100 81.7651 100 81.6803V79.1524C100 79.0676 99.9668 78.9863 99.9078 78.9263C99.8487 78.8664 99.7686 78.8327 99.685 78.8327M65.4166 79.4722H99.3681V81.3645H60.6309V79.4762L65.4166 79.4722ZM65.7315 76.6327H94.0307V78.8337H65.7345L65.7315 76.6327ZM71.27 55.5957H88.4379V71.8938H71.2729L71.27 55.5957ZM71.1085 72.5302H88.6033L89.5521 73.7097H70.1983L71.1085 72.5302ZM69.8606 74.4045H89.9027V75.9942H69.8636L69.8606 74.4045ZM69.8606 53.7033H89.9027V54.9602H69.8636L69.8606 53.7033ZM76.0378 22.6737L77.0807 19.7357C77.095 19.6963 77.1014 19.6544 77.0996 19.6124C77.0977 19.5705 77.0876 19.5293 77.0698 19.4914C77.0434 19.4341 77.0008 19.3861 76.9475 19.3534C76.8941 19.3207 76.8325 19.3048 76.7702 19.3077C76.708 19.3106 76.648 19.3322 76.5979 19.3697C76.5477 19.4072 76.5096 19.459 76.4885 19.5185L76.2904 20.0735L76.1379 18.1772C76.2024 18.1454 76.254 18.0917 76.2835 18.0253C76.3176 17.948 76.32 17.8601 76.2903 17.7809C76.2606 17.7017 76.2011 17.6377 76.125 17.603C75.9662 17.5348 75.8247 17.4306 75.7115 17.2986C75.5982 17.1665 75.5161 17.01 75.4713 16.8409C75.4358 16.6707 75.4335 16.4951 75.4644 16.324C75.4816 16.3377 75.5002 16.3495 75.5199 16.3592C75.8482 16.4956 76.1991 16.5673 76.5538 16.5704C76.7707 16.5711 76.9862 16.5371 77.1927 16.4698C77.6723 16.3174 78.0755 15.9832 78.3188 15.5367L78.3633 15.9289L78.3891 16.5261C78.3936 16.6078 78.4288 16.6845 78.4874 16.7406C78.546 16.7967 78.6235 16.8279 78.704 16.8278H78.7179C78.8008 16.8249 78.8792 16.7887 78.9358 16.7272C78.9641 16.6965 78.9861 16.6603 79.0002 16.6207L80.774 18.2114L80.0163 20.5914C80.0037 20.6312 79.9989 20.6733 80.0023 20.715C80.0057 20.7568 80.0172 20.7975 80.0362 20.8347C80.0544 20.8718 80.0797 20.9049 80.1106 20.932C80.1416 20.9591 80.1775 20.9797 80.2164 20.9926L80.3155 21.0097C80.3816 21.0091 80.4459 20.9875 80.4992 20.9478C80.5525 20.9081 80.5922 20.8523 80.6126 20.7884L81.3217 18.5673L82.5647 19.0751L81.1781 21.5617L76.748 25.7375C76.7463 25.5053 76.7214 25.2738 76.6737 25.0467C76.6264 24.8527 76.625 24.6501 76.6695 24.4554C76.7141 24.2607 76.8034 24.0795 76.9302 23.9266L77.9652 22.6737C78.0174 22.6089 78.0426 22.5259 78.0355 22.4425C78.0299 22.3796 78.0061 22.3199 77.9671 22.2707C77.9281 22.2216 77.8756 22.1853 77.8163 22.1664C77.757 22.1474 77.6935 22.1468 77.6338 22.1644C77.5741 22.1821 77.5209 22.2172 77.4809 22.2655L76.5202 23.4299L76.0378 22.6737ZM76.7886 3.32399C76.6592 3.55683 76.4712 3.75058 76.2439 3.88539C76.0165 4.02021 75.7579 4.09126 75.4946 4.09126C75.2313 4.09126 74.9727 4.02021 74.7453 3.88539C74.518 3.75058 74.33 3.55683 74.2006 3.32399H76.7886ZM75.4951 4.73169C75.6471 4.73008 75.7985 4.71187 75.9467 4.67739L75.9358 4.93178C75.916 4.93178 75.8962 4.92575 75.8774 4.93178L75.1583 5.03233L75.1484 4.70856C75.263 4.72814 75.3789 4.73822 75.4951 4.73873M75.8635 5.58133L76.0616 7.10566L74.8731 7.26755L74.675 5.74322L75.8635 5.58133ZM75.81 7.78538L75.7813 8.43694H75.2564L75.2396 7.86179L75.81 7.78538ZM76.0844 9.0694C76.1649 9.06976 76.2424 9.03862 76.3009 8.98244C76.3594 8.92626 76.3943 8.84937 76.3983 8.76775L76.4479 7.65064C76.5063 7.61542 76.5577 7.56938 76.5994 7.5149C76.6424 7.45835 76.6739 7.39364 76.6919 7.32456C76.7099 7.25549 76.7142 7.18346 76.7044 7.1127L76.5974 6.3083C76.7229 6.50915 76.8228 6.72539 76.8946 6.95182C76.7896 7.26654 76.4984 8.5395 76.3746 9.10358C76.3624 9.15445 76.3624 9.20756 76.3746 9.25843L77.1382 12.0597L77.877 14.7746C77.8574 15.027 77.7624 15.2673 77.6047 15.4635C77.4471 15.6597 77.2342 15.8024 76.9946 15.8726C76.6581 15.9637 76.3031 15.9564 75.9705 15.8515C76.0159 15.3158 76.008 14.7768 75.9467 14.2427C75.8358 13.8762 75.7974 13.4911 75.8338 13.1095V13.0693C75.8338 13.0049 75.8556 12.2649 75.9517 9.09453V9.0694H76.0844ZM86.2183 22.8075L85.5181 23.4108H85.5102L85.5042 23.4178L83.7898 24.8858C84.2144 23.4781 84.6664 21.9796 85.1457 20.3903L85.8549 20.7864C85.8687 20.7935 86.1926 20.9564 86.1639 21.6914C86.1639 21.7859 86.1797 22.1821 86.2174 22.8055M89.0083 26.5469L89.9255 25.3232L90.8812 26.0603L89.9641 27.2839L89.0083 26.5469ZM90.2275 24.7531C90.1157 24.6666 89.9746 24.6287 89.8352 24.6475C89.6958 24.6664 89.5695 24.7405 89.4837 24.8537L88.4468 26.2372C88.3618 26.3511 88.3245 26.4944 88.3431 26.636C88.3616 26.7776 88.4345 26.906 88.5458 26.9934L88.9004 27.2669L87.7485 28.8947L87.2196 28.4574C87.0998 26.7249 86.9948 25.1704 86.9225 23.9899L88.5646 21.7417L91.2932 24L90.5692 25.0145L90.2275 24.7531ZM75.6684 35.1298C76.0745 33.5794 76.4806 32.0289 76.847 30.6262L76.8609 30.6091L84.1781 21.4068C82.7915 26.004 78.7585 39.371 78.4336 40.4047C78.092 40.7063 75.6872 42.5031 73.2696 44.2768C73.7034 42.6308 74.6889 38.8803 75.6724 35.1268M80.1689 23.3826L77.4779 28.215C77.9731 26.3287 78.1712 25.5394 78.2356 25.1985L80.1689 23.3826ZM78.9804 15.7409L78.919 15.2079C78.9224 15.091 78.9016 14.9747 78.8579 14.8664C78.8142 14.7581 78.7487 14.6604 78.6654 14.5795C78.6034 14.5239 78.5319 14.4803 78.4545 14.4508L78.3188 13.9481C78.4842 14.1361 78.6506 14.3221 78.7981 14.478L79.4379 15.211V15.2291C79.4459 15.2824 79.4617 15.3296 79.4726 15.3849C79.4914 15.4714 79.5073 15.5589 79.533 15.6433L79.5499 15.6916L79.3775 16.0938L78.9804 15.7409ZM83.5165 15.6695C83.5165 16.0359 83.3731 16.3873 83.1179 16.6464C82.8627 16.9055 82.5166 17.051 82.1556 17.051C81.7947 17.051 81.4486 16.9055 81.1934 16.6464C80.9382 16.3873 80.7948 16.0359 80.7948 15.6695V15.0471C81.3366 14.8425 81.8151 14.4955 82.1814 14.0416C82.4907 14.5636 82.9616 14.967 83.5204 15.1888L83.5165 15.6695ZM80.5977 16.9123C80.684 17.0227 80.7812 17.1238 80.8879 17.2139V17.4512L80.5482 17.1496L80.5977 16.9123ZM81.5168 17.5749C81.9613 17.7394 82.4505 17.7286 82.8876 17.5447V18.505L81.5168 17.9449V17.5749ZM83.3848 19.3978L84.4742 20.0092L78.7674 27.1854L83.156 19.3063L83.3848 19.3978ZM83.7383 18.8669L83.5175 18.7433V17.1345C83.5511 17.1023 83.5818 17.0681 83.6165 17.0339L83.7383 18.8669ZM84.2504 14.7736C82.6766 14.3603 82.5548 13.2895 82.5508 13.2432C82.5434 13.1713 82.5122 13.1041 82.4624 13.0525C82.4125 13.0009 82.3469 12.968 82.2762 12.9591C82.2055 12.9502 82.134 12.9659 82.0732 13.0037C82.0125 13.0414 81.9661 13.0989 81.9417 13.1668C81.7572 13.5407 81.4902 13.8662 81.1613 14.1181C80.8325 14.3699 80.4508 14.5413 80.0461 14.6187C80.0902 14.0658 80.343 13.5516 80.7517 13.1835C81.1604 12.8154 81.6934 12.6218 82.2394 12.6433C82.7854 12.6647 83.3021 12.8994 83.6816 13.2984C84.0612 13.6975 84.2741 14.2299 84.2761 14.7846C84.2681 14.7802 84.2598 14.7761 84.2514 14.7726M76.229 53.0578L76.8549 47.9298C76.8565 47.9127 76.8565 47.8956 76.8549 47.8785L78.5852 44.2708L77.5126 53.0568L76.229 53.0578ZM74.367 53.0578L76.0141 49.625L75.5951 53.0578H74.367ZM78.9972 40.6993C79.0418 40.5987 80.5393 35.6607 83.4541 26.006L85.3507 24.3811L83.8978 45.5689L78.2445 41.3629C78.9457 40.8159 78.9744 40.7546 78.9942 40.7083M79.3706 42.9938L80.4521 43.7982L79.3825 53.0669H78.1405L79.3706 42.9938ZM81.0365 44.2336L82.2606 45.1436L81.3465 53.0669H80.0163L81.0365 44.2336ZM82.845 45.5789L83.9859 46.4276C84.0119 46.4467 84.0407 46.4616 84.0711 46.4718L83.3105 53.0669H81.9813L82.845 45.5789ZM84.905 44.7424L86.2045 45.0068L85.2745 53.0669H83.9453L84.905 44.7424ZM87.9397 47.2109L87.2375 53.0679H85.9093L86.8245 45.1345L87.7911 45.3356L87.9397 47.2109ZM87.8713 53.0679L88.1942 50.3752L88.4111 53.0679H87.8713ZM84.6307 44.0355L86.0173 23.816L86.2659 23.6028C86.5838 28.6414 87.5465 41.9893 87.7406 44.669L84.6307 44.0355ZM84.393 19.244L84.2375 16.9756L84.8149 19.4813L84.393 19.244ZM85.4666 13.7771C85.359 13.4259 85.1975 13.094 84.9882 12.7937C84.999 12.7963 85.0099 12.798 85.0209 12.7988L86.46 12.6711L86.8304 12.6379C86.4877 12.9204 86.0302 13.3015 85.4666 13.7771ZM84.6981 12.3694C84.6966 12.3865 84.6966 12.4036 84.6981 12.4207C84.5843 12.2976 84.4621 12.1827 84.3326 12.0768C84.3252 12.067 84.3173 12.0576 84.3088 12.0487C84.2989 12.0427 84.2886 12.0373 84.2781 12.0326C84.0886 11.8825 83.8845 11.7525 83.669 11.6445C84.2474 11.2151 84.9041 10.7395 85.3874 10.3997C85.1962 10.9668 84.9258 11.743 84.703 12.3694M82.3537 11.3016C82.3389 11.2969 82.3236 11.2936 82.3082 11.2915C82.2983 11.2915 82.2894 11.2966 82.2795 11.2976C82.2379 11.2976 82.1972 11.2915 82.1556 11.2915C81.932 11.2921 81.7089 11.3133 81.4891 11.3549L82.2943 9.27049L83.0242 11.4052C82.8057 11.3476 82.5821 11.3122 82.3567 11.2996M79.7341 12.2689C79.7341 12.2689 79.7341 12.2628 79.7341 12.2598L79.2597 10.457L80.8503 11.5419C80.4346 11.7075 80.0552 11.9549 79.7341 12.2699M78.8764 13.6353C78.4802 13.1869 78.0642 12.6922 77.9305 12.5293L77.8919 12.3885L79.3775 12.656C79.3825 12.656 79.3874 12.656 79.3934 12.656C79.1705 12.9518 78.9954 13.2817 78.8744 13.6333M76.6687 26.6786L77.4046 25.9869C77.1521 26.9732 76.7282 28.6011 76.2161 30.5538L76.6687 26.6786ZM77.7215 41.7671L78.7268 42.5152L73.6648 53.0679H71.3631L73.3736 44.9927C75.5783 43.3779 76.9124 42.3835 77.7215 41.7671Z" fill="white"/>
<path d="M99.687 78.8367H94.6646V76.3169C94.6646 76.2321 94.6314 76.1508 94.5724 76.0908C94.5133 76.0309 94.4332 75.9972 94.3497 75.9972H90.5356V74.0324C90.5356 74.0274 90.5356 74.0224 90.5356 74.0174C90.5344 73.983 90.5277 73.949 90.5158 73.9168C90.512 73.9069 90.5077 73.8971 90.5029 73.8877C90.4932 73.8669 90.4812 73.8474 90.4672 73.8293L89.0727 72.0969V55.5997H90.2176C90.259 55.5997 90.3 55.5914 90.3382 55.5754C90.3764 55.5593 90.4111 55.5357 90.4403 55.5061C90.4696 55.4764 90.4928 55.4411 90.5086 55.4023C90.5245 55.3635 90.5326 55.3219 90.5326 55.28V53.3876C90.5326 53.3456 90.5245 53.304 90.5086 53.2653C90.4928 53.2265 90.4696 53.1912 90.4403 53.1615C90.4111 53.1318 90.3764 53.1083 90.3382 53.0922C90.3 53.0761 90.259 53.0679 90.2176 53.0679H89.043L88.3963 45.044C88.3864 44.9032 87.7485 36.0951 87.2801 29.3412L87.6069 29.6117C87.6626 29.6587 87.7326 29.6846 87.805 29.6851H87.8476C87.8898 29.6787 87.9304 29.6638 87.9669 29.6414C88.0035 29.6189 88.0353 29.5894 88.0605 29.5544L89.3986 27.664L89.6541 27.8651C89.7661 27.9519 89.9074 27.9901 90.047 27.9712C90.1866 27.9524 90.3132 27.878 90.3989 27.7646L91.4349 26.381C91.5201 26.2673 91.5575 26.1239 91.539 25.9822C91.5204 25.8405 91.4474 25.7121 91.3358 25.6249L91.0654 25.4157L91.9737 24.1448C92.0208 24.0786 92.0412 23.9967 92.0307 23.9157C92.0202 23.8347 91.9796 23.7609 91.9172 23.7094L88.7043 21.0499C88.6714 21.022 88.6333 21.0012 88.5922 20.9889C88.5511 20.9765 88.508 20.9729 88.4655 20.9782C88.4229 20.9834 88.3819 20.9975 88.345 21.0195C88.308 21.0416 88.2759 21.0711 88.2507 21.1062L87.1681 22.5893L86.8086 22.2032C86.7958 21.9468 86.7888 21.7819 86.7908 21.7286C86.8418 21.4384 86.8056 21.1393 86.6869 20.8703C86.5682 20.6013 86.3725 20.3748 86.1252 20.2203L85.5567 19.9016L84.6515 15.9741C84.7588 15.7389 84.8328 15.4894 84.8714 15.2331L85.4864 14.5966C86.6066 13.6494 87.8872 12.5856 88.012 12.5092L88.1596 12.4086L88.1497 12.3845C88.1786 12.333 88.1913 12.2737 88.1863 12.2146C88.1817 12.1328 88.1464 12.0559 88.0876 11.9998C88.0288 11.9436 87.951 11.9125 87.8703 11.9129H87.8258C87.7545 11.922 86.6026 12.0256 85.4557 12.1271C85.7851 11.3439 86.0501 10.5344 86.2481 9.70688C86.2475 9.64622 86.2306 9.58688 86.1992 9.53529C86.1678 9.4837 86.123 9.44185 86.0698 9.41428C85.8826 9.32077 85.8004 9.28055 83.5333 10.9617L82.6063 8.2469C82.5841 8.18474 82.5438 8.13094 82.4907 8.09267C82.4376 8.0544 82.3743 8.03349 82.3092 8.03273C82.2454 8.03191 82.183 8.05068 82.1299 8.08657C82.0769 8.12246 82.0358 8.17379 82.012 8.23383L80.9978 10.8793L78.911 9.45148C78.8578 9.41526 78.7949 9.3964 78.7307 9.39744C78.6666 9.39847 78.6044 9.41935 78.5523 9.45728C78.5001 9.49521 78.4607 9.54839 78.4391 9.6097C78.4176 9.67101 78.415 9.73754 78.4317 9.80039L78.9942 11.9421L77.7067 11.7108L77.0134 9.16492C77.2115 8.27807 77.4403 7.31279 77.5007 7.1489C77.6364 6.78089 77.2135 6.04285 76.8074 5.46871C76.7296 5.39567 76.6439 5.3319 76.5519 5.27868L76.5895 4.423C76.8327 4.27793 77.0433 4.08287 77.2079 3.85032C77.3725 3.61778 77.4874 3.35288 77.5453 3.07262C77.5547 3.0261 77.5538 2.97803 77.5426 2.93192C77.5314 2.8858 77.5103 2.84279 77.4807 2.806C77.4511 2.76922 77.4138 2.73959 77.3715 2.71927C77.3292 2.69895 77.283 2.68844 77.2362 2.68852H75.8338V2.38687C75.8338 2.34488 75.8257 2.3033 75.8098 2.26451C75.794 2.22572 75.7708 2.19047 75.7416 2.16078C75.7123 2.13108 75.6776 2.10753 75.6394 2.09146C75.6012 2.07539 75.5602 2.06712 75.5189 2.06712H74.7879C74.6934 2.06712 74.6027 2.02899 74.5358 1.9611C74.4689 1.89322 74.4314 1.80115 74.4314 1.70515C74.4314 1.60914 74.4689 1.51707 74.5358 1.44919C74.6027 1.3813 74.6934 1.34317 74.7879 1.34317H76.5935C76.8561 1.34317 77.1081 1.23723 77.2938 1.04866C77.4795 0.860097 77.5839 0.604345 77.5839 0.337671C77.5863 0.29424 77.5799 0.250768 77.5652 0.209916C77.5505 0.169063 77.5277 0.131689 77.4983 0.10008C77.4689 0.0684712 77.4334 0.0432923 77.394 0.026084C77.3547 0.0088757 77.3123 0 77.2694 0C77.2266 0 77.1842 0.0088757 77.1448 0.026084C77.1055 0.0432923 77.07 0.0684712 77.0406 0.10008C77.0111 0.131689 76.9884 0.169063 76.9736 0.209916C76.9589 0.250768 76.9526 0.29424 76.955 0.337671C76.9547 0.433592 76.9171 0.525509 76.8502 0.593335C76.7834 0.661162 76.6929 0.699384 76.5984 0.69965H74.7929C74.5456 0.699709 74.3074 0.794254 74.1256 0.964486C73.9438 1.13472 73.8318 1.36816 73.8118 1.61841C73.7919 1.86865 73.8654 2.11736 74.0178 2.31507C74.1702 2.51279 74.3903 2.64503 74.6344 2.6855H73.7619C73.7152 2.68546 73.6691 2.69595 73.6269 2.71621C73.5847 2.73647 73.5475 2.76601 73.5179 2.80267C73.4883 2.83933 73.4671 2.88221 73.4559 2.9282C73.4446 2.97419 73.4436 3.02215 73.4528 3.0686C73.5153 3.37006 73.6434 3.65351 73.8278 3.89815C74.0122 4.14278 74.2482 4.34239 74.5185 4.48232L74.5374 5.10975H74.4997C74.4303 5.11913 74.3635 5.14235 74.3029 5.17807C74.2424 5.21379 74.1895 5.26131 74.1471 5.31789C74.1049 5.37479 74.0744 5.4397 74.0574 5.50879C74.0404 5.57788 74.0372 5.64973 74.0481 5.72009L74.2749 7.4425C74.2882 7.53997 74.3273 7.63193 74.3882 7.70847C74.4491 7.78501 74.5295 7.84323 74.6206 7.87688L74.6463 8.7587C74.6486 8.84183 74.6829 8.92074 74.7417 8.9786C74.8006 9.03646 74.8793 9.06868 74.9612 9.06839H75.3386C75.3128 9.91401 75.2227 12.9013 75.2207 13.0522V13.0914C75.1829 13.5318 75.2287 13.9755 75.3554 14.3985C75.3881 14.6909 75.3958 14.9856 75.3782 15.2793C75.1495 15.4858 74.981 15.752 74.8913 16.049C74.8015 16.3461 74.7938 16.6624 74.8691 16.9635C74.9648 17.3547 75.1878 17.7016 75.502 17.9479L75.7873 21.4893C75.7873 21.4973 75.7922 21.5034 75.7942 21.5114L75.406 22.6044C75.3899 22.6505 75.3845 22.6999 75.3901 22.7485C75.3958 22.7971 75.4124 22.8438 75.4386 22.8849L76.1527 24.007C76.0609 24.1938 76.007 24.3973 75.9941 24.6056C75.9811 24.8139 76.0095 25.0227 76.0774 25.2197C76.1419 25.6401 76.1342 26.0688 76.0547 26.4866L75.0742 34.9116C74.1471 38.448 73.1527 42.2296 72.4278 44.9817C72.4105 45.0451 72.4131 45.1125 72.4351 45.1744C72.4571 45.2363 72.4974 45.2898 72.5506 45.3276C72.5743 45.3433 72.5999 45.3558 72.6268 45.3648L70.7094 53.0669H69.5447C69.4612 53.0671 69.3813 53.1009 69.3223 53.1608C69.2632 53.2207 69.23 53.3019 69.2297 53.3866V55.279C69.2297 55.3638 69.2629 55.4451 69.3219 55.5051C69.381 55.565 69.4611 55.5987 69.5447 55.5987H70.6391V72.1029L69.298 73.8354C69.2865 73.8514 69.2766 73.8686 69.2683 73.8867C69.2628 73.8947 69.2578 73.9031 69.2535 73.9118C69.2406 73.9455 69.2335 73.9812 69.2327 74.0174C69.2327 74.0174 69.2327 74.0264 69.2327 74.0304V75.9952H65.4186C65.3351 75.9952 65.2549 76.0289 65.1959 76.0888C65.1368 76.1488 65.1036 76.2301 65.1036 76.3149V78.8357H60.315C60.2736 78.8357 60.2327 78.844 60.1944 78.86C60.1562 78.8761 60.1215 78.8997 60.0922 78.9294C60.063 78.959 60.0398 78.9943 60.024 79.0331C60.0082 79.0719 60 79.1135 60 79.1554V81.6803C60 81.7222 60.0082 81.7638 60.024 81.8026C60.0398 81.8414 60.063 81.8766 60.0922 81.9063C60.1215 81.936 60.1562 81.9596 60.1944 81.9757C60.2327 81.9917 60.2736 82 60.315 82H99.685C99.7686 82 99.8487 81.9663 99.9078 81.9063C99.9668 81.8464 100 81.7651 100 81.6803V79.1524C99.999 79.0687 99.9656 78.9887 99.9071 78.9296C99.8485 78.8706 99.7695 78.8372 99.687 78.8367ZM65.4186 79.4762H99.3701V81.3645H60.6309V79.4762H65.4186ZM65.7335 76.6367H94.0327V78.8377H65.7345L65.7335 76.6367ZM71.272 55.5997H88.4398V71.8938H71.2729L71.272 55.5997ZM71.1105 72.5343H88.6052L89.5541 73.7137H70.1983L71.1105 72.5343ZM69.8626 74.4085H89.9047V75.9982H69.8636L69.8626 74.4085ZM69.8626 53.7074H89.9047V54.9602H69.8636L69.8626 53.7074ZM76.0398 22.6778L77.0827 19.7397C77.097 19.7003 77.1034 19.6584 77.1015 19.6164C77.0997 19.5745 77.0896 19.5333 77.0718 19.4954C77.0454 19.4381 77.0028 19.3901 76.9495 19.3574C76.8961 19.3247 76.8344 19.3088 76.7722 19.3117C76.71 19.3146 76.65 19.3362 76.5998 19.3737C76.5497 19.4113 76.5116 19.463 76.4905 19.5225L76.2924 20.0776L76.1398 18.1812C76.2044 18.1495 76.2559 18.0957 76.2854 18.0294C76.3195 17.952 76.322 17.8641 76.2923 17.7849C76.2626 17.7057 76.2031 17.6418 76.127 17.6071C75.9681 17.5388 75.8267 17.4347 75.7134 17.3026C75.6002 17.1705 75.518 17.014 75.4733 16.8449C75.4378 16.6747 75.4355 16.4992 75.4664 16.3281C75.4836 16.3417 75.5022 16.3535 75.5218 16.3633C75.8502 16.4996 76.2011 16.5713 76.5558 16.5744C76.7726 16.5751 76.9882 16.5412 77.1946 16.4739C77.6742 16.3214 78.0775 15.9872 78.3207 15.5408L78.3653 15.9329L78.3911 16.5302C78.3956 16.6118 78.4308 16.6885 78.4894 16.7447C78.548 16.8008 78.6255 16.8319 78.706 16.8318H78.7199C78.8028 16.8289 78.8811 16.7928 78.9378 16.7313C78.9661 16.7005 78.988 16.6643 79.0022 16.6247L80.776 18.2154L80.0163 20.5914C80.0037 20.6312 79.9989 20.6733 80.0023 20.715C80.0057 20.7568 80.0172 20.7975 80.0362 20.8347C80.0544 20.8718 80.0797 20.9049 80.1106 20.932C80.1416 20.9591 80.1775 20.9797 80.2164 20.9926L80.3155 21.0097C80.3816 21.0091 80.4459 20.9875 80.4992 20.9478C80.5525 20.9081 80.5922 20.8523 80.6126 20.7884L81.3217 18.5673L82.5647 19.0751L81.1781 21.5617L76.748 25.7375C76.7463 25.5053 76.7214 25.2738 76.6737 25.0467C76.6264 24.8527 76.625 24.6501 76.6695 24.4554C76.7141 24.2607 76.8034 24.0795 76.9302 23.9266L77.9652 22.6737C78.0174 22.6089 78.0426 22.5259 78.0355 22.4425C78.0299 22.3796 78.0061 22.3199 77.9671 22.2707C77.9281 22.2216 77.8756 22.1853 77.8163 22.1664C77.757 22.1474 77.6935 22.1468 77.6338 22.1644C77.5741 22.1821 77.5209 22.2172 77.4809 22.2655L76.5202 23.4299L76.0398 22.6778ZM76.7906 3.32801C76.6612 3.56085 76.4732 3.7546 76.2458 3.88942C76.0185 4.02424 75.7599 4.09528 75.4966 4.09528C75.2333 4.09528 74.9747 4.02424 74.7473 3.88942C74.5199 3.7546 74.332 3.56085 74.2026 3.32801H76.7906ZM75.4971 4.73571C75.6491 4.7341 75.8005 4.7159 75.9487 4.68141L75.9378 4.9358C75.918 4.9358 75.8982 4.92977 75.8794 4.9358L75.1603 5.03635L75.1504 4.71258C75.2653 4.72879 75.3812 4.73552 75.4971 4.73269V4.73571ZM75.8655 5.57831L76.0636 7.10265L74.8751 7.26453L74.677 5.7402L75.8655 5.57831ZM75.812 7.78236L75.7833 8.43392H75.2584L75.2415 7.85878L75.812 7.78236ZM76.0844 9.0694C76.1649 9.06976 76.2424 9.03862 76.3009 8.98244C76.3594 8.92626 76.3943 8.84937 76.3983 8.76775L76.4479 7.65064C76.5063 7.61542 76.5577 7.56938 76.5994 7.5149C76.6424 7.45835 76.6739 7.39364 76.6919 7.32456C76.7099 7.25549 76.7142 7.18346 76.7044 7.1127L76.5974 6.3083C76.7229 6.50915 76.8228 6.72539 76.8946 6.95182C76.7896 7.26654 76.4984 8.5395 76.3746 9.10358C76.3624 9.15445 76.3624 9.20756 76.3746 9.25843L77.1382 12.0597L77.877 14.7746C77.8574 15.027 77.7624 15.2673 77.6047 15.4635C77.4471 15.6597 77.2342 15.8024 76.9946 15.8726C76.6581 15.9637 76.3031 15.9564 75.9705 15.8515C76.0159 15.3158 76.008 14.7768 75.9467 14.2427C75.8358 13.8762 75.7974 13.4911 75.8338 13.1095V13.0693C75.8338 13.0049 75.8556 12.2649 75.9517 9.09453V9.0694H76.0844ZM86.2183 22.8075L85.5181 23.4108H85.5102L85.5042 23.4178L83.7898 24.8858C84.2144 23.4781 84.6664 21.9796 85.1457 20.3903L85.8549 20.7864C85.8687 20.7935 86.1926 20.9564 86.1639 21.6914C86.1569 21.7889 86.1807 22.1851 86.2183 22.8095V22.8075ZM89.0093 26.5489L89.9265 25.3252L90.8822 26.0623L89.9651 27.286L89.0093 26.5489ZM90.2285 24.7551C90.1167 24.6687 89.9756 24.6307 89.8362 24.6495C89.6968 24.6684 89.5704 24.7425 89.4847 24.8557L88.4478 26.2392C88.3628 26.3531 88.3255 26.4964 88.3441 26.638C88.3626 26.7796 88.4355 26.908 88.5468 26.9954L88.9014 27.2689L87.7495 28.8968L87.2206 28.4594C87.1008 26.7269 86.9958 25.1724 86.9235 23.992L88.5656 21.7437L91.2942 24.002L90.5702 25.0166L90.2285 24.7551ZM75.6694 35.1318C76.0755 33.5814 76.4815 32.0309 76.848 30.6282L76.8619 30.6111L84.1791 21.4088C82.7925 26.006 78.7595 39.373 78.4346 40.4067C78.093 40.7083 75.6882 42.5051 73.2706 44.2788C73.7014 42.6348 74.6879 38.8843 75.6714 35.1339L75.6694 35.1318ZM80.1659 23.3876L77.4749 28.2201C77.9701 26.3338 78.1682 25.5444 78.2326 25.2036L80.1659 23.3876ZM78.9774 15.7459L78.916 15.213C78.9194 15.096 78.8986 14.9797 78.8549 14.8714C78.8113 14.7632 78.7457 14.6654 78.6624 14.5845C78.6004 14.529 78.5289 14.4854 78.4515 14.4558L78.3158 13.9531C78.4812 14.1411 78.6476 14.3271 78.7952 14.483L79.435 15.216V15.2341C79.4429 15.2874 79.4587 15.3346 79.4696 15.3899C79.4884 15.4764 79.5043 15.5639 79.5301 15.6484L79.5469 15.6966L79.3746 16.0988L78.9774 15.7459ZM83.5135 15.6745C83.5135 15.8559 83.4783 16.0356 83.4099 16.2032C83.3415 16.3708 83.2413 16.5231 83.1149 16.6514C82.9886 16.7797 82.8385 16.8815 82.6734 16.9509C82.5083 17.0203 82.3314 17.056 82.1527 17.056C81.974 17.056 81.797 17.0203 81.6319 16.9509C81.4668 16.8815 81.3168 16.7797 81.1904 16.6514C81.0641 16.5231 80.9638 16.3708 80.8954 16.2032C80.827 16.0356 80.7918 15.8559 80.7918 15.6745V15.0521C81.3336 14.8476 81.8121 14.5005 82.1784 14.0466C82.4878 14.5686 82.9586 14.972 83.5175 15.1939L83.5135 15.6745ZM80.5947 16.9173C80.681 17.0277 80.7782 17.1288 80.8849 17.2189V17.4562L80.5452 17.1546L80.5947 16.9173ZM81.5138 17.5799C81.9584 17.7444 82.4475 17.7337 82.8846 17.5497V18.51L81.5138 17.9499V17.5799ZM83.3818 19.4029L84.4712 20.0142L78.7644 27.1904L83.153 19.3114L83.3818 19.4029ZM83.7354 18.872L83.5145 18.7483V17.1395C83.5482 17.1073 83.5789 17.0731 83.6135 17.0389L83.7354 18.872ZM84.2474 14.7786C82.6736 14.3653 82.5518 13.2945 82.5479 13.2482C82.5405 13.1763 82.5093 13.1091 82.4594 13.0575C82.4095 13.0059 82.3439 12.973 82.2732 12.9641C82.2026 12.9553 82.131 12.971 82.0703 13.0087C82.0095 13.0464 81.9632 13.1039 81.9387 13.1718C81.7543 13.5457 81.4872 13.8713 81.1584 14.1231C80.8295 14.375 80.4479 14.5463 80.0431 14.6238C80.0872 14.0709 80.34 13.5567 80.7488 13.1886C81.1575 12.8204 81.6905 12.6269 82.2365 12.6483C82.7824 12.6697 83.2991 12.9044 83.6787 13.3035C84.0582 13.7025 84.2712 14.235 84.2732 14.7897C84.2657 14.787 84.2581 14.7846 84.2504 14.7826L84.2474 14.7786ZM76.225 53.0638L76.851 47.9358C76.8525 47.9188 76.8525 47.9016 76.851 47.8845L78.5812 44.2768L77.5086 53.0628L76.225 53.0638ZM74.363 53.0638L76.0101 49.6311L75.5912 53.0638H74.363ZM78.9932 40.7053C79.0378 40.6048 80.5353 35.6668 83.4501 26.012L85.3468 24.3871L83.8978 45.5689L78.2445 41.3629C78.9457 40.8169 78.9744 40.7546 78.9942 40.7093L78.9932 40.7053ZM79.3696 42.9908L80.4511 43.7952L79.3815 53.0638H78.1395L79.3696 42.9908ZM81.0355 44.2306L82.2596 45.1405L81.3455 53.0638H80.0163L81.0355 44.2306ZM82.844 45.5759L83.985 46.4246C84.011 46.4436 84.0397 46.4586 84.0701 46.4688L83.3095 53.0638H81.9803L82.844 45.5759ZM84.9041 44.7393L86.2035 45.0038L85.2735 53.0638H83.9443L84.9041 44.7393ZM87.9397 47.2109L87.2375 53.0679H85.9093L86.8245 45.1345L87.7911 45.3356L87.9397 47.2109ZM87.8713 53.0679L88.1942 50.3752L88.4111 53.0679H87.8713ZM84.6307 44.0355L86.0173 23.816L86.2659 23.6028C86.5838 28.6414 87.5465 41.9893 87.7406 44.669L84.6307 44.0355ZM84.393 19.244L84.2375 16.9756L84.8149 19.4813L84.393 19.244ZM85.4666 13.7771C85.359 13.4259 85.1975 13.094 84.9882 12.7937C84.999 12.7963 85.0099 12.798 85.0209 12.7988L86.46 12.6711L86.8304 12.6379C86.4907 12.9204 86.0341 13.3015 85.4706 13.7771H85.4666ZM84.6971 12.3694C84.6956 12.3865 84.6956 12.4036 84.6971 12.4207C84.5833 12.2976 84.4611 12.1827 84.3316 12.0768C84.3242 12.067 84.3163 12.0576 84.3078 12.0487C84.2979 12.0427 84.2877 12.0373 84.2771 12.0326C84.0876 11.8825 83.8835 11.7525 83.668 11.6445C84.2464 11.2151 84.9031 10.7395 85.3864 10.3997C85.1933 10.9698 84.9229 11.746 84.7 12.3724L84.6971 12.3694ZM82.3537 11.3016C82.3389 11.2969 82.3236 11.2936 82.3082 11.2915C82.2983 11.2915 82.2894 11.2966 82.2795 11.2976C82.2379 11.2976 82.1972 11.2915 82.1556 11.2915C81.932 11.2921 81.7089 11.3133 81.4891 11.3549L82.2943 9.27049L83.0242 11.4052C82.8047 11.348 82.5801 11.3133 82.3537 11.3016ZM79.7311 12.2709C79.7311 12.2709 79.7311 12.2649 79.7311 12.2618L79.2567 10.459L80.8473 11.5439C80.4317 11.7092 80.0523 11.9562 79.7311 12.2709ZM78.8734 13.6364C78.4772 13.1879 78.0613 12.6932 77.9276 12.5303L77.8889 12.3895L79.3746 12.657C79.3795 12.657 79.3845 12.657 79.3904 12.657C79.1682 12.9533 78.9937 13.2835 78.8734 13.6353V13.6364ZM76.6687 26.6786L77.4046 25.9869C77.1521 26.9732 76.7282 28.6011 76.2161 30.5538L76.6687 26.6786ZM77.7215 41.7671L78.7268 42.5152L73.6648 53.0679H71.3631L73.3736 44.9927C75.5773 43.3779 76.9124 42.3835 77.7215 41.7671Z" fill="white"/>
</g>
</g>
<defs>
<clipPath id="clip0_4_3782">
<rect width="123" height="82" fill="white"/>
</clipPath>
</defs>
</svg>
